<?xml version="1.0" encoding="UTF-8"?>
<svg id="_レイヤー_1" data-name="レイヤー 1" xmlns="http://www.w3.org/2000/svg" version="1.1" viewBox="0 0 31 38">
  <defs>
    <style>
      .cls-1 {
        fill: #333;
        stroke: #333;
        stroke-width: .5px;
      }
    </style>
  </defs>
  <path class="cls-1" d="M10.1,28c-1.7,0-3.1,1.4-3.1,3.1s1.4,3.1,3.1,3.1,3.1-1.4,3.1-3.1-1.4-3.1-3.1-3.1ZM10.1,32.9c-.9,0-1.7-.8-1.7-1.7s.8-1.7,1.7-1.7,1.7.8,1.7,1.7-.8,1.7-1.7,1.7Z"/>
  <path class="cls-1" d="M23,28c-1.7,0-3.1,1.4-3.1,3.1s1.4,3.1,3.1,3.1,3.1-1.4,3.1-3.1-1.4-3.1-3.1-3.1ZM23,32.9c-.9,0-1.7-.8-1.7-1.7s.8-1.7,1.7-1.7,1.7.8,1.7,1.7-.8,1.7-1.7,1.7Z"/>
  <path class="cls-1" d="M30.2,8.7c-.1-.2-.3-.3-.5-.3l-22.1-.3-.6-1.9c-.4-1.3-1.6-2.1-2.9-2.2H1.7c-.4,0-.7.3-.7.7s.3.7.7.7h2.3c.7,0,1.4.5,1.6,1.2l4.3,13.3-.3.8c-.4,1-.3,2.1.3,3,.6.9,1.5,1.4,2.6,1.5h13.2c.4,0,.7-.3.7-.7s-.3-.7-.7-.7h-13.2c-.6,0-1.1-.3-1.4-.8-.3-.5-.4-1.1-.2-1.7l.3-.6,14.3-1.5c1.6-.2,2.9-1.3,3.2-2.9l1.6-7c0-.2,0-.4-.1-.6ZM27.3,15.9c-.2,1-1.1,1.8-2.1,1.8l-14.1,1.5-3.2-9.8,20.9.3-1.5,6.2Z"/>
</svg>