<?xml version="1.0" encoding="UTF-8"?>
<svg id="_レイヤー_1" data-name="レイヤー 1" xmlns="http://www.w3.org/2000/svg" version="1.1" xmlns:xlink="http://www.w3.org/1999/xlink" viewBox="0 0 100 100">
  <defs>
    <style>
      .cls-1 {
        fill: none;
      }

      .cls-1, .cls-2 {
        stroke-width: 0px;
      }

      .cls-3 {
        clip-path: url(#clippath);
      }

      .cls-2 {
        fill: #333;
      }
    </style>
    <clipPath id="clippath">
      <rect class="cls-1" width="96" height="100"/>
    </clipPath>
  </defs>
  <g class="cls-3">
    <g>
      <path class="cls-2" d="M79.7,87.7v9.6c0,.9-.7,1.6-1.6,1.6s-1.6-.7-1.6-1.6v-9.6c0-7.5-5.8-13.6-13-13.6-3.4,0-6.5-1.8-8.3-4.8-.5-.8-.3-1.8.5-2.2.7-.5,1.7-.3,2.2.5,0,0,0,0,0,0,1.2,2,3.3,3.3,5.6,3.3,8.9,0,16.1,7.5,16.2,16.8h0M53.6,75l-5.6,4.5-9.5-7.7c2.1-1.7,3.4-4.3,3.6-7,11.1,3.4,22.7-3.3,26-14.9.6-2,.8-4,.8-6.1v-11.5c0-.9-.7-1.5-1.6-1.5-1.4.2-2.8,0-4.1-.8-3-1.9-3-5.9-3-5.9,0-.9-.7-1.6-1.6-1.6-.3,0-.6.1-.9.3-6.6,4.9-14.2,8-22.2,9.2-.9.1-1.5,1-1.3,1.8.1.8.8,1.4,1.5,1.4,3.8-.5,7.5-1.5,11.1-2.8,3.7-1.4,7.3-3.2,10.6-5.5.8,4.1,4.2,7,8.2,7.2v9.8c0,10.2-7.9,18.6-17.7,18.6-9.8,0-17.8-8.2-17.8-18.5h0v-11.6c0-.9-.7-1.6-1.6-1.6s-1.6.7-1.6,1.6v11.5c0,8.4,4.6,16.1,11.9,19.7v.4c0,3.8-2.9,6.8-6.5,6.8h0c-2,0-3.9.4-5.8,1.1l-1-.8c-7.8-6.5-9.5-18-4-26.7,2.4-3.7,3.6-8.1,3.6-12.5v-8.8c0-10.3,8-18.7,18-18.8h9.4c9.9,0,18,8.4,18,18.8v8.8c0,4.4,1.2,8.8,3.6,12.5,4.4,6.8,4.3,15.7-.1,22.4-.5.7-.3,1.8.4,2.3.7.5,1.7.3,2.2-.4,0,0,0,0,0,0,5.2-7.8,5.2-18.2.2-26.1-2-3.2-3.1-6.9-3.1-10.7v-8.8c0-12.2-9.4-22-21.1-22h-9.4c-11.7,0-21.1,9.9-21.1,22v8.8c0,3.8-1.1,7.5-3.1,10.7-6.4,10-4.4,23.4,4.6,30.9-4.6,3.1-7.3,8.4-7.3,14.1v9.6c0,.9.7,1.6,1.6,1.6s1.6-.7,1.6-1.6v-9.6c0-7.5,5.8-13.6,13-13.6,1,0,2.1-.2,3-.5l11.5,9.3c.6.5,1.3.5,1.9,0l6.5-5.3c.7-.6.8-1.6.3-2.3-.5-.7-1.5-.8-2.2-.3,0,0,0,0,0,0h0Z"/>
      <path class="cls-2" d="M78.1,100c-1.4,0-2.6-1.2-2.6-2.7v-9.6c0-6.9-5.4-12.5-12-12.5h0c-3.7,0-7.2-2-9.1-5.3-.8-1.3-.4-2.9.8-3.7,1.2-.8,2.8-.4,3.6.8,0,0,0,0,0,0,1,1.7,2.8,2.8,4.7,2.8,9.5,0,17.2,8,17.2,17.9h0v9.7c0,1.5-1.2,2.7-2.6,2.7M63.5,73.1c7.8,0,14,6.6,14,14.6v9.6c0,.3.2.6.5.6.3,0,.6-.2.6-.5,0,0,0,0,0,0v-9.6c0-8.7-6.8-15.8-15.1-15.8h0c-2.6,0-5.1-1.4-6.5-3.8-.2-.3-.5-.3-.7-.2,0,0,0,0,0,0h0c-.3.2-.3.5-.2.8,0,0,0,0,0,0h0c1.6,2.7,4.4,4.3,7.4,4.3h0ZM17.9,100c-1.4,0-2.6-1.2-2.6-2.7v-9.6c0-5.6,2.5-10.8,6.7-14.2-8.6-8.1-10.2-21.4-3.8-31.4,1.9-3,2.9-6.5,2.9-10.1v-8.8c0-12.7,9.9-23.1,22.1-23.1h9.4c12.2,0,22.1,10.3,22.1,23.1v8.8c0,3.6,1,7.1,2.9,10.1,5.3,8.3,5.2,19.1-.2,27.2-.8,1.2-2.4,1.5-3.6.7-1.2-.8-1.5-2.5-.7-3.7,4.2-6.4,4.3-14.8.1-21.2-1.8-2.8-3-5.9-3.5-9.2v8.1c0,12.6-9.9,22.9-22,22.9-1.7,0-3.4-.2-5-.6-.4,2.1-1.4,4.1-2.9,5.6l7.9,6.4,4.2-3.4.7-.6c1.1-.9,2.8-.6,3.6.5.8,1.2.6,2.8-.4,3.7h0l-6.5,5.3c-.4.4-1,.6-1.6.6-.6,0-1.1-.2-1.6-.6l-11.1-9c-.9.3-1.9.4-2.8.4-6.6,0-12,5.6-12,12.5v9.6c0,1.5-1.2,2.7-2.6,2.7M43.3,2.1c-11.1,0-20.1,9.4-20.1,21v8.8c0,4-1.1,8-3.3,11.3-6.1,9.5-4.2,22.3,4.4,29.5l1.1.9-1.2.8c-4.3,2.9-6.9,7.9-6.9,13.2v9.6c0,.3.3.6.6.5.3,0,.5-.2.5-.5v-9.6c0-8.1,6.3-14.6,14-14.6.9,0,1.8-.2,2.7-.5l.5-.2,12,9.7c0,0,.2.1.3.1.1,0,.2,0,.3-.1h0s6.5-5.3,6.5-5.3c.2-.2.3-.6,0-.8h0c-.2-.2-.5-.3-.7-.1l-6.3,5.1-11.1-9,1-.8c1.9-1.5,3-3.8,3.2-6.3v-1.3c0,0,1.3.4,1.3.4,10.6,3.2,21.6-3.1,24.7-14.1.5-1.9.8-3.8.8-5.8v-11.5c0-.3-.3-.5-.5-.5h-.1c-.3,0-.6,0-.9,0-1.3,0-2.5-.3-3.6-1-3.4-2.1-3.4-6.6-3.4-6.8,0-.3-.2-.6-.6-.6-.1,0-.2,0-.3.1-3.3,2.5-7,4.5-10.8,6.1-3.8,1.6-7.8,2.7-11.9,3.3-.3,0-.5.3-.5.6,0,.3.3.5.5.5,3.7-.5,7.3-1.5,10.8-2.8,3.6-1.4,7.1-3.2,10.4-5.4l1.2-.8.4,1.4c.4,1.8,1.4,3.5,2.8,4.7,1.3,1.1,2.9,1.7,4.5,1.8h1v10.8c0,10.8-8.4,19.6-18.8,19.6-10.4,0-18.8-8.8-18.8-19.6h0v-11.5c0-.3-.2-.6-.5-.6-.3,0-.6.2-.6.5,0,0,0,0,0,0v11.5c0,8,4.4,15.3,11.4,18.7l.6.3v1.1c0,4.3-3.4,7.9-7.5,7.9h0c-1.8,0-3.7.4-5.4,1l-.5.2-1.5-1.2c-8.2-6.8-10-19-4.2-28.1,2.3-3.5,3.5-7.7,3.5-12v-8.8c0-10.9,8.5-19.8,19-19.8h9.4c10.5,0,19,8.9,19,19.8h0v8.8c0,4.2,1.2,8.4,3.4,11.9,4.6,7.2,4.5,16.5-.2,23.6-.2.3-.1.6.1.8.3.2.6.1.8-.1h0c4.9-7.5,5-17.3.2-24.9-2.1-3.3-3.3-7.3-3.3-11.3v-8.8c0-11.6-9-20.9-20.1-21h-9.4ZM26.1,35.5c-.5,3.4-1.7,6.7-3.5,9.6-5.2,8.2-3.6,19.1,3.8,25.3l.6.5c1.8-.6,3.7-1,5.6-1,3,0,5.4-2.4,5.5-5.5-7.3-3.9-11.9-11.8-11.9-20.3v-8.5ZM28.7,29.8c1.4,0,2.6,1.2,2.6,2.7v11.5c0,9.7,7.4,17.5,16.7,17.6s16.8-7.7,16.9-17.4c0,0,0-.2,0-.2v-8.8c-1.7-.3-3.4-1-4.7-2.1-1.4-1.2-2.4-2.7-3-4.4-3.1,1.9-6.3,3.6-9.7,4.9-3.7,1.4-7.5,2.4-11.4,2.9h0c-1.3,0-2.4-1-2.5-2.3h0c-.2-1.5.8-2.8,2.2-3,3.9-.6,7.7-1.6,11.4-3.1,3.7-1.5,7.1-3.5,10.3-5.9,1.2-.9,2.8-.6,3.6.7.3.5.5,1,.5,1.5,0,0,0,3.5,2.5,5,.8.5,1.6.7,2.5.7.2,0,.5,0,.7,0,.1,0,.2,0,.3,0h0c.9,0,1.8.6,2.3,1.4v-8.1c0-9.8-7.6-17.7-17-17.7h-9.4c-9.4,0-17,7.9-17,17.7v8.2c.4-.9,1.3-1.5,2.3-1.5"/>
    </g>
  </g>
</svg>