<svg xmlns="http://www.w3.org/2000/svg" width="100" height="100" viewBox="0 0 100 100"><defs><clipPath id="a"><path fill="#333" d="M-4897 2291h100v100h-100z"/></clipPath></defs><g clip-path="url(#a)" transform="translate(4897 -2291)"><path fill="#333" fill-rule="evenodd" d="M-4797 2333.77c0-22.222-22.222-40.741-49.735-40.741S-4897 2311.018-4897 2333.77c0 20.106 17.989 37.037 41.8 40.211 1.587.529 3.7 1.058 4.233 2.646a7.3 7.3 0 0 1 0 4.762s-.529 3.7-.529 4.233c0 1.587-1.058 4.762 4.233 2.646s28.571-16.931 39.153-29.1c7.935-8.467 11.11-16.404 11.11-25.398m-59.788-11.111h-3.7a1.14 1.14 0 0 0-1.058 1.058v21.693a1.14 1.14 0 0 0 1.058 1.058h3.7a1.14 1.14 0 0 0 1.058-1.058v-21.693a1.14 1.14 0 0 0-1.058-1.058m20.635 0h3.7a1.14 1.14 0 0 1 1.058 1.058v21.693a1.14 1.14 0 0 1-1.058 1.058h-3.7l-11.112-13.756v12.7a1.14 1.14 0 0 1-1.058 1.058h-3.177a1.14 1.14 0 0 1-1.058-1.058v-21.695a1.14 1.14 0 0 1 1.058-1.058h3.7l10.059 13.227v-12.169c.529-.529 1.058-1.058 1.588-1.058m-29.1 18.519h-9.525v-17.461a1.14 1.14 0 0 0-1.058-1.058h-3.7a1.14 1.14 0 0 0-1.064 1.058v21.693a.52.52 0 0 0 .529.529l.529.529h14.288a1.14 1.14 0 0 0 1.054-1.058v-3.175a1.14 1.14 0 0 0-1.054-1.058Zm52.91-13.757a1.14 1.14 0 0 1-1.057 1.058h-9.526v3.7h9.526a1.14 1.14 0 0 1 1.058 1.058v3.7a1.14 1.14 0 0 1-1.058 1.066h-9.526v3.7h9.526a1.14 1.14 0 0 1 1.058 1.058v3.7a1.14 1.14 0 0 1-1.058 1.068h-13.759a.52.52 0 0 1-.529-.529c-.529-1.058-.529-1.058-.529-1.587v-21.696a.52.52 0 0 1 .529-.529l.529-.529h13.759a1.14 1.14 0 0 1 1.058 1.058v3.7Z"/></g></svg>