<svg xmlns="http://www.w3.org/2000/svg" width="100" height="100" viewBox="0 0 100 100"><defs><clipPath id="a"><path fill="#333" d="M-5257 2291h100v100h-100z"/></clipPath></defs><g clip-path="url(#a)" transform="translate(5257 -2291)"><g fill="#333"><path d="M-5186.111 2390.992h-41.264a29.92 29.92 0 0 1-29.625-29.625v-40.735a29.92 29.92 0 0 1 29.625-29.625h41.264c15.871 0 29.1 13.226 29.1 29.625v41.264c.525 15.871-13.229 29.096-29.1 29.096m-41.264-90.463c-11.638 0-20.1 8.464-20.1 20.1v41.267c0 11.638 8.464 20.1 20.1 20.1h41.264c11.638 0 20.1-8.464 20.1-20.1v-41.264c0-11.638-8.464-20.1-20.1-20.1Z"/><path d="M-5173.943 2314.284a5.819 5.819 0 1 1-5.819-5.819 5.87 5.87 0 0 1 5.819 5.819m-32.8 52.902c-13.755 0-25.922-11.638-25.922-25.922 0-13.755 11.638-25.922 25.922-25.922a25.964 25.964 0 0 1 25.922 25.922c0 13.755-12.167 25.922-25.922 25.922m0-42.851a16.15 16.15 0 0 0-16.4 16.4c0 8.464 7.406 16.4 16.4 16.4a16.48 16.48 0 0 0 16.4-16.4 16.15 16.15 0 0 0-16.4-16.4"/></g></g></svg>