<?xml version="1.0" encoding="UTF-8"?>
<svg id="_レイヤー_1" data-name="レイヤー 1" xmlns="http://www.w3.org/2000/svg" version="1.1" xmlns:xlink="http://www.w3.org/1999/xlink" viewBox="0 0 100 100">
  <defs>
    <style>
      .cls-1 {
        fill: none;
      }

      .cls-1, .cls-2 {
        stroke-width: 0px;
      }

      .cls-3 {
        clip-path: url(#clippath);
      }

      .cls-2 {
        fill: #333;
      }
    </style>
    <clipPath id="clippath">
      <rect class="cls-1" width="100" height="100"/>
    </clipPath>
  </defs>
  <g class="cls-3">
    <g>
      <path class="cls-2" d="M77.4,65.4c-3.2-10.6-8-20.9-14.7-28.6v-3.1c5.1-1.3,8.6-5.9,8.5-11.2V3.7c0-1.3-1-2.5-2.4-2.5,0,0,0,0,0,0h-5.6c-1.3,0-2.4,1.1-2.4,2.5,0,0,0,0,0,0v7.7c-4.4,1.2-8.1,3.9-10.7,7.6-2.5-3.7-6.3-6.4-10.7-7.6V3.7c0-1.3-1-2.5-2.4-2.5,0,0,0,0,0,0h-5.6c-1.3,0-2.4,1.1-2.4,2.5,0,0,0,0,0,0v18.8c-.1,5.1,3.3,9.7,8.2,11.1v3.2c-6.7,7.7-11.5,18-14.7,28.6-3,10-4.6,20.5-4.8,30.9,0,1.3,1,2.5,2.4,2.5,0,0,0,0,0,0h59.5c1.3,0,2.4-1.1,2.4-2.5,0,0,0,0,0,0-.1-10.5-1.7-20.9-4.8-30.9M42.1,33.9h15.9v1.3h-15.9v-1.3ZM66.4,10.9h-.8v-4.7h.8v4.7ZM33.8,6.2h.8v4.7h-.8v-4.7ZM33.8,22.5v-6.6h1.2c.5,0,1.1,0,1.6.1h0c5.1.8,9.3,4.3,11.2,9.1.5,1.2,1.8,1.8,3,1.4.6-.2,1.1-.7,1.4-1.4l-1.1-.4,1.1.4c1.8-4.8,6.1-8.3,11.2-9.1h0c.5,0,1.1-.1,1.6-.1h1.2v6.6c.1,3.4-2.5,6.3-5.8,6.4h-20.9c-3.4-.2-6-3.1-5.8-6.4h0ZM72.4,65.8c2.9,9.1,4.5,18.5,4.9,28H22.7c.4-9.5,2-18.9,4.9-28,3-9.8,7.5-19,13.2-25.6h18.5c5.7,6.6,10.1,15.8,13.2,25.6"/>
      <path class="cls-2" d="M79.8,100H20.2c-1,0-1.9-.4-2.6-1.2-.6-.7-1-1.6-1-2.5,0-5,.4-10,1.2-15,.8-5.5,2-10.9,3.6-16.3,3.5-11.7,8.5-21.6,14.6-28.7v-1.8c-2.3-.8-4.3-2.3-5.7-4.2-1.7-2.3-2.5-5-2.5-7.8V3.7C27.8,1.7,29.4,0,31.4,0h5.7c2,0,3.6,1.7,3.6,3.7v6.8c3.7,1.2,7,3.4,9.5,6.5,2.5-3,5.8-5.3,9.5-6.5V3.7c0-2,1.6-3.7,3.6-3.7h5.6c2,0,3.6,1.7,3.6,3.7h0v18.8c0,2.9-.9,5.6-2.6,7.9-1.5,2-3.5,3.4-5.9,4.2v1.7c3.4,4,6.2,8.4,8.5,13.1,2.5,5,4.5,10.2,6.1,15.6,1.6,5.3,2.8,10.8,3.6,16.3.8,5,1.2,10,1.2,15,0,2-1.6,3.7-3.6,3.7h0ZM31.5,2.4c-.7,0-1.2.6-1.2,1.3v18.8c0,2.3.7,4.5,2.1,6.4,1.3,1.8,3.1,3,5.3,3.6l.9.2v4.5l-.3.3c-6,6.9-11,16.6-14.4,28.2-1.6,5.2-2.7,10.5-3.5,15.9-.7,4.9-1.1,9.8-1.2,14.7,0,.7.5,1.3,1.2,1.3h59.5c.7,0,1.2-.6,1.2-1.3h0c0-4.9-.4-9.8-1.2-14.7-.8-5.4-2-10.7-3.5-15.9-3.5-11.5-8.4-21.3-14.4-28.2l-.3-.3v-4.5l.9-.2c2.2-.5,4.1-1.8,5.4-3.5,1.4-1.9,2.2-4.1,2.1-6.5V3.7c0-.7-.5-1.3-1.2-1.3h-5.6c-.7,0-1.2.6-1.2,1.3v8.7l-.9.2c-4.1,1.1-7.6,3.6-10,7.1l-1,1.4-1-1.4c-2.4-3.5-5.9-6-10-7.1l-.9-.2V3.7c0-.7-.5-1.3-1.2-1.3h-5.6ZM78.6,95H21.5v-1.2c.4-9.6,2.1-19.2,5-28.4,3.3-10.7,8-19.7,13.4-26l.4-.4h19.6l.4.4c5.4,6.3,10,15.3,13.4,26,2.9,9.2,4.5,18.7,4.9,28.4v1.2ZM23.9,92.6h52.2c-.5-9-2.1-17.9-4.8-26.5-3.2-10.2-7.5-18.7-12.6-24.7h-17.4c-5.1,6-9.4,14.6-12.6,24.7-2.7,8.6-4.3,17.5-4.8,26.5M59.1,36.4h-18.3v-3.7h18.3v3.7ZM60.6,30.1h-20.9c-1.9,0-3.7-.8-5-2.2-1.3-1.5-2.1-3.4-2.1-5.4v-7.8h2.4c.6,0,1.2,0,1.8.1h.1c2.7.4,5.2,1.5,7.3,3.2,2.2,1.8,3.8,4,4.9,6.6h0c.2.6.9.9,1.5.7.3-.1.5-.3.6-.6l.5-1.2h0c1-2.1,2.5-4,4.4-5.5,2.1-1.7,4.6-2.8,7.3-3.2h.1c.6,0,1.2-.1,1.7-.1h2.4v7.8c0,4.2-3.2,7.6-7,7.6h0ZM50.6,27.7h10c1.2,0,2.4-.6,3.2-1.5.9-1,1.4-2.4,1.4-3.8v-5.4h0c-.5,0-1,0-1.5.1h0c-2.2.3-4.3,1.2-6.1,2.7-1.8,1.5-3.3,3.5-4.1,5.7l-.4,1.1h-.2c-.6.6-1.4,1-2.3,1.1M39.7,27.7h10c-1.3-.2-2.4-1-2.9-2.3-.9-2.2-2.3-4.2-4.1-5.7-1.7-1.4-3.8-2.3-6.1-2.7h0c-.5,0-1-.1-1.5-.1h0v5.4c0,1.4.5,2.7,1.4,3.8.8.9,2,1.5,3.2,1.5h0ZM67.6,12.1h-3.2v-7.1h3.2v7.1ZM35.9,12.1h-3.2v-7.1h3.2v7.1Z"/>
    </g>
  </g>
</svg>