<svg xmlns="http://www.w3.org/2000/svg" width="137" height="37" viewBox="0 0 137 37"><defs><clipPath id="a"><path fill="none" d="M19 19h137v37H19z"/></clipPath><clipPath id="b"><path fill="none" d="M0 0h135.271v34.99H0z"/></clipPath></defs><g clip-path="url(#a)" transform="translate(-19 -19)"><g fill="#333" clip-path="url(#b)" transform="translate(20 20)"><path d="M91.989 1.3a1.83 1.83 0 0 0 1.417.11c.275-.153.326.021.264.133l-1.563 3.809c-.1.27-.3.214-.3-.143a3.6 3.6 0 0 0-.085-.735c-.563-1.813-2.5-2.973-4.877-3.173a3.817 3.817 0 0 0-4.262 3.967c0 1.949 1.5 3.684 5.487 5.461 4.309 1.936 7.332 4.074 7.332 7.872a7.6 7.6 0 0 1-2.551 5.644 9.26 9.26 0 0 1-7.667 2.142 12.6 12.6 0 0 1-4.418-1.831 1.97 1.97 0 0 0-1.461-.3c-.3.127-.331-.043-.283-.144l2.137-3.789c.092-.186.305-.24.28.208a3 3 0 0 0 .006.751c.355 1.958 2.21 3.405 4.66 3.917a4.43 4.43 0 0 0 4.126-1.267 5.25 5.25 0 0 0 1.505-3.694c0-3.435-2.085-4.718-6.062-6.528-4.258-1.922-6.123-3.956-6.429-6.748a5.99 5.99 0 0 1 2.067-5.141c2.086-1.938 6.095-2.652 10.674-.526m39.867.005a1.83 1.83 0 0 0 1.417.11c.275-.153.326.021.264.133l-1.563 3.809c-.1.27-.3.214-.3-.143a3.6 3.6 0 0 0-.085-.735c-.562-1.813-2.5-2.973-4.876-3.173a3.817 3.817 0 0 0-4.262 3.967c0 1.949 1.5 3.684 5.487 5.461 4.308 1.936 7.331 4.074 7.331 7.872a7.6 7.6 0 0 1-2.551 5.644 9.26 9.26 0 0 1-7.666 2.142 12.6 12.6 0 0 1-4.418-1.831 1.97 1.97 0 0 0-1.461-.3c-.3.127-.331-.043-.284-.144l2.135-3.789c.092-.186.305-.24.28.208a3 3 0 0 0 .006.751c.355 1.958 2.209 3.405 4.659 3.917a4.43 4.43 0 0 0 4.126-1.267 5.25 5.25 0 0 0 1.5-3.694c0-3.435-2.084-4.718-6.061-6.528-4.258-1.922-6.122-3.956-6.429-6.748a5.99 5.99 0 0 1 2.066-5.141c2.086-1.938 6.095-2.652 10.673-.526M27.863 24.686a3.6 3.6 0 0 0 .308 1.567c.046.093.106.268-.226.268h-3.732c-.333 0-.273-.174-.227-.268a3.7 3.7 0 0 0 .3-1.567V9.427a3.14 3.14 0 0 0-.23-1.571c-.046-.093-.09-.267.19-.267h3.661c.28 0 .236.174.19.267a3.1 3.1 0 0 0-.236 1.571v.994c0 .089.054.135.114.075a3 3 0 0 1 .209-.267 9.4 9.4 0 0 1 1.408-1.308 6.45 6.45 0 0 1 4.06-1.446 5.93 5.93 0 0 1 6.291 6.126v11.085a3.65 3.65 0 0 0 .305 1.567c.046.093.106.268-.225.268H36.29c-.332 0-.272-.174-.225-.268a3.7 3.7 0 0 0 .3-1.567V15.34c0-4.291-1.4-6.042-3.843-6.042-2.83 0-4.665 2.146-4.665 6.754Zm76.708-22.535a2.15 2.15 0 1 0 2.15-2.152 2.15 2.15 0 0 0-2.15 2.15m3.934 22.536a3.65 3.65 0 0 0 .308 1.567c.047.093.107.268-.225.268h-3.733c-.332 0-.273-.174-.227-.268a3.7 3.7 0 0 0 .3-1.567V9.427a3.14 3.14 0 0 0-.231-1.571c-.047-.093-.089-.267.19-.267h3.659c.28 0 .237.174.191.267a3.07 3.07 0 0 0-.237 1.571ZM61.832 7.587c-.132 0-.163.124-.031.234.486.335 1.078.751.828 1.564l-4.941 12.249c-.06.13-.207.142-.26-.007L52.982 9.433a1.45 1.45 0 0 1 .243-1.612c.132-.109.1-.234-.031-.234h-4.847c-.21 0-.176.148-.077.221.418.314.6.693.916 1.689l6.166 16.734a1.74 1.74 0 0 1 .013 1.253l-2.16 5.412a3.34 3.34 0 0 1-1.867 1.86c-.147.066-.12.226.021.234h4.061c.133 0 .183-.142.032-.234a1.32 1.32 0 0 1-.444-1.655c.992-2.8 9.126-22.838 9.353-23.356a3.48 3.48 0 0 1 1.6-1.956c.1-.071.071-.2-.1-.2Zm-52.07 7.447c-.022-4.2-1.352-5.975-4.127-5.827a4.26 4.26 0 0 0-3.4 1.605 1.7 1.7 0 0 0-.189.3c-.028.08-.037.119-.1.068l-.769-.758c-.031-.044-.026-.069.055-.1a.9.9 0 0 0 .31-.2A12 12 0 0 1 2.9 8.853a6.68 6.68 0 0 1 4.152-1.362 6.036 6.036 0 0 1 6.293 6.109v8.376c0 1.5.252 2.827.991 2.827a.95.95 0 0 0 .551-.137.83.83 0 0 0 .32-.316c.036-.069.069-.07.114.014l.453.606c.024.031.036.066-.047.084a.75.75 0 0 0-.358.191 3.84 3.84 0 0 1-2.388 1.158 3.57 3.57 0 0 1-3.111-2.6c-.033-.094-.1-.1-.17-.006a8.5 8.5 0 0 1-6.009 2.759C1.412 26.561 0 25.322 0 23.322c0-3.155 3.643-5.222 9.645-8.106a.2.2 0 0 0 .116-.18m-.136 1.535c-.508.217-1.314.6-1.807.855-3.173 1.533-4.009 3.113-4.009 4.83a2.067 2.067 0 0 0 2.012 2.29A4.03 4.03 0 0 0 9.8 20.515v-3.821a.122.122 0 0 0-.183-.126"/></g></g></svg>