<svg xmlns="http://www.w3.org/2000/svg" width="148.683" height="40.949" viewBox="0 0 148.683 40.949">
  <g id="グループ_403" data-name="グループ 403" transform="translate(-991 -1640.051)">
    <rect id="長方形_77" data-name="長方形 77" width="148" height="3" transform="translate(991 1678)" fill="#c4e2eb"/>
    <path id="パス_1344" data-name="パス 1344" d="M3.232-14.727H1.62V10.6H3.232Zm14.444,1.512h6.55v-1.512H9.514v1.512h6.55V10.6h1.612Zm24.924,0v-1.512H30.508V10.6H42.6V9.089H32.12V-2.5H42.332V-4.011H32.12v-9.2ZM76.46,10.6H78L72.563-15.566,63.225,7.477l-9.3-23.043L48.479,10.6h1.545l4.333-20.96h.067l8.8,21.8,8.834-21.8h.067Zm33.322-25.663a13.169,13.169,0,0,0-13.134,13,13.191,13.191,0,0,0,13.134,13,13.191,13.191,0,0,0,13.134-13A13.191,13.191,0,0,0,109.781-15.063Zm0,1.512A11.621,11.621,0,0,1,121.3-2.063,11.643,11.643,0,0,1,109.781,9.425,11.6,11.6,0,0,1,98.26-2.063,11.6,11.6,0,0,1,109.781-13.551ZM143.17,4.286V-15.6h-.2L127.887,5.6v.2h13.671v4.8h1.612V5.8h3.561V4.286Zm-1.612,0H130.843v-.2L141.356-10.7h.2Z" transform="translate(992.952 1655.651)" fill="#fff"/>
  </g>
</svg>
