<svg xmlns="http://www.w3.org/2000/svg" width="150" height="40.268" viewBox="0 0 150 40.268">
  <g id="グループ_405" data-name="グループ 405" transform="translate(-512 -1899.732)">
    <rect id="長方形_77" data-name="長方形 77" width="150" height="3" transform="translate(512 1937)" fill="#cdebd0"/>
    <path id="パス_1346" data-name="パス 1346" d="M3.232-14.74H1.62V10.587H3.232Zm14.444,1.512h6.55V-14.74H9.514v1.512h6.55V10.587h1.612Zm24.924,0V-14.74H30.508V10.587H42.6V9.075H32.12V-2.513H42.332V-4.025H32.12v-9.2ZM76.46,10.587H78L72.563-15.58,63.225,7.463,53.92-15.58,48.479,10.587h1.545l4.333-20.96h.067l8.8,21.8,8.834-21.8h.067Zm33.322-25.663a13.169,13.169,0,0,0-13.134,13,13.191,13.191,0,0,0,13.134,13,13.191,13.191,0,0,0,13.134-13A13.191,13.191,0,0,0,109.781-15.076Zm0,1.512A11.621,11.621,0,0,1,121.3-2.077,11.643,11.643,0,0,1,109.781,9.411,11.6,11.6,0,0,1,98.26-2.077,11.6,11.6,0,0,1,109.781-13.565ZM138.9-15.076,130.742-3.487a9.048,9.048,0,0,0-1.847,5.576,8.874,8.874,0,0,0,8.969,8.834,8.707,8.707,0,0,0,6.517-2.754,9.174,9.174,0,0,0,2.519-6.08,8.925,8.925,0,0,0-8.834-8.9,8.566,8.566,0,0,0-3.359.672l-.067-.067,5.576-7.894ZM137.9,9.411a7.383,7.383,0,0,1-7.39-7.356A7.4,7.4,0,0,1,137.9-5.3a7.427,7.427,0,0,1,7.39,7.356A7.4,7.4,0,0,1,137.9,9.411Z" transform="translate(514.486 1915.312)" fill="#fff"/>
  </g>
</svg>
