<svg xmlns="http://www.w3.org/2000/svg" width="150.161" height="40.268" viewBox="0 0 150.161 40.268">
  <g id="グループ_406" data-name="グループ 406" transform="translate(-704 -1899.732)">
    <rect id="長方形_77" data-name="長方形 77" width="149" height="3" transform="translate(704 1937)" fill="#b9cce8"/>
    <path id="パス_1347" data-name="パス 1347" d="M3.232-14.74H1.62V10.587H3.232Zm14.444,1.512h6.55V-14.74H9.514v1.512h6.55V10.587h1.612Zm24.924,0V-14.74H30.508V10.587H42.6V9.075H32.12V-2.513H42.332V-4.025H32.12v-9.2ZM76.46,10.587H78L72.563-15.58,63.225,7.463,53.92-15.58,48.479,10.587h1.545l4.333-20.96h.067l8.8,21.8,8.834-21.8h.067Zm33.322-25.663a13.169,13.169,0,0,0-13.134,13,13.191,13.191,0,0,0,13.134,13,13.191,13.191,0,0,0,13.134-13A13.191,13.191,0,0,0,109.781-15.076Zm0,1.512A11.621,11.621,0,0,1,121.3-2.077,11.643,11.643,0,0,1,109.781,9.411,11.6,11.6,0,0,1,98.26-2.077,11.6,11.6,0,0,1,109.781-13.565Zm35.438.336L128.827,9.882l1.243.974,18.139-25.6H129.835v1.512Z" transform="translate(705.952 1915.312)" fill="#fff"/>
  </g>
</svg>
