<svg xmlns="http://www.w3.org/2000/svg" width="148" height="40.268" viewBox="0 0 148 40.268">
  <g id="グループ_407" data-name="グループ 407" transform="translate(-898 -1899.732)">
    <rect id="長方形_77" data-name="長方形 77" width="148" height="3" transform="translate(898 1937)" fill="#e5cada"/>
    <path id="パス_1348" data-name="パス 1348" d="M3.232-14.74H1.62V10.587H3.232Zm14.444,1.512h6.55V-14.74H9.514v1.512h6.55V10.587h1.612Zm24.924,0V-14.74H30.508V10.587H42.6V9.075H32.12V-2.513H42.332V-4.025H32.12v-9.2ZM76.46,10.587H78L72.563-15.58,63.225,7.463,53.92-15.58,48.479,10.587h1.545l4.333-20.96h.067l8.8,21.8,8.834-21.8h.067Zm33.322-25.663a13.169,13.169,0,0,0-13.134,13,13.191,13.191,0,0,0,13.134,13,13.191,13.191,0,0,0,13.134-13A13.191,13.191,0,0,0,109.781-15.076Zm0,1.512A11.621,11.621,0,0,1,121.3-2.077,11.643,11.643,0,0,1,109.781,9.411,11.6,11.6,0,0,1,98.26-2.077,11.6,11.6,0,0,1,109.781-13.565ZM137.9-1.808A5.714,5.714,0,0,1,143.64,3.8a5.746,5.746,0,0,1-11.488,0A5.692,5.692,0,0,1,137.9-1.808Zm0,12.731a7.1,7.1,0,0,0,7.356-6.953,6.866,6.866,0,0,0-4.132-6.584,6.507,6.507,0,0,0,3.561-5.778,6.6,6.6,0,0,0-6.785-6.685,6.6,6.6,0,0,0-6.785,6.685,6.507,6.507,0,0,0,3.561,5.778A6.866,6.866,0,0,0,130.54,3.97,7.1,7.1,0,0,0,137.9,10.923Zm0-24.487a5.212,5.212,0,0,1,5.173,5.139A5.161,5.161,0,0,1,137.9-3.319a5.14,5.14,0,0,1-5.173-5.106A5.19,5.19,0,0,1,137.9-13.565Z" transform="translate(898.418 1915.312)" fill="#fff"/>
  </g>
</svg>
