<svg xmlns="http://www.w3.org/2000/svg" width="328" height="124" viewBox="0 0 328 124">
  <g id="グループ_348" data-name="グループ 348" transform="translate(-0.348 0.283)">
    <g id="グループ_69" data-name="グループ 69" transform="translate(7.223 0.842)">
      <path id="パス_252" data-name="パス 252" d="M27.813,30.492a27.425,27.425,0,0,1-12.428-3.863A27.52,27.52,0,0,1,.84,30.391v-.269a35.346,35.346,0,0,0,12.832-4.7,13.174,13.174,0,0,1-3.325-3.863A26.441,26.441,0,0,1,.437,27.6v-.235c2.083-1.177,8.6-6.449,10.212-9.709H8.2a1.334,1.334,0,0,1-1.377,1.412c-.235,0-1.108-.1-1.108-.909a2.716,2.716,0,0,1,.034-.5c.168-1.745.168-3.794.168-5.709,0-4.637,0-5.208-.067-6.077A12.188,12.188,0,0,0,5.61,4.257L8.6,5.838h4.1a19.528,19.528,0,0,0,.638-2.825h-8.7a23.92,23.92,0,0,0-3.964.3L0,2.009c2.654.2,4.6.2,5.173.2H25.159L26.536.5c.2-.235.336-.437.537-.437s.369.134.6.369L29.56,2.143c.2.2.336.3.336.5,0,.368-.336.368-.5.368h-12.8c-.873.909-1.948,1.849-3.09,2.825h7.86L22.1,5.1c.2-.2.3-.336.47-.336a.989.989,0,0,1,.537.3l1.478,1.142a.586.586,0,0,1,.269.435c0,.2-.739.873-.873,1.043-.034.64-.1,1.547-.1,2.854,0,.942.269,5.511.269,6.552A1.522,1.522,0,0,1,22.573,18.7c-.941,0-.907-.537-.907-1.041h-8.7l.638.472c.2.134.3.233.3.47,0,.573-.739.573-1.176.537-.5.573-.773.841-1.243,1.312h7.289l.974-.841c.269-.233.369-.3.5-.3s.269.1.5.233l1.814,1.144a.7.7,0,0,1,.369.6c0,.4-.2.437-1.814.773a32.565,32.565,0,0,1-4.3,3.629c1.142.47,4.064,1.612,10.01,1.612,1.512,0,2.519-.067,3.292-.134v.2c-2.049,1.646-2.183,2.318-2.318,3.124M21.7,6.641H8.2V9.5H21.7Zm0,3.66H8.2v2.827H21.7Zm0,3.629H8.2v2.927H21.7ZM10.715,21.253a13.073,13.073,0,0,0,4.064,3.426,21.085,21.085,0,0,0,3.829-3.426Z" transform="translate(0 0.042)" fill="#2e2e2e"/>
      <path id="パス_253" data-name="パス 253" d="M20.48,20.78A53.43,53.43,0,0,0,30.357,10.6c2.551-3.458,4.029-6.147,4.029-7.323,0-.571-.336-1.008-1.108-1.478a1.819,1.819,0,0,1,1.075-.3c1.312,0,3.124,1.444,3.124,2.484,0,.506-.067.672-1.041,2.083a47.609,47.609,0,0,1-3.695,4.872c.976.47,1.513.872,1.713,1.376.168.336.168.336.168,1.849,0,.435,0,1.377-.034,2.686-.032,1.176-.032,1.948-.032,2.89,0,1.443.065,4.231.166,5.744.034.4.034.773.034,1.041,0,1.008-.4,1.644-1.04,1.644-.539,0-.942-.368-1.312-1.243a6.778,6.778,0,0,1-.537-2.519,8.94,8.94,0,0,1,.17-1.612,75.623,75.623,0,0,0,.5-7.657c0-2.084-.134-2.622-.8-2.991-.269.27-.472.472-.606.638a42.491,42.491,0,0,1-5.979,5.475,34.137,34.137,0,0,1-4.4,2.855Z" transform="translate(13.917 1.02)" fill="#2e2e2e"/>
      <path id="パス_254" data-name="パス 254" d="M36.772,14.884c.774,0,2.083-.941,5.007-3.527C44.3,9.108,44.633,8.9,45.573,8.9a3.346,3.346,0,0,1,2.183,1.008c6.283,4.971,8.3,6.25,13.739,8.634,1.31.6,1.58.773,1.915,1.208a1.558,1.558,0,0,1,.336,1.043A1.241,1.241,0,0,1,62.5,22.04c-2.047,0-7.558-3.628-13.4-8.836-3.057-2.721-3.057-2.721-3.527-2.721-.6,0-1.142.506-3.9,3.8-.269.368-.737.907-1.342,1.644-.3.336-.537.606-.673.773-.7.875-1.075,1.108-1.646,1.108A3.163,3.163,0,0,1,35.9,16.6a2.655,2.655,0,0,1-.84-1.849,1.957,1.957,0,0,1,.133-.705,2.609,2.609,0,0,0,1.579.84M52.459,5.848c3.426.673,5.576,1.984,5.576,3.462a1.006,1.006,0,0,1-.939,1.107c-.438,0-.741-.235-1.377-1.142a9.4,9.4,0,0,0-3.394-3.122Zm2.62-2.788c3.5.269,5.845,1.478,5.845,3.025a.966.966,0,0,1-.84,1.006c-.369,0-.537-.134-1.275-.974a11.175,11.175,0,0,0-3.865-2.753Z" transform="translate(23.825 2.079)" fill="#2e2e2e"/>
      <path id="パス_255" data-name="パス 255" d="M55.574,4.361C58.4,4.9,59.84,5.4,61.15,6.375A3.719,3.719,0,0,1,62.863,9.2c0,.939-.537,1.612-1.276,1.612-.537,0-.907-.3-1.411-1.177A11.367,11.367,0,0,0,55.44,4.662ZM76.6,5.535A40.188,40.188,0,0,1,66.122,18.57a48.941,48.941,0,0,1-5.475,4,6.491,6.491,0,0,1-.638.435,2.367,2.367,0,0,1-1.377.606c-.705,0-1.512-.64-2.217-1.747a3.65,3.65,0,0,1-.739-1.916,1.869,1.869,0,0,1,.2-.84,3.516,3.516,0,0,0,2.351,1.444c.907,0,2.586-.84,5.139-2.553a50.8,50.8,0,0,0,12.9-12.664Z" transform="translate(37.673 2.963)" fill="#2e2e2e"/>
      <path id="パス_256" data-name="パス 256" d="M75.107,1.42a4.02,4.02,0,0,1,2.251.873,1.307,1.307,0,0,1,.6,1.108,2.777,2.777,0,0,1-.235,1.075,31.52,31.52,0,0,0-.5,6.181c5.072.941,8.2,2.99,8.2,5.374,0,.907-.5,1.579-1.209,1.579-.5,0-.806-.269-1.377-1.176a13,13,0,0,0-5.61-5.106c0,5.542.067,10.682.2,13.167.067,1.209.067,1.411.067,1.948a2.337,2.337,0,0,1-.269,1.444.923.923,0,0,1-.739.4c-.47,0-.941-.437-1.31-1.209a5.125,5.125,0,0,1-.6-2.116,4.965,4.965,0,0,1,.2-1.344,20.668,20.668,0,0,0,.269-2.788c.134-4.266.2-8.028.2-14.041,0-2.385-.067-3.057-.269-3.527a2.257,2.257,0,0,0-1.512-1.075,2.112,2.112,0,0,1,1.646-.773" transform="translate(49.918 0.965)" fill="#2e2e2e"/>
      <path id="パス_257" data-name="パス 257" d="M86.543,4.64a4.131,4.131,0,0,0,2.687.84,9.379,9.379,0,0,0,3.561-.705,4.046,4.046,0,0,0,.134-1.041c0-1.11-.4-1.58-1.747-2.118a2,2,0,0,1,1.243-.334c1.411,0,2.452.638,2.452,1.51A5.173,5.173,0,0,1,94.6,4.168a8.347,8.347,0,0,1,2.251-.907.968.968,0,0,1,.974.941c0,.739-.974,1.345-4.1,2.452a36.6,36.6,0,0,1-3.359,6.518,5.884,5.884,0,0,1,2.754-.741c1.747,0,2.822.873,3.527,2.788a12.7,12.7,0,0,1,3.191-4.736,7.745,7.745,0,0,1,5.139-2.217c2.015,0,3.46,1.041,3.46,2.553,0,.941-.638,1.814-2.049,2.822a42.092,42.092,0,0,1-5.811,3.023c-2.015.907-2.284,1.041-3.023,1.412v.8c0,.1,0,.5.034,1.108v1.245a3.072,3.072,0,0,1-.235,1.51,1.052,1.052,0,0,1-.974.573c-.739,0-1.176-.539-1.176-1.446,0-.368.067-1.98.134-2.721-2.385,1.411-3.527,2.788-3.527,4.3,0,1.612,1.377,2.419,4.1,2.419a18.31,18.31,0,0,0,3.594-.4,3.558,3.558,0,0,1,1.31-.2c1.276,0,2.217.573,2.217,1.345,0,.536-.37.907-1.041,1.107a22.3,22.3,0,0,1-4.635.4c-4.535,0-6.987-1.443-6.987-4.064a5.2,5.2,0,0,1,2.049-3.9,19.436,19.436,0,0,1,2.956-1.947,6.238,6.238,0,0,0,.034-.773c0-2.823-.739-4.167-2.318-4.167a4.264,4.264,0,0,0-2.754,1.276,13.241,13.241,0,0,0-2.183,2.622c-.571.8-1.075,1.174-1.579,1.174A1.235,1.235,0,0,1,85.4,17a2.192,2.192,0,0,1,.672-1.443,8.106,8.106,0,0,1,1.31-1.11c1.31-1.008,3.628-4.6,4.837-7.422a6.194,6.194,0,0,1-1.78.269,4.714,4.714,0,0,1-4.1-2.487Zm14.074,10.68a22.654,22.654,0,0,0,4.6-3.8,2.285,2.285,0,0,0,.537-1.276c0-.637-.5-.974-1.478-.974a5.663,5.663,0,0,0-4.031,1.814,9.573,9.573,0,0,0-2.217,3.764,9.339,9.339,0,0,0-.437,2.282c.369-.235.369-.235,3.023-1.814" transform="translate(58.032 0.87)" fill="#2e2e2e"/>
      <path id="パス_258" data-name="パス 258" d="M131.422,29.5H105.966a21.9,21.9,0,0,0-3.965.336l-.638-1.34c1.982.17,4.031.2,5.509.2,0-1.847-.032-4.436-.066-6.218a12.4,12.4,0,0,0-.3-3.258l3.053,1.649h13.44l.941-.942a.981.981,0,0,1,.637-.371,1.051,1.051,0,0,1,.67.338l1.108.944a.841.841,0,0,1,.336.568c0,.334-.235.5-1.008,1.006-.034.974,0,5.411,0,6.285h1.881l1.243-1.614c.2-.267.336-.4.537-.4a1.161,1.161,0,0,1,.638.369l1.612,1.579a.882.882,0,0,1,.3.536c0,.233-.235.334-.47.334m-1.04-10.01a15.081,15.081,0,0,1-8.969-3.86,21.464,21.464,0,0,1-6.214,3.692l-.168-.168a24.778,24.778,0,0,0,5.206-4.7,16.779,16.779,0,0,1-3.863-8.233h-9.069c0,.5-.067,3.663-.067,3.965h4.971l.773-.873c.235-.235.369-.369.537-.369a1.063,1.063,0,0,1,.638.336l1.243,1.041a.706.706,0,0,1,.269.537c0,.3-.3.638-1.108.907-.638,4.973-1.31,7.086-4.971,7.825a3.832,3.832,0,0,0-1.915-3.121v-.3c.369.067,2.049.3,2.419.3.806,0,1.344-.369,1.747-2.015a21.7,21.7,0,0,0,.5-3.461h-5.139c-.1,2.586-.4,6.584-5.139,10.982l-.168-.168a22.913,22.913,0,0,0,3.09-12.259,32.616,32.616,0,0,0-.437-5.809l3.258,1.68h8.431a28.971,28.971,0,0,1-.4-3.189A15.935,15.935,0,0,0,115.4.081l2.889.741c.369.1.6.233.6.536s-.3.506-.705.741a17.4,17.4,0,0,0,.269,3.324h8.262l1.243-1.547c.2-.267.369-.4.537-.4a1.067,1.067,0,0,1,.638.369l1.713,1.512c.168.17.336.369.336.5,0,.267-.2.368-.5.368H118.594a15.132,15.132,0,0,0,2.988,6.518,15.79,15.79,0,0,0,2.756-5.779l2.281,1.377c.3.2.5.371.5.707,0,.369-.5.537-1.108.705a22.553,22.553,0,0,1-3.087,4.4c1.376,1.142,3.524,2.385,5.17,2.385A1.194,1.194,0,0,0,129.1,16.1a19.9,19.9,0,0,0,2.049-3.023h.235a34.382,34.382,0,0,0-.235,3.46c0,.6.034.638.47,1.142a1.1,1.1,0,0,1,.269.737c0,1.006-1.142,1.073-1.51,1.073m-18.07,2.183h-3.094V28.7h3.094Zm5.509,0H114.56V28.7h3.262ZM123.3,4.683c-.773,0-.976-.437-1.446-1.276A7.947,7.947,0,0,0,119.833.85L119.9.585c.941.067,4.7.333,4.7,2.754A1.337,1.337,0,0,1,123.3,4.683m.1,16.993h-3.329V28.7H123.4Z" transform="translate(68.878 0.055)" fill="#2e2e2e"/>
      <path id="パス_259" data-name="パス 259" d="M126.27,28.8c5.173-2.654,7.692-6.785,7.692-12.7a12.586,12.586,0,0,0-1.243-6.045,2.249,2.249,0,0,0-1.982-1.345c-1.108,0-2.15.875-3.124,2.586a8.971,8.971,0,0,0-1.041,4.234,9.246,9.246,0,0,0,.47,2.954,3.791,3.791,0,0,1,.1.741c0,.638-.336,1.04-.806,1.04-1.176,0-2.116-1.745-2.116-3.828,0-1.478.1-1.916,1.814-9.273a15.29,15.29,0,0,0,.672-3.8A2.7,2.7,0,0,0,125.5.987a2.994,2.994,0,0,1,.369-.067,3.4,3.4,0,0,1,1.713.84,2.526,2.526,0,0,1,.806,1.847c0,1.077-.034,1.278-1.31,6.785,1.377-1.814,2.553-2.551,4.031-2.551a4.259,4.259,0,0,1,3.258,1.779,9.7,9.7,0,0,1,2.083,6.483,12.414,12.414,0,0,1-5.341,10.715,15.658,15.658,0,0,1-4.669,2.353Z" transform="translate(84.411 0.625)" fill="#2e2e2e"/>
      <path id="パス_260" data-name="パス 260" d="M165.889,27.935H140.8a23.92,23.92,0,0,0-3.964.3l-.672-1.344c2.284.2,4.669.235,5.173.235h7.188c.034-6.283.067-20.895-.168-24.152a6.75,6.75,0,0,0-.47-2.318l3.764,1.108c.2.067.5.168.5.5,0,.2,0,.435-1.108,1.14,0,.84-.1,4.469-.1,5.242v3.223h6.347l1.48-1.948c.166-.233.368-.435.5-.435.166,0,.336.166.6.368l2.318,1.984c.168.134.336.267.336.5,0,.3-.269.336-.5.336H150.942v8.5c0,.4.032,4.335.032,5.947h10.077l1.58-1.982c.233-.269.336-.4.536-.4a1.221,1.221,0,0,1,.6.336l2.286,1.98c.2.168.334.3.334.5,0,.3-.267.371-.5.371" transform="translate(92.525 0.448)" fill="#2e2e2e"/>
      <path id="パス_261" data-name="パス 261" d="M163.193,16.09c-.5,1.51-.974,3.023-1.444,4.837a12.545,12.545,0,0,0-.673,3.762,5.114,5.114,0,0,0,.27,1.478,2.676,2.676,0,0,1,.2.941,1.022,1.022,0,0,1-.974,1.075c-.739,0-1.478-1.008-2.252-3.025a17.853,17.853,0,0,1-.939-5.977,41.313,41.313,0,0,1,1.144-8.465,15.83,15.83,0,0,0,.536-3.829,7.255,7.255,0,0,0-.672-3.191c.571.067,1.14.571,1.98,1.78a5.122,5.122,0,0,1,1.075,2.788c0,.773-.1,1.041-.872,2.889a20.372,20.372,0,0,0-1.782,7.793c0,1.713.4,3.46.84,3.46.2,0,.27-.1.84-1.377.069-.168.069-.168.6-1.411.2-.4,1.48-3.158,1.748-3.729ZM171.02,3.661a2.3,2.3,0,0,1,1.711-.6,4.819,4.819,0,0,1,2.385.6,1.194,1.194,0,0,1,.6,1.108,3.367,3.367,0,0,1-.134.907,22.544,22.544,0,0,0-.3,3.493,16.627,16.627,0,0,0,1.879-.739,3.071,3.071,0,0,1,1.009-.235c.905,0,1.545.47,1.545,1.108,0,.47-.27.773-.974,1.008a22.469,22.469,0,0,1-3.425.907c.03,1.142.03,1.881.1,3.292.1,1.847.134,2.519.134,3.426,0,6.181-2.452,10.111-7.558,12.227l-.269-.336a11.23,11.23,0,0,0,4.132-4.535c1.31-2.553,1.711-5.139,1.711-10.581,0-1.312,0-2.015-.065-3.124a16.411,16.411,0,0,1-2.721.3,5.367,5.367,0,0,1-4.436-2.015l.27-.3a3.932,3.932,0,0,0,2.654.84,16.59,16.59,0,0,0,4.2-.638c-.2-3.493-.235-4-.506-4.669-.267-.739-.8-1.075-1.947-1.344Zm5.91-1.444a9.545,9.545,0,0,1,4.1,2.15,2.36,2.36,0,0,1,.907,1.747.951.951,0,0,1-.873.941c-.438,0-.774-.269-1.209-1.041a10.7,10.7,0,0,0-3.09-3.493ZM179.484,0c3.292.6,5.238,1.814,5.238,3.225a.9.9,0,0,1-.8.939c-.336,0-.571-.2-1.142-.972A10.628,10.628,0,0,0,179.35.3Z" transform="translate(106.945 0)" fill="#2e2e2e"/>
      <path id="パス_262" data-name="パス 262" d="M182.679,11.264c4.064-5.208,5-6.517,5.072-7.19,0-.2-.2-.336-.5-.336-.907,0-2.519.84-4.266,2.251-.907.739-1.344.974-1.814.974a3.461,3.461,0,0,1-2.116-1.209,2.816,2.816,0,0,1-.6-1.577,1.311,1.311,0,0,1,.1-.47,1.825,1.825,0,0,0,1.612.872c.739,0,1.376-.2,3.895-1.241,2.151-.875,2.79-1.077,3.562-1.077a3.507,3.507,0,0,1,2.654,1.446,1.8,1.8,0,0,1,.537,1.176c0,.435-.2.638-1.176,1.275a14.082,14.082,0,0,0-2.924,2.723,58.321,58.321,0,0,0-5.742,6.884c2.383-1.711,4.165-2.385,6.381-2.385,4.167,0,7.123,2.687,7.123,6.449,0,4.3-3.661,7.423-8.668,7.423-2.853,0-4.735-1.209-4.735-3.055,0-1.545,1.308-2.622,3.157-2.622,2.116,0,3.594,1.108,4.434,3.359a4.979,4.979,0,0,0,2.115-1.612,6.438,6.438,0,0,0,1.245-3.829,4.8,4.8,0,0,0-5.039-5.106,8.451,8.451,0,0,0-5.744,2.419,7.931,7.931,0,0,0-2.419,3.561c-.506,1.379-.873,1.747-1.612,1.747-.672,0-1.142-.6-1.142-1.512a4.237,4.237,0,0,1,1.243-2.551ZM186.744,25.5c0-.134,0-.134-.3-.941a2.72,2.72,0,0,0-1.31-1.543,2.927,2.927,0,0,0-1.411-.369c-1.041,0-1.713.571-1.713,1.376,0,1.041,1.275,1.747,3.157,1.747a6.322,6.322,0,0,0,1.544-.2.1.1,0,0,0,.035-.067" transform="translate(119.638 1.536)" fill="#2e2e2e"/>
    </g>
    <rect id="長方形_57" data-name="長方形 57" width="328" height="124" transform="translate(0.348 -0.283)" fill="none"/>
    <path id="パス_263" data-name="パス 263" d="M.327,17.385S68.5-6.205,81.612,9.209s-31.487,19.5-22.756,14.052C66.967,18.2,145.154-12.324,310.3,7.78" transform="translate(9.415 95.005)" fill="none" stroke="#fdd3d7" stroke-linecap="round" stroke-miterlimit="10" stroke-width="2"/>
    <path id="パス_1388" data-name="パス 1388" d="M-72.593,24.163c7.39,0,15.452-6.449,17.8-15.788C-52.841.65-57.074-3.65-61.575-6.874l-.269-.2.336-.134c5.039-2.822,10.615-5.912,12.227-12.428C-47.333-27.566-52.909-32-58.753-32c-6.382,0-14.31,5.509-16.325,13.839-1.747,6.987,1.814,11.421,6.113,13.839l.269.2-.336.134c-5.71,2.553-11.824,6.718-13.638,14.041C-84.887,18.856-79.243,24.163-72.593,24.163Zm4.77-27.611c4.165,2.687,10.01,6.651,8.129,14.175-1.612,6.651-6.449,12.428-12.563,12.428-6.651,0-8.263-6.449-6.584-13.167A20.169,20.169,0,0,1-67.823-3.448Zm8.734-27.208c5.643,0,7.793,4.77,6.248,10.883-1.276,5.374-4.367,9-9.338,12.093A23.61,23.61,0,0,1-69.3-13.189c-1.545-1.948-2.015-4.367-1.209-7.591C-68.965-26.827-64.262-30.656-59.089-30.656Zm32,53.1c4.031,0,7.524-1.935,10.426-6.127h-.43c-2.633,3.655-5.7,5.213-8.922,5.213-6.664,0-6.4-8.975-4.783-15.586C-29.18-.506-25.418-9.911-18.539-9.911c2.526,0,3.063,1.827,3.386,3.493.322,1.29.376,2.956,1.827,2.956a2.014,2.014,0,0,0,2.2-1.72c1.021-4.031-5.052-5.052-7.417-5.052C-26.6-10.233-32.19-2.924-34.5,6.427-36.6,14.865-34.34,22.443-27.084,22.443Zm23.594,0c7.524,0,13.7-7.309,15.908-16.285,2.311-9.137-.537-16.392-8.062-16.392-7.632,0-13.7,7.309-15.908,16.338C-13.809,15.08-11.068,22.443-3.49,22.443ZM4.3-9.75c6.718,0,6.234,9.405,4.568,15.908C7.259,12.608,3.335,22.013-3.383,22.013c-6.772,0-6.288-9.405-4.622-15.908C-6.446-.291-2.469-9.75,4.3-9.75ZM23.812,22.443c7.524,0,13.7-7.309,15.908-16.285,2.311-9.137-.537-16.392-8.062-16.392-7.632,0-13.7,7.309-15.908,16.338C13.493,15.08,16.234,22.443,23.812,22.443ZM31.605-9.75c6.718,0,6.234,9.405,4.568,15.908-1.612,6.449-5.536,15.855-12.254,15.855-6.772,0-6.288-9.405-4.622-15.908C20.856-.291,24.833-9.75,31.605-9.75ZM47.89-7.277c.269,2.9-1.5,9.244-3.762,18.112-.537,2.257-1.774,7.363-3.063,9.244a4,4,0,0,1-2.419,1.666h8.707a2.083,2.083,0,0,1-1.559-1.612c-.269-1.559.914-6.449,1.4-8.384.967-3.6,4.407-19.079,9.137-19.187,3.493-.054,2.58,2.419,4.085,2.633a2.275,2.275,0,0,0,2.633-2.419A2.677,2.677,0,0,0,60.52-9.965c-4.3-.43-7.686,3.278-9.835,8.062l1.989-8.33a61.248,61.248,0,0,0-7.2.537A3.428,3.428,0,0,1,47.89-7.277ZM81.8,7.18l-.591,2.526c-.484,2.1-2.311,8.169-1.612,10.212.806,2.472,5.751,3.977,9.405-6.181h-.591c-1.075,2.9-3.762,7.686-5.16,6.127-1.5-1.559.591-7.524,1.075-9.567l.752-2.9Zm3.278.215c.322-1.129.591-2.257.914-3.493l7.954-31.226H86.962a2.758,2.758,0,0,1,2.419,2.9c0,2.472-4.783,21.229-6.718,28.431L81.8,7.18ZM61.595,6.159c-2.2,8.975.537,15.8,6.181,16.123C76.267,22.82,82.716,8.04,82.931,8.04l.054-1.612C81.426,9.115,75.461,21.207,68.8,21.476c-5.751.215-5.213-8.868-3.6-15.317,1.666-6.5,5.912-15.64,12.738-15.64,3.655,0,7.2,3.87,7.632,7.094l.376-1.451c-.537-3.01-4.246-6.4-7.847-6.4C70.57-10.233,63.906-2.978,61.595,6.159Zm38.535-26.5c-.376,1.612.269,2.956,1.72,2.956a3.8,3.8,0,0,0,3.278-2.956c.376-1.5-.376-2.848-1.774-2.848A3.7,3.7,0,0,0,100.13-20.337ZM94.7,7.18,94.11,9.706c-.537,2.1-2.472,8.223-1.666,10.212,1.021,2.472,5.8,3.977,9.405-6.181h-.591c-1.075,2.9-3.708,7.686-5.159,6.127s.591-7.524,1.129-9.567l.752-2.9Zm3.278.215c.269-1.129.537-2.257.86-3.493L102.6-9.7H95.615c1.236.322,1.612,1.612,2.1,2.956.269,2.472-.215,3.547-2.15,10.749L94.7,7.18ZM111.094-7.277c.269,2.9-1.5,9.244-3.762,18.112-.537,2.257-1.774,7.363-3.01,9.244a4.322,4.322,0,0,1-2.419,1.666h8.653A2.162,2.162,0,0,1,109,20.132c-.269-1.559.914-6.449,1.4-8.384L112.813,2.4l3.063-12.63a63.076,63.076,0,0,0-7.256.537A3.406,3.406,0,0,1,111.094-7.277Zm1.182,9.083c1.774-3.063,6.181-9.19,11.125-10.48,5.8-1.559,6.019,5.321,4.622,11.018l-1.881,7.9c-.537,2.1-2.365,8.169-1.666,10.212.86,2.472,5.8,3.977,9.405-6.181h-.591c-1.075,2.9-3.708,7.685-5.16,6.127s.591-7.524,1.129-9.567l2.365-9.459a16.871,16.871,0,0,0,.591-5.213l-.107-.914c-.43-3.547-4.085-6.288-8.814-4.783-4.945,1.559-9.244,7.148-10.7,9.943ZM135.44,14.6c-1.021,4.085.054,7.148,4.085,7.148a14.451,14.451,0,0,0,4.568-.914,29.169,29.169,0,0,0,8.814-5.589c-.43,1.881-.645,3.762-.269,4.676a2.9,2.9,0,0,0,2.687,1.827c1.935,0,4.568-1.881,6.718-8.008h-.591c-.914,2.58-3.01,6.449-4.515,6.449a.929.929,0,0,1-.645-.322c-1.451-1.559.537-7.578,1.129-9.567L160,.193c.7-2.956.806-5.7-.376-7.793a6.321,6.321,0,0,0-5.536-2.633c-4.138,0-11.286,2.2-12.254,6.4-.376,1.344-.107,1.989,1.129,1.989,3.225,0,3.923-7.094,10.48-7.739,5.267-.591,4.353,5.321,3.225,9.728C148.984,7.556,137.59,6.32,135.44,14.6Zm17.682-.376c-2.15,2.257-7.9,5.589-11.394,5.589-2.257,0-3.708-1.344-2.687-5.213,1.935-7.793,11.448-7.256,17.467-13.49l-2.2,8.6C153.982,10.62,153.552,12.339,153.122,14.22ZM166.074-9.75l-.161.645h5L164.57,16.424c-.806,3.171-.645,6.019,1.989,6.019,1.827,0,4.568.054,8.492-5.966l-.322-.43c-.967,2.257-3.923,4.622-5.7,4.622-1.236,0-1.935-1.075-1.236-3.923L174.244-9.1h7.2l.269-1.021h-7.2l2.58-10.48h-.752C174.674-15.393,173.008-10.018,166.074-9.75Zm23,32.193c4.3,0,11.018-2.795,14.672-9.728H203.1c-3.332,5.858-9.352,8.814-13.006,8.814-6.611,0-7.417-5.536-6.4-11.878,9.3-.7,18.219-1.344,21.337-6.664,3.01-5.267.86-13.221-8.492-13.221-8.169,0-14.027,8.169-16.123,16.715C178.275,15.027,181.23,22.443,189.077,22.443ZM184.509,5.729l.215-.645c1.72-5.159,6.019-14.672,11.931-14.672,6.073,0,9.137,10.1,2.042,14.672-4.246,2.687-9.782,3.117-14.834,3.655C184.025,7.771,184.294,6.75,184.509,5.729Z" transform="translate(103.819 78.19)" fill="#2e2e2e"/>
  </g>
</svg>
