<svg xmlns="http://www.w3.org/2000/svg" width="148" height="43.561" viewBox="0 0 148 43.561">
  <g id="グループ_401" data-name="グループ 401" transform="translate(-611 -1637.439)">
    <rect id="長方形_77" data-name="長方形 77" width="148" height="3" transform="translate(611 1678)" fill="#c9e8e2"/>
    <path id="パス_1342" data-name="パス 1342" d="M3.232-14.74H1.62V10.587H3.232Zm14.444,1.512h6.55V-14.74H9.514v1.512h6.55V10.587h1.612Zm24.924,0V-14.74H30.508V10.587H42.6V9.075H32.12V-2.513H42.332V-4.025H32.12v-9.2ZM76.46,10.587H78L72.563-15.58,63.225,7.463,53.92-15.58,48.479,10.587h1.545l4.333-20.96h.067l8.8,21.8,8.834-21.8h.067Zm33.322-25.663a13.169,13.169,0,0,0-13.134,13,13.191,13.191,0,0,0,13.134,13,13.191,13.191,0,0,0,13.134-13A13.191,13.191,0,0,0,109.781-15.076Zm0,1.512A11.621,11.621,0,0,1,121.3-2.077,11.643,11.643,0,0,1,109.781,9.411,11.6,11.6,0,0,1,98.26-2.077,11.6,11.6,0,0,1,109.781-13.565ZM133.4,9.075l7.356-8.2c2.183-2.385,4.77-5.139,4.77-8.532a7.421,7.421,0,0,0-7.591-7.423,8.41,8.41,0,0,0-6.013,2.687,7.147,7.147,0,0,0-1.579,4.8h1.612a5.732,5.732,0,0,1,5.979-5.979,5.872,5.872,0,0,1,5.979,5.811c0,2.956-2.754,5.845-4.669,7.961L129.8,10.587h15.62V9.075Z" transform="translate(611.418 1653.018)" fill="#fff"/>
  </g>
</svg>
