<svg xmlns="http://www.w3.org/2000/svg" width="148" height="40.915" viewBox="0 0 148 40.915">
  <g id="グループ_402" data-name="グループ 402" transform="translate(-799 -1640.085)">
    <rect id="長方形_77" data-name="長方形 77" width="148" height="3" transform="translate(799 1678)" fill="#f2cacc"/>
    <path id="パス_1343" data-name="パス 1343" d="M3.232-14.74H1.62V10.587H3.232Zm14.444,1.512h6.55V-14.74H9.514v1.512h6.55V10.587h1.612Zm24.924,0V-14.74H30.508V10.587H42.6V9.075H32.12V-2.513H42.332V-4.025H32.12v-9.2ZM76.46,10.587H78L72.563-15.58,63.225,7.463,53.92-15.58,48.479,10.587h1.545l4.333-20.96h.067l8.8,21.8,8.834-21.8h.067Zm33.322-25.663a13.169,13.169,0,0,0-13.134,13,13.191,13.191,0,0,0,13.134,13,13.191,13.191,0,0,0,13.134-13A13.191,13.191,0,0,0,109.781-15.076Zm0,1.512A11.621,11.621,0,0,1,121.3-2.077,11.643,11.643,0,0,1,109.781,9.411,11.6,11.6,0,0,1,98.26-2.077,11.6,11.6,0,0,1,109.781-13.565ZM137.628-1.841c3.157,0,5.744,2.116,5.744,5.408a5.915,5.915,0,0,1-5.845,5.845,5.215,5.215,0,0,1-5.374-5.039H130.54c-.034,3.9,3.225,6.55,7.02,6.55a7.308,7.308,0,0,0,7.423-7.457,6.588,6.588,0,0,0-4.165-6.147,6.328,6.328,0,0,0,3.8-5.878,6.516,6.516,0,0,0-6.584-6.517c-3.93,0-6.281,2.486-6.55,6.315h1.612c.168-2.889,1.982-4.8,4.9-4.8a4.982,4.982,0,0,1,5,4.938,5.242,5.242,0,0,1-5.374,5.274Z" transform="translate(801.486 1655.665)" fill="#fff"/>
  </g>
</svg>
