<svg xmlns="http://www.w3.org/2000/svg" width="148" height="39.915" viewBox="0 0 148 39.915">
  <g id="グループ_404" data-name="グループ 404" transform="translate(-324 -1900.085)">
    <rect id="長方形_77" data-name="長方形 77" width="148" height="3" transform="translate(324 1937)" fill="#d4cce0"/>
    <path id="パス_1345" data-name="パス 1345" d="M3.232-14.74H1.62V10.587H3.232Zm14.444,1.512h6.55V-14.74H9.514v1.512h6.55V10.587h1.612Zm24.924,0V-14.74H30.508V10.587H42.6V9.075H32.12V-2.513H42.332V-4.025H32.12v-9.2ZM76.46,10.587H78L72.563-15.58,63.225,7.463,53.92-15.58,48.479,10.587h1.545l4.333-20.96h.067l8.8,21.8,8.834-21.8h.067Zm33.322-25.663a13.169,13.169,0,0,0-13.134,13,13.191,13.191,0,0,0,13.134,13,13.191,13.191,0,0,0,13.134-13A13.191,13.191,0,0,0,109.781-15.076Zm0,1.512A11.621,11.621,0,0,1,121.3-2.077,11.643,11.643,0,0,1,109.781,9.411,11.6,11.6,0,0,1,98.26-2.077,11.6,11.6,0,0,1,109.781-13.565Zm35.539.336V-14.74h-9.64L132.388-3.991a7.121,7.121,0,0,1,3.863-1.142,7.221,7.221,0,0,1,7.39,7.088,7.324,7.324,0,0,1-7.491,7.457A7.43,7.43,0,0,1,130.1,6.119l-1.478.6a8.777,8.777,0,0,0,7.491,4.2,8.853,8.853,0,0,0,9.137-8.935,8.517,8.517,0,0,0-8.6-8.633,6.28,6.28,0,0,0-1.915.269l2.116-6.852Z" transform="translate(324.418 1915.665)" fill="#fff"/>
  </g>
</svg>
