<svg xmlns="http://www.w3.org/2000/svg" xmlns:xlink="http://www.w3.org/1999/xlink" width="387" height="278" viewBox="0 0 387 278">
  <defs>
    <clipPath id="clip-path">
      <rect id="長方形_159" data-name="長方形 159" width="387" height="278" transform="translate(0.337 -0.304)" fill="#fff" stroke="#707070" stroke-width="1"/>
    </clipPath>
  </defs>
  <g id="マスクグループ_13" data-name="マスクグループ 13" transform="translate(-0.337 0.304)" clip-path="url(#clip-path)">
    <g id="グループ_448" data-name="グループ 448">
      <path id="パス_1337" data-name="パス 1337" d="M15.068,35.432c2.318-1.209.5-4.535-2.217-1.612-2.116,2.318-13.3,8.162-9.271-.1C4.89,31.5,6.3,29.487,7.611,27.37c2.116-2.822-1.108-4.635-2.419-2.922C3.479,26.766,2.371,29.99.859,32.409a5.462,5.462,0,0,0-.806,3.325,3.131,3.131,0,0,0,2.519,3.729,11.522,11.522,0,0,0,3.225,0A38.018,38.018,0,0,0,15.068,35.432ZM12.65,16.386a3.644,3.644,0,0,0-3.628,3.426c-.5,2.519.2,2.62,2.116,1.512A7.563,7.563,0,0,0,14.161,18.1,1.394,1.394,0,0,0,12.65,16.386ZM32.3,39.866c-2.721,1.108-2.822-.1-1.915-2.62.907-2.015,2.419-3.729,2.116-5.845-.4-4.434-4.535-3.124-7.356-1.713a50.023,50.023,0,0,0-9.674,6.349c-3.325,2.822,1.31-2.015,2.015-3.023,1.008-1.31,1.814-2.822,2.721-4.232,1.008-1.612,1.209-2.519.6-2.922-.6-.6-1.512,0-2.519,1.31a4.764,4.764,0,0,1-.705,1.209c-1.209,1.814-2.419,3.628-3.729,5.341-1.008,1.612-2.015,3.225-3.124,4.837a1.46,1.46,0,0,0,0,2.116c.806.806,1.612.3,2.217,0a3.356,3.356,0,0,0,1.108-.907c2.116-1.512,4.031-3.023,6.046-4.434,2.116-1.31,4.434-2.62,6.651-3.829,4.232-1.411,3.124.806,1.915,3.729-.3,1.209-.907,2.116-1.209,3.426-.3,1.713.2,2.822,1.411,3.426a5.377,5.377,0,0,0,4.132-.2c4.232-1.713,8.566-3.527,12.7-5.442,3.93-1.814,2.922-4.434-1.31-2.519C40.866,35.734,35.827,38.556,32.3,39.866Zm63.184-1.008a.5.5,0,0,0,.1-.3,7.071,7.071,0,0,0-.907-.6,20.078,20.078,0,0,0-8.364-2.419,21.831,21.831,0,0,0-10.48,1.209C70.089,39.06,68.578,44.1,72,49.137a25.755,25.755,0,0,0,6.349,6.449,45.252,45.252,0,0,0,29.123,8.969,23.553,23.553,0,0,0,10.783-2.519c4.132-2.318,6.248-5.744,5.845-10.581a14.376,14.376,0,0,0-.806-3.93,37.254,37.254,0,0,0-5.039-10.48c-2.217-3.527-4.434-6.852-6.55-10.279a23.382,23.382,0,0,1-3.225-7.659,8.942,8.942,0,0,1,3.023-9.573,17.458,17.458,0,0,1,3.124-2.217,39.92,39.92,0,0,1,18.542-5.039,17.534,17.534,0,0,1,4.535.6c2.519.4,3.729,2.217,3.829,4.635a7.969,7.969,0,0,1-1.209,5.24,49.992,49.992,0,0,1-4.736,6.651c-2.62,2.922-5.542,5.744-8.364,8.566-.2.3-.806.6-.5,1.31a4.089,4.089,0,0,0,2.922-1.612c2.922-2.62,5.946-5.542,8.666-8.465a27.788,27.788,0,0,0,3.93-5.139,11.388,11.388,0,0,0,1.713-6.953A6.685,6.685,0,0,0,138.916.666a10.157,10.157,0,0,0-3.829-.6,41.256,41.256,0,0,0-19.65,4.031,21.23,21.23,0,0,0-6.349,4.434,11.248,11.248,0,0,0-3.023,11.085c1.008,4.635,3.628,8.666,6.147,12.6,2.116,3.527,4.333,6.852,6.449,10.279a19.564,19.564,0,0,1,2.721,7.457c.705,4.434-.2,7.759-5.24,10.178-.1.1-.2.1-.4.1a20.605,20.605,0,0,1-7.659,1.713,41.941,41.941,0,0,1-19.55-3.527,40.594,40.594,0,0,1-12.5-8.364,11.347,11.347,0,0,1-2.922-4.434,4.223,4.223,0,0,1,1.814-5.442,11.927,11.927,0,0,1,5.442-2.015,59.026,59.026,0,0,1,8.465.2C91.05,38.556,93.267,38.657,95.484,38.858Zm69.23-4.635c2.217-2.721-1.814-.907-3.124-.5-2.822.907-7.256,2.822-5.946-2.217.3-.806.6-1.713.907-2.62.4-.806.3-1.612-.5-1.915a1.924,1.924,0,0,0-1.814,0c-.705.2-1.109.907-1.612,1.209-2.318,1.915-4.635,3.729-6.953,5.542-.4.2-.806.2-1.612.6.5-.806.806-1.31,1.008-1.713a28.833,28.833,0,0,0,2.217-3.023,1.428,1.428,0,0,0,0-2.015c-.6-.4-1.31-.1-1.915.4a22.105,22.105,0,0,0-4.031,5.946,5.119,5.119,0,0,0-.3,1.713,1.809,1.809,0,0,0,2.015,2.015,4.587,4.587,0,0,0,2.015-.5,31.454,31.454,0,0,0,4.333-2.721c1.008-.6,1.814-1.31,2.822-2.015a5.113,5.113,0,0,1,.2.907C152.117,39.161,160.683,37.649,164.714,34.223Zm13.806-2.015c-.1-.4-.2-.907-.3-1.31-.806-2.318-2.419-3.124-4.635-2.217a15.033,15.033,0,0,0-2.418,1.411c-1.209.806-3.527,3.729-4.635,4.434.1-1.209,1.814-4.232,2.318-5.24.2-.6.5-1.209.705-1.915a1.481,1.481,0,0,0-.705-1.209c-.4-.2-1.008.1-1.411.4a2.3,2.3,0,0,0-.6,1.209c-1.713,3.124-3.225,6.046-4.736,9.069a3.77,3.77,0,0,0-.705,1.612,1.357,1.357,0,0,0,1.915,1.612,12.473,12.473,0,0,0,1.814-1.411c2.62-2.116,5.442-5.542,8.062-7.558,2.419-1.713,1.713-.5,2.62,1.713.705,2.116,2.015,2.922,4.132,2.318a8.66,8.66,0,0,0,3.023-1.209c2.721-1.512,6.046-3.93,8.767-5.442,2.721-1.814,2.318-.3,2.318,2.519,0,.806-.1,1.411-.1,2.217.1,3.527,1.915,5.24,5.542,4.837a21,21,0,0,0,8.062-2.922c1.612-.6,1.814-1.713,1.411-2.318-.3-.5-.907-.6-2.519-.1a59.943,59.943,0,0,1-5.946,2.217c-2.62.806-4.031.1-3.729-2.922a9.806,9.806,0,0,0-.1-3.829c-.3-2.015-1.713-2.822-3.628-2.419a12.328,12.328,0,0,0-3.628,1.411c-2.822,1.411-5.442,3.023-8.263,4.635C180.333,32.207,179.527,32.711,178.519,32.207Zm43.231,0c-.1-.4-.2-.907-.3-1.31-.806-2.318-2.419-3.124-4.635-2.217a15.031,15.031,0,0,0-2.419,1.411c-1.209.806-3.527,3.729-4.635,4.434.1-1.209,1.814-4.232,2.318-5.24.2-.6.5-1.209.705-1.915a1.481,1.481,0,0,0-.705-1.209c-.4-.2-1.008.1-1.411.4a2.3,2.3,0,0,0-.6,1.209c-1.713,3.124-3.225,6.046-4.736,9.069a3.769,3.769,0,0,0-.705,1.612,1.357,1.357,0,0,0,1.915,1.612,12.474,12.474,0,0,0,1.814-1.411c2.62-2.116,5.442-5.542,8.062-7.558,2.419-1.713,1.713-.5,2.62,1.713.705,2.116,2.015,2.922,4.132,2.318a8.66,8.66,0,0,0,3.023-1.209c2.721-1.512,6.046-3.93,8.767-5.442,2.721-1.814,2.318-.3,2.318,2.519,0,.806-.1,1.411-.1,2.217.1,3.527,1.915,5.24,5.542,4.837a21,21,0,0,0,8.062-2.922c1.612-.6,1.814-1.713,1.411-2.318-.3-.5-.907-.6-2.519-.1a59.945,59.945,0,0,1-5.945,2.217c-2.62.806-4.031.1-3.729-2.922a9.8,9.8,0,0,0-.1-3.829c-.3-2.015-1.713-2.822-3.628-2.419a12.328,12.328,0,0,0-3.628,1.411c-2.822,1.411-5.442,3.023-8.263,4.635C223.564,32.207,222.758,32.711,221.75,32.207Zm49.277.806c-2.822,2.62-15.418,5.24-18.038,2.62-.907-.907-.907-2.015,1.108-2.015a16.783,16.783,0,0,0,3.93-.4,19.629,19.629,0,0,0,4.434-1.915,2.2,2.2,0,0,0-.907-4.132A18.414,18.414,0,0,0,254,28.68c-2.217,1.209-2.721,1.915-3.628,4.535-1.411,5.442,4.132,5.845,7.759,5.643a40.085,40.085,0,0,0,15.821-4.132,1.3,1.3,0,0,0,.6-1.713c-.4-.705-.907-.806-1.713-.705A13.458,13.458,0,0,0,271.027,33.014ZM260.85,30.091c-1.612,1.512-5.542,2.419-7.558,2.217C256.617,30.091,262.663,27.773,260.85,30.091Zm28.821,6.147c6.147.3,7.255-3.426,3.426-3.124-.705,0-1.512.1-2.116.1-1.612.1-2.116-.2-2.419-1.713-.2-.907-.3-1.915-.6-2.922a2.949,2.949,0,0,0-3.93-2.217,5.084,5.084,0,0,0-2.721,1.209c-1.209.806-2.318,1.915-3.628,2.922a11.575,11.575,0,0,1-1.008.806,42.992,42.992,0,0,1,2.419-5.341,4.747,4.747,0,0,0,.4-1.713,1.182,1.182,0,0,0-.5-1.108,1.1,1.1,0,0,0-1.108.2,7.544,7.544,0,0,0-1.31,1.814c-2.519,4.535-4.938,9.17-7.457,13.7-.2.5-.6.907-.6,1.512,0,2.318,2.822,1.411,3.729-.6a21.954,21.954,0,0,1,5.442-6.55c1.512-1.411,6.046-6.248,7.759-2.419C286.042,33.114,286.445,36.037,289.67,36.238Z" transform="translate(76.084 185.566) rotate(-9)" fill="#eb838d"/>
      <path id="パス_1335" data-name="パス 1335" d="M28.565,12.313c.991-1.883,1.486-4.459-1.189-1.486a120.776,120.776,0,0,0-8.72,14.368C13.4,35.6,8.746,46.2,4.386,57A83.3,83.3,0,0,0,.324,69.786a14.482,14.482,0,0,0-.3,3.468c0,1.486,1.387,1.883,2.576.793.5-.595.991-1.189,1.585-1.883,2.775-4.261,5.648-8.324,8.72-12.486C18.457,52.346,24.9,45.41,31.042,38.473c9.909-10.5,20.116-20.314,32.2-28.34C67.805,6.962,72.76,3.989,78.012,2.4,84.155.224,79-.569,75.733.422A51.38,51.38,0,0,0,66.715,4.98,136.2,136.2,0,0,0,43.429,22.916C29.159,36.293,15.881,50.661,4.882,66.615A7.11,7.11,0,0,1,3.4,68.5a2.487,2.487,0,0,1,.2-.991,63.8,63.8,0,0,1,1.883-6.342,229.542,229.542,0,0,1,9.116-22A197.18,197.18,0,0,1,24.3,19.745C25.691,17.168,27.178,14.79,28.565,12.313ZM79.1,40.257c.892-.4.4-1.189-.3-1.387-.595-.1-1.189.4-1.685.595a35.621,35.621,0,0,1-5.351,2.477c-6.045,1.784-.892-7.729-.1-9.414a5.546,5.546,0,0,0,.793-1.982,1.9,1.9,0,0,0-.4-1.486,2.549,2.549,0,0,0-1.486-.1c-.4.1-.793.595-1.09.991-.892.892-1.784,1.883-2.675,2.775a2.268,2.268,0,0,1-2.081.793A16.24,16.24,0,0,0,52.446,37.68a12.335,12.335,0,0,0-1.883,2.081,2.8,2.8,0,0,0,2.775,4.558,5.605,5.605,0,0,0,2.775-.793c3.468-1.784,6.639-3.964,10.008-6.045a23.272,23.272,0,0,0-.4,3.468C65.724,47.788,76.129,43.031,79.1,40.257ZM53.041,41.446c2.279-3.369,7.234-5.648,11.2-5.946A24.542,24.542,0,0,1,53.041,41.446Zm46.375-.3c2.775-1.685,2.279-3.171-.991-2.378a28.894,28.894,0,0,0-3.765,1.387,29.938,29.938,0,0,1-9.909,2.675,6.451,6.451,0,0,1-3.072-.1c-1.387-.3-1.685-1.09-1.288-2.378a5.339,5.339,0,0,1,.694-1.288,14.728,14.728,0,0,1,7.531-5.252c1.982-.5,2.378-.1,2.675,1.982.2.2.4.892.595.892a2.175,2.175,0,0,0,1.189-.5,2.976,2.976,0,0,0-1.288-4.756,6.117,6.117,0,0,0-3.765-.1,15.928,15.928,0,0,0-9.513,6.441c-.2.4-.4.892-.595,1.288-1.387,3.171,0,5.648,3.072,6.441a7.283,7.283,0,0,0,3.567.1c4.756-.3,9.116-1.883,13.476-3.765A6.053,6.053,0,0,0,99.415,41.149Zm28.043-.892c.892-.4.4-1.189-.3-1.387-.595-.1-1.189.4-1.685.595a35.622,35.622,0,0,1-5.351,2.477c-6.045,1.784-.892-7.729-.1-9.414a5.546,5.546,0,0,0,.793-1.982,1.9,1.9,0,0,0-.4-1.486,2.549,2.549,0,0,0-1.486-.1c-.4.1-.793.595-1.09.991-.892.892-1.784,1.883-2.675,2.775a2.268,2.268,0,0,1-2.081.793A16.24,16.24,0,0,0,100.8,37.68a12.335,12.335,0,0,0-1.883,2.081,2.8,2.8,0,0,0,2.775,4.558,5.6,5.6,0,0,0,2.775-.793c3.468-1.784,6.639-3.964,10.008-6.045a23.272,23.272,0,0,0-.4,3.468C114.081,47.788,124.486,43.031,127.459,40.257ZM101.4,41.446c2.279-3.369,7.234-5.648,11.2-5.946A24.542,24.542,0,0,1,101.4,41.446Zm25.07-24.079c3.666,0,8.522-.1,12.882-.2-3.666,5.846-9.612,13.576-12.684,20.908-1.883,4.36-4.657,13.774,4.261,10.7,5.153-1.784,11.891-6.639,13.576-8.126a1.642,1.642,0,0,0,.595-2.18c-.595-.793-1.189-.4-1.982.1a16.516,16.516,0,0,0-1.585,1.189c-3.072,2.576-7.927,5.846-10.8,6.936-6.441,2.675-3.171-5.153-.793-9.81a148.974,148.974,0,0,1,12.882-19.818c6.243.2,30.818.4,38.051-.892,2.775-.595,3.27-2.081,0-2.279a65.75,65.75,0,0,0-7.927.5c-10.008,1.09-22.791,1.288-28.439.3,3.865-5.648,2.477-4.261,5.45-8.324.2-.4.793-.991.892-1.486,0-.5-.1-1.387-.4-1.585-.793-.694-1.784.2-2.18.991C144.5,9.241,145.1,8.944,141.43,14.1a1.194,1.194,0,0,1-.5.5,64.2,64.2,0,0,1-13.774.2c-2.775-.2-3.468.595-3.865,1.189C123.1,16.376,123.4,17.763,126.468,17.367Zm31.313,23.98c2.279-1.189.5-4.459-2.18-1.585-2.081,2.279-13.08,8.026-9.116-.1,1.288-2.18,2.675-4.162,3.964-6.243,2.081-2.775-1.09-4.558-2.378-2.874-1.685,2.279-2.775,5.45-4.261,7.828a5.371,5.371,0,0,0-.793,3.27,3.079,3.079,0,0,0,2.477,3.666,11.33,11.33,0,0,0,3.171,0A37.384,37.384,0,0,0,157.781,41.347ZM155.4,22.618a3.583,3.583,0,0,0-3.567,3.369c-.5,2.477.2,2.576,2.081,1.486a7.437,7.437,0,0,0,2.973-3.171A1.371,1.371,0,0,0,155.4,22.618Zm13.576,16.35c.4-.892.694-1.486.991-2.081a27.021,27.021,0,0,0,.793-3.369c.1-2.18-1.189-3.171-3.369-2.973a6.84,6.84,0,0,0-3.766,1.585,29.375,29.375,0,0,0-6.738,6.837c-4.855,7.729-1.189,10.107,2.378,9.017,2.477-.793,3.865-2.576,6.639-5.153a2.72,2.72,0,0,1,1.784-.991c2.378-.5,4.856-.793,7.333-1.288a23.542,23.542,0,0,0,3.666-.595,1.635,1.635,0,0,0,.991-.793,1.344,1.344,0,0,0-.694-1.288,3.612,3.612,0,0,0-1.486-.2c-1.189.2-2.973.4-4.063.595C172.05,38.572,170.563,38.671,168.978,38.969Zm-9.513.5c.4,1.883,1.784,2.477,3.865,2.477C160.753,47.59,154.907,44.914,159.465,39.464Zm8.423-6.54c0,.793.2,1.387,0,1.585a13.933,13.933,0,0,1-1.784,3.666,2.035,2.035,0,0,1-3.072.4,1.069,1.069,0,0,1-.3-1.585A8.673,8.673,0,0,1,167.888,32.924Zm27.448,12.783c-2.676,1.09-2.775-.1-1.883-2.576.892-1.982,2.378-3.666,2.081-5.747-.4-4.36-4.459-3.072-7.234-1.685a49.19,49.19,0,0,0-9.513,6.243c-3.27,2.775,1.288-1.982,1.982-2.973.991-1.288,1.784-2.775,2.675-4.162.991-1.585,1.189-2.477.595-2.874-.595-.595-1.486,0-2.477,1.288a4.686,4.686,0,0,1-.694,1.189c-1.189,1.784-2.378,3.567-3.666,5.252-.991,1.585-1.982,3.171-3.072,4.756a1.436,1.436,0,0,0,0,2.081c.793.793,1.585.3,2.18,0a3.3,3.3,0,0,0,1.09-.892c2.081-1.486,3.964-2.973,5.946-4.36,2.081-1.288,4.36-2.576,6.54-3.765,4.162-1.387,3.072.793,1.883,3.666-.3,1.189-.892,2.081-1.189,3.369-.3,1.685.2,2.775,1.387,3.369a5.288,5.288,0,0,0,4.063-.2c4.162-1.685,8.423-3.468,12.486-5.351,3.865-1.784,2.874-4.36-1.288-2.477C203.759,41.644,198.8,44.419,195.336,45.707Z" transform="translate(5.442 129.666) rotate(-9)" fill="#eb838d"/>
      <path id="パス_1336" data-name="パス 1336" d="M83.64,38a13.75,13.75,0,0,1,1.09-1.883c5.648-8.72,11.4-17.341,17.044-26.16,1.585-2.378,3.072-4.856,4.459-7.333.595-1.09.595-2.081-.2-2.477-1.09-.5-1.486.4-1.883,1.09C101.378,5.494,98.5,9.755,95.73,13.818c-5.054,7.729-10.107,15.359-15.26,22.89A2.243,2.243,0,0,1,78.389,38H65.308c.2-.595.4-.793.5-1.09,4.162-6.342,8.522-12.684,12.684-19.026,2.279-3.468,4.558-6.936,6.738-10.4A6.889,6.889,0,0,0,86.217,5.2a1.869,1.869,0,0,0-2.378,1.09c-1.982,2.477-3.567,4.855-5.351,7.234C73.236,21.25,67.885,28.88,62.633,36.51A2.739,2.739,0,0,1,59.957,38.1c-7.234,0-14.567.1-21.8.3-9.612.3-19.323.595-29.133.991-2.279,0-4.756.5-7.234.694-.892.1-1.883.4-1.784,1.486,0,1.09,1.189.991,1.883.991,3.171-.1,6.144-.4,9.315-.4,9.315-.3,18.53-.595,27.746-.892,6.342-.1,12.684-.1,19.026-.1.5,0,.793.1,1.387.1a2.824,2.824,0,0,0-.4.793c-2.775,4.162-5.45,8.126-8.126,12.386-1.685,2.576-3.072,5.351-4.657,8.026-.3.5-.793,1.288,0,1.883.793-.991,1.685-1.982,2.477-3.171a71.168,71.168,0,0,0,5.351-6.639c2.775-3.865,5.45-8.026,8.126-11.99a2.531,2.531,0,0,1,2.477-1.486c3.865.1,7.63,0,11.4,0a12.429,12.429,0,0,1,1.486.2,6.491,6.491,0,0,0-.793,1.288C71.65,49.987,66.7,57.518,61.543,65.049a52.46,52.46,0,0,1-5.45,6.936,14.106,14.106,0,0,0-3.171,4.459c-.793,1.486-.694,2.477.2,2.973.892.595,1.883.2,2.775-1.09,1.387-1.982,2.973-3.964,4.36-5.946,6.738-9.909,13.576-19.917,20.215-29.827a2.873,2.873,0,0,1,2.576-1.486c2.973,0,5.846,0,8.72-.2,2.576-.1,4.955-.595,7.531-.694v-.4C94.243,38.195,89.09,38.1,83.64,38Zm31.61.3c.4-.892.694-1.486.991-2.081a27.023,27.023,0,0,0,.793-3.369c.1-2.18-1.189-3.171-3.369-2.973a6.84,6.84,0,0,0-3.765,1.585,29.375,29.375,0,0,0-6.738,6.837c-4.855,7.729-1.189,10.107,2.378,9.017,2.477-.793,3.865-2.576,6.639-5.153a2.719,2.719,0,0,1,1.784-.991c2.378-.5,4.855-.793,7.333-1.288a23.542,23.542,0,0,0,3.666-.595,1.635,1.635,0,0,0,.991-.793,1.344,1.344,0,0,0-.694-1.288,3.612,3.612,0,0,0-1.486-.2c-1.189.2-2.973.4-4.063.595C118.323,37.9,116.836,38,115.251,38.294Zm-9.513.5c.4,1.883,1.784,2.477,3.865,2.477C107.026,46.915,101.18,44.239,105.738,38.789Zm8.423-6.54c0,.793.2,1.387,0,1.585a13.933,13.933,0,0,1-1.784,3.666,2.035,2.035,0,0,1-3.072.4,1.069,1.069,0,0,1-.3-1.585A8.673,8.673,0,0,1,114.161,32.249Zm9.909-15.557c3.666,0,8.522-.1,12.882-.2-3.666,5.846-9.612,13.576-12.684,20.908-1.883,4.36-4.657,13.774,4.261,10.7,5.153-1.784,11.891-6.639,13.576-8.126a1.642,1.642,0,0,0,.595-2.18c-.595-.793-1.189-.4-1.982.1a16.523,16.523,0,0,0-1.585,1.189c-3.072,2.576-7.927,5.846-10.8,6.936-6.441,2.675-3.171-5.153-.793-9.81A148.971,148.971,0,0,1,140.42,16.395c6.243.2,30.818.4,38.051-.892,2.775-.595,3.27-2.081,0-2.279a65.751,65.751,0,0,0-7.927.5c-10.008,1.09-22.791,1.288-28.439.3,3.865-5.648,2.477-4.261,5.45-8.324.2-.4.793-.991.892-1.486,0-.5-.1-1.387-.4-1.585-.793-.694-1.784.2-2.18.991-3.765,4.955-3.171,4.657-6.837,9.81a1.194,1.194,0,0,1-.5.5,64.2,64.2,0,0,1-13.774.2c-2.775-.2-3.468.595-3.865,1.189C120.7,15.7,121,17.088,124.07,16.692Zm37.259,21.6c-2.775,2.576-15.161,5.153-17.737,2.576-.892-.892-.892-1.982,1.09-1.982a16.5,16.5,0,0,0,3.865-.4,19.3,19.3,0,0,0,4.36-1.883,2.161,2.161,0,0,0-.892-4.063,18.107,18.107,0,0,0-7.432,1.486c-2.18,1.189-2.675,1.883-3.567,4.459-1.387,5.351,4.063,5.747,7.63,5.549A39.417,39.417,0,0,0,164.2,39.978a1.275,1.275,0,0,0,.595-1.685c-.4-.694-.892-.793-1.685-.694A13.233,13.233,0,0,0,161.328,38.294ZM151.32,35.42c-1.585,1.486-5.45,2.378-7.432,2.18C147.158,35.42,153.1,33.141,151.32,35.42ZM164.4,52.959c-1.486,1.288-5.054,2.775-3.865-1.784.4-1.685.892-3.468,1.387-5.153a121.843,121.843,0,0,1,7.234-14.368,29.293,29.293,0,0,1,4.36-4.856,102.612,102.612,0,0,0,14.467-14.864,27.946,27.946,0,0,0,2.279-4.162,2.147,2.147,0,0,0-.4-2.775,2.559,2.559,0,0,0-2.775,0,4.7,4.7,0,0,0-1.784,1.189,28.222,28.222,0,0,0-2.576,2.279c-4.558,4.657-8.324,10.206-12.089,15.557-1.486,1.982-2.576,4.36-5.054,5.45a3.739,3.739,0,0,0-.5.793c1.09,1.09.4,2.18-.3,3.369a14.678,14.678,0,0,0-1.387,2.477c-2.378,4.558-4.657,9.116-5.648,14.269a8.121,8.121,0,0,0-.3,3.072c.2,2.477,1.784,3.865,4.261,3.171a8.307,8.307,0,0,0,1.883-.892,27.592,27.592,0,0,0,3.369-2.576c3.766-3.666,7.927-7.135,11.2-11.495,3.369-4.459,1.883-5.45-1.585-1.883C173.12,43.248,168.562,48.6,164.4,52.959Zm21.007-42.907C192.741,5,176.49,22.142,173.319,25.214,173.913,22.34,183.03,12.332,185.408,10.053Z" transform="translate(43.794 52.423) rotate(-9)" fill="#eb838d"/>
    </g>
  </g>
</svg>
