<?xml version="1.0" encoding="utf-8"?>
<!-- Generator: Adobe Illustrator 28.1.0, SVG Export Plug-In . SVG Version: 6.00 Build 0)  -->
<svg version="1.1" id="_レイヤー_2" xmlns="http://www.w3.org/2000/svg" xmlns:xlink="http://www.w3.org/1999/xlink" x="0px"
	 y="0px" viewBox="0 0 151.2 38.1" style="enable-background:new 0 0 151.2 38.1;" xml:space="preserve">
<style type="text/css">
	.st0{fill:#231815;}
</style>
<g id="design">
	<g>
		<path class="st0" d="M38.6,37.4c-0.8,0.5-1.7,0.7-2.7,0.7c-1.3,0-2.3-0.4-3.1-1.2c-0.8-0.8-1.1-1.9-1.1-3.3s0.4-2.5,1.1-3.3
			c0.7-0.8,1.8-1.2,3.1-1.2c0.3,0,0.8,0,1.2,0.1s1,0.2,1.5,0.3V31h-0.7l-0.1-0.9c-0.3-0.2-0.6-0.3-0.9-0.4c-0.3-0.1-0.6-0.1-0.9-0.1
			c-0.9,0-1.6,0.4-2.2,1.1c-0.5,0.7-0.8,1.7-0.8,2.9c0,1.1,0.3,2.1,0.9,2.8c0.6,0.7,1.4,1.1,2.3,1.1c0.9,0,1.7-0.2,2.5-0.8
			L38.6,37.4L38.6,37.4z"/>
		<path class="st0" d="M46.9,34.1v3.2h0.9v0.6h-3v-0.6h0.9v-7.5h-0.9v-0.6h3.1c1,0,1.7,0.2,2.2,0.5s0.7,0.9,0.7,1.6
			c0,0.6-0.2,1.1-0.5,1.5s-0.8,0.7-1.3,0.9l2.3,3.5h0.6v0.6h-1.8l-2.4-3.8L46.9,34.1L46.9,34.1z M46.9,33.5h0.4
			c0.8,0,1.3-0.2,1.7-0.5s0.6-0.9,0.6-1.5c0-0.6-0.2-1.1-0.5-1.3c-0.3-0.2-1-0.4-1.9-0.4h-0.2C46.9,29.8,46.9,33.5,46.9,33.5z"/>
		<path class="st0" d="M61.8,38.1c-1.2,0-2.2-0.4-2.9-1.2c-0.7-0.8-1.1-1.9-1.1-3.3s0.4-2.5,1.1-3.3s1.7-1.2,2.9-1.2
			s2.2,0.4,2.9,1.2s1.1,1.9,1.1,3.3s-0.4,2.5-1.1,3.3S63,38.1,61.8,38.1z M61.8,37.5c0.8,0,1.5-0.4,2-1.1s0.7-1.7,0.7-2.9
			s-0.2-2.2-0.7-2.9s-1.2-1.1-2-1.1s-1.5,0.4-2,1.1s-0.7,1.7-0.7,2.9s0.2,2.2,0.7,2.9S61,37.5,61.8,37.5L61.8,37.5z"/>
		<path class="st0" d="M72.1,37.7V36h0.7l0.1,0.9c0.3,0.2,0.6,0.4,0.9,0.5c0.3,0.1,0.5,0.2,0.7,0.2c0.5,0,0.9-0.2,1.2-0.5
			s0.5-0.7,0.5-1.1c0-0.4-0.1-0.7-0.3-1c-0.2-0.3-0.6-0.5-1.1-0.8l-0.6-0.3c-0.7-0.4-1.2-0.8-1.5-1.2s-0.4-0.8-0.4-1.3
			c0-0.7,0.2-1.2,0.7-1.7c0.5-0.4,1.1-0.7,1.8-0.7c0.4,0,0.8,0,1.2,0.1c0.4,0.1,0.8,0.1,1.1,0.3v1.5h-0.7l-0.1-0.8
			c-0.2-0.2-0.5-0.3-0.8-0.4s-0.5-0.1-0.7-0.1c-0.4,0-0.7,0.1-0.9,0.4s-0.4,0.6-0.4,1c0,0.6,0.4,1.1,1.2,1.6l0.6,0.3
			c0.8,0.5,1.4,0.9,1.7,1.3c0.3,0.4,0.4,0.8,0.4,1.3c0,0.7-0.3,1.3-0.8,1.8s-1.2,0.7-2,0.7c-0.5,0-0.9,0-1.3-0.1
			C72.8,37.9,72.4,37.8,72.1,37.7z"/>
		<path class="st0" d="M83.5,37.7V36h0.7l0.1,0.9c0.3,0.2,0.6,0.4,0.9,0.5c0.3,0.1,0.5,0.2,0.7,0.2c0.5,0,0.9-0.2,1.2-0.5
			s0.5-0.7,0.5-1.1c0-0.4-0.1-0.7-0.3-1c-0.2-0.3-0.6-0.5-1.1-0.8l-0.6-0.3c-0.7-0.4-1.2-0.8-1.5-1.2s-0.4-0.8-0.4-1.3
			c0-0.7,0.2-1.2,0.7-1.7s1.1-0.7,1.8-0.7c0.4,0,0.8,0,1.2,0.1c0.4,0.1,0.8,0.1,1.1,0.3v1.5h-0.7l-0.1-0.8c-0.2-0.2-0.5-0.3-0.8-0.4
			s-0.5-0.1-0.7-0.1c-0.4,0-0.7,0.1-0.9,0.4s-0.4,0.6-0.4,1c0,0.6,0.4,1.1,1.2,1.6l0.6,0.3c0.8,0.5,1.4,0.9,1.7,1.3
			c0.3,0.4,0.4,0.8,0.4,1.3c0,0.7-0.3,1.3-0.8,1.8s-1.2,0.7-2,0.7c-0.5,0-0.9,0-1.3-0.1C84.2,37.9,83.9,37.8,83.5,37.7z"/>
		<path class="st0" d="M100.7,37.9h-6v-0.6h0.9v-7.5h-0.9v-0.6h5.7v1.4h-0.7v-0.9h-3v3.3H99v-0.7h0.6v2H99v-0.7h-2.1v3.5h3.2v-0.9
			h0.7V37.9L100.7,37.9z"/>
		<path class="st0" d="M109.4,29.9h-2.5v1h-0.7v-1.7h7.5v1.7h-0.7v-1h-2.5v7.4h0.9v0.6h-3v-0.6h0.9L109.4,29.9L109.4,29.9z"/>
		<path class="st0" d="M70.4,0.2c0.1,0.3,4.3,11.7,4.7,12.8c0.1,0.2,0.2,0.2,0.3,0c0.6-1.5,2.8-7.7,3.5-9.5c0.2-0.5,0.7-2.1-0.3-2.6
			c-0.1-0.1-0.1-0.2,0.1-0.2h4.5c0.2,0,0.2,0.2,0,0.3C82.4,1.5,82,2.4,81.4,4c-0.7,2-3.2,9-5.9,16.2c-0.1,0.2-0.4,0.2-0.5,0
			c-0.6-1.5-3.8-10.5-4.8-12.9c-0.1-0.2-0.2-0.2-0.3,0c-0.9,2.4-4.2,11.4-4.8,12.9c-0.1,0.2-0.4,0.2-0.5,0c-1-2.5-5.8-15.2-6.3-16.8
			c-0.4-1.2-0.9-2.1-1.7-2.5c-0.2-0.1-0.1-0.3,0-0.3h5c0.2,0,0.2,0.2,0,0.2c-0.9,0.3-0.8,1.4-0.4,2.7c0.7,1.9,2.9,8,3.5,9.5
			c0.1,0.2,0.2,0.2,0.3,0c0.3-0.8,4.6-12.5,4.8-12.8C70-0.1,70.3-0.1,70.4,0.2L70.4,0.2z"/>
		<path class="st0" d="M86.5,12.4c-0.1,0-0.3-0.1-0.2-0.3c1-2.4,2.4-5.7,2.7-6.5c0.1-0.2,0.1-0.2,0.2,0c0.5,1.2,1.6,4.1,2.6,6.5
			c0.1,0.2,0,0.3-0.2,0.3H86.5L86.5,12.4z M92.6,14.6c0.1,0,0.2,0.1,0.3,0.2c0.4,0.9,0.8,2.1,1.1,2.9c0.3,0.8,0.2,1.6-0.5,1.8
			c-0.2,0-0.1,0.3,0.1,0.3h5.2c0.2,0,0.2-0.2,0.1-0.3c-0.7-0.3-1.1-0.9-1.5-1.8c-0.5-1.2-7.7-17.4-7.8-17.5c-0.1-0.2-0.5-0.2-0.6,0
			s-7.6,17.1-7.8,17.5c-0.4,0.9-0.8,1.5-1.4,1.8c-0.2,0.1-0.1,0.3,0,0.3h4.7c0.2,0,0.2-0.2,0-0.3c-0.8-0.3-0.7-1-0.3-2
			c0.3-0.7,0.7-1.6,1.1-2.7c0.1-0.2,0.2-0.2,0.3-0.2L92.6,14.6L92.6,14.6z"/>
		<path class="st0" d="M29.7,0.6c-1-0.3-2.1-0.4-3.3-0.4s-2.5,0.2-3.6,0.6C19.1,2,16.6,5.3,16.6,10c0,4.4,2.3,7.8,5.5,9.1
			c1.3,0.6,2.8,0.9,4.3,0.9s3.1-0.2,4.4-0.8c3.1-1.4,5.4-4.5,5.4-9.1C36.2,5.2,33.5,1.8,29.7,0.6z M26.4,17.7
			c-4.1,0-6.8-2.9-6.8-7.6s2.7-7.6,6.8-7.6c1,0,1.9,0.1,2.7,0.5c2.5,1.1,4.1,3.7,4.1,7.1C33.3,14.6,30.6,17.7,26.4,17.7z"/>
		<path class="st0" d="M52.2,13.5c0,0.2-0.1,0.2-0.2,0.1C51.8,13.5,39.5,0.1,39.5,0.1c-0.2-0.2-0.4-0.2-0.4,0v15.7
			c0,0.7,0,2.2-0.4,2.9c-0.2,0.4-0.5,0.6-0.9,0.7c-0.1,0-0.1,0.2,0,0.2h5.2c0.1,0,0.2-0.2,0-0.2c-0.3-0.1-0.7-0.3-1-0.7
			c-0.5-0.8-0.4-2.1-0.4-2.9v-9c0-0.2,0.1-0.3,0.3-0.1c0.4,0.4,12.3,13.6,12.3,13.6c0.2,0.2,0.5,0.1,0.5-0.2V4.6
			c0-0.7,0-2.1,0.4-2.9C55.4,1.3,55.6,1.1,56,1c0.1,0,0.1-0.2,0-0.2h-5.2c-0.2,0-0.2,0.2,0,0.2c0.3,0.1,0.7,0.2,1,0.8
			c0.4,0.8,0.4,2.3,0.4,3L52.2,13.5L52.2,13.5z"/>
		<path class="st0" d="M104.1,3c1-0.3,3.2-0.3,4.5,0.3c1.2,0.5,1.8,1.7,1.8,3s-0.8,2.4-1.9,2.9c-0.9,0.4-2.2,0.5-3.3,0.3
			c-0.2,0-0.3,0.2-0.2,0.4c0.1,0.1,5.1,8,5.6,8.7c0.7,1,1.1,1.3,2.2,1.4c0.7,0,2.5-0.1,2.6-0.1c0.1,0,0.1-0.2,0-0.3
			c-0.6-0.2-0.8-0.4-1.5-1.3c-0.6-0.8-4.4-6.6-4.7-6.9c-0.1-0.1,0-0.2,0.1-0.2c0.4-0.1,0.8-0.3,1.2-0.5c1.9-1,2.8-2.7,2.8-4.6
			c0-0.3,0-2.1-1.3-3.5c-1.3-1.4-3.2-1.8-5.6-1.8h-6.8c-0.1,0-0.2,0.2,0,0.3c0.4,0.1,0.7,0.4,0.9,0.7c0.4,0.7,0.4,2.4,0.4,3.1v10.8
			c0,0.7,0,2.4-0.4,3.1c-0.2,0.4-0.5,0.6-0.9,0.7c-0.1,0-0.1,0.3,0,0.3h5.4c0.1,0,0.2-0.2,0-0.3c-0.3-0.1-0.6-0.4-0.8-0.7
			c-0.5-0.8-0.4-2.6-0.4-3.4V3.3C104,3.2,104,3,104.1,3L104.1,3z"/>
		<path class="st0" d="M129.4,2.1c-1.5-0.9-3.3-1.4-5.9-1.4c-1.1,0-6.2,0-6.5,0c-0.2,0-0.2,0.2,0,0.3c0.4,0.1,0.7,0.4,0.9,0.8
			c0.4,0.7,0.4,2.3,0.4,3.1v10.8c0,0.7,0,2.3-0.4,3c-0.2,0.4-0.4,0.6-0.9,0.8c-0.1,0-0.1,0.3,0,0.3c0.6,0,5.5,0,6.9,0
			c3.8,0,6.9-1.5,8.5-4.2c0.9-1.5,1.3-3.3,1.3-5.2C133.7,6.5,132,3.6,129.4,2.1L129.4,2.1z M123.8,17.5c-1.3,0-2.1-0.2-2.4-0.6
			c-0.2-0.3-0.3-0.7-0.3-1.5v-12c0-0.1,0-0.2,0.2-0.3c0.2-0.1,1.2-0.2,2.5-0.2c2,0,3.9,0.7,5.2,2.2c1,1.2,1.7,2.9,1.7,5.2
			C130.7,15,128,17.5,123.8,17.5L123.8,17.5z"/>
		<rect y="8.5" class="st0" width="26.4" height="2.6"/>
		<rect x="125.6" y="8.5" class="st0" width="25.6" height="2.6"/>
	</g>
</g>
</svg>
