<svg xmlns="http://www.w3.org/2000/svg" width="71" height="409" viewBox="0 0 71 409">
  <g id="グループ_346" data-name="グループ 346" transform="translate(0.467 0.369)">
    <path id="パス_1386" data-name="パス 1386" d="M21.038,39.692v27.6h7.155v-27.6L49.232,3.066H40.97L24.616,31.685,8.262,3.066H0ZM80.321,3.066H73.166v40.2c0,7.325.681,13.2,6.3,18.568A24.034,24.034,0,0,0,96.078,68.4a23.624,23.624,0,0,0,17.291-7.325c5.111-5.281,5.622-10.817,5.622-17.8V3.066h-7.155V41.31c0,5.025.256,10.647-3.152,14.735a16.992,16.992,0,0,1-12.606,5.707c-4.685,0-10.136-2.215-12.947-6.133-2.981-4.088-2.811-9.54-2.811-14.31Zm75.551,27.512V3.066h-7.155V67.289h7.155V39.607l1.789-1.789L183.98,67.289h9.88L162.686,32.963l30.152-29.9h-9.625Zm98.974,18.483,7.581,18.228h7.921L241.473,0,211.832,67.289h7.836l7.751-18.228Zm-2.811-6.644h-21.72L241.3,16.694ZM304.589,9.71h15.672V3.066H281.932V9.71h15.5V67.289h7.155Zm70.27,39.351,7.581,18.228h7.921L361.486,0,331.845,67.289h7.836l7.751-18.228Zm-2.811-6.644h-21.72l10.988-25.723Z" transform="translate(70.056 9.32) rotate(90)" fill="#e5cada"/>
    <rect id="長方形_178" data-name="長方形 178" width="71" height="409" transform="translate(-0.467 -0.37)" fill="none"/>
  </g>
</svg>
