<svg xmlns="http://www.w3.org/2000/svg" width="581" height="91.051" viewBox="0 0 581 91.051">
  <g id="グループ_446" data-name="グループ 446" transform="translate(2087 -19220.949)">
    <rect id="長方形_131" data-name="長方形 131" width="581" height="46" transform="translate(-2087 19266)" fill="#e5cada"/>
    <g id="グループ_280" data-name="グループ 280" transform="translate(-2075.068 19220.949)">
      <path id="パス_1043" data-name="パス 1043" d="M9.4,23.324A29.883,29.883,0,0,0,19.985,10.2a28.36,28.36,0,0,0,1.663-5.23c0-.212-.091-.3-.333-.3a1.252,1.252,0,0,0-.3.03c-.06,0-.272,0-.6.03-1.542.121-5.26.635-7.5,1.028a4.544,4.544,0,0,1-.6.06A2.63,2.63,0,0,1,10.915,5.4c.121,1,.181,1.542.272,2.509.151,1.753.151,1.753.3,2.993,0,.242.03.514.03.7,0,.816-.3,1.27-.816,1.27-.7,0-1.632-1.481-1.632-2.57a4.192,4.192,0,0,1,.091-.786A6.344,6.344,0,0,0,9.253,8.42a11.188,11.188,0,0,0-.514-3.356A2.91,2.91,0,0,0,7.348,3.613,1.244,1.244,0,0,1,8.1,3.371a4.159,4.159,0,0,1,2.539.967,5.609,5.609,0,0,0,.665.03c1.028,0,4.988-.453,8.435-.967A3.17,3.17,0,0,0,21.5,2.857a.681.681,0,0,1,.514-.213c.393,0,.907.334,1.632,1.03s1.028,1.179,1.028,1.542a.653.653,0,0,1-.3.574,1.627,1.627,0,0,0-.635.907c-.03.06-.091.212-.181.423-.03.121-.151.423-.3.877A29.234,29.234,0,0,1,16.357,18.94a24.778,24.778,0,0,1-6.742,4.716Z" transform="translate(-7.348 1.797)" fill="#2e2e2e"/>
      <path id="パス_1044" data-name="パス 1044" d="M21.922,3.779c2.539.484,3.839.937,5.018,1.814a3.342,3.342,0,0,1,1.542,2.539c0,.846-.484,1.451-1.149,1.451-.484,0-.816-.272-1.27-1.058A10.222,10.222,0,0,0,21.8,4.051ZM40.847,4.837a36.156,36.156,0,0,1-9.432,11.728,43.481,43.481,0,0,1-4.928,3.6,5.811,5.811,0,0,1-.574.391,2.129,2.129,0,0,1-1.239.546c-.635,0-1.36-.574-2-1.572a3.276,3.276,0,0,1-.665-1.723,1.693,1.693,0,0,1,.181-.757,3.173,3.173,0,0,0,2.116,1.3c.816,0,2.328-.756,4.625-2.3a45.774,45.774,0,0,0,11.609-11.4Z" transform="translate(2.473 2.568)" fill="#2e2e2e"/>
      <path id="パス_1045" data-name="パス 1045" d="M46.42,12.579a31.833,31.833,0,0,1-6.258,2.692c-.06,1.449-.06,1.449-.06,2.024a9.6,9.6,0,0,0,.242,2.691c.3.665,1.119.907,3.084.907a15.281,15.281,0,0,0,5.139-.7,3.337,3.337,0,0,1,.877-.151,4,4,0,0,1,1.723.484,1.08,1.08,0,0,1,.6.937c0,.667-.453.907-2.237,1.119a39.4,39.4,0,0,1-4.444.272c-2.691,0-4.565-.333-5.472-.967-1-.663-1.3-1.784-1.3-4.565,0-.3.03-1.391.03-2.872.03-1.208.06-4.051.06-5.26A7.761,7.761,0,0,0,38.2,6.865a1.825,1.825,0,0,0-1.239-1.149,1.669,1.669,0,0,1,1.3-.635,3.9,3.9,0,0,1,2.116.786,1.485,1.485,0,0,1,.756,1.239c0,.242-.03.333-.272.818-.333.663-.484,2.145-.665,6.651a33.511,33.511,0,0,0,6.863-4.657c.544-.544.726-.875.726-1.209s-.181-.635-.635-1.058a1.162,1.162,0,0,1,.635-.151c1.149,0,2.963,1.421,2.963,2.328a.989.989,0,0,1-.6.846c-.03.03-.967.484-1.481.756ZM57,4.326a3.251,3.251,0,0,1-3.265,3.265,3.29,3.29,0,0,1-3.265-3.265,3.29,3.29,0,0,1,3.265-3.265A3.251,3.251,0,0,1,57,4.326m-5.593,0A2.328,2.328,0,1,0,53.736,2a2.31,2.31,0,0,0-2.328,2.328" transform="translate(12.773 0.721)" fill="#2e2e2e"/>
      <path id="パス_1046" data-name="パス 1046" d="M59.836,22.834c3.567-.423,5.411-.967,7.225-2.118a9.811,9.811,0,0,0,4.6-8.676,8.543,8.543,0,0,0-2.449-6.468A8.643,8.643,0,0,0,63.161,3.3c-.363,0-.726.03-1.36.091A5,5,0,0,1,63.1,7.2a22.053,22.053,0,0,1-3.356,10.492c-1.36,2.086-2.812,3.174-4.232,3.174-2.449,0-4.263-2.872-4.263-6.711,0-6.621,5.23-11.548,12.274-11.548,6.077,0,10.49,4.2,10.49,10.007A10,10,0,0,1,67.7,21.957a19.631,19.631,0,0,1-7.86,1.268ZM56.208,5.9a10.322,10.322,0,0,0-3.3,7.618c0,3.053,1.088,5.168,2.66,5.168,1.028,0,2.177-1.058,3.416-3.235a20.979,20.979,0,0,0,2.993-9.7,4.4,4.4,0,0,0-.212-1.542,2.935,2.935,0,0,0-.484-.756A9.771,9.771,0,0,0,56.208,5.9" transform="translate(22.484 1.773)" fill="#2e2e2e"/>
      <path id="パス_1047" data-name="パス 1047" d="M93.935,25H71.352a21.68,21.68,0,0,0-3.567.27l-.6-1.209c2.056.183,4.2.212,4.656.212h6.47c.03-5.653.06-18.8-.151-21.735A6.12,6.12,0,0,0,77.731.449l3.386,1c.181.06.453.149.453.453,0,.18,0,.391-1,1.026,0,.757-.091,4.022-.091,4.718v2.9H86.2l1.33-1.753c.151-.212.333-.395.453-.395.151,0,.3.153.544.333l2.086,1.785c.151.119.3.24.3.452,0,.274-.242.3-.453.3H80.482v7.65c0,.363.03,3.9.03,5.349h9.069L91,22.488c.212-.244.3-.363.484-.363a1.091,1.091,0,0,1,.544.3l2.056,1.782c.181.151.3.272.3.455,0,.272-.242.333-.453.333" transform="translate(33.309 0.305)" fill="#2e2e2e"/>
      <path id="パス_1048" data-name="パス 1048" d="M91.049,12.63a38.432,38.432,0,0,0-1.512,7.257,5.819,5.819,0,0,0,.242,1.663,3.14,3.14,0,0,1,.181.937.86.86,0,0,1-.846.907c-.514,0-1-.393-1.391-1.088a13.825,13.825,0,0,1-1.481-6.681,30.447,30.447,0,0,1,1.3-8.1,11.126,11.126,0,0,0,.544-2.991,4.782,4.782,0,0,0-.665-2.479h.091c.393,0,1.028.514,1.6,1.3a4.978,4.978,0,0,1,1.058,2.628c0,.606-.151,1-1.028,2.753a13.854,13.854,0,0,0-1.663,6.258c0,1.512.423,3.416.726,3.416.181,0,.333-.363,1.149-2.57.363-.937.393-1.058.937-2.358.242-.6.242-.6.423-1Zm3.779,5.381c1,1.695,2.207,2.329,4.474,2.329a22.474,22.474,0,0,0,4.111-.514,4.316,4.316,0,0,1,1.421-.242c1,0,1.784.544,1.784,1.239a1.211,1.211,0,0,1-.937,1.149,14.6,14.6,0,0,1-3.991.452c-4.142,0-6.137-1.208-7.135-4.263Zm.453-13.33a4.783,4.783,0,0,0,2.419.544,15.415,15.415,0,0,0,4.474-.756,2.825,2.825,0,0,1,1.088-.244c1.058,0,1.753.485,1.753,1.27,0,.455-.363.818-.967,1.03a13.568,13.568,0,0,1-3.839.484,6.349,6.349,0,0,1-3.416-.818A6.371,6.371,0,0,1,95.07,4.923Z" transform="translate(46.262 1.394)" fill="#2e2e2e"/>
      <path id="パス_1049" data-name="パス 1049" d="M110.188,13.958a49.8,49.8,0,0,1-6.137,6.59c-.091.665-.181,1.119-.665,1.119-.212,0-.393-.212-.484-.334l-2.116-2.568c1,.03,1.874.06,9.251-4.958ZM105.472,2.8a20.7,20.7,0,0,0-3.567.272l-.574-1.209c1.542.121,3.084.212,4.625.212h4.777l.967-.816c.242-.212.363-.272.514-.272a1.391,1.391,0,0,1,.544.3l1.179.935a.712.712,0,0,1,.3.516c0,.3-.091.363-.967,1.026-.03.848,0,16.085,0,17.929,0,1.209,0,3.87-3.96,4.414a5.683,5.683,0,0,0-2.842-3.023l.03-.242a13.566,13.566,0,0,0,2.388.151c1.935,0,2.056-.06,2.116-.937.03-.333.121-14,.121-14.118,0-2.148-.03-4.323-.06-5.139Zm-2.539,3.839c3.084.544,4.686,2.449,4.686,3.658a1.33,1.33,0,0,1-1.3,1.391c-.877,0-1.119-.576-1.753-2.056a8.843,8.843,0,0,0-1.723-2.872Zm20.195,7.225c-1.512,1.844-4.414,4.746-5.835,6.2-.091.363-.151.937-.544.937-.181,0-.333-.181-.453-.333l-1.965-2.6c1.209-.06,2.449-.151,8.646-4.353Zm-3.87-10.974a20.4,20.4,0,0,0-3.537.272l-.6-1.209c1.542.121,3.084.212,4.656.212h3.87l.756-.848a.664.664,0,0,1,.484-.212.805.805,0,0,1,.453.212l1.3,1a.455.455,0,0,1,.242.423c0,.272-.181.423-.937,1.058V8.275c0,2.177.121,11.728.121,13.695,0,1.572,0,3.386-3.991,4.444-.151-.574-.423-1.481-2.781-3.144l.03-.151c.665.03,2.237.121,3.265.121,1.058,0,1.24-.272,1.24-1.3,0-3.023.03-16.506,0-19.046Zm-3.114,3.356c2.116.453,4.928,1.632,4.928,3.567a1.332,1.332,0,0,1-1.3,1.391c-.756,0-.937-.3-1.723-1.935A15.133,15.133,0,0,0,116.113,6.4Z" transform="translate(56.145 0.672)" fill="#2e2e2e"/>
      <path id="パス_1050" data-name="パス 1050" d="M121.895,18.02a23.273,23.273,0,0,1-3.171,7.586l-.242-.06a30.789,30.789,0,0,0,1.33-7.738,7.322,7.322,0,0,0-.244-1.753l2.538.754c.363.121.573.272.573.455s-.091.24-.784.756m5.774-2.9c-.574,0-.846-.482-.966-1.119-.032-.151-.123-.815-.153-.966-.786.27-1.209.391-1.6.514-.03,1.723-.091,9.311-.091,10.853,0,.3.091,1.572.091,1.842a1.311,1.311,0,0,1-1.448,1.513.718.718,0,0,1-.816-.818c0-.212.123-1.119.123-1.33.089-1.57.121-2.961.21-11.577a16.272,16.272,0,0,0-2.447.7c-.272.7-.334.815-.665.815-.272,0-.334-.119-.484-.574l-.877-2.417a14.153,14.153,0,0,0,3.445.18c.939-1.419,3.624-5.833,3.959-8.07l1.965,1.208c.393.244.546.334.546.606,0,.333-.123.363-1.088.663a59.325,59.325,0,0,1-4.6,5.564c1.572,0,2.539-.032,3.658-.091a5.742,5.742,0,0,0-.877-1.935l.181-.151c2.872,1.421,3.053,3.052,3.053,3.416a1.129,1.129,0,0,1-1.119,1.177m-2.42-12.512c-.635.815-1.268,1.6-3.02,3.534,1.119.816,1.451,1.572,1.451,2.088a1.113,1.113,0,0,1-1.117,1.119c-.665,0-.818-.334-1.36-1.483A7.506,7.506,0,0,0,119.327,5.2l.123-.151a6.941,6.941,0,0,1,2.326.813A16.055,16.055,0,0,0,123.257.125l2.659,1.3c.272.121.514.24.514.514,0,.393-.3.453-1.181.665m2.3,19.256c-.937,0-1.088-1.12-1.149-1.725a7.64,7.64,0,0,0-1-3.416l.181-.153c2.088,1.3,3.025,2.726,3.025,3.962,0,1-.6,1.332-1.06,1.332m18.263,5.5c-1.785,0-4.022-2.477-5.233-5.109a15.437,15.437,0,0,1-6.559,5.081l-.153-.212a23.04,23.04,0,0,0,5.957-6.622,29.517,29.517,0,0,1-1.725-8.4h-5.684a18.544,18.544,0,0,0-3.567.274l-.573-1.206c1.512.121,2.719.181,4.656.212a17.615,17.615,0,0,0,1.056-4.808,5.365,5.365,0,0,0-.06-.724l2.36.935c.393.151.482.334.482.484,0,.395-.212.455-1,.757-.6,1.058-2,3.144-2.175,3.356h4.444c-.123-1.36-.183-7.437-.242-8.676a14.442,14.442,0,0,0-.334-2.509l2.872.7c.333.089.576.149.576.484,0,.363-.3.544-.969.877a47.579,47.579,0,0,0-.272,5.411,36.226,36.226,0,0,0,.153,3.718h2.508l1-1.149c.212-.272.333-.364.485-.364a1.056,1.056,0,0,1,.573.334l1.33,1.119c.151.121.3.24.3.45,0,.27-.244.331-.455.331h-5.684a32.181,32.181,0,0,0,1.149,6.2,12.463,12.463,0,0,0,1.27-4.99l2.42,1.334c.3.153.484.3.484.544a.454.454,0,0,1-.333.393c-.423.18-.453.18-.756.331a28.327,28.327,0,0,1-2.3,4.565c1.088,2.392,2.3,3.087,2.449,3.087.453,0,1.512-2.573,1.693-3.147l.238.091c0,.665-.089,3.6,0,4.172a7.257,7.257,0,0,0,.393.967,1.965,1.965,0,0,1,.181.754.954.954,0,0,1-.962.967m-8.74-21.706h-4.594a20.194,20.194,0,0,0-3.567.274L128.3,4.722c1.421.121,2.509.151,3.356.181,0-2.842,0-3.448-.546-4.867l2.724.724c.242.062.637.183.635.516,0,.212-.06.272-.907.875V4.933h1.028l.635-.756c.181-.242.331-.363.482-.363s.3.089.574.3l.937.757c.242.18.3.3.3.45,0,.27-.272.331-.453.331m-6.078,5.2c-.9,0-1-.6-1.176-1.723a6.484,6.484,0,0,0-.877-2.6l.121-.091c1.57.7,3.021,1.846,3.021,3.146a1.136,1.136,0,0,1-1.09,1.27m5.623,5.742c-.089,1.028.06,5.988.06,7.106a1.231,1.231,0,0,1-1.357,1.238c-.635,0-.635-.484-.6-.818h-3.6v.969a1.129,1.129,0,0,1-1.176,1.147.777.777,0,0,1-.846-.875c0-.333.151-2.477.181-2.931.03-1.03.092-2.269.092-6.018a12.638,12.638,0,0,0-.151-2.447l2.232,1.15h2.936l.635-.726a.877.877,0,0,1,.6-.364c.119,0,.21.06.452.212l.937.637c.272.181.453.391.453.571,0,.3-.212.512-.848,1.149m-1.869-.756h-3.633v3.389h3.633Zm0,4.11h-3.633V23.4h3.633Zm8.826-11.819c-.665,0-.907-.391-1.36-1.362a7.558,7.558,0,0,0-1.9-2.9l.119-.212c2.632.967,4.234,1.54,4.234,3.231a1.11,1.11,0,0,1-1.088,1.239" transform="translate(68.17 0.024)" fill="#2e2e2e"/>
      <path id="パス_1051" data-name="パス 1051" d="M141.006,25.775c4.656-2.388,6.923-6.107,6.923-11.427a11.338,11.338,0,0,0-1.119-5.442A2.025,2.025,0,0,0,145.027,7.7c-1,0-1.935.786-2.812,2.328a8.072,8.072,0,0,0-.937,3.809,8.33,8.33,0,0,0,.423,2.66,3.385,3.385,0,0,1,.091.665c0,.574-.3.937-.726.937-1.058,0-1.9-1.572-1.9-3.446,0-1.33.091-1.723,1.633-8.344a13.761,13.761,0,0,0,.6-3.416A2.425,2.425,0,0,0,140.311.743a2.7,2.7,0,0,1,.333-.06,3.045,3.045,0,0,1,1.542.756,2.271,2.271,0,0,1,.726,1.663c0,.967-.03,1.149-1.179,6.107,1.239-1.632,2.3-2.3,3.628-2.3a3.836,3.836,0,0,1,2.932,1.6,8.724,8.724,0,0,1,1.874,5.835,11.177,11.177,0,0,1-4.807,9.644,14.09,14.09,0,0,1-4.2,2.116Z" transform="translate(82.223 0.464)" fill="#2e2e2e"/>
      <path id="パス_1052" data-name="パス 1052" d="M151.746,4.028a3.713,3.713,0,0,0,2.419.757,8.427,8.427,0,0,0,3.206-.635,3.711,3.711,0,0,0,.119-.937c0-1-.363-1.423-1.572-1.906a1.8,1.8,0,0,1,1.119-.3c1.27,0,2.207.573,2.207,1.36A4.567,4.567,0,0,1,159,3.605a7.543,7.543,0,0,1,2.026-.815.87.87,0,0,1,.877.846c0,.665-.877,1.209-3.687,2.205a33.114,33.114,0,0,1-3.023,5.867,5.282,5.282,0,0,1,2.477-.665c1.572,0,2.539.786,3.174,2.508a11.436,11.436,0,0,1,2.872-4.261,6.967,6.967,0,0,1,4.625-2c1.814,0,3.114.935,3.114,2.3,0,.846-.573,1.632-1.842,2.539a38.238,38.238,0,0,1-5.232,2.721c-1.814.816-2.056.935-2.721,1.27v.726c0,.091,0,.453.03,1v1.119a2.756,2.756,0,0,1-.212,1.36.948.948,0,0,1-.877.514c-.665,0-1.056-.484-1.056-1.3,0-.333.06-1.784.119-2.449-2.146,1.27-3.174,2.509-3.174,3.868,0,1.453,1.24,2.177,3.688,2.177a16.472,16.472,0,0,0,3.235-.361,3.2,3.2,0,0,1,1.179-.181c1.149,0,2,.514,2,1.209,0,.484-.331.816-.937,1a20.176,20.176,0,0,1-4.172.361c-4.081,0-6.286-1.3-6.286-3.656A4.675,4.675,0,0,1,157.036,18a17.56,17.56,0,0,1,2.66-1.753,5.586,5.586,0,0,0,.03-.7c0-2.539-.665-3.75-2.084-3.75a3.833,3.833,0,0,0-2.481,1.15,11.9,11.9,0,0,0-1.965,2.358c-.512.726-.967,1.058-1.419,1.058a1.113,1.113,0,0,1-1.06-1.211,1.972,1.972,0,0,1,.6-1.3,7.311,7.311,0,0,1,1.179-1c1.179-.907,3.267-4.143,4.353-6.681a5.574,5.574,0,0,1-1.6.242,4.239,4.239,0,0,1-3.687-2.237Zm12.667,9.615a20.389,20.389,0,0,0,4.142-3.416,2.066,2.066,0,0,0,.484-1.149c0-.576-.453-.877-1.33-.877a5.1,5.1,0,0,0-3.626,1.631,8.612,8.612,0,0,0-2,3.388,8.505,8.505,0,0,0-.393,2.056c.333-.212.333-.212,2.721-1.632" transform="translate(90.075 0.684)" fill="#2e2e2e"/>
      <path id="パス_1053" data-name="パス 1053" d="M192.277,26.3H169.364a18.64,18.64,0,0,0-3.567.272l-.606-1.208c2.086.183,4.232.213,4.657.213h8.04v-3.3h-5.5a21.714,21.714,0,0,0-3.567.272l-.6-1.2c2.057.181,4.2.212,4.656.212h5.018V18.648H173.05c.06,1.12-.726,1.424-1.51,1.424-.818,0-.818-.455-.818-.788,0-.937.244-5.287.244-6.286a28.867,28.867,0,0,0-.272-4.234l2.689,1.454h4.5V7.282h-7.709a21.345,21.345,0,0,0-3.567.272l-.6-1.206c2.084.18,4.231.212,4.654.212h7.225V3.779a60.9,60.9,0,0,1-7.074.448c-1.633,0-2.751-.089-3.446-.149v-.21C172.627,3.717,182.694,1.3,185.082,0l2.237,1.9a.652.652,0,0,1,.272.455c0,.24-.24.3-.423.3a4.49,4.49,0,0,1-1.147-.242c-2.964.6-4.718.875-6.048,1.087V6.56h7.65l1.419-1.545c.181-.181.334-.363.453-.363.181,0,.365.212.544.333L191.915,6.5c.151.121.3.24.3.45,0,.27-.242.333-.423.333h-11.82v2.936h4.656l.816-.969c.212-.242.3-.333.484-.333a.907.907,0,0,1,.423.212l1.483,1.179a.64.64,0,0,1,.212.393c0,.18-.183.3-1,.905,0,1.06.242,5.685.242,6.653,0,.875-.726,1.238-1.572,1.238-.6,0-.7-.393-.7-.848h-5.049v2.907h5.8l1.088-1.15c.181-.212.363-.393.485-.393a1.321,1.321,0,0,1,.573.3l1.572,1.181a.619.619,0,0,1,.272.453.347.347,0,0,1-.391.329h-9.4v3.3h8.285L189.588,24c.149-.183.331-.423.484-.423.18,0,.363.18.542.333l1.935,1.634a.554.554,0,0,1,.272.422c0,.3-.242.331-.544.331m-14.39-15.359h-4.866v3.147h4.866Zm0,3.871h-4.866v3.116h4.866Zm7.165-3.871h-5.079v3.147h5.079Zm0,3.871h-5.079v3.116h5.079Z" transform="translate(99.909)" fill="#2e2e2e"/>
      <path id="パス_1054" data-name="パス 1054" d="M190.262,13.113a38.247,38.247,0,0,1,4.293-3.93c2.116-1.631,3.928-2.387,5.623-2.387a4.677,4.677,0,0,1,4.414,3.477,17.351,17.351,0,0,1,.726,5.411,18.663,18.663,0,0,1-.484,4.656c2.116,1.391,3.053,2.388,3.053,3.235a1.085,1.085,0,0,1-1,1.208c-.393,0-.574-.149-1.149-.935a8.5,8.5,0,0,0-1.572-1.725,4.649,4.649,0,0,1-1.33,1.632,6.488,6.488,0,0,1-3.658,1.15c-2.3,0-4.081-1.27-4.081-2.872,0-1.814,1.965-3.084,4.686-3.084a8.51,8.51,0,0,1,3.174.574,21.082,21.082,0,0,0,.333-4.142,19.385,19.385,0,0,0-.635-5.564,2.747,2.747,0,0,0-2.751-2.237c-1.481,0-3.084.788-5.018,2.42a42.935,42.935,0,0,0-4.6,4.746c-.03.967-.03.967-.03,1.087,0,1.058.061,2.237.272,4.869.06.786.121,1.874.121,2.6a9.651,9.651,0,0,1-.272,1.935,1,1,0,0,1-.907.665.909.909,0,0,1-.726-.453,3.235,3.235,0,0,1-.272-1.15c-.181-1.391-.181-1.48-1.481-5.047-.181.333-1.119,2.026-1.239,2.237-.423.724-.7.967-1.119.967a1.187,1.187,0,0,1-1.088-1.179c0-.363.181-.7.756-1.513q.091-.136.726-1c.03-.089.877-1.268,1.149-1.663-.121-.363-.121-.363-.484-1.33-.151-.391-.333-.907-.544-1.51a6.053,6.053,0,0,0-.6-1.362,2.323,2.323,0,0,1-.212-.815c0-1.058,2.026-2.541,4.988-3.6.3-4.382.333-4.625.333-5.138,0-1.391-.453-2.086-1.481-2.42a1.332,1.332,0,0,1,.786-.212c1.451,0,3.023,1.119,3.023,2.118,0,.331-.03.391-.393,1.421a18.171,18.171,0,0,0-.846,3.93c.846.212,1.27.573,1.27,1.147,0,.3-.06.423-.484,1.119a15.5,15.5,0,0,0-1.239,2.269Zm-5.049-.452c0,.393.151.784,1.451,3.9,1.24-1.785,1.965-2.9,2.449-3.779.06-2.057.06-2.057.091-2.541-2.116.606-3.991,1.753-3.991,2.42m2.237,5.773c.272.544,1.3,2.781,1.512,3.3l.151.3c.06,0,.091-.183.091-.574,0-.153,0-.393-.03-.788-.03-.512-.03-1.147-.03-1.933,0-1.753-.03-2.118-.06-2.964-.544.788-1.119,1.725-1.633,2.66m11.488,1.695c-1.723,0-3.053.786-3.053,1.814a1.259,1.259,0,0,0,.393,1,3.453,3.453,0,0,0,2.267.7,4.413,4.413,0,0,0,2.812-.907,3.356,3.356,0,0,0,.937-1.211c.091-.24.181-.391.181-.423a6.911,6.911,0,0,0-3.537-.966" transform="translate(112.386 0.488)" fill="#2e2e2e"/>
      <path id="パス_1055" data-name="パス 1055" d="M200.282,6.537a3.57,3.57,0,0,0,2.66.815,12.516,12.516,0,0,0,3.052-.452,25.262,25.262,0,0,0,.212-2.6,10.012,10.012,0,0,0-.091-1.028c-.06-.333-.121-.393-.845-.846-.334-.212-.514-.423-.514-.6,0-.3.482-.544,1.058-.544,1.27,0,2.356.726,2.356,1.6a2.545,2.545,0,0,1-.119.665,6.753,6.753,0,0,0,2.568,1.088c.788.121,1.15.453,1.15,1v.06c-.06,1-1.693,2.026-4.657,2.9a97.606,97.606,0,0,1-3.507,12.969c-.724,2-1.058,2.419-1.782,2.419a1.145,1.145,0,0,1-1.15-1.209c0-.423.092-.665.727-1.814a54.2,54.2,0,0,0,4.293-12.123,5.239,5.239,0,0,1-1.362.151,4.833,4.833,0,0,1-4.293-2.237Zm9.311-1.119A5.5,5.5,0,0,0,207.959,4c-.06.453-.212,1.27-.452,2.479,1.3-.423,2.086-.846,2.086-1.058m2.356,11.728a6.111,6.111,0,0,0-.423,2.178c0,2,1.451,2.931,4.506,2.931a13.975,13.975,0,0,0,2.721-.24,3.646,3.646,0,0,1,.542-.03,1.472,1.472,0,0,1,1.634,1.36c0,.937-.818,1.27-3.084,1.27-4.686,0-7.227-1.632-7.227-4.565a4.908,4.908,0,0,1,.967-2.993Zm.846-8.433a8.5,8.5,0,0,1,4.9-1.784c2.086,0,4.022,1.239,4.022,2.539a.794.794,0,0,1-.846.846,4.264,4.264,0,0,1-.516-.06,5.1,5.1,0,0,0-.6-.06c-.818,0-1.542.272-3.267,1.239l-.212-.3c1.391-1,2.269-1.842,2.237-2.175-.029-.423-.907-.756-2.054-.756a9.874,9.874,0,0,0-3.478.816Z" transform="translate(123.589 0.868)" fill="#2e2e2e"/>
    </g>
    <g id="グループ_281" data-name="グループ 281" transform="translate(-2075.69 19271)">
      <path id="パス_1056" data-name="パス 1056" d="M7.012,47.122a4.5,4.5,0,0,0,3.685,1.4c1.859,0,2.936-.111,11.318-1.182a32.511,32.511,0,0,0,4.763-.776c.684-.222.684-.222.912-.222a5.272,5.272,0,0,1,2.153.7c1.239.628,1.7,1.145,1.7,1.884a1.056,1.056,0,0,1-1.011,1.108,9.56,9.56,0,0,1-1.468-.3,15.342,15.342,0,0,0-4.241-.591,74.274,74.274,0,0,0-14.481,2.032,3.213,3.213,0,0,1-.62.074c-.719,0-1.3-.48-2.022-1.515A4.327,4.327,0,0,1,6.978,47.6l.034-.3Zm7.763-9.533a29.942,29.942,0,0,0,5.935-.85,6.4,6.4,0,0,0,1.762-.665,2.755,2.755,0,0,1,1.37-.443,4.142,4.142,0,0,1,2.348,1,1.418,1.418,0,0,1,.457,1.035,1.064,1.064,0,0,1-.326.813c-.294.222-.522.259-1.5.259a57.032,57.032,0,0,0-8.545.85,12.549,12.549,0,0,1-2.088.3,2.177,2.177,0,0,1-1.7-.887,4.568,4.568,0,0,1-1.075-2.18,6.437,6.437,0,0,0,3.359.776" transform="translate(-6.978 -25.839)" fill="#2e2e2e"/>
      <path id="パス_1057" data-name="パス 1057" d="M31.629,40.628a21.1,21.1,0,0,0,2.9-.369c2.219-.443,2.219-.443,2.675-.7a1.611,1.611,0,0,1,.88-.3A3.257,3.257,0,0,1,39.978,40.3a1.561,1.561,0,0,1,.653,1.072,1.113,1.113,0,0,1-.425.813c-.39.406-.39.406-1.532,4.212-.327,1.145-.49,1.663-1.011,3.252.423-.074.423-.074,2.12-.259a9.043,9.043,0,0,0,2.251-.554,2.144,2.144,0,0,1,.685-.148,4.829,4.829,0,0,1,1.826.628c.62.333.947.739.947,1.219a.845.845,0,0,1-.848.961,3.3,3.3,0,0,1-.946-.185,17.047,17.047,0,0,0-3.655-.333,28.09,28.09,0,0,0-5.967.628c-1.8.333-4.012.85-5.154,1.182a3.154,3.154,0,0,1-1.108.259,3.6,3.6,0,0,1-2.87-2.66,6.331,6.331,0,0,0,2.479.369c1.075,0,4.892-.406,8.283-.924a55.973,55.973,0,0,0,1.99-8.2c0-.3-.131-.443-.391-.443a17.725,17.725,0,0,0-3.913,1,5.293,5.293,0,0,1-1.827.48,2.3,2.3,0,0,1-2.088-2.254,1.139,1.139,0,0,1,.034-.3,4.484,4.484,0,0,0,2.12.517" transform="translate(5.23 -23.373)" fill="#2e2e2e"/>
      <path id="パス_1058" data-name="パス 1058" d="M45.37,40.313c.522,0,1.3-.037,2.251-.074,2.544-.148,2.544-.148,10.307-.48a23.913,23.913,0,0,0,4.827-.48,2.235,2.235,0,0,1,.489-.074,4.036,4.036,0,0,1,2.022.7,1.583,1.583,0,0,1,.719,1.293c0,.739-.49,1.145-1.337,1.145a4.482,4.482,0,0,1-.653-.037,34.429,34.429,0,0,0-4.078-.185c-3,0-9.719.3-12.884.591a9.335,9.335,0,0,0-2.445.369,3.311,3.311,0,0,1-.946.222c-.947,0-2.153-1.7-2.153-3.1a2.338,2.338,0,0,1,.423-1.293c.848,1.145,1.436,1.4,3.458,1.4" transform="translate(16.473 -23.612)" fill="#2e2e2e"/>
      <path id="パス_1059" data-name="パス 1059" d="M57.123,57.587A50.842,50.842,0,0,0,69.093,45.1c2.382-3.51,5.023-8.24,5.023-9.053,0-.222-.131-.3-.391-.3a42.528,42.528,0,0,0-6.686,2.291,6,6,0,0,1-2.284.739c-.749,0-1.434-.591-1.891-1.663a4.473,4.473,0,0,1-.359-1.589,2.492,2.492,0,0,1,.066-.591,3.231,3.231,0,0,0,2.513,1.035,32.321,32.321,0,0,0,6.392-1.145,5.83,5.83,0,0,0,2.251-.961,1.534,1.534,0,0,1,.783-.259c1.011,0,2.936,1.921,2.936,2.919,0,.443-.131.665-.653,1.072-.423.369-.423.369-2.934,4.286-.457.739-.882,1.367-2.578,3.732a21.728,21.728,0,0,1,6.459,4.471c1.5,1.552,2.38,3.178,2.38,4.323,0,1-.586,1.811-1.337,1.811A1.044,1.044,0,0,1,78,55.814a8.728,8.728,0,0,1-.88-1.663,19.122,19.122,0,0,0-6.3-7.907,47.106,47.106,0,0,1-6.555,7.02,35.149,35.149,0,0,1-6.883,4.693Z" transform="translate(27.097 -27.215)" fill="#2e2e2e"/>
      <path id="パス_1060" data-name="パス 1060" d="M74.716,47.982A43.339,43.339,0,0,0,82.088,38.6c1.533-2.623,2.219-4.175,2.219-5.062a2,2,0,0,0-1.045-1.663,2.02,2.02,0,0,1,1.045-.333c1.337,0,2.87,1.182,2.87,2.254a1.406,1.406,0,0,1-.294.813c-.1.148-.2.369-.326.591-.359.665-.425.739-.653,1.145a4,4,0,0,0,.816.111,26.909,26.909,0,0,0,4.239-.628,3.7,3.7,0,0,0,1.339-.591c.391-.259.457-.3.652-.3a3.745,3.745,0,0,1,2.022,1.478,1.823,1.823,0,0,1,.62,1.256c0,.406-.195.665-.685,1.035-.489.333-.554.443-1.043,1.293-1.337,2.365-2.219,3.769-4.273,6.873,1.826,1.921,2.642,3.325,2.642,4.545,0,.813-.49,1.478-1.108,1.478-.457,0-.784-.333-1.208-1.219a15.3,15.3,0,0,0-1.728-2.993A46.331,46.331,0,0,1,81.7,55.3a40.69,40.69,0,0,1-7.469,4.8L74,59.695A50.816,50.816,0,0,0,86.915,47.021,15.682,15.682,0,0,0,83,43.4l.163-.369a15.616,15.616,0,0,1,4.827,2.476,57.767,57.767,0,0,0,3.687-6.392A5.52,5.52,0,0,0,92.3,37.6c0-.185-.131-.3-.359-.3a29.382,29.382,0,0,0-4.273.739,3.726,3.726,0,0,1-.816.148,2.1,2.1,0,0,1-1.532-.924A34.812,34.812,0,0,1,74.978,48.388Z" transform="translate(38.564 -28.62)" fill="#2e2e2e"/>
      <path id="パス_1061" data-name="パス 1061" d="M91.473,34.553c2.739.591,4.142,1.145,5.415,2.217a4.213,4.213,0,0,1,1.663,3.1c0,1.035-.522,1.774-1.239,1.774-.522,0-.88-.333-1.37-1.293-1.369-2.734-2.674-4.323-4.6-5.469Zm20.418,1.293a43.713,43.713,0,0,1-10.176,14.336,47.915,47.915,0,0,1-5.317,4.4,6.454,6.454,0,0,1-.62.48c-.652.517-.977.665-1.337.665-.685,0-1.468-.7-2.153-1.921A4.344,4.344,0,0,1,91.57,51.7a2.262,2.262,0,0,1,.2-.924c.815,1.035,1.6,1.589,2.282,1.589.88,0,2.511-.924,4.99-2.808a52.985,52.985,0,0,0,12.526-13.93Z" transform="translate(50.349 -26.572)" fill="#2e2e2e"/>
      <path id="パス_1062" data-name="パス 1062" d="M105.83,49.478a43.365,43.365,0,0,0,7.371-9.422c1.532-2.623,2.217-4.138,2.217-5.025,0-.665-.292-1.108-1.043-1.663A1.811,1.811,0,0,1,115.418,33c1.339,0,2.87,1.182,2.87,2.254a1.4,1.4,0,0,1-.292.813c-.1.185-.228.406-.327.628-.391.7-.423.739-.652,1.145a4,4,0,0,0,.815.111,23.134,23.134,0,0,0,4.241-.628,3.687,3.687,0,0,0,1.337-.591c.391-.259.457-.3.653-.3a3.745,3.745,0,0,1,2.022,1.478c.489.591.62.887.62,1.256,0,.406-.2.665-.685,1.035-.489.333-.554.443-1.043,1.293-1.339,2.365-2.219,3.769-4.274,6.873,1.827,1.921,2.644,3.325,2.644,4.508,0,.813-.49,1.478-1.11,1.478-.457,0-.783-.333-1.206-1.219a16.029,16.029,0,0,0-1.73-2.956,45.853,45.853,0,0,1-6.49,6.577,38.988,38.988,0,0,1-7.471,4.8l-.228-.369a50.818,50.818,0,0,0,12.917-12.711,16.615,16.615,0,0,0-3.913-3.584l.163-.37a15.921,15.921,0,0,1,4.827,2.439,51.671,51.671,0,0,0,3.685-6.392,5.454,5.454,0,0,0,.62-1.515c0-.185-.129-.3-.358-.3a32.638,32.638,0,0,0-4.273.776,3.741,3.741,0,0,1-.816.148,2.108,2.108,0,0,1-1.533-.924A34.643,34.643,0,0,1,106.09,49.848ZM125.5,32.593a8.485,8.485,0,0,1,3.49,1.441,3.216,3.216,0,0,1,1.631,2.439,1.026,1.026,0,0,1-.88,1.108c-.391,0-.685-.259-1.142-1a10.043,10.043,0,0,0-3.23-3.695Zm2.544-2.55c3.2.369,5.349,1.663,5.349,3.252,0,.554-.359,1.035-.783,1.035-.326,0-.522-.185-1.011-.813a10.424,10.424,0,0,0-3.687-3.141Z" transform="translate(59.706 -29.637)" fill="#2e2e2e"/>
      <path id="パス_1063" data-name="パス 1063" d="M126.16,40.313c.522,0,1.305-.037,2.251-.074,2.544-.148,2.544-.148,10.307-.48a23.912,23.912,0,0,0,4.827-.48,2.235,2.235,0,0,1,.489-.074,4.036,4.036,0,0,1,2.022.7,1.583,1.583,0,0,1,.719,1.293c0,.739-.49,1.145-1.337,1.145a4.483,4.483,0,0,1-.653-.037,34.429,34.429,0,0,0-4.078-.185c-3,0-9.719.3-12.884.591a9.335,9.335,0,0,0-2.445.369,3.311,3.311,0,0,1-.946.222c-.947,0-2.153-1.7-2.153-3.1a2.339,2.339,0,0,1,.423-1.293c.848,1.145,1.436,1.4,3.458,1.4" transform="translate(71.372 -23.612)" fill="#2e2e2e"/>
      <path id="パス_1064" data-name="パス 1064" d="M143.94,31.632a3.649,3.649,0,0,1,2.185.961,1.5,1.5,0,0,1,.588,1.219,3.41,3.41,0,0,1-.228,1.182,39.109,39.109,0,0,0-.49,6.8c4.992,1.072,7.959,3.289,7.959,5.912,0,1-.489,1.737-1.174,1.737-.49,0-.783-.3-1.337-1.293a13.379,13.379,0,0,0-5.448-5.616c0,8.351.065,11.343.228,15.667a8.5,8.5,0,0,1,.034.961,2.845,2.845,0,0,1-.262,1.589.874.874,0,0,1-.717.443c-.391,0-.783-.333-1.108-.961a6.931,6.931,0,0,1-.751-2.7,6.523,6.523,0,0,1,.2-1.478,23.828,23.828,0,0,0,.26-3.067c.131-3.991.2-9.163.2-15.556a12.645,12.645,0,0,0-.262-3.769,2.158,2.158,0,0,0-1.468-1.182,1.961,1.961,0,0,1,1.6-.85m7.828,1.847c3.065.924,5.087,2.623,5.087,4.286,0,.665-.391,1.182-.912,1.182-.49,0-.751-.3-1.273-1.33a10.623,10.623,0,0,0-3.1-3.843Zm2.968-2.513a10.65,10.65,0,0,1,3.718,1.256,3.009,3.009,0,0,1,1.7,2.328c0,.628-.359,1.108-.848,1.108-.359,0-.62-.222-1.208-1.108a10.012,10.012,0,0,0-3.522-3.289Z" transform="translate(85.004 -29.009)" fill="#2e2e2e"/>
      <path id="パス_1065" data-name="パス 1065" d="M156.536,35.895a3.814,3.814,0,0,0,3,1.145,10.679,10.679,0,0,0,3.325-.591,10.269,10.269,0,0,0,.359-2.55,2.392,2.392,0,0,0-1.4-2.439,2.09,2.09,0,0,1,1.174-.3c1.436,0,2.511.7,2.511,1.626a21.789,21.789,0,0,1-.783,3.067,5.227,5.227,0,0,0,1.3-.628c.914-.554,1.011-.591,1.37-.591a1.125,1.125,0,0,1,1.109,1.145c0,.554-.457,1-1.532,1.552a26.9,26.9,0,0,1-3.132,1.256,111.193,111.193,0,0,1-5.121,13.117c-.62,1.33-1.142,1.847-1.859,1.847a1.189,1.189,0,0,1-1.043-1.293c0-.665.1-.813,1.434-2.882a47.42,47.42,0,0,0,4.926-10.457,6.073,6.073,0,0,1-1.339.148c-2.054,0-3.294-.776-4.6-2.882ZM171.376,37a8.079,8.079,0,0,1,4.664,1.256,4.464,4.464,0,0,1,2.479,3.732c0,.776-.391,1.293-.978,1.293-.294,0-.49-.111-.914-.443a3.656,3.656,0,0,0-2.674-1c-1.859,0-2.578,1.072-2.578,3.769,0,1.515.326,5.838.554,7.8a11.16,11.16,0,0,1,4.469,2.217,2.834,2.834,0,0,1,1.337,2.328c0,.813-.391,1.367-.946,1.367-.457,0-.586-.111-1.5-1.256a9.407,9.407,0,0,0-3.23-2.513c.034.333.034.7.034.924,0,2.882-1.73,4.545-4.73,4.545-2.707,0-4.6-1.441-4.6-3.51,0-2.513,2.773-4.36,6.523-4.36a6.33,6.33,0,0,1,.751.037c-.1-2.66-.1-3.03-.1-3.547,0-6.392.977-8.24,4.892-9.127.457-.111.521-.148.521-.259a2.485,2.485,0,0,0-.652-1.035,6.272,6.272,0,0,0-3.391-1.774Zm-2.968,17.81c-2.936,0-4.827,1.035-4.827,2.623,0,1.219,1.077,1.921,2.87,1.921,2.445,0,3.522-1.145,3.522-3.732V55a6.125,6.125,0,0,0-1.565-.185" transform="translate(94.163 -28.874)" fill="#2e2e2e"/>
      <path id="パス_1066" data-name="パス 1066" d="M173.978,58.263a49.3,49.3,0,0,0,11.579-14.669c1.6-3.03,3.3-7.057,3.3-7.833a.382.382,0,0,0-.425-.406,21.049,21.049,0,0,0-3.456.7c-3.164.776-3.361.85-7.177,2.069a4.8,4.8,0,0,1-1.631.333,3.572,3.572,0,0,1-3.1-3.362v-.3a7.46,7.46,0,0,0,3.752.813,55.255,55.255,0,0,0,9.1-1.367,5.579,5.579,0,0,0,2.217-.813,1.065,1.065,0,0,1,.62-.222c1.24,0,3.393,2.217,3.393,3.473,0,.48-.066.591-.815,1.33a7.016,7.016,0,0,0-.914,1.552,60.612,60.612,0,0,1-8.22,12.415,30.719,30.719,0,0,1-7.958,6.651Z" transform="translate(105.881 -27.484)" fill="#2e2e2e"/>
      <path id="パス_1067" data-name="パス 1067" d="M189.714,60.253a38.085,38.085,0,0,0,9.133-10.383c1.794-2.919,3.816-7.279,3.816-8.2,0-.3-.163-.443-.522-.443a79.068,79.068,0,0,0-9.2,2.106,7.035,7.035,0,0,1-1.631.369c-1.174,0-2.479-1.663-2.479-3.178v-.3a6.317,6.317,0,0,0,3.131.813,74.124,74.124,0,0,0,8.839-1.145,2.966,2.966,0,0,0,1.859-.813.7.7,0,0,1,.522-.222,3.324,3.324,0,0,1,1.794.961c.751.628,1.108,1.145,1.108,1.626,0,.369-.065.48-.554,1a5.63,5.63,0,0,0-.751,1.219,41.507,41.507,0,0,1-7.4,11.233,27.031,27.031,0,0,1-7.437,5.764Zm1.468-26.862a5.645,5.645,0,0,0,2.576.591,16.706,16.706,0,0,0,6.36-1.737,2.531,2.531,0,0,1,1.208-.333,1.771,1.771,0,0,1,1.794,1.552c0,.591-.489,1-1.728,1.441a18.258,18.258,0,0,1-5.252.887,7.135,7.135,0,0,1-5.121-2.032Z" transform="translate(116.597 -28.366)" fill="#2e2e2e"/>
      <path id="パス_1068" data-name="パス 1068" d="M205.773,58.44A36.033,36.033,0,0,0,217.188,42.4a38.114,38.114,0,0,0,1.794-6.392c0-.259-.1-.369-.358-.369a1.208,1.208,0,0,0-.327.037,6.188,6.188,0,0,0-.652.037c-1.663.148-5.675.776-8.089,1.256a4.347,4.347,0,0,1-.653.074,2.6,2.6,0,0,1-1.5-.517c.131,1.219.195,1.884.294,3.067.163,2.143.163,2.143.326,3.658,0,.3.032.628.032.85,0,1-.326,1.552-.88,1.552-.751,0-1.762-1.811-1.762-3.141a5.809,5.809,0,0,1,.1-.961,8.718,8.718,0,0,0,.1-1.33,15.333,15.333,0,0,0-.554-4.1,3.414,3.414,0,0,0-1.5-1.774,1.242,1.242,0,0,1,.816-.3,4.192,4.192,0,0,1,2.739,1.182,5.339,5.339,0,0,0,.717.037c1.11,0,5.383-.554,9.1-1.182a3.163,3.163,0,0,0,1.891-.665.689.689,0,0,1,.554-.259c.425,0,.979.406,1.762,1.256s1.108,1.441,1.108,1.884a.837.837,0,0,1-.326.7,2.018,2.018,0,0,0-.685,1.108c-.032.074-.1.259-.195.517-.034.148-.165.517-.326,1.072a36.681,36.681,0,0,1-7.437,13.376A26.974,26.974,0,0,1,206,58.847Z" transform="translate(126.6 -27.514)" fill="#2e2e2e"/>
      <path id="パス_1069" data-name="パス 1069" d="M222.8,40.313c.522,0,1.3-.037,2.251-.074,2.544-.148,2.544-.148,10.307-.48a23.914,23.914,0,0,0,4.827-.48,2.235,2.235,0,0,1,.489-.074,4.036,4.036,0,0,1,2.022.7,1.583,1.583,0,0,1,.719,1.293c0,.739-.49,1.145-1.337,1.145a4.482,4.482,0,0,1-.653-.037,34.429,34.429,0,0,0-4.078-.185c-3,0-9.719.3-12.884.591a9.335,9.335,0,0,0-2.445.369,3.312,3.312,0,0,1-.946.222c-.947,0-2.153-1.7-2.153-3.1a2.338,2.338,0,0,1,.423-1.293c.848,1.145,1.436,1.4,3.458,1.4" transform="translate(137.039 -23.612)" fill="#2e2e2e"/>
      <path id="パス_1070" data-name="パス 1070" d="M247.886,38.89h-4.078c0,.591-.032,3.215-.032,3.732,1.305.591,3.947,2.623,3.947,4.619,0,1.33-.946,1.478-1.208,1.478-.912,0-1.174-.961-1.434-2.106-.554-2.254-.653-2.734-1.305-3.436.1,15.445.1,15.851.131,17.329,0,.222.032,1.182.032,1.4,0,1.145-.554,1.811-1.663,1.811-.783,0-.783-.85-.783-1.182,0-.48.195-3.732.228-4.434.032-1.958.064-3.03.1-12.452a23.536,23.536,0,0,1-5.675,9.644l-.2-.222a49.559,49.559,0,0,0,5.61-16.184,20.588,20.588,0,0,0-4.239.333l-.62-1.478c.751.074,2.25.222,5.055.259a52.234,52.234,0,0,0-.423-8.092l3,1.108c.391.148.751.333.751.7,0,.333-.1.406-1.24,1.33,0,.591,0,3.289-.034,4.951h.947l.912-1.256c.1-.148.294-.443.522-.443a1.108,1.108,0,0,1,.62.37l1.273,1.256a.807.807,0,0,1,.326.554c0,.369-.294.406-.522.406m17.808-4.508h-8.577c0,2.808-.1,5.062-.228,6.429h4.958l.848-1c.228-.259.391-.443.489-.443.131,0,.294.148.457.3l1.3,1.072c.26.222.457.369.457.665,0,.48-.228.628-.979,1.108.034,1.182-.032,7.759-.032,9.237,0,2.032.129,5.321.129,7.39,0,2.143-.684,3.806-3.816,4.656a5.212,5.212,0,0,0-2.968-3.695V59.84a23.537,23.537,0,0,0,2.968.222c1.174,0,1.371-.037,1.468-.591.131-.887.131-11.2.131-12.193,0-1.626,0-4.028-.1-5.579h-5.383a28.691,28.691,0,0,1-.751,4.286c1.7.924,4.861,3.178,4.861,6.023,0,1.4-.946,1.663-1.305,1.663-.685,0-1.108-.517-1.5-1.958-.946-3.4-1.011-3.584-2.185-5.321a15.213,15.213,0,0,1-5.383,8.166c0,.776.034,4.508.066,5.358,0,.333.065,1.847.065,2.18a1.584,1.584,0,0,1-1.663,1.589c-.522,0-.882-.259-.882-1.293,0-.259.065-.961.1-1.256.129-1.33.163-6.466.163-18.179a17.238,17.238,0,0,0-.326-3.547l2.674,1.4h3.881c.066-1,.2-4.028.131-6.429h-3.3a19.941,19.941,0,0,0-3.848.333l-.653-1.441c2.676.222,4.632.222,5.023.222h9.622l1.206-1.626c.165-.222.359-.48.522-.48s.391.222.62.406l1.893,1.626a.807.807,0,0,1,.326.554c0,.406-.294.406-.49.406m-15.1,7.316c-.065,2.993-.1,6.577-.034,12.378,1.762-2.254,3.655-7.205,4.012-12.378Z" transform="translate(148.612 -29.726)" fill="#2e2e2e"/>
      <path id="パス_1071" data-name="パス 1071" d="M255.912,39.667c2.382.074,4.958,1.626,4.958,3.547a1.454,1.454,0,0,1-1.337,1.552c-.815,0-1.108-.591-1.794-1.884a20.894,20.894,0,0,0-1.925-2.993Zm7.274.924a54.7,54.7,0,0,1-1.174,7.131c-.2.813-1.533,6.614-1.533,7.094A18.545,18.545,0,0,0,261,57.624a16.257,16.257,0,0,1,.783,4.138c0,1.589-.914,2-1.533,2-1.4,0-1.532-1.737-1.532-3.067,0-.369.032-1.921.032-2.217,0-3.1-1.37-3.991-2.054-4.434v-.222c1.369-.185,1.695-.443,2.9-3.547.979-2.476,3-8.572,3.359-9.718Zm-4.859-9.755c1.565.185,4.793,1,4.793,3.695,0,1-.586,1.589-1.305,1.589-.489,0-.912-.259-1.434-1.367a16.7,16.7,0,0,0-2.088-3.695Zm27.724,16.775a6.388,6.388,0,0,0-2.936,2.956A20.3,20.3,0,0,1,273.3,39.445a29.621,29.621,0,0,1-10.993,11.528l-.131-.222c4.436-4.693,8.645-11.048,9.362-14.484l2.445,1.663a.9.9,0,0,1,.425.7c0,.443-.391.554-.719.628,3.72,5.284,7.828,7.353,12.363,8.166ZM271.537,31.722a.853.853,0,0,1,.326.591c0,.443-.2.554-1.011.591a25.792,25.792,0,0,1-8.186,6.688l-.165-.222a38.92,38.92,0,0,0,5.023-6.1c1.3-2,1.37-2.513,1.5-3.473Zm-2.219,29.855a3.817,3.817,0,0,1-.1,1.552,2.079,2.079,0,0,1-1.6.776c-.848,0-.848-.813-.848-1.145,0-.185.066-.591.066-.739.131-1.626.131-5.616.131-7.464a33.751,33.751,0,0,0-.294-5.8l3,1.737h7.6l.783-.961c.131-.185.294-.369.489-.369a.731.731,0,0,1,.457.222l1.468,1.182a.962.962,0,0,1,.423.665c0,.259-.1.406-.88.924,0,1.219,0,3.178.1,5.1.066,1.441.2,4.1.2,4.323,0,.665,0,.924-.359,1.256a2.164,2.164,0,0,1-1.369.591c-.882,0-.848-.961-.816-1.847Zm8.448-10.2h-8.48v9.311h8.48ZM274.9,31.168c1.305.148,7.894,1.589,7.894,5.432,0,1.035-.62,1.515-1.273,1.515-.717,0-1.108-.517-1.957-1.811A23.205,23.205,0,0,0,274.8,31.39Z" transform="translate(162.113 -29.801)" fill="#2e2e2e"/>
      <path id="パス_1072" data-name="パス 1072" d="M305.158,59.26a5.179,5.179,0,0,0-3.325,2.586c-5.971-4.175-10.863-13.006-11.32-22.133a31.98,31.98,0,0,1-4.142,5.469V58a75.989,75.989,0,0,0,7.8-1.737l.032.333a89.951,89.951,0,0,1-13.863,5.321c-.1.406-.228.887-.62.887-.358,0-.554-.369-.652-.628l-1.271-3.215a13.422,13.422,0,0,0,1.891.148A9.565,9.565,0,0,0,280.891,59c.49-.074,2.741-.517,3.263-.591V47.4a29.59,29.59,0,0,1-8.71,5.875l-.131-.333A52.421,52.421,0,0,0,288.459,38.2h-8.351a19.942,19.942,0,0,0-3.848.333l-.653-1.478a45.766,45.766,0,0,0,5.023.259h8.351V35.1a15.2,15.2,0,0,0-.653-4.766l3.49.813c.163.037.554.185.554.517,0,.222-.358.7-1.108,1.145,0,.628-.032,3.806,0,4.508H300.4l1.3-2c.2-.333.294-.517.556-.517.228,0,.391.222.588.443l1.826,1.958c.195.222.326.369.326.591,0,.369-.292.406-.489.406H291.492c-.195.3-.359.554-.62.961a36.125,36.125,0,0,0,2.87,8.794c1.728-2.032,4.338-5.173,4.664-7.057l2.87,2.513a1,1,0,0,1,.359.628c0,.443-.359.517-1.728.591A46.108,46.108,0,0,1,294,48.508c2.479,5.136,6.622,9.311,11.155,10.494Z" transform="translate(175.362 -29.442)" fill="#2e2e2e"/>
      <path id="パス_1073" data-name="パス 1073" d="M304.028,44.468c-1.24.517-3.587,1.552-4.11,1.811a4.706,4.706,0,0,1-2.054.628A2.606,2.606,0,0,1,296,45.983a3.72,3.72,0,0,1-1.077-2.143,4.864,4.864,0,0,0,2.185.443,25.939,25.939,0,0,0,6.915-1.626c0-.776.034-3.732.034-5.173,0-2.513-.262-3.1-1.762-3.806a1.676,1.676,0,0,1,1.468-.776,4.342,4.342,0,0,1,2.511,1A1.781,1.781,0,0,1,307,35.268a4.242,4.242,0,0,1-.23,1.145c-.292.924-.423,1.847-.684,5.542,2.8-1,5.186-1.884,6.327-2.365.49-.591.653-.7,1.077-.7,1.273,0,3.425,2.18,3.425,3.473a.836.836,0,0,1-.489.813c-.163.111-.26.111-.914.185-.946.074-1.077.148-3.49,2.291-.684.628-1.24,1.072-2.185,1.811l-.26-.259c2.022-2.439,3.587-4.951,3.587-5.8,0-.222-.131-.369-.294-.369a58.513,58.513,0,0,0-6.849,2.55c-.065,1.7-.131,3.806-.131,6.1,0,3.917.425,4.582,2.87,4.582a11.843,11.843,0,0,0,3.98-.665,5.317,5.317,0,0,1,1.369-.222c1.5,0,2.413.591,2.413,1.552,0,.739-.455,1.182-1.4,1.367a28.247,28.247,0,0,1-4.207.333c-3.587,0-5.316-.628-6.1-2.18-.586-1.219-.783-3.03-.783-7.353V44.468Z" transform="translate(188.691 -27.693)" fill="#2e2e2e"/>
      <path id="パス_1074" data-name="パス 1074" d="M313.16,38.757c2.8,1.4,4.239,3.067,4.239,4.914,0,.813-.489,1.441-1.109,1.441-.522,0-.783-.333-1.045-1.256a12.2,12.2,0,0,0-2.316-4.8Zm2.576,18.512a38.106,38.106,0,0,0,9.132-11.417c1.631-3.03,2.838-5.949,2.838-6.91,0-.628-.294-.961-1.337-1.515a1.442,1.442,0,0,1,1.075-.369,3.548,3.548,0,0,1,2.87,2.734c0,.333-.032.406-.423,1a14.343,14.343,0,0,0-1.108,2,40.428,40.428,0,0,1-6.654,9.829,25.188,25.188,0,0,1-6.164,4.988Zm2.642-20.692a8.67,8.67,0,0,1,3.458,2.513,3.568,3.568,0,0,1,.88,2.217,1.341,1.341,0,0,1-1.11,1.441c-.489,0-.749-.333-.977-1.145a11.761,11.761,0,0,0-2.479-4.73Z" transform="translate(200.923 -25.197)" fill="#2e2e2e"/>
      <path id="パス_1075" data-name="パス 1075" d="M331.153,31.319a3.65,3.65,0,0,1,2.185.961,1.5,1.5,0,0,1,.588,1.219,3.409,3.409,0,0,1-.228,1.182,38.99,38.99,0,0,0-.489,6.8c4.924,1.035,7.958,3.289,7.958,5.912,0,1-.489,1.737-1.174,1.737-.489,0-.783-.3-1.337-1.293a13.359,13.359,0,0,0-5.447-5.616c0,6.1.066,11.75.195,14.484.065,1.33.065,1.552.065,2.143a2.864,2.864,0,0,1-.26,1.589.877.877,0,0,1-.719.443c-.457,0-.914-.48-1.271-1.33a6.227,6.227,0,0,1-.588-2.328,6.121,6.121,0,0,1,.2-1.478,25.425,25.425,0,0,0,.26-3.067c.131-4.693.2-8.831.2-15.445,0-2.623-.065-3.362-.262-3.88a2.233,2.233,0,0,0-1.468-1.182,1.963,1.963,0,0,1,1.6-.85" transform="translate(212.22 -28.769)" fill="#2e2e2e"/>
    </g>
  </g>
</svg>
