<?xml version="1.0" encoding="UTF-8"?>
<svg id="_レイヤー_1" data-name="レイヤー 1" xmlns="http://www.w3.org/2000/svg" version="1.1" viewBox="0 0 581 91">
  <defs>
    <style>
      .cls-1 {
        fill: #f2cacc;
      }

      .cls-1, .cls-2, .cls-3 {
        stroke-width: 0px;
      }

      .cls-2 {
        fill: none;
      }

      .cls-3 {
        fill: #2e2e2e;
      }
    </style>
  </defs>
  <g id="_グループ_265" data-name="グループ 265">
    <rect id="_長方形_122" data-name="長方形 122" class="cls-1" y="44" width="353" height="47"/>
    <g id="_グループ_263" data-name="グループ 263">
      <path id="_パス_899" data-name="パス 899" class="cls-3" d="M35.3,27.6c-4-.2-7.8-1.4-11.2-3.5-4,2.3-8.5,3.5-13.1,3.4v-.2c4.1-.6,8-2.1,11.5-4.2-1.2-1-2.2-2.1-3-3.5-2.5,2.5-5.6,4.3-8.9,5.4v-.2c1.9-1.1,7.7-5.8,9.2-8.7h-2.2c0,.7-.5,1.2-1.1,1.3,0,0,0,0-.1,0-.2,0-1,0-1-.8,0-.2,0-.3,0-.5.2-1.6.2-3.4.2-5.1,0-4.2,0-4.7,0-5.5,0-.5-.1-1-.2-1.5l2.7,1.4h3.7c.3-.8.4-1.7.6-2.5h-7.8c-1.2,0-2.4,0-3.6.3l-.6-1.2c2.4.2,4.1.2,4.7.2h18l1.2-1.5c.2-.2.3-.4.5-.4s.3.1.5.3l1.7,1.5c.2.2.3.3.3.5,0,.3-.3.3-.5.3h-11.5c-.8.8-1.8,1.7-2.8,2.5h7.1l.7-.7c.2-.2.3-.3.4-.3.2,0,.4.1.5.3l1.3,1c.1,0,.2.2.2.4,0,.2-.7.8-.8.9,0,.6,0,1.4,0,2.6s.2,5,.2,5.9c0,.8-.5,1.4-1.3,1.4,0,0,0,0-.1,0-.8,0-.8-.5-.8-.9h-7.8l.6.4c.2.1.3.2.3.4,0,.5-.7.5-1.1.5-.5.5-.7.8-1.1,1.2h6.6l.9-.8c.2-.2.3-.3.5-.3s.2,0,.5.2l1.6,1c.2.1.3.3.3.5,0,.4-.2.4-1.6.7-1.2,1.2-2.5,2.3-3.9,3.3,1,.4,3.7,1.5,9,1.5s2.3,0,3-.1v.2c-1.8,1.5-2,2.1-2.1,2.8M29.8,6.1h-12.1v2.6h12.1v-2.6ZM29.8,9.4h-12.1v2.5h12.1v-2.5ZM29.8,12.7h-12.1v2.6h12.1v-2.6ZM19.9,19.3c1,1.3,2.2,2.3,3.7,3.1,1.3-.9,2.4-1.9,3.4-3.1h-7.1Z"/>
      <path id="_パス_900" data-name="パス 900" class="cls-3" d="M49.9,24.9c3.6-.4,5.4-1,7.2-2.1,3-1.9,4.7-5.2,4.6-8.7.1-2.4-.8-4.8-2.4-6.5-1.6-1.5-3.8-2.3-6.1-2.3-.4,0-.7,0-1.4,0,.9,1,1.4,2.4,1.3,3.8-.2,3.7-1.4,7.3-3.4,10.5-1.4,2.1-2.8,3.2-4.2,3.2-2.4,0-4.3-2.9-4.3-6.7,0-6.6,5.2-11.5,12.3-11.5s10.5,4.2,10.5,10c0,4.1-2.5,7.8-6.3,9.3-2.5,1-5.2,1.4-7.9,1.3v-.4ZM46.2,8c-2.1,2-3.3,4.7-3.3,7.6,0,3.1,1.1,5.2,2.7,5.2s2.2-1.1,3.4-3.2c1.8-2.9,2.8-6.3,3-9.7,0-.5,0-1-.2-1.5-.1-.3-.3-.5-.5-.8-1.9.3-3.7,1.2-5.1,2.4"/>
      <path id="_パス_901" data-name="パス 901" class="cls-3" d="M75.6,2.2l.7-.6c.1-.2.3-.3.5-.3.2,0,.3,0,.5.3l1.2,1.1c.3.3.4.4.4.5,0,.4-.5.6-1.5,1-.4.6-2.9,4.6-3.9,6,1.3,1,4.1,3.4,4.1,6.4,0,2.1-1.5,3.8-3.5,4.2-.2-1.2-.9-2.2-1.8-2.8v-.2c.6.1,1.1.2,1.7.2,1.1,0,1.5-.3,1.5-1.6,0-2.3-1-4.5-2.7-6.1,1.1-2.3,2-4.8,2.5-7.3h-3.7c0,1.4,0,12.5,0,14.8s.2,5.7.2,7.4,0,1.9-1.4,1.9-.8-.5-.8-.7c0-2.4.1-6.2.1-8.6s0-7.7,0-8.2c0-2.1,0-6.6-.2-8.4l2.5,1.2h3.5ZM81.9,17c-.7.9-3.5,4.4-6.9,5.9v-.2c2.9-2.5,5.2-5.7,6.7-9.3h-.5c-1.2,0-2.4,0-3.6.3l-.6-1.2c1.5.1,3.1.2,4.6.2h9.8l1.1-1.3c.2-.2.3-.4.5-.4s.4.2.5.3l1.3,1.2c.2.1.3.3.3.5,0,.3-.3.3-.5.3h-10.4c-.5,1-1.1,2-1.8,2.9h8l.7-.8c.2-.2.4-.4.5-.4.2,0,.4.1.6.3l1.4,1.1c0,0,.2.2.2.4,0,.4-.6.8-1.1,1,0,.9-.4,4.2-.5,5-.6,2.9-1.7,4.1-4.7,4.6-.2-1.2-.9-2.3-1.9-3.1v-.2c1,.3,1.9.5,2.8.5.5,0,1.2,0,1.5-1.2.3-1.3.4-1.8.8-6.4h-1.6c-1.3,4.9-4.9,8.9-9.6,10.6v-.2c3.6-2.5,6.3-6.2,7.4-10.5h-1.6c-1.7,4.3-5.1,7.8-9.4,9.5v-.2c3.2-2.3,5.8-5.6,7.2-9.3h-1.2ZM88,2l.5-.6c.2-.2.3-.3.5-.3.2,0,.3,0,.5.2l1.1.8c.3.2.4.4.4.4,0,.3-.1.4-.9.9,0,1.7.1,4.5.1,6.3,0,.7-.5,1.3-1.2,1.3,0,0-.1,0-.2,0-.7,0-.7-.4-.7-1.2h-5.5c0,.6-.4,1.2-1,1.3,0,0-.2,0-.3,0-.8,0-.8-.5-.8-.8,0-.8,0-4.6,0-5.4,0-1.4,0-2.8-.2-4.2l2.4,1.2h5.2ZM82.6,5.6h5.5v-2.8h-5.5v2.8ZM82.6,9.2h5.5v-2.9h-5.5v2.9Z"/>
      <path id="_パス_902" data-name="パス 902" class="cls-3" d="M110.2,16.4l-.3.5c0,1.2,0,6.6,0,7.7s0,2.8-3.4,3.4c-.3-1.2-1-2.3-2.1-2.9v-.2c.5,0,1.2,0,2.2.1.9,0,1.1,0,1.2-.5,0-.3,0-4.7,0-5.3-2.6,3.2-6,5.6-9.8,7.3v-.2c3.7-2.6,6.9-5.9,9.5-9.7-1,.4-2.4.9-3.8,1.4-1.4.4-3.7,1.1-4,1.2,0,.4-.2.7-.5.7s-.4-.2-.5-.5l-.8-2.5c.9.2,1.7.2,2.6.1,0-1,0-5.6,0-6.5,0-2.4,0-4.8-.4-7.2l2.5,1.4h.6c.5-1.3.9-2.6.9-4,0-.3,0-.5,0-.8l2.9,1.1c.2,0,.4.3.4.5,0,.3-.2.5-1,.6-.4.4-2.2,2.1-2.5,2.5h3.6l.7-.8c.2-.2.3-.3.5-.3s.3,0,.6.3l1.1.9c.2.1.3.3.3.5,0,.5-.5.8-1,1,0,1.3,0,7.1,0,8.3l.9.6c.2.1.4.3.4.6,0,.4-.3.5-.9.6M107.8,5.5h-5.3v3h5.3v-3ZM107.8,9.2h-5.3v3.1h5.3v-3.1ZM107.8,13.1h-5.3v3.7c1.8-.2,3.5-.4,5.3-.8v-3ZM125.7,9.9h-4.7v7.3c0,.8.2,6.5.2,7.5,0,1.5-.3,3-3.9,3.7-.2-1.4-1.2-2.6-2.6-3.1v-.2c.7,0,1.7.2,3.1.2s1.4,0,1.4-1.9,0-6.8,0-8.3c0-.6,0-2.3,0-5.1h-3.9c-1.2,0-2.4,0-3.6.3l-.6-1.2c2.1.2,4.2.2,4.7.2h3.4c0-1,0-5.5-.2-6.4,0-.7-.2-1.4-.5-2.1l3.3,1c.3,0,.5.2.5.5s-.5.6-1.1.9c0,3.1,0,4.9,0,6.1h1.5l.8-1.2c.2-.3.3-.4.5-.4.2,0,.4.2.6.3l1.5,1.3c.2.1.3.3.3.5,0,.2-.2.3-.4.3M115.3,19.3c-1,0-1.2-.6-1.6-2.2-.3-1.3-.8-2.6-1.7-3.7v-.2c1.8.6,4.6,2.5,4.6,4.6,0,.7-.4,1.4-1.2,1.5,0,0,0,0-.1,0"/>
      <path id="_パス_903" data-name="パス 903" class="cls-3" d="M149.3,18.5c-.9,1.8-2.2,3.4-3.7,4.7-2.1,1.9-4.8,3-7.6,3-1.3,0-2.6-.3-3.7-1.1-1.4-1.1-2-2.9-2-6s.1-4.5.3-6.7q.3-3.5.4-5.7c0-1,0-1.6,0-2.3,0-1.1-.4-1.6-1.7-2.1.3-.2.6-.3.9-.3,1.8,0,3.4,1.1,3.4,2.3,0,.4,0,.8-.2,1.2-.3,1.1-.8,4.4-1.1,7-.3,2.3-.4,4.6-.5,6.9,0,3.7,1.1,5,4,5s8.2-2.4,11-6.2l.3.3Z"/>
      <path id="_パス_904" data-name="パス 904" class="cls-3" d="M162.6,24.9c3.6-.4,5.4-1,7.2-2.1,3-1.9,4.7-5.2,4.6-8.7.1-2.4-.8-4.8-2.4-6.5-1.6-1.5-3.8-2.3-6.1-2.3-.4,0-.7,0-1.4,0,.9,1,1.4,2.4,1.3,3.8-.2,3.7-1.4,7.3-3.4,10.5-1.4,2.1-2.8,3.2-4.2,3.2-2.4,0-4.3-2.9-4.3-6.7,0-6.6,5.2-11.5,12.3-11.5s10.5,4.2,10.5,10c0,4.1-2.5,7.8-6.3,9.3-2.5,1-5.2,1.4-7.9,1.3v-.4ZM158.9,8c-2.1,2-3.3,4.7-3.3,7.6,0,3.1,1.1,5.2,2.7,5.2s2.2-1.1,3.4-3.2c1.8-2.9,2.8-6.3,3-9.7,0-.5,0-1-.2-1.5-.1-.3-.3-.5-.5-.8-1.9.3-3.7,1.2-5.1,2.4"/>
      <path id="_パス_905" data-name="パス 905" class="cls-3" d="M207.1,4.4h-12.5v5c3,.5,7.6,2.2,7.6,5.1,0,.7-.5,1.3-1.2,1.4,0,0,0,0,0,0-.8,0-1-.4-2.1-2.1-1.1-1.7-2.5-3-4.2-4.1,0,6.9,0,7.6.2,14.6,0,.2,0,1.2,0,1.4,0,.8-.5,1.5-1.3,1.6-.1,0-.2,0-.3,0-1,0-1-.7-1-1,0-.9.2-5.2.2-6.1,0-2.4,0-3.7,0-15.8h-7.3c-1.2,0-2.4,0-3.5.3l-.6-1.2c1.5.1,3.1.2,4.7.2h16.8l1.7-1.6c.2-.2.4-.3.5-.3.2,0,.4.1.6.3l2.1,1.6c.2.1.3.3.3.5,0,.3-.3.3-.5.3"/>
      <path id="_パス_906" data-name="パス 906" class="cls-3" d="M225.2,6.4c-3.1,1-6,2.3-8.9,3.9-.7.5-1.6.8-2.5.9-.8,0-1.6-.4-2.1-1-.4-.5-.7-1-.8-1.6.5.4,1.1.5,1.8.5,1,0,1.2,0,6.6-2,1.9-.7,3.6-1.2,6.7-2.1,1.5-.4,1.5-.4,2.2-.7.6-.3,1.3-.4,2-.5,1.6,0,2.8.6,2.8,1.4s-.4.9-1.3.9c-.4,0-.8,0-1.2,0-.3,0-.6,0-.9,0-1.9,0-3.7.7-5.1,2-.8.6-.8.8-1.1,2.5q0,.8-.6,3.8c-.2,1.4-.3,2.8-.3,4.2,0,3.4,1.1,4.8,3.9,4.8.5,0,1,0,1.4-.2.2,0,.4,0,.6,0,1.1,0,2,.7,2,1.4s-.9,1.1-2.9,1.1c-1.4,0-2.8-.3-4-1-1.9-1.1-2.9-3.3-2.9-6.4,0-2.7.6-5.3,1.5-7.8.6-1.6,1.7-3,3.2-3.9h0ZM228,10c1.2.2,2.3.7,3.3,1.3.8.4,1.4,1.1,1.5,2,0,.5-.4.9-.8.9-.4,0-.7-.2-1.1-.9-.7-1.2-1.7-2.3-2.9-3.1v-.2ZM230.4,8c3,.5,5,1.6,5,2.9,0,.5-.3.8-.8.9-.3,0-.5-.2-1.1-.8-.9-1.1-2-2-3.3-2.7v-.3Z"/>
      <path id="_パス_907" data-name="パス 907" class="cls-3" d="M247,19.5c-.6,0-1-.5-1.3-1-.3-.5-.7-1-1.1-1.4-1.8,2.2-4.1,4-6.6,5.3v-.2c1.9-1.9,3.7-4,5.3-6.3-.8-.8-1.7-1.3-2.7-1.7v-.2c1.2.2,2.3.6,3.3,1,.7-.9,1.1-2,1.3-3.1l2.3,1.5c.2,0,.3.3.3.5,0,.3-.7.5-1.2.5-.3.5-.4.7-.9,1.4,1.9,1,2.2,2.3,2.2,2.7,0,.6-.4,1-.9,1.1M248.4,12.8c-.5,0-.7-.3-1.4-1.1-.5-.6-1.1-1.1-1.8-1.6-2,2-4.4,3.7-6.9,4.9l-.2-.2c2.1-1.7,4-3.5,5.7-5.7-1-.6-2-1.1-3.1-1.5v-.3c1.3.2,2.6.4,3.8.8.7-.8,1.2-1.8,1.5-2.8l2.1,1.5c.2.2.4.3.4.5,0,.3-.3.4-1.2.5-.4.6-.6.8-.8,1.1.7.3,2.8,1.3,2.8,3,0,.5-.3.9-.8.9,0,0,0,0,0,0M262.1,27.5c-5-3.2-8.5-8.2-9.7-14.1-1.2,8.9-8,13.3-14.1,14.7v-.2c12.8-5.5,12.5-16.4,12.4-23.1h-8.1c-1.2,0-2.4,0-3.6.3l-.6-1.2c2.1.2,4.2.2,4.7.2h7.6c0-2.9-.3-3.3-.6-4.1l3,.9c.2,0,.7.2.7.5s0,.3-.9.9c0,.2,0,1.5,0,1.7h7.7l1.3-1.6c.2-.2.3-.4.5-.4.2,0,.4.2.6.3l1.9,1.6c.2.1.3.3.3.5,0,.3-.3.3-.5.3h-11.8c0,1.4-.1,5.9-.1,6.4.4,2.4,1.3,4.7,2.7,6.8.9-.9,1.7-2,2.4-3.1-1.1-.9-2.3-1.6-3.6-2.2v-.2c1.5.3,2.8.8,4.2,1.4.5-.8.8-1.6,1-2.5l2.1,1.3c.3.2.4.4.4.5,0,.4-.3.4-1,.5-.4.5-.5.6-.8,1,1.3.7,3.5,2,3.5,3.7,0,.5-.3,1-.9,1.1,0,0,0,0-.1,0-.7,0-1-.4-1.5-1.1-.6-.9-1.3-1.7-2.1-2.5-1,1-2.1,1.8-3.3,2.5,2.3,3.5,6,6,10.1,6.8v.3c-1.4.1-2.7.9-3.5,2.1M262.8,12.6c-.5,0-.9-.4-1.7-1.1-.9-.9-1.8-1.6-2.9-2.3-1.5,1.2-3.2,2.3-5,3.1v-.2c1.2-1.1,2.5-2.3,3.6-3.6-1-.5-2-1-3-1.4v-.2c1.3.1,2.5.3,3.7.7.7-.7,1.1-1.5,1.3-2.5l2.2,1.5c.1,0,.3.3.3.4,0,.4-.6.5-1.2.5,0,0-.5.5-.7.7,2.7,1.1,4.2,2.1,4.2,3.4,0,.5-.3.9-.7,1,0,0,0,0-.1,0"/>
      <path id="_パス_908" data-name="パス 908" class="cls-3" d="M280.6,12.5c1.7,1.4,3.7,2.2,5.9,2.3,2.5,0,4.3-1.5,4.3-3.7s-1.8-3.7-4.3-3.7-3.1.5-5.5,2c-1.1.6-1.8,1.1-4.6,3,1.6,2.6,3.1,5.4,4.2,8.3.7,1.6,1.2,3.2,1.4,4.9,0,.7-.4,1.3-1.1,1.4-.3,0-.6,0-.9-.3-.3-.2-.4-.5-.5-1.3-.7-4.3-2.1-8.4-4.2-12.2-2.9,2.2-3.6,2.6-4.3,2.6-.8,0-1.5-.4-2-1.1-.4-.4-.6-.9-.7-1.5.4.3.9.4,1.5.4,1.1,0,2.4-.5,4.6-1.9-.5-.8-.8-1.1-1.2-1.7-1.1-1.5-1.2-1.8-1.2-2.5,0-1.5,1.2-2.7,2.7-3,.2,0,.5,0,.7.1.5.2,1.1.2,1.7.2.8,0,2.8-.1,3.4-.2.6,0,.8-.4.8-.9,0-.6-.2-1.1-.6-1.5l.2-.2c1.6.9,2.3,1.7,2.3,2.8s-.6,1.8-1.5,1.8c-.3,0-.6,0-.9-.2-1.7-.6-3.5-.9-5.3-1-.9,0-1.6.6-1.7,1.4,0,0,0,.2,0,.3,0,.7.5,1.7,2,4,1.8-1.1,3.6-2,5.5-2.9,1.8-.9,3.8-1.5,5.8-1.6,3.4,0,6,2.2,6,5.2s-2.2,4.7-5.3,4.7c-2.8-.2-5.4-1.5-7.1-3.7l.2-.3Z"/>
      <path id="_パス_909" data-name="パス 909" class="cls-3" d="M302.7,20.6c1.9,1.2,2.7,1.6,3.3,1.6s1.5-.8,2.3-2.7c.9-2.1,1.4-4.4,1.5-6.7,0-1.9-.5-2.7-1.7-2.7-.9,0-1.9.3-2.8.6-1.4,3.7-3,7.3-5,10.8-1.2,2.1-1.8,2.7-2.4,2.7-.6,0-1-.6-1-1.1q0-.4,1.3-2.1c2.2-3,4-6.2,5.4-9.6-.4.2-.8.3-2.4,1-.6.3-1.3.5-2,.5-.6,0-1.2-.4-1.6-.8-.5-.4-.8-1-.9-1.7,0,0,0-.2,0-.3.6.6,1.4,1,2.3,1,1.7-.2,3.4-.6,5-1.1.4-1,.6-2.1.6-3.2,0-1.2-.6-2.3-1.7-2.7.3-.2.6-.3.9-.2.8,0,1.6.3,2.2.7.4.3.7.7.7,1.2-.2,1.3-.6,2.6-1.1,3.8.8-.2,1.5-.3,2.3-.3,2.2,0,3.3,1.5,3.3,4.6,0,3.3-1,6.5-2.7,9.3-.7,1.1-1.8,1.8-3.1,2-.7,0-1.1-.4-1.1-1.4,0-.8-.4-1.3-1.9-2.7l.2-.3ZM313.9,9.3h.5c3.7,0,6.5,2.5,6.5,5.7s-1,3.1-2.1,3.1-.7-.2-1.1-.9c-.3-.4-.7-.6-1.1-.7-.6-.2-1.1-.3-1.7-.3v-.4c.5,0,1,0,1.4,0,.7,0,1.4,0,2-.3.3-.2.5-.5.5-1.1,0-1.4-.6-2.7-1.7-3.6-.9-.8-2-1.2-3.2-1.2v-.4Z"/>
      <path id="_パス_910" data-name="パス 910" class="cls-3" d="M331,14.4c-.7,2.4-1.2,4.8-1.5,7.3,0,.6,0,1.1.2,1.7.1.3.2.6.2.9,0,.5-.3.9-.8.9,0,0,0,0,0,0-.5,0-1-.4-1.4-1.1-1-2.1-1.6-4.4-1.5-6.7,0-2.7.5-5.5,1.3-8.1.3-1,.5-2,.5-3,0-.9-.2-1.7-.7-2.5h0c.4,0,1,.5,1.6,1.3.6.8,1,1.7,1.1,2.6,0,.6-.2,1-1,2.8-1,1.9-1.6,4.1-1.7,6.3,0,1.5.4,3.4.7,3.4s.3-.4,1.1-2.6c.4-.9.4-1.1.9-2.4q.2-.6.4-1h.3ZM334.8,19.7c1,1.7,2.2,2.3,4.5,2.3,1.4,0,2.8-.2,4.1-.5.5-.2.9-.2,1.4-.2,1,0,1.8.5,1.8,1.2,0,.6-.4,1-.9,1.1-1.3.3-2.6.5-4,.5-4.1,0-6.1-1.2-7.1-4.3h.3ZM335.2,6.4c.7.4,1.6.6,2.4.5,1.5,0,3-.3,4.5-.8.3-.2.7-.2,1.1-.2,1.1,0,1.8.5,1.8,1.3s-.4.8-1,1c-1.2.3-2.5.5-3.8.5-1.2,0-2.4-.2-3.4-.8-.6-.3-1.2-.8-1.7-1.3l.2-.2Z"/>
      <path id="_パス_911" data-name="パス 911" class="cls-3" d="M359.4,6.1c0,3.1,0,6.2,0,9.3,0,.8.2,4.2.2,4.9,0,.7-.4,1.3-1.1,1.4-.1,0-.2,0-.3,0-.8,0-.8-.5-.7-1.6h-3.4c0,.8,0,1.6,0,2.4-.1,1.1-1.4,1.1-1.4,1.1-.7,0-.8-.4-.8-1s0-1.7,0-1.9c.1-2.8.2-10,.2-11.1,0-2.1,0-4.3-.3-6.4l2.4,1.3h3.2l.6-.7c.2-.2.3-.3.4-.3s.3.2.5.3l1.4,1c.2,0,.3.3.3.5,0,.2,0,.4-1.1.9M357.4,5.2h-3.5v6.7h3.5v-6.7ZM357.4,12.6h-3.5v6.8h3.5v-6.8ZM375.1,27.5c-2.9-1.5-6-5.4-6.9-10.3-1.2,5.4-6.3,9.6-13.2,10.3v-.2c3.6-1,10.4-4.5,11.5-11.2h-2.3c-1.2,0-2.4,0-3.6.3l-.6-1.2c.6,0,.7,0,2,.2,0-7,0-7.7-.1-8.7,0-.8,0-1.6-.2-2.3l2.5,1.3h2.8c0-1.8-.2-3.5-.7-5.2l3.1.8c.4,0,.6.2.6.5,0,.4-.5.6-1.1.9v3.1h2.7l.7-.9c.2-.2.3-.3.4-.3.2,0,.4.1.5.2l1.3,1c.2.1.3.3.3.5,0,.3-.4.5-1,.8,0,2,0,2.6,0,8.5h.6l1.4-1.4c.2-.2.4-.4.5-.4.2,0,.4.1.5.3l1.5,1.4c.2.1.3.3.3.5,0,.2-.2.3-.5.3h-9.6c.7,3.6,4.5,8.5,10.1,8.9v.2c-1.4.1-2.7,1-3.5,2.2M363.8,6.4v9h2.7c.3-3,.4-6,.3-9h-3ZM371.7,6.4h-2.9c0,3,0,6-.3,9h3.2V6.4Z"/>
      <path id="_パス_912" data-name="パス 912" class="cls-3" d="M386.7,11.3c1.3-.1,2.6-.4,3.8-.8.7-.2,1.4-.4,2.1-.8.2,0,.3-.1.5-.1.6,0,1.2.2,1.8.5.7.4,1.1.8,1.1,1.3s0,.5-.8,1c-2.3,1.9-4.4,3.9-6.3,6.1.5-.4,1.2-.5,1.8-.5.9,0,1.8.5,2.2,1.3.4.7.5,1,.8,3.3.2,1.4.6,1.7,2.1,1.7,1.2,0,2.4-.2,3.5-.4.2,0,.4,0,.7,0,1.1,0,2,.6,2,1.4s-.3.8-1.3,1c-1,.2-2.1.3-3.1.2-2.5,0-3.8-.3-4.6-.9-.7-.6-.8-1.1-1-3.3,0-.9-.1-1.8-.5-2.7-.2-.4-.7-.6-1.1-.6-.9,0-1.7.5-2.3,1.2-1.4,1.6-2.6,3.3-3.5,5.2-.4.8-.8,1.1-1.3,1.1-.6,0-1.1-.6-1-1.2,0-1,.7-2,2.7-4.1,3.6-3.6,8-9,8-9.9,0-.1,0-.2-.2-.2,0,0,0,0,0,0-.5,0-1.8.5-5,2.2-.3.2-.7.4-1.1.4-1.1,0-2.6-1.7-2.6-3,0-.1,0-.3.1-.4.6.7,1.5,1.1,2.5,1.1M387.5,1.7c.5.3,1,.6,1.5.8.7.3,1.5.4,2.3.5,1.9.2,3.1.9,3.1,1.8s-.4.9-1.4.9h-.2c-.2,0-.8,0-.9,0-1.6.1-3.1.6-4.5,1.4l-.2-.3c1.1-.7,2.1-1.4,3-2.3-.7-.3-1.3-.7-1.8-1.2-.5-.4-.8-.9-1.1-1.4l.2-.2Z"/>
      <path id="_パス_913" data-name="パス 913" class="cls-3" d="M413.6,11.6c3.7-4.7,4.5-5.9,4.6-6.5,0-.2-.2-.3-.5-.3-1.4.3-2.8,1-3.8,2-.8.7-1.2.9-1.6.9-.7-.1-1.4-.5-1.9-1.1-.3-.4-.5-.9-.5-1.4,0-.1,0-.3,0-.4.3.5.9.8,1.5.8.7,0,1.2-.2,3.5-1.1,1.9-.8,2.5-1,3.2-1,1,0,1.8.5,2.4,1.3.3.3.5.7.5,1.1,0,.4-.2.6-1.1,1.1-1,.7-1.9,1.5-2.6,2.4-1.9,1.9-3.6,4-5.2,6.2,1.6-1.3,3.6-2.1,5.7-2.1,3.8,0,6.4,2.4,6.4,5.8s-3.3,6.7-7.8,6.7-4.3-1.1-4.3-2.8,1.2-2.4,2.8-2.4c1.9,0,3.5,1.2,4,3,.8-.3,1.4-.8,1.9-1.5.7-1,1.1-2.2,1.1-3.4.2-2.4-1.6-4.4-4-4.6-.2,0-.3,0-.5,0-1.9,0-3.8.8-5.2,2.2-1,.8-1.8,2-2.2,3.2-.5,1.2-.8,1.6-1.4,1.6s-1-.5-1-1.4c0-.9.5-1.7,1.1-2.3l4.8-6.1ZM417.3,24.4q0-.1-.3-.8c-.2-.6-.6-1.1-1.2-1.4-.4-.2-.8-.3-1.3-.3-.9,0-1.5.5-1.5,1.2s1.1,1.6,2.8,1.6c.5,0,.9,0,1.4-.2,0,0,0,0,0,0"/>
    </g>
    <g id="_グループ_264" data-name="グループ 264">
      <path id="_パス_914" data-name="パス 914" class="cls-3" d="M10.4,80.8c5.2-3.4,9.8-7.6,13.6-12.5,2.7-3.5,5.7-8.2,5.7-9.1s-.1-.3-.4-.3c-2.6.6-5.1,1.3-7.6,2.3-.8.4-1.7.7-2.6.7-1,0-1.8-.7-2.1-1.7-.2-.5-.4-1-.4-1.6,0-.2,0-.4,0-.6.8.7,1.8,1.1,2.8,1,2.4-.2,4.9-.5,7.2-1.1.9-.2,1.8-.5,2.5-1,.3-.2.6-.2.9-.3,1.1,0,3.3,1.9,3.3,2.9s-.1.7-.7,1.1q-.5.4-3.3,4.3c-.5.7-1,1.4-2.9,3.7,2.7,1.1,5.2,2.6,7.3,4.5,1.7,1.6,2.7,3.2,2.7,4.3,0,.9-.6,1.7-1.5,1.8-.3,0-.7-.2-.9-.4-.4-.5-.7-1.1-1-1.7-1.6-3.2-4.1-6-7.1-7.9-2.2,2.6-4.7,4.9-7.4,7-2.4,1.9-5,3.4-7.8,4.7l-.3-.4Z"/>
      <path id="_パス_915" data-name="パス 915" class="cls-3" d="M49.2,52.9c.9,0,1.8.4,2.5,1,.4.3.7.7.7,1.2,0,.4,0,.8-.3,1.2-.4,2.2-.6,4.5-.6,6.8,5.6,1,9,3.3,9,5.9s-.6,1.7-1.3,1.7-.9-.3-1.5-1.3c-1.5-2.4-3.6-4.4-6.2-5.6,0,6.1,0,11.8.2,14.5,0,1.3,0,1.6,0,2.1,0,.5,0,1.1-.3,1.6-.2.3-.5.4-.8.4-.5,0-1-.5-1.4-1.3-.4-.7-.6-1.5-.7-2.3,0-.5,0-1,.2-1.5.2-1,.3-2,.3-3.1.1-4.7.2-8.8.2-15.4s0-3.4-.3-3.9c-.4-.6-1-1-1.7-1.2.4-.5,1.1-.9,1.8-.9"/>
      <path id="_パス_916" data-name="パス 916" class="cls-3" d="M71.4,82.3c4.1-2.8,7.6-6.3,10.3-10.4,2-2.9,4.3-7.3,4.3-8.2s-.2-.4-.6-.4c-3.5.5-7,1.2-10.4,2.1-.6.2-1.2.3-1.8.4-1.3,0-2.8-1.7-2.8-3.2v-.3c1.1.5,2.3.8,3.5.8,3.4-.2,6.7-.6,10-1.1.8,0,1.5-.3,2.1-.8.2-.1.4-.2.6-.2.8.1,1.5.5,2,1,.8.6,1.3,1.1,1.3,1.6s0,.5-.6,1c-.3.4-.6.8-.8,1.2-2.1,4.2-5,8-8.4,11.2-2.5,2.4-5.3,4.3-8.4,5.8l-.3-.4ZM73.1,55.4c.9.4,1.9.6,2.9.6,2.5-.1,4.9-.7,7.2-1.7.4-.2.9-.3,1.4-.3,1,0,2,.7,2,1.6s-.6,1-2,1.4c-1.9.6-3.9.9-5.9.9-2.1,0-4.2-.7-5.8-2l.2-.4Z"/>
      <path id="_パス_917" data-name="パス 917" class="cls-3" d="M95.5,74.3c4.1-3.2,7.8-7,10.9-11.2,2.8-3.8,4.4-6.8,4.4-8.1s-.4-1.1-1.2-1.6c.3-.2.8-.3,1.2-.3,1.4,0,3.4,1.6,3.4,2.7s0,.7-1.1,2.3c-1.2,1.9-2.6,3.7-4.1,5.4,1.1.5,1.7,1,1.9,1.5q.2.4.2,2c0,.5,0,1.5,0,3,0,1.3,0,2.1,0,3.2,0,1.6,0,4.7.2,6.3,0,.4,0,.8,0,1.1,0,1.1-.4,1.8-1.1,1.8s-1-.4-1.4-1.4c-.4-.9-.6-1.8-.6-2.8,0-.6,0-1.2.2-1.8.3-2.8.5-5.6.6-8.4,0-2.3-.1-2.9-.9-3.3-.2.2-.5.5-.7.7-2,2.2-4.2,4.2-6.6,6-1.5,1.2-3.1,2.2-4.8,3.1l-.3-.4Z"/>
      <path id="_パス_918" data-name="パス 918" class="cls-3" d="M124.8,81.9c5.3-4,9.7-8.9,13.1-14.6,1.8-3,3.7-7.1,3.7-7.8s-.2-.4-.5-.4c-1.3.1-2.6.4-3.9.7q-4.7,1-8.1,2c-.6.2-1.2.3-1.8.3-1.8-.1-3.3-1.6-3.5-3.4v-.3c1.4.6,2.9.9,4.4.8,3.4-.2,6.8-.7,10.1-1.4.9-.1,1.7-.4,2.5-.8.2-.1.5-.2.7-.2,1.4,0,3.8,2.2,3.8,3.5s0,.6-.9,1.3c-.4.5-.8,1-1,1.6-2.6,4.5-5.7,8.7-9.3,12.4-2.6,2.7-5.7,4.9-9,6.6l-.3-.4ZM153.1,54.3c0,2.2-1.8,4-4,4s-4-1.8-4-4,1.8-4,4-4h0c2.2,0,4,1.8,4,4,0,0,0,0,0,0M146.3,54.3c0,1.6,1.3,2.8,2.8,2.8,1.6,0,2.8-1.3,2.8-2.8s-1.3-2.8-2.8-2.8c-1.6,0-2.8,1.3-2.8,2.8"/>
      <path id="_パス_919" data-name="パス 919" class="cls-3" d="M167.9,59.5h-4.6c0,.6,0,3.2,0,3.7,1.5.6,4.5,2.6,4.5,4.6,0,.7-.5,1.4-1.2,1.5,0,0-.1,0-.2,0-1,0-1.3-1-1.6-2.1-.6-2.3-.7-2.7-1.5-3.4.1,15.4.1,15.9.1,17.3,0,.2,0,1.2,0,1.4,0,.9-.6,1.7-1.5,1.8-.1,0-.3,0-.4,0-.9,0-.9-.8-.9-1.2,0-.5.2-3.7.3-4.4,0-2,0-3,.1-12.5-1.3,3.7-3.5,7-6.4,9.6l-.2-.2c3.1-4.9,5.3-10.4,6.4-16.2-1.6,0-3.2,0-4.8.3l-.7-1.5c.9,0,2.6.2,5.7.3,0-2.7,0-5.4-.5-8.1l3.4,1.1c.4.1.8.3.8.7s-.1.4-1.4,1.3c0,.6,0,3.3,0,5h1.1l1-1.3c.1-.1.3-.4.6-.4.3,0,.5.2.7.4l1.4,1.3c.2.1.3.3.4.6,0,.4-.3.4-.6.4M188.1,55h-9.7c0,2.8-.1,5.1-.3,6.4h5.6l1-1c.3-.3.4-.4.6-.4.2,0,.4.2.5.3l1.5,1.1c.3.2.5.4.5.7,0,.5-.3.6-1.1,1.1,0,1.2,0,7.8,0,9.2s.1,5.3.1,7.4-.8,3.8-4.3,4.7c-.4-1.7-1.7-3.1-3.4-3.7v-.3c1.1.1,2.2.2,3.4.2,1.3,0,1.6,0,1.7-.6.1-.9.1-11.2.1-12.2,0-1.6,0-4-.1-5.6h-6.1c-.2,1.5-.4,2.9-.8,4.3,1.9.9,5.5,3.2,5.5,6,0,.8-.5,1.6-1.3,1.7,0,0,0,0-.1,0-.8,0-1.3-.5-1.7-2-1.1-3.4-1.1-3.6-2.5-5.3-1,3.3-3.2,6.2-6.1,8.2,0,.8,0,4.5,0,5.4,0,.3,0,1.8,0,2.2,0,.9-.9,1.7-1.8,1.6,0,0,0,0,0,0-.6,0-1-.3-1-1.3s0-1,.1-1.3c.1-1.3.2-6.5.2-18.2,0-1.2-.1-2.4-.4-3.5l3,1.4h4.4c0-1,.2-4,.1-6.4h-3.7c-1.5,0-2.9,0-4.4.3l-.7-1.4c3,.2,5.2.2,5.7.2h10.9l1.4-1.6c.2-.2.4-.5.6-.5s.4.2.7.4l2.1,1.6c.2.1.3.3.4.6,0,.4-.3.4-.6.4M171,62.4c0,3-.1,6.6,0,12.4,2-2.3,4.1-7.2,4.5-12.4h-4.5Z"/>
      <path id="_パス_920" data-name="パス 920" class="cls-3" d="M197.1,81.3c5.8-4,10.3-9.6,12.9-16,.9-2.1,1.6-4.2,2-6.4,0-.3-.1-.4-.4-.4-.1,0-.2,0-.4,0,0,0-.3,0-.7,0-1.9.1-6.4.8-9.2,1.3-.2,0-.5,0-.7,0-.6,0-1.2-.2-1.7-.5.1,1.2.2,1.9.3,3.1q.2,2.1.4,3.7c0,.3,0,.6,0,.8,0,1-.4,1.6-1,1.6s-2-1.8-2-3.1c0-.3,0-.6.1-1,0-.4.1-.9.1-1.3,0-1.4-.2-2.8-.6-4.1-.3-.8-.9-1.4-1.7-1.8.3-.2.6-.3.9-.3,1.1,0,2.2.5,3.1,1.2.3,0,.5,0,.8,0,1.3,0,6.1-.6,10.3-1.2.8,0,1.5-.2,2.1-.7.2-.2.4-.3.6-.3.5,0,1.1.4,2,1.3s1.3,1.4,1.3,1.9c0,.3-.1.5-.4.7-.4.3-.7.7-.8,1.1,0,0-.1.3-.2.5,0,.1-.2.5-.4,1.1-1.8,5-4.7,9.6-8.4,13.4-2.4,2.4-5.2,4.3-8.2,5.8l-.3-.4Z"/>
      <path id="_パス_921" data-name="パス 921" class="cls-3" d="M224.4,58.4c3.1.6,4.7,1.1,6.1,2.2,1.1.7,1.8,1.8,1.9,3.1,0,1-.6,1.8-1.4,1.8s-1-.3-1.6-1.3c-1.1-2.3-3-4.2-5.2-5.5v-.3ZM247.5,59.7c-2.8,5.5-6.7,10.4-11.5,14.3-1.9,1.6-3.9,3.1-6,4.4-.2.2-.5.3-.7.5-.4.4-1,.6-1.5.7-.8,0-1.7-.7-2.4-1.9-.5-.6-.7-1.3-.8-2.1,0-.3,0-.6.2-.9.6.9,1.5,1.4,2.6,1.6,1,0,2.8-.9,5.7-2.8,5.5-3.8,10.3-8.5,14.2-13.9l.4.2Z"/>
      <path id="_パス_922" data-name="パス 922" class="cls-3" d="M266.9,66.9c-2.4,1.4-5,2.5-7.6,3.3q0,1.8,0,2.5c0,1.1,0,2.2.3,3.3.4.8,1.4,1.1,3.8,1.1,2.1,0,4.3-.2,6.3-.8.3-.1.7-.2,1.1-.2.7,0,1.5.2,2.1.6.4.2.7.7.7,1.1,0,.8-.6,1.1-2.7,1.4-1.8.2-3.6.3-5.4.3-3.3,0-5.6-.4-6.7-1.2-1.2-.8-1.6-2.2-1.6-5.6s0-1.7,0-3.5c0-1.5,0-5,0-6.4,0-1,0-1.9-.3-2.8-.2-.7-.8-1.2-1.5-1.4.4-.5,1-.8,1.6-.8.9,0,1.8.4,2.6,1,.6.3.9.9.9,1.5,0,.3,0,.4-.3,1-.4.8-.6,2.6-.8,8.1,3-1.5,5.8-3.5,8.4-5.7.7-.7.9-1.1.9-1.5s-.2-.8-.8-1.3c.2-.1.5-.2.8-.2,1.4,0,3.6,1.7,3.6,2.8,0,.5-.3.9-.7,1,0,0-1.2.6-1.8.9l-2.7,1.4ZM279.8,56.8c0,2.2-1.8,4-4,4,0,0,0,0,0,0-2.2,0-4-1.7-4.1-3.9,0-2.2,1.7-4,3.9-4.1,0,0,0,0,.1,0,2.2,0,4,1.8,4,4,0,0,0,0,0,0M273,56.8c0,1.6,1.3,2.8,2.8,2.8,1.6,0,2.8-1.3,2.8-2.8,0-1.6-1.3-2.8-2.8-2.8h0c-1.6,0-2.8,1.2-2.8,2.8,0,0,0,0,0,0"/>
      <path id="_パス_923" data-name="パス 923" class="cls-3" d="M288.5,67.1c.6,0,1.5,0,2.6,0q2.9-.1,11.7-.5c1.8,0,3.7-.2,5.5-.5.2,0,.4,0,.6,0,.8,0,1.6.3,2.3.7.5.3.8.7.8,1.3,0,.7-.6,1.1-1.5,1.1-.2,0-.5,0-.7,0-1.5-.1-3.1-.2-4.6-.2-3.4,0-11,.3-14.6.6-.9,0-1.9.1-2.8.4-.3.1-.7.2-1.1.2-1.1,0-2.4-1.7-2.4-3.1,0-.5.2-.9.5-1.3,1,1.1,1.6,1.4,3.9,1.4"/>
      <path id="_パス_924" data-name="パス 924" class="cls-3" d="M313.8,80.8c5.2-3.4,9.8-7.6,13.6-12.5,2.7-3.5,5.7-8.2,5.7-9.1s-.1-.3-.4-.3c-2.6.6-5.1,1.3-7.6,2.3-.8.4-1.7.7-2.6.7-1,0-1.8-.7-2.1-1.7-.2-.5-.4-1-.4-1.6,0-.2,0-.4,0-.6.8.7,1.8,1.1,2.8,1,2.4-.2,4.9-.5,7.2-1.1.9-.2,1.8-.5,2.5-1,.3-.2.6-.2.9-.3,1.1,0,3.3,1.9,3.3,2.9s-.1.7-.7,1.1q-.5.4-3.3,4.3c-.5.7-1,1.4-2.9,3.7,2.7,1.1,5.2,2.6,7.3,4.5,1.7,1.6,2.7,3.2,2.7,4.3,0,.9-.6,1.7-1.5,1.8-.3,0-.7-.2-.9-.4-.4-.5-.7-1.1-1-1.7-1.6-3.2-4.1-6-7.1-7.9-2.2,2.6-4.7,4.9-7.4,7-2.4,1.9-5,3.4-7.8,4.7l-.3-.4Z"/>
    </g>
    <rect id="_長方形_123" data-name="長方形 123" class="cls-2" y="1" width="425" height="90"/>
  </g>
</svg>