<?xml version="1.0" encoding="UTF-8"?>
<svg xmlns="http://www.w3.org/2000/svg" version="1.1" viewBox="0 0 442.2 21">
  <defs>
    <style>
      .cls-1 {
        fill: #2e2e2e;
        mix-blend-mode: multiply;
        stroke-width: 0px;
      }

      .cls-1, .cls-2 {
        isolation: isolate;
      }
    </style>
  </defs>
  <g class="cls-2">
    <g id="_レイヤー_1" data-name="レイヤー 1">
      <path id="_パス_1387" data-name="パス 1387" class="cls-1" d="M123.2,2.4V.3h-8.1l-2.9,9.7c1.1-.8,2.5-1.2,3.8-1.3,2.7-.1,4.9,2,5,4.7,0,0,0,.2,0,.2.1,2.8-2,5.1-4.8,5.2-.1,0-.2,0-.3,0-1.9,0-3.6-1.1-4.5-2.8l-1.8,1.3c1.2,2.3,3.6,3.6,6.2,3.6,4,.1,7.3-3,7.4-7,0,0,0-.2,0-.3.2-3.7-2.7-6.9-6.4-7.1-.1,0-.2,0-.4,0h-1.2c0,.1,1.3-4.2,1.3-4.2h6.5ZM154.4,11.7h1.6c1.7.1,3.4-.3,4.8-1.3,1.3-1.1,2-2.7,1.9-4.4,0-1.8-.8-3.5-2.3-4.6-1.5-.9-3.3-1.2-5-1.1h-3.3v20.3h2.3v-8.9ZM154.4,2.4h.8c2.6,0,5.3.2,5.3,3.5s-2.1,3.7-4.6,3.7h-1.5V2.4ZM176,.3h-2.3v20.3h2.3V.3ZM188.2,20.6h10.5v-2.1h-8.2v-7.9h8v-2.1h-8V2.4h8.2V.3h-10.5v20.3ZM226.1,2c-1.7-1.3-3.9-2-6-2-5.8,0-10.5,4.7-10.6,10.6,0,5.8,4.8,10.4,10.6,10.4,2.2,0,4.3-.7,6-2v-2.8c-1.6,1.7-3.8,2.6-6.1,2.7-4.6-.1-8.2-3.8-8.2-8.4,0-4.5,3.6-8.3,8.2-8.4,2.3,0,4.6,1,6.2,2.7V2ZM238,20.6h10.5v-2.1h-8.2v-7.9h8v-2.1h-8V2.4h8.2V.3h-10.5v20.3ZM287.7,3.1c-1-2-3-3.2-5.2-3.1-3,0-5.7,2-5.7,5.2s2,4.1,4.4,5.2l1.2.5c1.9.9,3.7,1.7,3.7,4,0,2.2-1.9,4-4.2,4-2.1,0-3.9-1.7-4.1-3.8l-2.2.6c.7,3.5,4,5.7,7.5,5.1,3-.6,5.1-3.1,5.2-6.1,0-3.2-2.2-4.5-4.9-5.7l-1.3-.6c-1.4-.6-3.2-1.4-3.2-3.2,0-1.8,1.5-3.2,3.3-3.1,0,0,0,0,0,0,1.5,0,2.9.8,3.5,2.2l1.8-1.1ZM299.8,20.6h10.5v-2.1h-8.2v-7.9h8v-2.1h-8V2.4h8.2V.3h-10.5v20.3ZM327.6,2.4h4.9V.3h-12.1v2.1h4.9v18.2h2.3V2.4Z"/>
    </g>
  </g>
</svg>