<svg xmlns="http://www.w3.org/2000/svg" width="70.938" height="407" viewBox="0 0 70.938 407">
  <g id="グループ_432" data-name="グループ 432" transform="translate(0 -0.195)">
    <rect id="長方形_85" data-name="長方形 85" width="4" height="346" transform="translate(22.938 33.195)" fill="#f8f6cd"/>
    <g id="グループ_294" data-name="グループ 294" transform="translate(45.347)">
      <rect id="長方形_84" data-name="長方形 84" width="6" height="407" transform="translate(19.591 0.195)" fill="#f8f6cd"/>
      <g id="グループ_293" data-name="グループ 293" transform="translate(0 2.283)">
        <g id="グループ_292" data-name="グループ 292" transform="translate(0 2.144)">
          <path id="パス_1134" data-name="パス 1134" d="M6.814,15.344a11.38,11.38,0,0,0,2.58.537c.269,0,.321-.107.349-.86.052-.887.107-3.574.107-8.089-2.687.511-3.28.645-5.027,1.075A5.144,5.144,0,0,1,3.67,8.2C2.434,8.2,1.708,7.39,1.6,5.831A3.573,3.573,0,0,0,3.8,6.449,50.258,50.258,0,0,0,9.824,5.8a23.433,23.433,0,0,0-.215-4.031C9.446,1.182,9.1.887,8.238.672A1.674,1.674,0,0,1,9.555,0,3.81,3.81,0,0,1,11.49.726a1,1,0,0,1,.349.752c0,.134,0,.134-.188.7A15.851,15.851,0,0,0,11.3,5.589,24.917,24.917,0,0,0,16.139,4.7a3,3,0,0,1,.833-.134,4.48,4.48,0,0,1,1.908.564,1.2,1.2,0,0,1,.672.994.621.621,0,0,1-.672.672,4,4,0,0,1-.672-.081,19.5,19.5,0,0,0-3.547-.242,23.352,23.352,0,0,0-3.386.269c-.027.322-.027.672-.027.779,0,1.935.107,5.67.188,7.148.054.833.054,1.129.054,1.585,0,1.639-.537,2.714-1.37,2.714-.4,0-.618-.215-.888-.941A4.9,4.9,0,0,0,6.7,15.613ZM5.47,9.62c.027.484.027.672.027.86a10.492,10.492,0,0,1-1.075,4.326,2.417,2.417,0,0,1-1.854,1.5A.97.97,0,0,1,1.6,15.264c0-.591.27-.967,1.077-1.612a6.185,6.185,0,0,0,2.5-4.058Zm8.2-.269c3.305,1.156,5.831,3.386,5.831,5.159,0,.779-.43,1.344-1.021,1.344a.877.877,0,0,1-.618-.322,3.575,3.575,0,0,1-.591-1.156A11.028,11.028,0,0,0,13.5,9.567Z" transform="translate(1.087)" fill="#2e2e2e"/>
          <path id="パス_1135" data-name="パス 1135" d="M3,34.681a22.819,22.819,0,0,0,4.326-5.025c1.774-2.768,3.063-5.912,3.063-7.417a1.122,1.122,0,0,0-.322-.779c-1.666.3-2.875.591-4.434.994a6.59,6.59,0,0,1-1.8.349,2.107,2.107,0,0,1-1.344-.511A3.174,3.174,0,0,1,1.36,20.708a.473.473,0,0,1,.027-.161,3.794,3.794,0,0,0,2.177.511c1.182,0,2.6-.188,8.76-1.129a19.962,19.962,0,0,0,3.653-.779,1.438,1.438,0,0,1,.62-.134,4.824,4.824,0,0,1,2.1.645c.7.349.967.672.967,1.129a.759.759,0,0,1-.754.779,7.459,7.459,0,0,1-1.4-.3,9.182,9.182,0,0,0-2.766-.349,23.254,23.254,0,0,0-3.628.349c1.048.591,1.4.994,1.4,1.532a12.8,12.8,0,0,1-1.962,4.622A21.421,21.421,0,0,1,3.214,34.95ZM5.015,15.038a4.582,4.582,0,0,0,2.15.484A15.679,15.679,0,0,0,12.942,14.1a1.762,1.762,0,0,1,.779-.161,1.226,1.226,0,0,1,1.342,1.1c0,.511-.349.779-1.476,1.075a21.4,21.4,0,0,1-4.81.672,5.086,5.086,0,0,1-3.95-1.532Z" transform="translate(0.924 9.47)" fill="#2e2e2e"/>
          <path id="パス_1136" data-name="パス 1136" d="M0,45.08a21.443,21.443,0,0,0,6.127-8.3,11.3,11.3,0,0,0,.994-3.52c0-.618-.322-1.048-1.156-1.532a1.4,1.4,0,0,1,1.048-.4,2.863,2.863,0,0,1,1.881.887A1.63,1.63,0,0,1,9.4,33.391a6.68,6.68,0,0,1-.724,2.177A20.5,20.5,0,0,1,4.246,42.2,18.024,18.024,0,0,1,.215,45.349ZM23.433,31.429a28.352,28.352,0,0,1-8.814,10,3.374,3.374,0,0,0-.645.591.743.743,0,0,1-.564.3c-.349,0-.752-.376-1.156-1.021a1.862,1.862,0,0,1-.376-.941c0-.081,0-.081.134-.43.107-.3.215-3.52.215-6.611,0-2.5-.134-2.848-1.345-3.359a1.516,1.516,0,0,1,1.292-.591c1.075,0,2.23.887,2.23,1.693a1.3,1.3,0,0,1-.163.591,5.178,5.178,0,0,0-.349,1.693c-.186,2.069-.294,4.649-.294,6.369a28.448,28.448,0,0,0,9.567-8.492Z" transform="translate(0 19.951)" fill="#2e2e2e"/>
          <path id="パス_1137" data-name="パス 1137" d="M3.315,60.947A27.2,27.2,0,0,0,8.043,54.2a21.068,21.068,0,0,0,2.177-6.53c0-.536-.24-.858-.967-1.263a1.7,1.7,0,0,1,1.077-.4,3.124,3.124,0,0,1,2.067.941,25.318,25.318,0,0,0,3.762-3.037A1.34,1.34,0,0,0,16.7,43c0-.215-.244-.376-.593-.376A83.659,83.659,0,0,0,6.62,44.367a8.465,8.465,0,0,1-2.205.43,2.552,2.552,0,0,1-1.747-.727,3.285,3.285,0,0,1-1.1-1.691,12.641,12.641,0,0,0,3.411.4,56.661,56.661,0,0,0,8.2-.833,10.014,10.014,0,0,0,2.66-.564,1.545,1.545,0,0,1,.781-.215,3.382,3.382,0,0,1,1.827.967c.779.645,1.182,1.182,1.182,1.585a.81.81,0,0,1-.269.564,2.589,2.589,0,0,1-.942.376,7.957,7.957,0,0,0-1.5.645,44.552,44.552,0,0,1-4.353,2.257,28.344,28.344,0,0,1-3.253,7.469,20.727,20.727,0,0,1-5.749,6.155Z" transform="translate(1.065 27.975)" fill="#2e2e2e"/>
          <path id="パス_1138" data-name="パス 1138" d="M2.96,74.092A36.994,36.994,0,0,0,12.5,63.424a25.921,25.921,0,0,0,2.714-5.7c0-.188-.134-.3-.349-.3a19.357,19.357,0,0,0-2.848.511c-2.607.564-2.768.618-5.912,1.5a4.433,4.433,0,0,1-1.345.242,2.757,2.757,0,0,1-2.551-2.445v-.215a6.824,6.824,0,0,0,3.09.591,51.148,51.148,0,0,0,7.5-.994,4.974,4.974,0,0,0,1.827-.591.955.955,0,0,1,.512-.161c1.019,0,2.795,1.612,2.795,2.526,0,.349-.054.43-.672.967A5.126,5.126,0,0,0,16.5,60.5a43.929,43.929,0,0,1-6.772,9.029,24.836,24.836,0,0,1-6.555,4.837Z" transform="translate(1.5 37.967)" fill="#2e2e2e"/>
          <path id="パス_1139" data-name="パス 1139" d="M1.55,80.982a32.461,32.461,0,0,0,6.073-6.826c1.265-1.908,1.829-3.037,1.829-3.682,0-.457-.242-.806-.862-1.209a1.845,1.845,0,0,1,.862-.242c1.1,0,2.365.86,2.365,1.639a.958.958,0,0,1-.242.591c-.079.108-.161.269-.267.43-.3.484-.351.537-.541.833a3.775,3.775,0,0,0,.675.081,25,25,0,0,0,3.492-.457,3.253,3.253,0,0,0,1.1-.43c.322-.188.378-.215.537-.215a3.117,3.117,0,0,1,1.668,1.075c.4.4.509.645.509.914,0,.3-.158.484-.564.752-.4.242-.455.322-.858.941-1.1,1.72-1.827,2.741-3.52,5,1.5,1.4,2.178,2.419,2.178,3.305a1,1,0,0,1-.915,1.075c-.378,0-.645-.242-1-.887a10.753,10.753,0,0,0-1.424-2.177A36.053,36.053,0,0,1,7.3,86.3,34.416,34.416,0,0,1,1.149,89.8l-.19-.3A39.933,39.933,0,0,0,11.6,80.284,12.4,12.4,0,0,0,8.377,77.65l.136-.269a13.567,13.567,0,0,1,3.977,1.8,41.183,41.183,0,0,0,3.033-4.649,3.675,3.675,0,0,0,.511-1.1c0-.134-.106-.215-.3-.215a27.158,27.158,0,0,0-3.517.537,3.441,3.441,0,0,1-.673.107,1.8,1.8,0,0,1-1.265-.672,26.888,26.888,0,0,1-8.517,8.089Z" transform="translate(0.652 46.903)" fill="#2e2e2e"/>
          <path id="パス_1140" data-name="パス 1140" d="M5.351,90.151a27.2,27.2,0,0,1,7.067,1.4,21.722,21.722,0,0,0,3.144-5.724c-1.56.242-1.962.322-4.649.914a19.777,19.777,0,0,0-1.962.564,5.269,5.269,0,0,1-1.478.3,2.763,2.763,0,0,1-1.747-.806,2.724,2.724,0,0,1-.994-1.424,6.84,6.84,0,0,0,2.526.376,34.9,34.9,0,0,0,6.045-.726,6.123,6.123,0,0,0,1.99-.511,1.7,1.7,0,0,1,.7-.188,3.876,3.876,0,0,1,1.666.618c.511.3.806.645.806.994,0,.3-.134.457-.62.752-.349.242-.428.349-.858,1.129a36.89,36.89,0,0,1-2.929,4.407c2.9,1.37,4.273,2.633,4.273,3.923,0,.618-.322,1.021-.835,1.021-.4,0-.643-.188-1.263-.887a13.181,13.181,0,0,0-3.223-2.741,19.809,19.809,0,0,1-5.591,4.192,27.557,27.557,0,0,1-6.931,2.553L.351,99.96c5.081-1.962,8.225-4,11.154-7.229a24.393,24.393,0,0,0-6.261-2.257Z" transform="translate(0.239 57.297)" fill="#2e2e2e"/>
          <path id="パス_1141" data-name="パス 1141" d="M7.013,96.5c1.1,0,2.311.887,2.311,1.72a1.055,1.055,0,0,1-.163.511c-.321.806-.375,1.317-.375,4.971,0,2.5.054,6.315.134,10.158.025.43.025.806.025,1.048,0,1.4-.321,2.015-1.019,2.015a1.058,1.058,0,0,1-.833-.457,2.88,2.88,0,0,1-.3-1.612c0-.43,0-.726.052-1.693.055-2.15.134-7.954.134-11.931,0-3.037-.134-3.467-1.369-4.058a1.58,1.58,0,0,1,1.4-.672" transform="translate(3.816 65.572)" fill="#2e2e2e"/>
          <path id="パス_1142" data-name="パス 1142" d="M2.587,112.5a10.031,10.031,0,0,1,4.462,1.612,2.976,2.976,0,0,1,1.369,2.257c0,.752-.43,1.29-1.019,1.29-.43,0-.727-.242-1.129-.941a9.1,9.1,0,0,0-3.791-3.977Zm16.822.941a32.154,32.154,0,0,1-8.382,10.426,38.686,38.686,0,0,1-4.382,3.2,5.365,5.365,0,0,1-.509.349,1.906,1.906,0,0,1-1.1.484c-.564,0-1.208-.511-1.772-1.4a2.917,2.917,0,0,1-.593-1.532,1.518,1.518,0,0,1,.161-.672,2.818,2.818,0,0,0,1.881,1.155c.727,0,2.069-.672,4.111-2.042a40.7,40.7,0,0,0,10.321-10.131Z" transform="translate(1.685 76.444)" fill="#2e2e2e"/>
          <path id="パス_1143" data-name="パス 1143" d="M3,145.178a22.819,22.819,0,0,0,4.326-5.025c1.774-2.768,3.063-5.912,3.063-7.417a1.122,1.122,0,0,0-.322-.779c-1.666.3-2.875.591-4.434.994a6.59,6.59,0,0,1-1.8.349,2.107,2.107,0,0,1-1.344-.511A3.174,3.174,0,0,1,1.36,131.2a.473.473,0,0,1,.027-.161,3.8,3.8,0,0,0,2.177.511c1.182,0,2.6-.188,8.76-1.129a19.965,19.965,0,0,0,3.653-.779,1.437,1.437,0,0,1,.62-.134,4.824,4.824,0,0,1,2.1.645c.7.349.967.672.967,1.129a.759.759,0,0,1-.754.779,7.458,7.458,0,0,1-1.4-.3,9.182,9.182,0,0,0-2.766-.349,23.254,23.254,0,0,0-3.628.349c1.048.591,1.4.994,1.4,1.532a12.8,12.8,0,0,1-1.962,4.622,21.421,21.421,0,0,1-7.336,7.524Zm2.015-19.644a4.582,4.582,0,0,0,2.15.484,15.679,15.679,0,0,0,5.778-1.424,1.762,1.762,0,0,1,.779-.161,1.226,1.226,0,0,1,1.342,1.1c0,.511-.349.779-1.476,1.075a21.4,21.4,0,0,1-4.81.672,5.086,5.086,0,0,1-3.95-1.532Z" transform="translate(0.924 84.555)" fill="#2e2e2e"/>
          <path id="パス_1144" data-name="パス 1144" d="M4.816,150.991a34.956,34.956,0,0,0,6.555-7.067c1.344-1.908,2.071-3.252,2.071-3.843,0-.43-.215-.7-.779-1.048a1.971,1.971,0,0,1,.645-.134c1.019,0,2.23.941,2.23,1.774,0,.242-.081.4-.378.779a6.093,6.093,0,0,0-.43.591,34.393,34.393,0,0,1-2.177,2.875c.914.537,1.184.86,1.184,1.451l-.027.618c-.029,1.1-.029,1.1-.054,2.741v.161c0,.269.054,3.01.106,4.246v.457c0,.726-.24,1.1-.645,1.1a.92.92,0,0,1-.8-.537,4.562,4.562,0,0,1-.537-1.747,2.846,2.846,0,0,1,.107-.7,32.527,32.527,0,0,0,.43-5.24c0-1.236-.054-1.451-.459-1.774A26.533,26.533,0,0,1,5,151.232Z" transform="translate(3.273 94.384)" fill="#2e2e2e"/>
          <path id="パス_1145" data-name="パス 1145" d="M7.013,152.721c1.1,0,2.311.887,2.311,1.72a1.055,1.055,0,0,1-.163.511c-.321.806-.375,1.317-.375,4.971,0,2.5.054,6.315.134,10.158.025.43.025.806.025,1.048,0,1.4-.321,2.015-1.019,2.015a1.058,1.058,0,0,1-.833-.457,2.88,2.88,0,0,1-.3-1.612c0-.43,0-.726.052-1.693.055-2.15.134-7.954.134-11.931,0-3.037-.134-3.466-1.369-4.058a1.58,1.58,0,0,1,1.4-.672" transform="translate(3.816 103.777)" fill="#2e2e2e"/>
          <path id="パス_1146" data-name="パス 1146" d="M6.334,167.745c1.315,0,2.632.914,2.632,1.827a1.712,1.712,0,0,1-.188.726,25.878,25.878,0,0,0-.8,5.831c0,1.236.27,1.747.888,1.747a5.731,5.731,0,0,0,1.987-.511,3.013,3.013,0,0,1,1.05-.242.916.916,0,0,1,.991.941c0,.618-.267.806-1.716,1.182a9.72,9.72,0,0,0-3.628,1.5,5.079,5.079,0,0,0-2.392,4.058c0,2.015,1.4,3.117,3.922,3.117a11.54,11.54,0,0,0,2.795-.349,3.213,3.213,0,0,1,.967-.161c1.077,0,1.854.511,1.854,1.209,0,.537-.378.833-1.342,1.048a21.03,21.03,0,0,1-2.959.215c-2.5,0-4.056-.43-5.158-1.424a4.356,4.356,0,0,1-1.424-3.252,6.465,6.465,0,0,1,1.745-4.192,13.166,13.166,0,0,1,2.771-2.23c-1.48-.4-1.774-1.1-1.774-4.031,0-.108,0-.108.027-1.962.024-.484.024-1.827.024-2.445,0-1.424-.267-1.881-1.4-2.257a1.819,1.819,0,0,1,1.129-.349" transform="translate(2.588 113.987)" fill="#2e2e2e"/>
          <path id="パス_1147" data-name="パス 1147" d="M5.612,186.707a50.227,50.227,0,0,0,6.261-.591c2.338-.3,2.58-.349,3.144-.7a1.443,1.443,0,0,1,.724-.215,3.817,3.817,0,0,1,2.015,1.29c.4.457.512.618.512.967a.7.7,0,0,1-.217.484c-.4.484-.4.484-.858,1.908-.27.833-.835,2.822-1.29,4.622,1.075.457,1.449.806,1.449,1.344,0,.457-.186.618-.751.618-.188,0-.349,0-.779-.027a8.92,8.92,0,0,0-1.182-.054,46.613,46.613,0,0,0-8.948,1.075,6.03,6.03,0,0,1-1.209.188,2.382,2.382,0,0,1-1.614-.726,2.874,2.874,0,0,1-.966-1.585,7.464,7.464,0,0,0,2.981.457,89.582,89.582,0,0,0,9.353-.941,73.215,73.215,0,0,0,1.317-7.309c0-.322-.188-.484-.618-.484a46.884,46.884,0,0,0-8.115,1.29,5.165,5.165,0,0,1-1.372.242,3.163,3.163,0,0,1-2.632-2.392,6.887,6.887,0,0,0,2.795.537" transform="translate(1.294 125.849)" fill="#2e2e2e"/>
          <path id="パス_1148" data-name="パス 1148" d="M3.381,217.332a29.138,29.138,0,0,0,7.526-7.551c1.478-2.123,3.144-5.294,3.144-5.966,0-.215-.134-.322-.432-.322a72.616,72.616,0,0,0-7.578,1.532,6.437,6.437,0,0,1-1.344.269,2.448,2.448,0,0,1-2.041-2.311v-.215a5.749,5.749,0,0,0,2.58.591,68.912,68.912,0,0,0,7.282-.833,2.606,2.606,0,0,0,1.532-.591.613.613,0,0,1,.43-.161,2.887,2.887,0,0,1,1.478.7c.618.457.912.833.912,1.182,0,.269-.054.349-.457.726a4.107,4.107,0,0,0-.618.887,30.206,30.206,0,0,1-6.1,8.169,22.153,22.153,0,0,1-6.125,4.192ZM4.59,197.8a5.177,5.177,0,0,0,2.125.43,15.246,15.246,0,0,0,5.24-1.263,2.292,2.292,0,0,1,.994-.242c.752,0,1.476.537,1.476,1.129,0,.43-.4.726-1.423,1.048a16.876,16.876,0,0,1-4.326.645,6.322,6.322,0,0,1-4.221-1.478Z" transform="translate(1.805 133.677)" fill="#2e2e2e"/>
          <path id="パス_1149" data-name="パス 1149" d="M9.834,221.225v-1.639c-2.85.537-3.063.591-5.025,1.075a5.357,5.357,0,0,1-1.184.188c-1.208,0-1.933-.806-2.041-2.365a3.585,3.585,0,0,0,2.177.618,48.988,48.988,0,0,0,6.045-.672A23.659,23.659,0,0,0,9.59,214.4c-.186-.591-.536-.86-1.369-1.1a1.671,1.671,0,0,1,1.288-.645,3.5,3.5,0,0,1,1.962.726,1,1,0,0,1,.349.752,1.981,1.981,0,0,1-.16.7,13.527,13.527,0,0,0-.4,3.413,24.684,24.684,0,0,0,4.837-.914,3.346,3.346,0,0,1,.833-.134,4.166,4.166,0,0,1,1.91.591,1.166,1.166,0,0,1,.672.994.609.609,0,0,1-.672.672,4.322,4.322,0,0,1-.672-.081,19.028,19.028,0,0,0-3.52-.242,28.488,28.488,0,0,0-3.413.242v.994c0,1.612.106,5.589.188,6.933.052.86.052,1.129.052,1.586,0,1.639-.536,2.714-1.369,2.714-.4,0-.618-.215-.887-.941a4.741,4.741,0,0,0-2.553-2.392L6.8,228a10.484,10.484,0,0,0,2.58.537c.244,0,.3-.134.349-.887.029-.537.081-2.634.109-4.085Zm-4.382,1.021c.029.457.029.672.029.86A10.589,10.589,0,0,1,4.4,227.459a2.319,2.319,0,0,1-1.881,1.5.964.964,0,0,1-.939-1.048c0-.591.269-.967,1.073-1.612a6.189,6.189,0,0,0,2.5-4.058Zm8.2-.269c3.334,1.156,5.833,3.386,5.833,5.16,0,.779-.43,1.344-1.023,1.344a.886.886,0,0,1-.618-.322,3.626,3.626,0,0,1-.59-1.156,10.77,10.77,0,0,0-3.762-4.783Zm1.372-10.4c2.6.672,4.138,1.747,4.138,2.929a.777.777,0,0,1-.726.806c-.378,0-.593-.188-1.1-.994a7.991,7.991,0,0,0-2.42-2.5Zm2.284-1.8c2.607.376,4.273,1.344,4.273,2.472a.739.739,0,0,1-.672.806c-.3,0-.457-.108-.994-.833a8.463,8.463,0,0,0-2.714-2.2Z" transform="translate(1.076 142.548)" fill="#2e2e2e"/>
          <path id="パス_1150" data-name="パス 1150" d="M9,243.834a1.451,1.451,0,1,1-2.9,0,1.451,1.451,0,1,1,2.9,0m-1.935-3.01a101.873,101.873,0,0,0-.455-11.179c-.082-.564-.459-3.386-.459-3.547a1.4,1.4,0,1,1,2.795,0c0,.484-.4,2.849-.457,3.386a94.594,94.594,0,0,0-.457,11.34Z" transform="translate(4.142 152.671)" fill="#2e2e2e"/>
        </g>
        <rect id="長方形_141" data-name="長方形 141" width="24" height="398" transform="translate(0.591 -0.087)" fill="none"/>
      </g>
    </g>
    <g id="グループ_295" data-name="グループ 295" transform="translate(0 36.19)">
      <path id="パス_425" data-name="パス 425" d="M11.833,11.15a28.184,28.184,0,0,1-5.561,2.392c-.054,1.29-.054,1.29-.054,1.8a8.463,8.463,0,0,0,.215,2.392c.269.591.993.806,2.739.806a13.594,13.594,0,0,0,4.57-.618,2.955,2.955,0,0,1,.779-.134,3.564,3.564,0,0,1,1.532.43.958.958,0,0,1,.536.833c0,.591-.4.806-1.987.994a35.05,35.05,0,0,1-3.95.242c-2.393,0-4.058-.3-4.864-.86-.888-.591-1.156-1.585-1.156-4.058,0-.269.027-1.236.027-2.553.027-1.075.054-3.6.054-4.676a6.9,6.9,0,0,0-.188-2.069,1.619,1.619,0,0,0-1.1-1.021A1.481,1.481,0,0,1,4.58,4.486a3.469,3.469,0,0,1,1.881.7,1.32,1.32,0,0,1,.672,1.1c0,.215-.027.3-.242.726-.3.591-.43,1.908-.593,5.912a29.742,29.742,0,0,0,6.1-4.138c.484-.484.647-.779.647-1.075s-.163-.564-.564-.941a1.033,1.033,0,0,1,.564-.134c1.021,0,2.632,1.263,2.632,2.069a.879.879,0,0,1-.536.752c-.027.027-.862.43-1.317.672ZM21.24,3.814a2.892,2.892,0,0,1-2.9,2.9,2.924,2.924,0,0,1-2.9-2.9,2.924,2.924,0,0,1,2.9-2.9,2.892,2.892,0,0,1,2.9,2.9m-4.971,0a2.069,2.069,0,1,0,2.067-2.069,2.053,2.053,0,0,0-2.067,2.069" transform="translate(2.327 -0.912)" fill="#2e2e2e"/>
      <path id="パス_426" data-name="パス 426" d="M7.717,16.143c1.1,0,2.311.887,2.311,1.72a1.055,1.055,0,0,1-.163.511c-.321.806-.375,1.317-.375,4.971,0,2.5.054,6.315.134,10.158.025.43.025.806.025,1.048,0,1.4-.321,2.015-1.019,2.015a1.058,1.058,0,0,1-.833-.457A2.88,2.88,0,0,1,7.5,34.5c0-.43,0-.726.052-1.693.055-2.15.134-7.954.134-11.931,0-3.037-.134-3.467-1.369-4.058a1.58,1.58,0,0,1,1.4-.672" transform="translate(4.295 9.438)" fill="#2e2e2e"/>
      <path id="パス_427" data-name="パス 427" d="M3.218,36.78a33.407,33.407,0,0,0,9.567-3.87c.86-.537,1.048-.752,1.048-1.156,0-.269-.027-.349-.294-.86a2.347,2.347,0,0,1,1.53.457,2.657,2.657,0,0,1,1.317,1.666c0,.43-.161.564-.806.752a5.254,5.254,0,0,0-1.156.376c-.833.376-1.881.779-2.768,1.075,1.585.806,1.854,1.129,1.854,2.15,0,.376-.027,1.048-.081,1.72a19.609,19.609,0,0,0,4.111-.806,2.036,2.036,0,0,1,.887-.215,5.26,5.26,0,0,1,2.5.86,1.031,1.031,0,0,1,.564.914.645.645,0,0,1-.726.645,7,7,0,0,1-1.156-.161,14.76,14.76,0,0,0-3.252-.349c-.887,0-1.772.054-3.035.161a16.784,16.784,0,0,1-2.581,7.524A15.774,15.774,0,0,1,5.959,52.5l-.215-.242a18.241,18.241,0,0,0,5.7-11.824,47.524,47.524,0,0,0-6.1,1.236,4.237,4.237,0,0,1-1.236.215,2.244,2.244,0,0,1-1.747-.833c-.564-.564-.752-.86-.806-1.29a6.576,6.576,0,0,0,2.311.322c1.29,0,1.29,0,7.659-.752v-.941c0-1.72-.188-2.392-.833-2.822A37.756,37.756,0,0,1,3.3,37.1Z" transform="translate(1.055 19.462)" fill="#2e2e2e"/>
      <path id="パス_428" data-name="パス 428" d="M21.965,53.733c-2.067.237-2.452.769-3.426,2.188-.826,1.154-1.537,2.366-2.57,3.933A34.2,34.2,0,0,1,20.784,65.8l-.207.3a7.429,7.429,0,0,1-3.606-1.213c-.354-.443-1.594-1.834-2.57-2.879-2.13,2.867-4.086,3.93-6.186,3.93a5.556,5.556,0,0,1-5.863-5.376c0-2.719,1.955-3.9,4.429-5.7a5.607,5.607,0,0,1-2.12-4.111,4.761,4.761,0,0,1,4.856-4.661A4.17,4.17,0,0,1,13.9,50.152a3.386,3.386,0,0,1-1.243,2.6,26.52,26.52,0,0,1-2.4,1.774c.977.826,3.08,2.659,4.973,4.578A20.377,20.377,0,0,0,17,55.711c.563-1.359.3-1.713-1.8-1.978V52.9h6.763Zm-8.241,7.474a56.272,56.272,0,0,0-6.159-5.7c-1.953,1.359-2.694,2.778-2.694,4.226A4.007,4.007,0,0,0,8.955,63.9a6.211,6.211,0,0,0,4.768-2.689M6.782,50.034c0,1.538.92,2.575,2.7,3.935a4.494,4.494,0,0,0,2.2-3.787c0-1.688-1.009-3.107-2.462-3.107-1.4,0-2.434,1.182-2.434,2.959" transform="translate(1.599 29.783)" fill="#2e2e2e"/>
      <path id="パス_429" data-name="パス 429" d="M3.664,80.635A36.994,36.994,0,0,0,13.2,69.967a25.921,25.921,0,0,0,2.714-5.7c0-.188-.134-.3-.349-.3a19.355,19.355,0,0,0-2.848.511c-2.607.564-2.768.618-5.912,1.5a4.433,4.433,0,0,1-1.345.242,2.757,2.757,0,0,1-2.551-2.445v-.215A6.824,6.824,0,0,0,6,64.163a51.338,51.338,0,0,0,7.5-.993,5,5,0,0,0,1.827-.593.97.97,0,0,1,.512-.161c1.019,0,2.795,1.612,2.795,2.528,0,.348-.054.428-.672.966a5.152,5.152,0,0,0-.754,1.13,43.871,43.871,0,0,1-6.772,9.027A24.836,24.836,0,0,1,3.879,80.9Z" transform="translate(1.979 40.881)" fill="#2e2e2e"/>
      <path id="パス_430" data-name="パス 430" d="M4.085,96.579a29.137,29.137,0,0,0,7.526-7.551c1.478-2.123,3.144-5.294,3.144-5.966,0-.215-.134-.322-.432-.322a72.61,72.61,0,0,0-7.578,1.532A6.438,6.438,0,0,1,5.4,84.54a2.448,2.448,0,0,1-2.041-2.311v-.215a5.749,5.749,0,0,0,2.58.591,68.908,68.908,0,0,0,7.282-.833,2.606,2.606,0,0,0,1.532-.591.613.613,0,0,1,.43-.161,2.887,2.887,0,0,1,1.478.7c.618.457.912.833.912,1.182,0,.269-.054.349-.457.726a4.107,4.107,0,0,0-.618.887,30.206,30.206,0,0,1-6.1,8.169,22.152,22.152,0,0,1-6.125,4.192ZM5.294,77.043a5.178,5.178,0,0,0,2.125.43,15.246,15.246,0,0,0,5.24-1.263,2.292,2.292,0,0,1,.994-.242c.752,0,1.476.537,1.476,1.129,0,.43-.4.726-1.423,1.048a16.877,16.877,0,0,1-4.326.645A6.322,6.322,0,0,1,5.16,77.312Z" transform="translate(2.284 50.09)" fill="#2e2e2e"/>
      <path id="パス_431" data-name="パス 431" d="M4.963,109.5A26.578,26.578,0,0,0,14.37,97.839a25.306,25.306,0,0,0,1.476-4.649c0-.188-.079-.269-.294-.269a1.1,1.1,0,0,0-.269.027c-.055,0-.244,0-.539.027-1.369.108-4.676.564-6.664.914a4.011,4.011,0,0,1-.537.054,2.332,2.332,0,0,1-1.234-.376c.106.887.16,1.37.24,2.23.134,1.559.134,1.559.269,2.66,0,.215.027.457.027.618,0,.726-.269,1.129-.726,1.129-.618,0-1.451-1.317-1.451-2.284a3.726,3.726,0,0,1,.081-.7,5.637,5.637,0,0,0,.082-.967,9.94,9.94,0,0,0-.459-2.983,2.573,2.573,0,0,0-1.236-1.29,1.107,1.107,0,0,1,.673-.215,3.692,3.692,0,0,1,2.256.86,5,5,0,0,0,.593.027c.914,0,4.432-.4,7.5-.86a2.806,2.806,0,0,0,1.557-.484.606.606,0,0,1,.459-.188c.349,0,.8.3,1.449.914s.914,1.048.914,1.371a.579.579,0,0,1-.267.511,1.458,1.458,0,0,0-.566.806c-.027.054-.081.188-.161.376-.025.107-.134.376-.269.779a26,26,0,0,1-6.125,9.728A22.032,22.032,0,0,1,5.151,109.8Z" transform="translate(2.131 60.387)" fill="#2e2e2e"/>
      <path id="パス_432" data-name="パス 432" d="M7.717,104.976c1.1,0,2.311.887,2.311,1.72a1.055,1.055,0,0,1-.163.511c-.321.806-.375,1.317-.375,4.971,0,2.5.054,6.315.134,10.158.025.43.025.806.025,1.048,0,1.4-.321,2.015-1.019,2.015a1.058,1.058,0,0,1-.833-.457,2.88,2.88,0,0,1-.3-1.612c0-.43,0-.726.052-1.693.055-2.15.134-7.954.134-11.931,0-3.037-.134-3.467-1.369-4.058a1.58,1.58,0,0,1,1.4-.672" transform="translate(4.295 69.802)" fill="#2e2e2e"/>
      <path id="パス_433" data-name="パス 433" d="M9.837,126.05H6.478c0,.43-.029,2.338-.029,2.714,1.077.43,3.253,1.908,3.253,3.359a.98.98,0,0,1-1,1.075c-.751,0-.966-.7-1.181-1.532-.459-1.639-.537-1.989-1.077-2.5.081,11.233.081,11.528.109,12.6,0,.161.025.86.025,1.021a1.205,1.205,0,0,1-1.369,1.317c-.647,0-.647-.618-.647-.86,0-.349.163-2.714.188-3.225.027-1.424.055-2.2.081-9.056a16.8,16.8,0,0,1-4.676,7.014L0,137.82a33.358,33.358,0,0,0,4.622-11.77,19.182,19.182,0,0,0-3.493.242L.62,125.217c.618.054,1.853.161,4.164.188a33.4,33.4,0,0,0-.349-5.885l2.474.806c.321.107.618.242.618.511,0,.242-.082.3-1.023.967,0,.43,0,2.392-.025,3.6h.779l.751-.914c.082-.108.244-.322.432-.322a.95.95,0,0,1,.511.269l1.048.914a.578.578,0,0,1,.269.4c0,.269-.244.3-.43.3m14.671-3.278H17.44c0,2.042-.081,3.681-.186,4.676h4.085l.7-.726c.188-.188.322-.322.4-.322a.788.788,0,0,1,.375.215l1.075.779c.217.161.378.269.378.484,0,.349-.19.457-.808.806.029.86-.025,5.643-.025,6.718,0,1.478.106,3.87.106,5.374,0,1.559-.564,2.768-3.142,3.386a3.882,3.882,0,0,0-2.445-2.687v-.188a21.917,21.917,0,0,0,2.445.161c.966,0,1.129-.027,1.209-.43.106-.645.106-8.142.106-8.868,0-1.182,0-2.929-.081-4.058H17.2a18.759,18.759,0,0,1-.62,3.117c1.4.672,4,2.311,4,4.38a1.092,1.092,0,0,1-1.073,1.209c-.564,0-.914-.376-1.238-1.424-.779-2.472-.833-2.607-1.8-3.87a11.115,11.115,0,0,1-4.434,5.939c0,.564.027,3.278.055,3.9,0,.242.054,1.344.054,1.585a1.25,1.25,0,0,1-1.372,1.156c-.428,0-.724-.188-.724-.941,0-.188.052-.7.081-.914.106-.967.134-4.7.134-13.221a11.178,11.178,0,0,0-.269-2.58l2.2,1.021h3.2c.055-.726.161-2.929.109-4.676H12.793a18.55,18.55,0,0,0-3.171.242l-.537-1.048c2.2.161,3.814.161,4.137.161h7.927l.994-1.182c.134-.161.3-.349.432-.349s.321.161.511.3l1.557,1.182a.578.578,0,0,1,.269.4c0,.3-.24.3-.4.3m-12.442,5.321c-.052,2.177-.081,4.783-.027,9a16.951,16.951,0,0,0,3.305-9Z" transform="translate(0 79.685)" fill="#2e2e2e"/>
      <path id="パス_434" data-name="パス 434" d="M4.963,155.229a26.579,26.579,0,0,0,9.407-11.663,25.306,25.306,0,0,0,1.476-4.649c0-.188-.079-.269-.294-.269a1.1,1.1,0,0,0-.269.027c-.055,0-.244,0-.539.027-1.369.107-4.676.564-6.664.914a4.012,4.012,0,0,1-.537.054,2.333,2.333,0,0,1-1.234-.376c.106.887.16,1.37.24,2.23.134,1.559.134,1.559.269,2.66,0,.215.027.457.027.618,0,.726-.269,1.129-.726,1.129-.618,0-1.451-1.317-1.451-2.284a3.726,3.726,0,0,1,.081-.7,5.637,5.637,0,0,0,.082-.967A9.94,9.94,0,0,0,4.372,139a2.572,2.572,0,0,0-1.236-1.29,1.107,1.107,0,0,1,.673-.215,3.692,3.692,0,0,1,2.256.86,5.01,5.01,0,0,0,.593.027c.914,0,4.432-.4,7.5-.86a2.805,2.805,0,0,0,1.557-.484.606.606,0,0,1,.459-.188c.349,0,.8.3,1.449.914s.914,1.048.914,1.37a.579.579,0,0,1-.267.511,1.458,1.458,0,0,0-.566.806c-.027.054-.081.188-.161.376-.025.107-.134.376-.269.779a26,26,0,0,1-6.125,9.728,22.033,22.033,0,0,1-5.994,4.192Z" transform="translate(2.131 91.46)" fill="#2e2e2e"/>
      <path id="パス_435" data-name="パス 435" d="M3.291,151.009a10.031,10.031,0,0,1,4.462,1.612,2.976,2.976,0,0,1,1.369,2.257c0,.752-.43,1.29-1.019,1.29-.43,0-.727-.242-1.129-.941a9.1,9.1,0,0,0-3.791-3.977Zm16.822.941a32.155,32.155,0,0,1-8.382,10.426,38.686,38.686,0,0,1-4.382,3.2,5.37,5.37,0,0,1-.509.349,1.906,1.906,0,0,1-1.1.484c-.564,0-1.208-.511-1.772-1.4a2.917,2.917,0,0,1-.593-1.532,1.518,1.518,0,0,1,.161-.672,2.818,2.818,0,0,0,1.881,1.156c.727,0,2.069-.672,4.111-2.042a40.7,40.7,0,0,0,10.321-10.131Z" transform="translate(2.164 101.082)" fill="#2e2e2e"/>
      <path id="パス_436" data-name="パス 436" d="M11.833,172.447a28.186,28.186,0,0,1-5.561,2.392c-.054,1.29-.054,1.29-.054,1.8a8.463,8.463,0,0,0,.215,2.392c.269.591.993.806,2.739.806a13.594,13.594,0,0,0,4.57-.618,2.954,2.954,0,0,1,.779-.134,3.564,3.564,0,0,1,1.532.43.958.958,0,0,1,.536.833c0,.591-.4.806-1.987.994a35.056,35.056,0,0,1-3.95.242c-2.393,0-4.058-.3-4.864-.86-.888-.591-1.156-1.585-1.156-4.058,0-.269.027-1.236.027-2.553.027-1.075.054-3.6.054-4.676a6.9,6.9,0,0,0-.188-2.069,1.619,1.619,0,0,0-1.1-1.021,1.481,1.481,0,0,1,1.156-.564,3.469,3.469,0,0,1,1.881.7,1.32,1.32,0,0,1,.672,1.1c0,.215-.027.3-.242.726-.3.591-.43,1.908-.593,5.912a29.742,29.742,0,0,0,6.1-4.138c.484-.484.647-.779.647-1.075s-.163-.564-.564-.941a1.033,1.033,0,0,1,.564-.134c1.021,0,2.632,1.263,2.632,2.069a.879.879,0,0,1-.536.752c-.027.027-.862.43-1.317.672Zm9.407-7.336a2.892,2.892,0,0,1-2.9,2.9,2.9,2.9,0,0,1,0-5.8,2.892,2.892,0,0,1,2.9,2.9m-4.971,0a2.069,2.069,0,1,0,2.067-2.069,2.053,2.053,0,0,0-2.067,2.069" transform="translate(2.327 108.693)" fill="#2e2e2e"/>
      <path id="パス_437" data-name="パス 437" d="M7.717,177.441c1.1,0,2.311.887,2.311,1.72a1.055,1.055,0,0,1-.163.511c-.321.806-.375,1.317-.375,4.971,0,2.5.054,6.315.134,10.158.025.43.025.806.025,1.048,0,1.4-.321,2.015-1.019,2.015a1.058,1.058,0,0,1-.833-.457,2.88,2.88,0,0,1-.3-1.612c0-.43,0-.726.052-1.693.055-2.15.134-7.954.134-11.931,0-3.037-.134-3.467-1.369-4.058a1.58,1.58,0,0,1,1.4-.672" transform="translate(4.295 119.044)" fill="#2e2e2e"/>
      <path id="パス_438" data-name="パス 438" d="M1.232,210.737a39.5,39.5,0,0,0,9.862-9.083c1.962-2.553,4.138-5.993,4.138-6.584,0-.161-.109-.215-.322-.215A38.4,38.4,0,0,0,9.4,196.522a5.425,5.425,0,0,1-1.881.537A1.828,1.828,0,0,1,5.96,195.85a2.96,2.96,0,0,1-.294-1.156,1.615,1.615,0,0,1,.054-.43,2.843,2.843,0,0,0,2.067.752,29.872,29.872,0,0,0,5.269-.833,5.142,5.142,0,0,0,1.854-.7,1.373,1.373,0,0,1,.643-.188c.833,0,2.42,1.4,2.42,2.123,0,.322-.109.484-.539.779-.349.269-.349.269-2.417,3.117-.378.537-.727.994-2.125,2.714a18.087,18.087,0,0,1,5.321,3.252,5.129,5.129,0,0,1,1.962,3.144,1.218,1.218,0,0,1-1.1,1.317.91.91,0,0,1-.647-.3,6.263,6.263,0,0,1-.724-1.209,14.386,14.386,0,0,0-5.186-5.751,36.456,36.456,0,0,1-5.4,5.106,29.419,29.419,0,0,1-5.67,3.413Z" transform="translate(0.837 129.818)" fill="#2e2e2e"/>
    </g>
  </g>
</svg>
