<svg xmlns="http://www.w3.org/2000/svg" width="69.996" height="627.032" viewBox="0 0 69.996 627.032">
  <path id="パス_1376" data-name="パス 1376" d="M37.259,12.308a18.116,18.116,0,0,0-16.327-9.8c-9.377,0-17.666,6.28-17.666,16.076C3.265,27.63,9.629,31.4,17,34.747l3.851,1.675C26.709,39.1,32.486,41.612,32.486,48.98c0,7.117-6.2,12.308-12.978,12.308S7.787,56.013,6.866,49.566L0,51.492c2.009,9.8,9.545,16.327,19.676,16.327A19.5,19.5,0,0,0,39.519,48.31c0-10.047-6.949-14.15-15.155-17.75l-4.186-1.842c-4.27-1.926-9.88-4.438-9.88-9.88,0-5.777,4.856-9.8,10.466-9.8,5.359,0,8.373,2.512,10.885,6.866ZM68.907,3.6H61.288L85.485,70l20.429-50.822L126.344,70l24.2-66.4h-7.619L126.344,50.906,105.915.335,85.485,50.906Zm112.948,0h-7.033V66.73h7.033Zm24.951,63.13h7.2l8.122-42.7h.167l20.262,45.3L262.9,24.03h.167l8.122,42.7h7.2L265.582,0,242.557,53,219.616,0ZM348.053,3.6h-7.619l24.2,66.4,20.429-50.822L405.49,70l24.2-66.4h-7.619L405.49,50.906,385.061.335,364.631,50.906ZM453.8,66.73h32.737V60.2h-25.7V35.417h24.951V28.886H460.834V10.131h25.7V3.6H453.8Zm97.877-17.918,7.452,17.918h7.787L538.532.586,509.4,66.73h7.7l7.619-17.918Zm-2.763-6.531h-21.35L538.365,17ZM597.56,10.131h2.093c8.456,0,16.076,1,16.076,11.387,0,9.8-8.038,11.3-15.992,11.3H597.56Zm0,28.886h1.758l19.09,27.714h8.624l-20.094-28.3c9.712-.837,15.824-7.7,15.824-17.415,0-14.234-11.136-17.415-23.109-17.415h-9.126V66.73h7.033Z" transform="translate(69.996) rotate(90)" fill="#b9cce8"/>
</svg>
