<svg xmlns="http://www.w3.org/2000/svg" width="55" height="752" viewBox="0 0 55 752">
  <g id="グループ_330" data-name="グループ 330" transform="translate(0.074 -0.358)">
    <path id="パス_1358" data-name="パス 1358" d="M38.075,5.976A22.427,22.427,0,0,0,24.213,1.417,24.3,24.3,0,0,0,0,25.63C0,38.814,11.09,49.473,24.213,49.473a23.924,23.924,0,0,0,13.862-4.559V38.506a20.338,20.338,0,0,1-14.047,6.161c-10.412,0-18.853-9-18.853-19.222S13.554,6.223,23.9,6.223a19.883,19.883,0,0,1,14.17,6.161ZM81.017,1.417A24.23,24.23,0,0,0,56.8,25.506a24.214,24.214,0,0,0,48.425,0A24.23,24.23,0,0,0,81.017,1.417Zm0,4.806A19.223,19.223,0,1,1,61.979,25.445,19.089,19.089,0,0,1,81.017,6.223Zm48.733-4h-5.175V48.672h17.99V43.866H129.75Zm52.122-.8a24.23,24.23,0,0,0-24.213,24.089,24.214,24.214,0,0,0,48.425,0A24.23,24.23,0,0,0,181.872,1.417Zm0,4.806a19.223,19.223,0,1,1-19.037,19.222A19.089,19.089,0,0,1,181.872,6.223Zm48.733.8h1.54c6.223,0,11.829.739,11.829,8.379,0,7.208-5.915,8.317-11.768,8.317h-1.6Zm0,21.255H231.9l14.047,20.393h6.346L237.506,27.848c7.147-.616,11.644-5.668,11.644-12.815,0-10.474-8.194-12.815-17-12.815H225.43V48.672h5.175ZM303.736,2.218H298.13l18.853,49.226L335.835,2.218h-5.606L316.983,37.644Zm70.112,33.269,5.483,13.184h5.73L364.176,0l-21.44,48.672H348.4l5.606-13.184Zm-2.033-4.806H356.1l7.948-18.606Zm35.8-23.658h1.54c6.223,0,11.829.739,11.829,8.379,0,7.208-5.915,8.317-11.767,8.317h-1.6Zm0,21.255H408.9l14.047,20.393H429.3L414.511,27.848c7.147-.616,11.644-5.668,11.644-12.815,0-10.474-8.194-12.815-17-12.815h-6.715V48.672h5.175ZM453.448,2.218h-5.175V48.672h5.175ZM502,35.487l5.483,13.184h5.73L492.324,0l-21.44,48.672h5.668l5.606-13.184Zm-2.033-4.806H484.253L492.2,12.076ZM537.977,7.024h11.336V2.218H521.589V7.024H532.8V48.672h5.175Zm34.255-4.806h-5.175V48.672h5.175Zm43.62-.8a24.23,24.23,0,0,0-24.213,24.089,24.214,24.214,0,0,0,48.425,0A24.23,24.23,0,0,0,615.852,1.417Zm0,4.806a19.223,19.223,0,1,1-19.037,19.222A19.089,19.089,0,0,1,615.852,6.223Zm43.866,42.449h5.175v-35.8l36.227,37.89V2.218h-5.175V38.2L659.718.246ZM748.313,8.625A13.33,13.33,0,0,0,736.3,1.417c-6.9,0-13,4.621-13,11.829,0,6.654,4.682,9.426,10.1,11.891l2.834,1.232c4.313,1.972,8.564,3.82,8.564,9.241,0,5.237-4.559,9.057-9.55,9.057s-8.625-3.881-9.3-8.625L720.9,37.459c1.479,7.208,7.023,12.014,14.478,12.014a14.346,14.346,0,0,0,14.6-14.355c0-7.393-5.114-10.412-11.151-13.061l-3.08-1.355c-3.142-1.417-7.27-3.265-7.27-7.27,0-4.251,3.573-7.208,7.7-7.208,3.943,0,6.161,1.848,8.009,5.052Z" transform="translate(53.154 1.331) rotate(90)" fill="#c9e8e2"/>
    <rect id="長方形_165" data-name="長方形 165" width="55" height="752" transform="translate(-0.074 0.358)" fill="none"/>
  </g>
</svg>
