<svg xmlns="http://www.w3.org/2000/svg" width="98" height="525.5" viewBox="0 0 98 525.5">
  <g id="グループ_430" data-name="グループ 430" transform="translate(-753 -12041)">
    <g id="グループ_426" data-name="グループ 426" transform="translate(805.5 12041)">
      <path id="パス_1420" data-name="パス 1420" d="M0,0H45.5V525H0Z" fill="#fff" opacity="0.9"/>
      <path id="パス_1390" data-name="パス 1390" d="M57.553,7.5c-1.733.114-2.4.52-2.541,1.7a45.478,45.478,0,0,0-.145,4.673v2.394c0,3.4-.516,5.855-2.188,7.616a7.077,7.077,0,0,1-5.161,2A7.521,7.521,0,0,1,42.9,24.5c-1.734-1.328-2.545-3.491-2.545-6.867V10.417c0-2.6-.231-2.712-2.513-2.914V6.7h7.481V7.5c-2.278.144-2.509.317-2.509,2.914v6.577c0,4.644,1.846,7.3,5.423,7.3,4.153,0,5.449-3.463,5.449-8.221V13.879a36.874,36.874,0,0,0-.2-4.76c-.173-1.125-.781-1.472-2.8-1.615V6.7h6.863Z" transform="translate(-24.852 5.021)"/>
      <path id="パス_1391" data-name="パス 1391" d="M57.187,23.1c-1.964.231-2.34.49-3.437,3.089-.779,1.878-3.838,9.21-6,15.158h-.894c-1.935-5.285-4.3-11.492-5.976-15.678-.838-2.167-1.3-2.4-3-2.539v-.838h7.074V23.1c-2.049.231-2.165.432-1.7,1.7.751,2.051,2.858,7.623,4.793,12.588h.056c1.444-3.608,3.638-9.238,4.56-12.126.55-1.645.376-1.876-1.962-2.165v-.809h6.5Z" transform="translate(-24.842 16.721)"/>
      <path id="パス_1392" data-name="パス 1392" d="M37.25,56.491a23.719,23.719,0,0,0,5.46-5.644,30.176,30.176,0,0,0,3.677-7.14c-.474.1-.474.1-1.472.343-.394.079-.971.208-1.731.367a5.22,5.22,0,0,1-1.522.261,1.94,1.94,0,0,1-1.209-.42,2.481,2.481,0,0,1-1.075-1.706,1.621,1.621,0,0,1,.024-.315,4.8,4.8,0,0,0,2.7.709,43.626,43.626,0,0,0,4.672-.42A16.516,16.516,0,0,0,47.62,38.8a1.643,1.643,0,0,0-.367-1.1,2.344,2.344,0,0,0-1.025-.576,1.83,1.83,0,0,1,1.393-.606c1.024,0,2.282.945,2.282,1.708a2.564,2.564,0,0,1-.262.866,7.653,7.653,0,0,0-.394,1.1c-.5,1.626-.5,1.626-.656,2.1,1.445-.158,3.281-.42,3.833-.551a1.407,1.407,0,0,0,.84-.392.75.75,0,0,1,.525-.186c.446,0,1.024.42,1.655,1.209a1.285,1.285,0,0,1,.341.891c0,.263-.08.394-.474.735-.1.1-.1.1-1.076,3.675-1.181,4.333-3.174,7.9-4.408,7.9a.881.881,0,0,1-.6-.289,2,2,0,0,1-.289-.789c-.21-.866-.5-1.286-1.811-2.649l.156-.21a3.06,3.06,0,0,1,.446.289,5.31,5.31,0,0,0,2.257,1c.212,0,.394-.21.656-.707a32.557,32.557,0,0,0,2.572-7.457,8.833,8.833,0,0,0,.289-1.6c0-.262-.1-.368-.42-.368a45.422,45.422,0,0,0-4.8.63,27.563,27.563,0,0,1-4.515,8.218,20.658,20.658,0,0,1-6.328,5.117Z" transform="translate(-25.403 27.386)"/>
      <path id="パス_1393" data-name="パス 1393" d="M41.5,54.338c2.231.971,3.413,2.179,3.413,3.491a.954.954,0,0,1-.892,1.024c-.42,0-.63-.236-.84-.892a8.374,8.374,0,0,0-1.864-3.439Zm2.074,13.125a27.492,27.492,0,0,0,7.35-8.085c1.313-2.177,2.284-4.226,2.284-4.935,0-.446-.236-.683-1.076-1.05A1.262,1.262,0,0,1,53,53.13c.945,0,2.284,1.129,2.284,1.942,0,.236-.026.289-.341.709-.158.21-.21.315-.42.63a32.683,32.683,0,0,1-4.909,6.851,20.556,20.556,0,0,1-5.854,4.463ZM45.7,52.789a6.771,6.771,0,0,1,2.783,1.759,2.373,2.373,0,0,1,.709,1.575.988.988,0,0,1-.892,1.024c-.394,0-.6-.21-.788-.814A8.057,8.057,0,0,0,45.517,53Z" transform="translate(-22.078 39.424)"/>
      <path id="パス_1394" data-name="パス 1394" d="M42.616,66.17a3.146,3.146,0,0,1,1.759.682,1.021,1.021,0,0,1,.473.866,2.17,2.17,0,0,1-.184.84,24.63,24.63,0,0,0-.394,4.83c3.964.735,6.4,2.336,6.4,4.2,0,.709-.392,1.234-.945,1.234-.392,0-.628-.21-1.075-.919a10.172,10.172,0,0,0-4.384-3.99c0,4.331.053,8.347.157,10.29.051.945.051,1.1.051,1.523a1.829,1.829,0,0,1-.208,1.129.721.721,0,0,1-.577.315c-.368,0-.735-.341-1.024-.945a4.005,4.005,0,0,1-.472-1.654,3.88,3.88,0,0,1,.157-1.05,16.151,16.151,0,0,0,.21-2.179c.1-3.334.157-6.274.157-10.972a7.886,7.886,0,0,0-.212-2.756,1.756,1.756,0,0,0-1.18-.84,1.651,1.651,0,0,1,1.286-.6" transform="translate(-22.197 49.416)"/>
      <path id="パス_1395" data-name="パス 1395" d="M57.55,89.634c-2.021.233-2.4.752-3.35,2.138-.805,1.129-1.5,2.312-2.509,3.843a33.26,33.26,0,0,1,4.7,5.808l-.2.289a7.275,7.275,0,0,1-3.521-1.185c-.345-.434-1.556-1.792-2.509-2.81-2.083,2.8-3.99,3.838-6.043,3.838A5.427,5.427,0,0,1,38.391,96.3c0-2.655,1.911-3.81,4.326-5.57a5.478,5.478,0,0,1-2.07-4.016,4.653,4.653,0,0,1,4.742-4.552,4.076,4.076,0,0,1,4.282,3.974,3.308,3.308,0,0,1-1.216,2.546,26.241,26.241,0,0,1-2.343,1.731c.955.809,3.01,2.6,4.858,4.473A19.842,19.842,0,0,0,52.7,91.569c.55-1.328.289-1.675-1.76-1.936v-.807h6.61Zm-8.052,7.3a54.634,54.634,0,0,0-6.016-5.569c-1.907,1.327-2.63,2.711-2.63,4.127a3.915,3.915,0,0,0,3.99,4.069A6.069,6.069,0,0,0,49.5,96.937M42.717,86.022c0,1.5.9,2.515,2.639,3.845a4.392,4.392,0,0,0,2.144-3.7c0-1.647-.984-3.034-2.406-3.034-1.361,0-2.377,1.155-2.377,2.889" transform="translate(-24.398 61.359)"/>
      <path id="パス_1396" data-name="パス 1396" d="M46.445,104.317H43.281v5.46c.392-.131,2.156-.681,2.52-.787l.14.184c-.42.236-2.3,1.313-2.66,1.549.028,2.023.112,6.641.112,8.479,0,.866,0,2.336-2.856,2.887-.336-1.024-.5-1.547-2.94-2.809l.028-.1c.98.1,2.24.236,2.912.236.98,0,.98-.079.98-1.181v-6.536c-.476.262-2.6,1.417-3.052,1.654-.14.446-.308.711-.5.711s-.306-.107-.42-.291l-1.372-2.389c.786.054,1.372.1,5.347-1.076v-5.985h-.784a18.406,18.406,0,0,0-3.3.236L36.9,103.5c1.512.1,3.08.184,4.619.184v-2.362a7.832,7.832,0,0,0-.56-3.124l2.94.735c.2.052.336.184.336.341,0,.186-.308.446-.952.892v3.517h.56l.588-.919c.14-.21.252-.341.42-.341a1.047,1.047,0,0,1,.506.262l1.23.945a.571.571,0,0,1,.28.422c0,.182-.224.261-.42.261m15.286,8.61H55.739l1.456.656c.224.107.42.236.42.42,0,.21-.308.394-.84.577a12.772,12.772,0,0,1-1.848,2.809c3.052,1.1,5.431,2.7,5.431,3.754a.952.952,0,0,1-1.006,1c-.282,0-.562-.054-1.318-.684a24.286,24.286,0,0,0-4.087-3.071c-1.26,1.13-4.031,3.388-9.855,3.57l.028-.182a14.512,14.512,0,0,0,8.233-4.175,22.4,22.4,0,0,0-3.053-1.1c-.532.945-.644,1.155-1.26,1.155-.42,0-1.176-.131-1.176-.63a1,1,0,0,1,.252-.6c.952-1.522,1.652-2.807,2.016-3.491H47.984a18.1,18.1,0,0,0-3.3.236l-.532-1.05c1.428.1,2.856.186,4.283.186h1.036a16.161,16.161,0,0,0,1.512-3.887h-2.8a20.641,20.641,0,0,0-3.3.238l-.56-1.052c2.212.158,3.807.185,4.311.185H53.92a26.621,26.621,0,0,0,1.708-4.149,5.952,5.952,0,0,0,.14-1.418l2.492,1.286c.224.131.364.236.364.394,0,.238-.168.473-1.148.606-1.484,1.626-2.884,3.148-3,3.281H58.2l.868-1.262c.14-.21.282-.315.42-.315a.99.99,0,0,1,.532.289l1.484,1.234a.667.667,0,0,1,.28.422c0,.21-.252.261-.42.261H51.148l2.128.945c.2.079.364.21.364.368,0,.262-.28.446-1.092.551-.308.5-.364.656-1.092,2.023h7.027l.9-1.209c.168-.21.252-.313.42-.313.14,0,.28.1.5.261l1.568,1.207a.648.648,0,0,1,.282.422c0,.182-.2.261-.422.261m-1.12-10.894H50a20.063,20.063,0,0,0-3.3.236l-.56-1.048c1.736.129,3.472.182,4.311.182h1.316a8.593,8.593,0,0,0-.392-3.253l2.8.735c.2.051.448.208.448.418,0,.238-.392.5-.9.709V101.4h3.807l.812-1.1c.168-.236.28-.315.392-.315a.9.9,0,0,1,.56.263l1.458,1.1a.626.626,0,0,1,.278.42c0,.157-.168.262-.42.262M50.616,107.2c-.784,0-.868-.341-1.148-1.339a7.346,7.346,0,0,0-1.372-3.019l.058-.079c.67.289,3.47,1.417,3.47,3.308a1.006,1.006,0,0,1-1.008,1.129m.532,5.723c-.588,1.155-1.372,2.756-1.68,3.281a30.675,30.675,0,0,1,3.585.63,8.242,8.242,0,0,0,2.1-3.911Z" transform="translate(-26.925 73.296)"/>
      <path id="パス_1397" data-name="パス 1397" d="M47.756,122.552c-.114,3.679.082,9.583.082,13.256,0,.761,0,2.548-3.3,3.15-.14-.55-.446-1.626-2.518-2.625v-.182c.474.051,2.854.158,3.272.158a.446.446,0,0,0,.5-.317c.14-.34.14-4.933.14-5.7v-.261H40.369c-.112,5.171-1.715,7.191-3.816,9.054l-.14-.077c1.961-3.15,2.269-4.909,2.269-14.28,0-1.208-.054-2.441-.14-3.672A22.292,22.292,0,0,1,36.3,122.5l-.112-.13c1.653-1.626,4.791-5.878,4.959-7.9l2.185,1.155c.224.131.336.289.336.422,0,.392-.588.471-.981.523-.308.315-.364.394-1.037,1.181h2.97l.7-.6c.28-.262.448-.341.588-.341a.731.731,0,0,1,.5.236l1.065.892a.7.7,0,0,1,.28.445c0,.262-.112.313-1.457.709-1.625,1.236-2.437,1.839-3.138,2.312h2.606l.784-.63a.8.8,0,0,1,.5-.236,1.011,1.011,0,0,1,.476.236l.953.735a.529.529,0,0,1,.224.339c0,.182-.084.236-.953.707m-6.633-4.172c-.895,1.076-1.569,1.837-1.933,2.18l1.543.84H42.6a24.218,24.218,0,0,0,1.845-3.02Zm1.171,7.584H40.4l-.028,3.442h1.926Zm0-3.937h-1.87c0,.525-.028,2.839-.028,3.311h1.9Zm3.642,0H44.03v3.311h1.907Zm0,3.938H44.03v3.442h1.907Zm14.789,12.1c-.981,0-1.233-1.024-1.345-1.5-.084-.394-.364-1.573-.448-1.862a62.167,62.167,0,0,1-8.177,2.571,4.074,4.074,0,0,0-.224.474.415.415,0,0,1-.364.236.655.655,0,0,1-.532-.4l-1.149-2.336a8.917,8.917,0,0,0,1.429.158c.588,0,3.278-.287,4.063-.368V129.2H51.621c0,1.052.028,2.1-1.343,2.1-.5,0-.671-.184-.671-.63,0-.471.168-3.517.168-4.174,0-1.416,0-5.353-.14-6.431l2.24,1.157h2.073c0-.632.028-3.388,0-3.965a6.9,6.9,0,0,0-.532-2.047l2.914.763c.28.079.42.21.42.368,0,.234-.084.289-.841.76a7.562,7.562,0,0,0-.056,1.34c0,.893,0,2.282-.028,2.782h2.467l.839-.866c.308-.315.42-.343.5-.343a.817.817,0,0,1,.53.264l1.149,1c.224.184.308.262.308.4s-.112.261-.364.392c-.336.21-.392.236-.672.42,0,.682,0,4.673.028,5.094,0,.313.112,1.654.112,1.941a1.127,1.127,0,0,1-1.287,1.155c-.7,0-.812-.289-.7-1.47H55.767v5.618c1.711-.236,2.551-.392,3-.5a7.014,7.014,0,0,0-1.317-2.441l.138-.105c1.767.894,4.288,2.993,4.288,4.989a1.194,1.194,0,0,1-1.151,1.313M53.95,121.845H51.621v6.722h2.357c0-2.233,0-2.677-.028-6.722m4.819,0H55.823c0,.551-.028,3.255-.028,3.887,0,.681-.028,2.179-.028,2.835h3Z" transform="translate(-26.914 85.484)"/>
      <path id="パス_1398" data-name="パス 1398" d="M45.409,134.984c-.308.632-.532,1.078-2.379,5.147-.308.656-2.185,3.938-2.381,4.618a4.352,4.352,0,0,0-.224,1.288,7.749,7.749,0,0,0,.616,2.571,6.547,6.547,0,0,1,.418,2.075A1.5,1.5,0,0,1,40,152.311a1.564,1.564,0,0,1-1.431-1.6c0-.525.282-2.889.282-3.36a2.844,2.844,0,0,0-2.325-2.993v-.186a4.581,4.581,0,0,0,2.519-.735,87.091,87.091,0,0,0,6.081-8.582ZM37.427,133.2c1.008.131,4.957.656,4.957,3.124a1.161,1.161,0,0,1-1.2,1.206c-.784,0-.924-.313-1.485-1.523a6.227,6.227,0,0,0-2.381-2.625Zm24.848,6.377a3.972,3.972,0,0,0-2.241,2,17.469,17.469,0,0,1-8.348-8.138l-.2.026a30.889,30.889,0,0,1-8.18,7.954l-.166-.131c2.519-2.81,6.021-7.061,6.807-10.108l2.239,1.236c.422.235.506.394.506.551,0,.34-.338.394-.532.446,2.043,2.783,6.721,5.749,10.113,5.959ZM50.93,145.171c0,1.468.026,2.86.056,4.305.026.733.14,4.461.14,4.568a1.287,1.287,0,0,1-1.373,1.444.872.872,0,0,1-.982-.919c0-.5.084-2.679.084-3.124.056-1.892.056-2.312.114-6.274H47.008a18.731,18.731,0,0,0-3.307.263l-.532-1.052c1.907.157,3.894.157,4.286.157h7.928l.87-.759c.112-.1.28-.289.392-.289a.864.864,0,0,1,.42.184l1.177.786a.785.785,0,0,1,.392.553c0,.341-.226.471-1.036.919.056,2.205.056,2.572.056,3.386,0,2.231,0,3.412-3.334,4.121a3.86,3.86,0,0,0-2.157-2.6l.026-.186a21.8,21.8,0,0,0,2.747.186c.5,0,.728-.107.754-.945.03-.971.058-3.624.03-4.725Zm1.289-4.331.839-1.024c.114-.131.254-.341.448-.341.168,0,.338.157.506.289l1.2,1a.614.614,0,0,1,.252.418c0,.238-.194.289-.418.289H50.342a21.288,21.288,0,0,0-3.306.238l-.56-1.05c1.735.131,3.474.184,4.312.184Z" transform="translate(-26.654 97.96)"/>
      <path id="パス_1399" data-name="パス 1399" d="M60.861,164.862c-1.29,0-4.6-1.47-6.7-4.1a14.722,14.722,0,0,1-6.144,3.57l-.028-.158a24.779,24.779,0,0,0,5.274-4.622,18.808,18.808,0,0,1-2.5-7.061h-9.51c0,6.9,0,10.738-4.46,14.177l-.112-.131c2.3-2.861,2.665-7.667,2.665-10.79a26.058,26.058,0,0,0-.421-5.115l2.525,1.234h9.2c-.028-.236-.14-.973-.224-1.444a15.254,15.254,0,0,0-.561-2.73l2.693.576c.252.053.421.131.421.289,0,.264-.449.527-.757.709.028.579.056,1.26.224,2.6h5.078l1.038-1.234c.2-.236.309-.343.449-.343a.941.941,0,0,1,.5.264l1.431,1.26c.14.131.281.234.281.418,0,.234-.252.261-.449.261H52.558a16.853,16.853,0,0,0,1.851,5.644,9.262,9.262,0,0,0,2.216-4.539l2.132,1.26c.252.158.393.287.393.418,0,.21-.112.261-.926.549a33.14,33.14,0,0,1-2.889,3.7,7.614,7.614,0,0,0,3.787,2.7c.5,0,.7-.186,1.066-.683a12.011,12.011,0,0,0,1.122-1.761h.142c0,.474-.086,2.522-.086,2.942a1.153,1.153,0,0,0,.2.681c.309.422.337.525.337.684,0,.761-.814.761-1.038.761M38.9,171.107a.946.946,0,0,1-1.038-.969c0-.471.2-.656,1.066-1.47a5.992,5.992,0,0,0,1.515-2.728l.168-.028a6.106,6.106,0,0,1,.449,2.312c0,1.733-.954,2.884-2.16,2.884M49.64,155.329H45.1a13.143,13.143,0,0,0-2.328.159l-.365-.915c1.459.1,2.833.131,3.03.131H47.4l.561-.632c.14-.157.309-.341.449-.341a1.123,1.123,0,0,1,.533.262l.842.658c.224.182.309.287.309.39,0,.21-.168.287-.449.287m-.056,3.021c-.028.577.056,3.439,0,3.649-.14.656-1.038.709-1.206.709-.643,0-.617-.551-.589-1h-3.03c.028.551.14,1.733-1.4,1.733-.589,0-.589-.446-.589-.682,0-.394.14-2.466.14-2.914a20.859,20.859,0,0,0-.252-3.306l2.1.761h2.889l.589-.63a.573.573,0,0,1,.393-.236.961.961,0,0,1,.393.21l.954.684c.224.156.281.287.281.392,0,.208-.224.339-.673.628m4.208,12.967a59.975,59.975,0,0,1-6.733.236c-2.721,0-3.282-.472-3.282-2.6a21.2,21.2,0,0,0-.251-4.648l2.186.527c.337.079.561.182.561.446,0,.289-.251.42-.643.656a15.3,15.3,0,0,0,.166,3.65c.14.21.449.236.673.261.254.028,1.29.053,2.441.053,3.843,0,4.04-.1,4.516-.788a9.509,9.509,0,0,0,1.094-2.625h.168c.337,1.944.421,2.468.785,2.679.337.182.477.262.477.523,0,.422-.449,1.179-2.16,1.626M47.817,157.93H44.731v3.153h3.086Zm2.889,10.4c-.673,0-.9-.471-1.318-1.391a5.806,5.806,0,0,0-1.347-2.128l.112-.182c1.908.42,3.563,1.286,3.563,2.6a1.019,1.019,0,0,1-1.01,1.1m5.33-17.166c-.5,0-.7-.29-1.289-1.158a4.688,4.688,0,0,0-1.376-1.393l.084-.231c1.347-.026,3.535.338,3.535,1.809a.934.934,0,0,1-.954.973m4.208,19.213c-.729,0-.926-.418-1.459-1.495a8.482,8.482,0,0,0-2.328-3.178l.14-.184c2.637.812,4.8,2.049,4.8,3.727a1.106,1.106,0,0,1-1.15,1.129" transform="translate(-26.542 110.295)"/>
      <path id="パス_1400" data-name="パス 1400" d="M45.171,182.85c3.1-.367,4.7-.838,6.274-1.836a8.53,8.53,0,0,0,3.99-7.534,7.411,7.411,0,0,0-2.128-5.617,7.5,7.5,0,0,0-5.25-1.969c-.313,0-.628.026-1.181.079a4.345,4.345,0,0,1,1.131,3.307,19.143,19.143,0,0,1-2.914,9.109c-1.183,1.811-2.443,2.756-3.677,2.756-2.126,0-3.7-2.494-3.7-5.828,0-5.749,4.541-10.027,10.657-10.027,5.276,0,9.109,3.649,9.109,8.689a8.683,8.683,0,0,1-5.488,8.111,17.034,17.034,0,0,1-6.823,1.1Zm-3.15-14.7a8.961,8.961,0,0,0-2.863,6.613c0,2.653.945,4.49,2.312,4.49.891,0,1.89-.921,2.966-2.809a18.229,18.229,0,0,0,2.6-8.426,3.817,3.817,0,0,0-.182-1.339,2.575,2.575,0,0,0-.42-.656,8.456,8.456,0,0,0-4.41,2.126" transform="translate(-24.962 123.442)"/>
      <path id="パス_1401" data-name="パス 1401" d="M40.044,199.869a28.457,28.457,0,0,0,7.35-7.376c1.445-2.074,3.071-5.171,3.071-5.827,0-.21-.131-.315-.42-.315a70.826,70.826,0,0,0-7.4,1.5,6.38,6.38,0,0,1-1.312.264,2.4,2.4,0,0,1-2-2.257v-.212a5.626,5.626,0,0,0,2.52.578,67.327,67.327,0,0,0,7.115-.814,2.546,2.546,0,0,0,1.494-.576.6.6,0,0,1,.422-.159,2.821,2.821,0,0,1,1.444.683c.6.446.891.814.891,1.157,0,.261-.053.339-.445.707a3.949,3.949,0,0,0-.605.866,29.538,29.538,0,0,1-5.957,7.98,21.638,21.638,0,0,1-5.985,4.1Zm1.181-19.084a5.053,5.053,0,0,0,2.076.42,14.877,14.877,0,0,0,5.117-1.234,2.249,2.249,0,0,1,.971-.236c.735,0,1.444.525,1.444,1.1,0,.422-.392.71-1.391,1.024a16.466,16.466,0,0,1-4.226.632,6.171,6.171,0,0,1-4.119-1.446Z" transform="translate(-23.752 134.225)"/>
      <path id="パス_1402" data-name="パス 1402" d="M41.5,197.362c2.231.971,3.413,2.179,3.413,3.491a.954.954,0,0,1-.892,1.024c-.42,0-.63-.236-.84-.893a8.374,8.374,0,0,0-1.864-3.439Zm2.074,13.125a27.491,27.491,0,0,0,7.35-8.085c1.313-2.177,2.284-4.226,2.284-4.935,0-.446-.236-.683-1.076-1.05a1.262,1.262,0,0,1,.866-.263c.945,0,2.284,1.129,2.284,1.942,0,.236-.026.289-.341.709-.158.21-.21.315-.42.63a32.682,32.682,0,0,1-4.909,6.851,20.558,20.558,0,0,1-5.854,4.462ZM45.7,195.813a6.771,6.771,0,0,1,2.783,1.759,2.373,2.373,0,0,1,.709,1.575.989.989,0,0,1-.892,1.024c-.394,0-.6-.21-.788-.814a8.057,8.057,0,0,0-1.993-3.334Z" transform="translate(-22.078 146.239)"/>
      <path id="パス_1403" data-name="パス 1403" d="M38.559,213.88c3.624.182,5.7,1.181,5.7,2.807a.985.985,0,0,1-.919,1c-.341,0-.6-.158-1.024-.632a10.109,10.109,0,0,0-3.833-2.914Zm18.139-2.1A35.909,35.909,0,0,1,45.41,224.013c-2.7,1.837-2.7,1.837-3.124,1.837a3.134,3.134,0,0,1-2.31-2.546.948.948,0,0,1,.238-.684,2.125,2.125,0,0,0,1.6,1c.945,0,3.938-1.811,6.771-4.069a57.407,57.407,0,0,0,5.276-4.909,39.511,39.511,0,0,0,2.546-3.045ZM41.42,209.208c.446-.028.5-.028.84-.028a8.372,8.372,0,0,1,4.174.971,1.855,1.855,0,0,1,.84,1.5.955.955,0,0,1-.919,1.022c-.313,0-.5-.131-1.1-.733a8.88,8.88,0,0,0-3.911-2.469Z" transform="translate(-24.353 156.22)"/>
      <path id="パス_1404" data-name="パス 1404" d="M45.562,225.122a19.528,19.528,0,0,0,2.363-.263c1.785-.315,1.785-.315,2.125-.5a1.534,1.534,0,0,1,.735-.21,2.923,2.923,0,0,1,1.523.735,1.092,1.092,0,0,1,.525.763.761.761,0,0,1-.339.577c-.317.261-.317.261-1.234,3.017-.21.6-.367,1.024-.814,2.284,2.783-.315,2.783-.315,3.518-.576a1.874,1.874,0,0,1,.525-.1,4.4,4.4,0,0,1,1.5.444c.5.236.761.525.761.892a.64.64,0,0,1-.683.656,3.039,3.039,0,0,1-.763-.129,15.342,15.342,0,0,0-2.964-.238,25.661,25.661,0,0,0-4.778.448c-1.5.236-3.1.576-4.147.84a2.885,2.885,0,0,1-.892.184,2.787,2.787,0,0,1-2.312-1.89,5.8,5.8,0,0,0,1.969.261c.868,0,4.672-.367,6.7-.656a38.082,38.082,0,0,0,1.6-5.827.277.277,0,0,0-.315-.313,14.107,14.107,0,0,0-3.15.709,5.008,5.008,0,0,1-1.472.34,1.734,1.734,0,0,1-1.68-1.6.691.691,0,0,1,.028-.208,4,4,0,0,0,1.68.368" transform="translate(-22.932 167.409)"/>
      <path id="パス_1405" data-name="パス 1405" d="M42.8,244.115a4.353,4.353,0,0,1-1.04.131,1.945,1.945,0,0,1-1.293-.422,2.423,2.423,0,0,1-1.152-1.7,1.409,1.409,0,0,1,.028-.315,5.485,5.485,0,0,0,2.895.707,49.227,49.227,0,0,0,5-.418,16.179,16.179,0,0,0,.9-3.727,1.58,1.58,0,0,0-.4-1.1c-.2-.208-.337-.287-1.1-.576a2.032,2.032,0,0,1,1.492-.6c1.094,0,2.443.945,2.443,1.706a2.31,2.31,0,0,1-.281.866,8.1,8.1,0,0,0-.422,1.1c-.335,1.024-.59,1.733-.7,2.1,1.574-.156,3.541-.418,4.1-.55a1.567,1.567,0,0,0,.9-.394.846.846,0,0,1,.562-.184c.393,0,.759.21,1.405.84.534.5.731.84.731,1.208,0,.315-.084.42-.506.787a2.934,2.934,0,0,0-.365.971c-1.377,4.83-2.192,6.9-3.485,8.846-.787,1.181-1.433,1.759-2.024,1.759-.534,0-.731-.236-.954-1.076-.227-.893-.536-1.312-1.941-2.677l.169-.184c.225.131.393.21.506.289a5.883,5.883,0,0,0,2.389.971c.225,0,.422-.21.7-.709a30.008,30.008,0,0,0,2.754-7.429,8.083,8.083,0,0,0,.309-1.627c0-.262-.112-.341-.45-.341-.562,0-1.883.156-5.142.63A27.3,27.3,0,0,1,44.01,251.2a21.778,21.778,0,0,1-6.774,5.119l-.2-.262a24.546,24.546,0,0,0,5.846-5.644,30.552,30.552,0,0,0,3.963-7.14l-1.6.315Zm11.8-7.56a9.054,9.054,0,0,1,3.682,1.286c.7.472.956.866.956,1.417a.8.8,0,0,1-.787.761c-.337,0-.59-.184-1.04-.735a7.452,7.452,0,0,0-2.923-2.494Zm2.164-2.1c3.035.315,4.806,1.155,4.806,2.284a.735.735,0,0,1-.731.761c-.253,0-.45-.131-1.068-.735a9.3,9.3,0,0,0-3.12-2.074Z" transform="translate(-26.272 175.089)"/>
      <path id="パス_1406" data-name="パス 1406" d="M43.476,250.91c1.075,0,2.257.866,2.257,1.68a1.043,1.043,0,0,1-.157.5c-.315.787-.369,1.286-.369,4.858,0,2.44.054,6.167.131,9.921.028.422.028.789.028,1.024,0,1.367-.317,1.969-1,1.969a1.034,1.034,0,0,1-.814-.444,2.821,2.821,0,0,1-.289-1.577c0-.42,0-.709.052-1.654.051-2.1.13-7.77.13-11.653,0-2.968-.13-3.388-1.337-3.966a1.542,1.542,0,0,1,1.365-.656" transform="translate(-21.678 187.258)"/>
      <path id="パス_1407" data-name="パス 1407" d="M42.09,267.014a3.142,3.142,0,0,1,1.759.681,1.025,1.025,0,0,1,.474.866,2.153,2.153,0,0,1-.186.84,24.78,24.78,0,0,0-.394,4.832c4.016.759,6.407,2.334,6.407,4.2,0,.709-.4,1.234-.945,1.234-.4,0-.632-.21-1.078-.917a10.163,10.163,0,0,0-4.384-3.992c0,5.932.054,8.059.185,11.132a5.464,5.464,0,0,1,.026.681,1.817,1.817,0,0,1-.212,1.129.718.718,0,0,1-.578.317c-.313,0-.63-.238-.891-.684a4.471,4.471,0,0,1-.6-1.916,4.117,4.117,0,0,1,.158-1.048,15.5,15.5,0,0,0,.21-2.181c.1-2.835.157-6.508.157-11.051a8.038,8.038,0,0,0-.21-2.676,1.7,1.7,0,0,0-1.181-.842,1.645,1.645,0,0,1,1.285-.6m6.3,1.313c2.467.656,4.1,1.862,4.1,3.043a.778.778,0,0,1-.735.84c-.4,0-.6-.21-1.024-.945a7.859,7.859,0,0,0-2.494-2.728Zm2.387-1.787a9.421,9.421,0,0,1,2.994.892,2.165,2.165,0,0,1,1.363,1.654.723.723,0,0,1-.681.788c-.289,0-.5-.157-.971-.788a7.762,7.762,0,0,0-2.835-2.336Z" transform="translate(-22.496 198.98)"/>
      <path id="パス_1408" data-name="パス 1408" d="M49.7,284.525a51.158,51.158,0,0,0-7.693,3.36,4.137,4.137,0,0,1-2.179.761,2.339,2.339,0,0,1-1.783-.866,3.061,3.061,0,0,1-.735-1.417,2.818,2.818,0,0,0,1.549.472c.866,0,1.024-.053,5.749-1.706,1.654-.577,3.15-1.05,5.775-1.811,1.258-.368,1.286-.368,1.943-.6a4.244,4.244,0,0,1,1.759-.394c1.391,0,2.415.525,2.415,1.234,0,.5-.368.761-1.131.761a8.638,8.638,0,0,1-1.048-.079,7.891,7.891,0,0,0-.814-.026,7.2,7.2,0,0,0-4.463,1.706c-.684.551-.735.682-.919,2.152-.079.735-.079.735-.5,3.334a28.763,28.763,0,0,0-.289,3.622c0,2.966.973,4.148,3.414,4.148a5.446,5.446,0,0,0,1.234-.131,3.945,3.945,0,0,1,.523-.053c.921,0,1.734.577,1.734,1.208s-.814.945-2.546.945a7.241,7.241,0,0,1-3.491-.866c-1.68-.945-2.548-2.835-2.548-5.565a19.756,19.756,0,0,1,1.313-6.746,6.636,6.636,0,0,1,2.782-3.386Zm2.441,3.1a8.852,8.852,0,0,1,2.835,1.1,2.433,2.433,0,0,1,1.313,1.759.788.788,0,0,1-.735.814c-.343,0-.6-.21-1-.814a8.7,8.7,0,0,0-2.518-2.651Zm2.152-1.759c2.625.394,4.331,1.365,4.331,2.52a.711.711,0,0,1-.656.761c-.289,0-.472-.157-.919-.709a7.97,7.97,0,0,0-2.863-2.31Z" transform="translate(-25.262 210.815)"/>
    </g>
    <g id="グループ_428" data-name="グループ 428" transform="translate(753 12191.5)">
      <path id="パス_1421" data-name="パス 1421" d="M0,0H45.5V311.5H0Z" fill="#fff" opacity="0.9"/>
      <g id="グループ_427" data-name="グループ 427" transform="translate(9.114 9.83)">
        <path id="パス_1409" data-name="パス 1409" d="M14.625,26.587a24.4,24.4,0,0,1-9.39,3.2l-.026-.1c2.887-1.157,7.324-3.517,8.37-5.434l1.988,1.313c.131.079.418.287.418.525,0,.392-.705.446-1.36.5M29.542,23.91H9.382a19.111,19.111,0,0,0-3.1.235l-.5-1.046c1.811.159,3.78.184,4.016.184H26.365l1.076-1.26c.157-.186.262-.317.394-.317.157,0,.289.079.5.289L29.7,23.229c.131.131.236.236.236.394,0,.261-.21.287-.394.287M27.888,9.5H18.412v2.394h3.964l.42-.553c.236-.317.341-.42.525-.42a.953.953,0,0,1,.525.262l.788.6c.341.263.394.34.394.473,0,.287-.236.471-.814.917,0,1.183.21,6.433.21,7.509a1.267,1.267,0,0,1-.315.943,1.245,1.245,0,0,1-.919.4c-.814,0-.787-.632-.761-1.025h-10c0,.289.026,1.314-1.339,1.314a.578.578,0,0,1-.656-.658,2.752,2.752,0,0,1,.026-.422c.131-1.86.131-3.7.131-5.563a24.623,24.623,0,0,0-.315-4.881l2.31,1.1h3.951c0-.815.024-1.578.024-2.394H10.9a19.208,19.208,0,0,0-3.071.264L7.308,8.713c1.733.131,3.544.158,4.016.158h5.211a8.087,8.087,0,0,0-.551-3.253l2.821.838c.21.053.446.131.446.341,0,.236-.42.525-.84.842V8.87h6.51L25.84,7.8c.21-.264.262-.343.394-.343.157,0,.236.079.5.289l1.313,1.078a.54.54,0,0,1,.263.417c0,.236-.236.261-.42.261m-5.434,3.021H12.4V14.7H22.454Zm0,2.807H12.4V17.48H22.454Zm0,2.783H12.4v2.261H22.454Zm4.567,11.762c-.709,0-.945-.262-1.916-1.262a18.888,18.888,0,0,0-5.486-3.649l.053-.158a15.107,15.107,0,0,1,5.722,1.339c.341.159,2.677,1.234,2.677,2.6a1.089,1.089,0,0,1-1.05,1.131" transform="translate(-5.208 -5.617)"/>
        <path id="パス_1410" data-name="パス 1410" d="M27.543,45.881a21.453,21.453,0,0,1-9.713-3.02A21.492,21.492,0,0,1,6.464,45.8v-.21a27.615,27.615,0,0,0,10.028-3.677,10.312,10.312,0,0,1-2.6-3.019,20.658,20.658,0,0,1-7.744,4.725v-.184c1.628-.919,6.72-5.038,7.98-7.586H12.213a1.041,1.041,0,0,1-1.076,1.1c-.184,0-.866-.079-.866-.709a2.122,2.122,0,0,1,.026-.394c.131-1.363.131-2.966.131-4.461,0-3.624,0-4.07-.052-4.75a9.5,9.5,0,0,0-.184-1.263l2.336,1.235h3.2a15.207,15.207,0,0,0,.5-2.208H9.43a18.728,18.728,0,0,0-3.1.238l-.525-1.022c2.074.159,3.6.159,4.043.159H25.469l1.076-1.34c.157-.182.262-.341.42-.341s.289.107.472.289l1.47,1.34c.157.158.263.235.263.39,0,.287-.263.287-.394.287h-10c-.683.712-1.523,1.447-2.415,2.208H22.5l.578-.577c.157-.158.236-.263.367-.263a.768.768,0,0,1,.42.236l1.155.891a.461.461,0,0,1,.21.341c0,.156-.578.683-.683.814-.026.5-.079,1.211-.079,2.231,0,.737.21,4.307.21,5.121a1.19,1.19,0,0,1-1.234,1.258c-.735,0-.709-.42-.709-.814h-6.8l.5.368c.157.1.236.184.236.367,0,.446-.578.446-.919.422-.394.448-.6.658-.971,1.026h5.7l.761-.658c.21-.184.289-.236.394-.236s.21.079.394.184l1.417.892a.55.55,0,0,1,.289.471c0,.313-.157.341-1.417.6a25.308,25.308,0,0,1-3.36,2.837,19.433,19.433,0,0,0,7.823,1.26c1.181,0,1.969-.052,2.573-.1v.156c-1.6,1.288-1.706,1.813-1.811,2.443M22.766,27.242H12.213v2.235H22.766Zm0,2.86H12.213v2.21H22.766Zm0,2.835H12.213v2.287H22.766Zm-8.584,5.724a10.234,10.234,0,0,0,3.176,2.677,16.478,16.478,0,0,0,2.993-2.677Z" transform="translate(-4.758 6.745)"/>
        <path id="パス_1411" data-name="パス 1411" d="M22.218,41.743c-.053,1.47-.053,2.336-.053,3.832,0,4.62.131,10.972.236,12.548,0,.158.052.84.052,1,0,.973-1.024,1.262-1.5,1.262-.525,0-.682-.289-.682-.787,0-.026,0-.4.052-1.052H10.616c.026.763.053,1.918-1.444,1.918a.625.625,0,0,1-.709-.709c0-.184.079-1.522.131-2.284.105-2.021.184-9.4.184-11.235,0-5.591-.131-6.221-.42-7.378l2.651,1.367H19.96l.814-.789c.21-.208.341-.313.525-.313a.907.907,0,0,1,.5.289l1.129,1.024c.184.184.315.341.315.5,0,.315-.341.5-1.024.814m-1.864-.893H10.589V48.8h9.765Zm0,8.584H10.589v8.479h9.765Z" transform="translate(-2.846 19.311)"/>
        <path id="パス_1412" data-name="パス 1412" d="M25.728,57.826a28.408,28.408,0,0,1-6.142,5.985,40.029,40.029,0,0,1-7.455,4.464,4.2,4.2,0,0,0-.735.446.836.836,0,0,1-.5.182c-.341,0-.63-.21-1.05-.735a2.623,2.623,0,0,1-.578-1.284.958.958,0,0,1,.131-.5,3.414,3.414,0,0,0,.157-1.052c.026-.682.079-4.408.079-5.486,0-2.677-.131-2.993-1.444-3.412a1.54,1.54,0,0,1,1.339-.628c1.129,0,2.389.917,2.389,1.759a1.355,1.355,0,0,1-.158.577,5.453,5.453,0,0,0-.315,1.811c-.158,1.759-.263,4.435-.263,5.8,0,.079,0,.315.026.656a34.493,34.493,0,0,0,7.429-3.57,38.762,38.762,0,0,0,6.825-5.224Z" transform="translate(-2.969 32.025)"/>
        <path id="パス_1413" data-name="パス 1413" d="M7.327,76.013C10.9,76.172,13,77.2,13,78.8a.966.966,0,0,1-.919,1c-.341,0-.578-.157-1-.628a10.286,10.286,0,0,0-3.832-2.889Zm18.139-2.126A36.012,36.012,0,0,1,14.178,86.145c-2.73,1.811-2.73,1.811-3.124,1.811a3.135,3.135,0,0,1-2.31-2.518,1.008,1.008,0,0,1,.236-.709,2.14,2.14,0,0,0,1.6,1c.945,0,3.937-1.811,6.772-4.069a54.538,54.538,0,0,0,5.276-4.883c.788-.842,1.208-1.367,2.546-3.047ZM10.188,71.34c.341-.025.63-.025.814-.025a8.489,8.489,0,0,1,4.2.969,1.9,1.9,0,0,1,.84,1.5.957.957,0,0,1-.919,1.024c-.315,0-.5-.133-1.1-.735A8.9,8.9,0,0,0,10.109,71.6Zm10.054-2.6a9.341,9.341,0,0,1,2.783,1.1c.84.549,1.286,1.155,1.286,1.732a.787.787,0,0,1-.735.865c-.341,0-.525-.182-1.024-.945a7.841,7.841,0,0,0-2.441-2.545ZM22.421,66.9c2.625.368,4.3,1.34,4.3,2.468a.729.729,0,0,1-.656.814c-.289,0-.472-.129-.971-.814a7.813,7.813,0,0,0-2.783-2.23Z" transform="translate(-3.678 40.348)"/>
        <path id="パス_1414" data-name="パス 1414" d="M19.522,90.2A15.51,15.51,0,0,0,22.2,86.5a.23.23,0,0,0-.236-.208,35.333,35.333,0,0,0-4.778,1.626c.446,1.417.892,2.783,1.785,5.329.315.893.525,1.5.63,1.785.21.6.341,1.024.394,1.155a3.813,3.813,0,0,1,.289,1.181.89.89,0,0,1-.971.892.831.831,0,0,1-.84-.683c-.079-.236-.1-.34-.5-2.074-.577-2.468-1.129-4.489-1.916-7.114-1.05.446-1.6.683-2.651,1.183-.971.446-1.076.5-1.417.5-.866,0-1.6-.707-1.89-1.838a4.011,4.011,0,0,0,1.286.184,15.117,15.117,0,0,0,4.331-1.05c-1.155-3.281-1.207-3.332-2.52-3.332a1.81,1.81,0,0,1,1.785-1c.892,0,1.417.343,1.417.971v.158a2.5,2.5,0,0,0-.026.367,13.6,13.6,0,0,0,.551,2.441c.341-.1,2.678-.919,3.57-1.234a1.871,1.871,0,0,0,1-.577.9.9,0,0,1,.6-.236,4.058,4.058,0,0,1,1.864.919c.446.394.63.683.63,1.024,0,.394-.21.577-.761.682-.341.054-.394.054-.919.5-.656.523-2.6,1.993-3.176,2.387Z" transform="translate(-1.541 52.443)"/>
        <path id="パス_1415" data-name="パス 1415" d="M12.588,95.9c1.076,0,2.257.866,2.257,1.68a1.023,1.023,0,0,1-.158.5c-.315.788-.367,1.286-.367,4.858,0,2.44.052,6.167.131,9.921.026.422.026.789.026,1.024,0,1.367-.315,1.969-1,1.969a1.037,1.037,0,0,1-.814-.445,2.821,2.821,0,0,1-.289-1.577c0-.42,0-.709.052-1.654.053-2.1.131-7.77.131-11.653,0-2.968-.131-3.388-1.339-3.966a1.544,1.544,0,0,1,1.365-.656" transform="translate(-0.697 62.095)"/>
        <path id="パス_1416" data-name="パス 1416" d="M9.134,114.94a5.939,5.939,0,0,0,3.885,2.231,25.211,25.211,0,0,0,.446-3.675,1.822,1.822,0,0,0-1.208-1.811.744.744,0,0,1,.551-.186c1.365,0,2.914,1.052,2.914,2,0,.289-.026.367-.446,1.076a13.319,13.319,0,0,0-1,2.809c.814.184,1.313.63,1.313,1.155a.708.708,0,0,1-.368.681c-.21.133-.21.133-.866.264a2.408,2.408,0,0,0-.63.182c-.788,3.414-.788,3.414-1.129,5.2.473.079.578.105,1.391.184,1.05.1,1.444.367,1.444.945,0,.523-.63.891-1.6.891a4.535,4.535,0,0,1-1.5-.235,12.514,12.514,0,0,0-.131,1.836c0,2.391,1.129,3.624,3.334,3.624a3.821,3.821,0,0,0,3.938-4.148,7.157,7.157,0,0,0-1.785-4.62,7.708,7.708,0,0,0-2.153-1.864l.184-.29a10.439,10.439,0,0,1,3.6,2.443,6.6,6.6,0,0,1,2.1,4.594c0,2.914-2.389,5.119-5.565,5.119a4.37,4.37,0,0,1-4.121-2.284,6.613,6.613,0,0,1-.472-2.625,14.209,14.209,0,0,1,.158-2.074C9.79,125.624,9,124.653,9,123.367c0-1.5,1.129-2.914,3.649-4.594A6.408,6.408,0,0,1,8.9,115.1Zm.525,8.033c0,.814.577,1.313,1.969,1.706.157-.892.42-2.441.84-4.673-1.89.97-2.809,1.915-2.809,2.966" transform="translate(-2.441 73.795)"/>
        <path id="パス_1417" data-name="パス 1417" d="M23.594,140.178c.184.1.315.21.315.368,0,.289-.263.446-1.181.578a17.793,17.793,0,0,1-2.756,4.854c3.15.973,6.956,2.811,6.956,4.463,0,.21-.184,1.1-1,1.1-.525,0-.919-.369-1.417-.816a26.521,26.521,0,0,0-5.565-3.621,14.032,14.032,0,0,1-6.484,3.595,18.913,18.913,0,0,1-5.565.632v-.186a19.658,19.658,0,0,0,10.29-4.776,23.007,23.007,0,0,0-4.436-1.183c-.578,1.286-.735,1.68-1.706,1.68-.656,0-1-.34-1-.735a1.369,1.369,0,0,1,.289-.735c.6-.893,2.284-4.487,2.993-6.038H9.209a16.34,16.34,0,0,0-3.071.263l-.525-1.048c1.785.157,3.649.157,4.042.157h3.964a26.231,26.231,0,0,0,1.68-4.622,4.272,4.272,0,0,0,.026-.786l2.362,1.024c.158.079.394.158.394.418,0,.289-.262.448-.945.551-.21.5-1.024,2.284-1.522,3.414H25.72l1.155-1.367c.131-.156.21-.313.394-.313.157,0,.263.079.5.261l1.837,1.391a.56.56,0,0,1,.263.4c0,.234-.21.261-.394.261H22.229Zm1.181-8.872,1.076-.893a.877.877,0,0,1,.5-.238.874.874,0,0,1,.5.289l1.575,1.76a.768.768,0,0,1,.236.576c0,.42-.42.474-.709.474a9.205,9.205,0,0,1-.971-.079c-.5.234-2.625,1.391-3.071,1.573l-.079-.079a17.737,17.737,0,0,0,1.1-2.755H9.813c.053,2.177-1.312,4.041-2.73,4.041a1.054,1.054,0,0,1-1.076-1.1c0-.711.446-1.024.945-1.367a5.317,5.317,0,0,0,2.389-3.542h.21a9.331,9.331,0,0,1,.236,1.339h6.825a9.06,9.06,0,0,0-.63-4.071l3.045.763c.131.026.394.13.394.367,0,.261-.21.418-.919.786,0,.341-.026,1.839-.026,2.154Zm-9.45,8.057c-.262.578-1.864,4.254-2.415,5.488a25.616,25.616,0,0,1,5.145.6,11.761,11.761,0,0,0,2.914-6.09Z" transform="translate(-4.904 85.597)"/>
        <path id="パス_1418" data-name="パス 1418" d="M8.977,160.061A2.592,2.592,0,0,1,6.8,161.691a1.178,1.178,0,0,1-1.155-1.208c0-.5.079-.579.945-1.417A8.161,8.161,0,0,0,9.134,154.1l.184-.052a5.351,5.351,0,0,1,.394,2.151,11.057,11.057,0,0,1-.735,3.859m13.7,6.328a13.244,13.244,0,0,1-4.541.471c-3.622,0-4.725,0-5.014-1.809-.105-.709-.105-3.413-.105-5.121v-8.346a5.92,5.92,0,0,0-.368-2.522l2.783.866c.21.054.5.158.5.4,0,.289-.289.418-.971.707-.026,1.288-.079,9.662-.079,10.607,0,2.7,0,2.938.472,3.174a5.393,5.393,0,0,0,2.1.21c2.52,0,3.255-.1,3.675-.891a17.493,17.493,0,0,0,1.05-3.649l.157.025a32.051,32.051,0,0,0,.6,3.309,2.186,2.186,0,0,0,.788.866.378.378,0,0,1,.158.368c0,.261-.21.917-1.208,1.339m-3.517-17.141c-.892,0-1.05-.6-1.549-2.023a7.879,7.879,0,0,0-1.785-3.124l.1-.158c4.41,1.234,4.41,3.677,4.41,4.016a1.231,1.231,0,0,1-1.181,1.288m9.056,11.786c-.892,0-1.181-.763-1.654-2.153a12.679,12.679,0,0,0-3.281-5.016l.1-.182c2.651.97,6.038,3.463,6.038,5.931,0,.474-.289,1.419-1.208,1.419" transform="translate(-4.882 98.128)"/>
        <path id="パス_1419" data-name="パス 1419" d="M14.508,179.19a1.418,1.418,0,0,1-2.835,0,1.418,1.418,0,1,1,2.835,0m-1.89-2.94a99.1,99.1,0,0,0-.446-10.92c-.079-.551-.446-3.307-.446-3.465a1.365,1.365,0,1,1,2.73,0c0,.473-.394,2.783-.446,3.308a92.418,92.418,0,0,0-.446,11.077Z" transform="translate(-0.359 110.526)"/>
      </g>
    </g>
    <rect id="長方形_198" data-name="長方形 198" width="98" height="525" transform="translate(753 12041.5)" fill="none"/>
  </g>
</svg>
