<?xml version="1.0" encoding="UTF-8"?>
<svg id="_レイヤー_1" data-name="レイヤー 1" xmlns="http://www.w3.org/2000/svg" version="1.1" viewBox="0 0 581 92">
  <defs>
    <style>
      .cls-1 {
        fill: none;
      }

      .cls-1, .cls-2, .cls-3 {
        stroke-width: 0px;
      }

      .cls-2 {
        fill: #2e2e2e;
      }

      .cls-3 {
        fill: #cdebd0;
      }
    </style>
  </defs>
  <g id="_グループ_276" data-name="グループ 276">
    <path id="_パス_1011" data-name="パス 1011" class="cls-3" d="M.6,44.7h376.2v47H.6v-47Z"/>
    <g id="_グループ_273" data-name="グループ 273">
      <path id="_パス_982" data-name="パス 982" class="cls-2" d="M11.4,14c1.2,0,2.2.2,4.1.2l.9-.9c.2-.2.2-.2.4-.2.2,0,.3,0,.4.2l1.3,1c.2,0,.3.3.3.5,0,.3-.2.5-.9.9,0,1.5,0,4.5,0,5.9,0,2.8,3.5,4.5,9.5,4.5s9.4-.3,11.9-1.5v.2c-1.6,1.4-1.9,2.2-2.1,3.4-.3,0-.7,0-1.2,0-2.2,0-9.7-.1-11.6-.5-2.8-.5-5.3-2-7-4.3-.8.9-1.6,1.7-2.6,2.8-.2.2-.4.5-.5.7,0,.3,0,.6-.2.9,0,.1-.2.2-.3.2-.2,0-.3,0-.4-.2l-2-2.5c1.6-.2,3.2-.7,4.5-1.6,0-2,0-3.2,0-3.6,0-.6,0-4.6-.1-5.2-1.3,0-2.5,0-3.8.3l-.6-1.2ZM13.5,1.8c2.4.6,4.8,2.1,4.8,4,0,.7-.6,1.2-1.2,1.2,0,0,0,0,0,0-.9,0-1.1-.5-1.4-1.6-.3-1.4-1.1-2.6-2.2-3.5v-.2ZM34.1,10.6h-11.9v.6c0,1.7,0,10.1,0,12s-.8,1.1-1.3,1.1c-.4,0-.7-.3-.8-.7,0,0,0,0,0-.1,0-.2,0-.7,0-1,0-2.1.1-6.6.1-8.8,0-1.7,0-3.4-.2-5.1l2.7,1.3h6.6c.6-1.3.9-2.8.9-4.2h-6.9c-1.2,0-2.4,0-3.6.3l-.6-1.2c2.5.2,4.3.2,4.6.2h3.4c0-1.3-.1-2.6-.6-3.8l3.4.8c.2,0,.3.2.3.3,0,.3-.2.5-.9.9,0,1,0,1.3,0,1.8h4.8l1.1-1.1c.2-.2.3-.4.5-.4.2,0,.4.2.6.3l1.4,1.1c.1.1.2.3.3.4,0,.3-.3.3-.5.3h-6.6l1.9.9c.2,0,.3.2.3.4,0,.4-.2.5-.9.5-.9,1.1-1.6,1.9-2.1,2.3h3.4l.8-.9c.1-.2.3-.3.5-.3.1,0,.4.2.5.2l1.3.9c.1,0,.3.2.3.4s-.3.4-1,1c0,1.1,0,2.5,0,3.7s.2,5.5.2,6.6c0,1.8-.4,2.6-3,3.4-.3-1.2-1-2.2-2-2.8h0c.7,0,1.4,0,1.9,0,1,0,1.1-.1,1.1-.9v-10.6ZM26,21.1c0,.3,0,.5-.2.8-.3.3-.7.4-1.1.5-.5,0-.6-.3-.6-.8s0-2.7,0-3.2c0-.8,0-1.7-.2-2.5l2,.8h.9c0-.4,0-2.1,0-2.6-1.1,0-2.2,0-3.3.3l-.6-1.2c.9,0,2.8.1,3.9.2,0-.7-.2-1.5-.5-2.2l2.6.7c.1,0,.3.1.3.3s-.3.5-.7.7v.4h1.8l.7-.7c.2-.2.3-.3.5-.3.2,0,.4.2.6.3l.9.7c.1.1.2.3.3.4,0,.3-.2.3-.5.3h-4.3c0,.8,0,1.8,0,2.6h1.1l.5-.5c.1-.1.2-.3.4-.3.2,0,.3.1.5.2l1.1.8c.1,0,.2.2.2.4,0,.2-.2.4-.7.9,0,.5,0,2.5,0,2.8,0,.7-.6,1.2-1.3,1.1,0,0,0,0,0,0-.5,0-.5-.4-.5-.9h-4ZM23.9,5.7c1.6.6,3,1.4,3,2.7,0,.5-.3,1-.9,1.1,0,0,0,0-.1,0-.7,0-.9-.4-1.1-1.4-.1-.8-.4-1.5-.9-2.2v-.3ZM29.9,17.3h-4v3.1h4v-3.1Z"/>
      <path id="_パス_983" data-name="パス 983" class="cls-2" d="M54.2,5.2c0-2.1-.2-3.2-.6-3.9l3.2.8c.3,0,.5.2.5.4s0,.3-1,1c0,.6,0,1.1,0,1.7h7l1.3-1.5c.2-.2.3-.4.5-.4s.3,0,.5.3l1.9,1.5c.2.1.2.3.3.5,0,.3-.3.3-.5.3h-20.8c0,.8,0,3,0,4.4h4.8c0-1.2,0-2.4-.3-3.6l2.5.7c.3,0,.6.2.6.6s-.5.6-.7.8c0,.3,0,1.2,0,1.6h5.2c0-1.2-.1-2.5-.4-3.7l2.6.7c.3,0,.5,0,.5.4s-.2.5-.7.8v1.7h3.5l1.3-1.5c.2-.3.3-.4.5-.4s.3.1.5.3l1.6,1.5c.2.2.3.3.3.5s-.3.3-.5.3h-7.3c0,.5,0,3,0,3.5s0,1.4-1.4,1.4-.8-.5-.8-1.1h-5.1c0,.8-.7,1.4-1.5,1.4-.5,0-.7-.5-.7-.8s0-1.4,0-1.7c0-.9,0-1.3,0-2.8h-4.8c.2,8-.4,12.8-4.6,17.7h-.2c1.8-3.1,2.7-7,2.7-15.9.1-3.1-.1-6.2-.6-9.2l3.1,1.5h7.2ZM47.7,17.5c2,.2,4.1.2,4.7.2h7.4l1.1-1c.2-.2.3-.3.4-.3s.3.2.5.4l1.4,1.3c.2.1.2.3.2.5,0,.3-.2.5-.4.5-.2,0-.4.1-1.5.4-1,1.6-2.2,3-3.6,4.2.3.2.7.4,1,.5,2.8,1,5.7,1.5,8.6,1.5.7,0,1.1,0,1.6,0v.2c-1.3.6-2.2,1.6-2.6,3-2.6-.4-7.3-1.8-9.9-4-3.4,2.4-7.5,3.8-11.6,4v-.2c3.7-1,7.2-2.7,10.2-5-1.5-1.4-2.6-3.2-3.3-5.1-1.2,0-2.4,0-3.7.3l-.6-1.2ZM52.6,18.4c1,1.6,2.3,3,3.8,4.2,1.4-1.2,2.5-2.6,3.3-4.2h-7.1ZM53.5,11.1c0,.6,0,.9,0,3.1h5.1c0-.5,0-2.6,0-3.1h-5.2Z"/>
      <path id="_パス_984" data-name="パス 984" class="cls-2" d="M73.4,6.8c.8.7,1.8,1,2.8.9,1,0,2.1-.2,3.1-.5.2-.7.3-1.4.3-2.1,0-.9-.5-1.7-1.3-2,.3-.2.7-.3,1.1-.2,1.3,0,2.3.6,2.3,1.3-.2.9-.4,1.7-.7,2.5.4-.1.8-.3,1.2-.5.8-.5.9-.5,1.3-.5.5,0,1,.4,1,.9,0,.5-.4.8-1.4,1.3-.9.4-1.9.7-2.9,1-1.3,3.7-2.9,7.3-4.7,10.7-.6,1.1-1.1,1.5-1.7,1.5-.6,0-1-.5-1-1.1,0-.5,0-.7,1.3-2.4,1.9-2.6,3.4-5.5,4.6-8.6-.4,0-.8.1-1.2.1-1.8,0-3.4-.8-4.3-2.4l.3-.2ZM87.1,7.7c1.5,0,3,.3,4.3,1,1.5.8,2.3,1.9,2.3,3.1,0,.5-.3,1-.8,1.1,0,0,0,0-.1,0-.3,0-.6-.1-.8-.4-.7-.6-1.6-.9-2.5-.8-1.7,0-2.4.9-2.4,3.1s.3,4.8.5,6.4c1.5.3,2.9.9,4.1,1.8.7.4,1.2,1.1,1.2,1.9,0,.7-.4,1.1-.9,1.1s-.5,0-1.4-1c-.8-.9-1.9-1.6-3-2.1,0,.3,0,.5,0,.8,0,2.4-1.6,3.7-4.4,3.7s-4.3-1.2-4.3-2.9,2.6-3.6,6-3.6c.2,0,.5,0,.7,0,0-2.2,0-2.5,0-2.9,0-5.2.9-6.7,4.5-7.5.4,0,.5-.1.5-.2-.1-.3-.3-.6-.6-.8-.9-.8-2-1.3-3.1-1.4v-.4ZM84.4,22.3c-2.7,0-4.5.8-4.5,2.1s1,1.6,2.7,1.6,3.3-.9,3.3-3.1v-.5c-.5-.1-1-.2-1.5-.2"/>
      <path id="_パス_985" data-name="パス 985" class="cls-2" d="M108,4.5c0,1.2,0,2.5,0,3.8,0,2,.1,11,.1,12.8,0,5,0,5.6-1.1,6.4-.8.5-1.7.9-2.6,1,0-.8-.2-1.8-2-2.9v-.2c.9.1,1.8.2,2.8.2.5,0,.8,0,.8-.5,0-.5,0-5.4,0-8.5h-3.6c0,7.5-3.4,10.8-5,11.9h-.1c1.1-1.7,1.8-3.4,2.3-5.3.8-3.4.8-4.2.8-13.3s-.2-6.3-.6-8.2l2.7,1.2h3.2l.6-.6c.2-.2.4-.4.5-.4s.4.2.5.3l1.2.9c.2.1.3.3.3.5s-.2.5-.8,1M106,10.2h-3.5c0,.8,0,4.8,0,5.7h3.6v-5.7ZM106,3.6h-3.5v5.8h3.5V3.6ZM125,27.1c-1,.7-3.2.7-3.9.7-3.6,0-3.7-.8-3.7-4.5s0-9,0-9.1V3.7h-3.6c0,.2,0,6.3,0,11.2-.3,9.2-4.1,12-5.7,13.1h-.1c2.8-3.4,3.8-6.9,3.8-18.1,0-2.7-.2-5.5-.6-8.2l2.7,1.1h3.3l.8-.9c.1-.1.3-.3.5-.3s.3.1.5.3l1.4,1.1c.1.1.3.3.3.5,0,.4-.6.8-1,.9,0,3.7,0,8.5,0,9.8,0,2.2,0,4.4,0,6.5,0,1.4,0,2.9.2,4.3.1.2.6.3,1.1.3,1.8,0,2-.6,2.5-2.1.2-.7.8-3.7,1-4.4h.1c.4,4.3.5,4.9.7,5.3.2.3.4.6.6.8.1.1.2.3.2.5,0,.6-.4,1.1-.9,1.4"/>
      <path id="_パス_986" data-name="パス 986" class="cls-2" d="M154.4,21c-1.4,0-5-1.7-7.2-4.7-1.8,1.9-4.1,3.3-6.6,4.1v-.2c2.1-1.5,4-3.3,5.7-5.3-1.4-2.5-2.3-5.3-2.7-8.1h-10.2c0,8,0,12.4-4.8,16.3v-.2c2.4-3.3,2.8-8.8,2.8-12.4,0-2-.1-3.9-.5-5.9l2.7,1.4h9.9c0-.3-.2-1.1-.2-1.7-.1-1.1-.3-2.1-.6-3.1l2.9.7c.3,0,.5.2.5.3,0,.3-.5.6-.8.8,0,.7,0,1.5.2,3h5.5l1.1-1.4c.2-.3.3-.4.5-.4.2,0,.4.1.5.3l1.5,1.5c.2.2.3.3.3.5s-.3.3-.5.3h-8.9c.3,2.3,1,4.5,2,6.5,1.2-1.5,2.1-3.3,2.4-5.2l2.3,1.5c.3.2.4.3.4.5,0,.2-.1.3-1,.6-.9,1.5-2,2.9-3.1,4.3,1,1.4,2.4,2.5,4.1,3.1.5,0,.8-.2,1.1-.8.5-.6.9-1.3,1.2-2h.2c0,.5,0,2.9,0,3.4,0,.3,0,.5.2.8.3.5.4.6.4.8,0,.9-.9.9-1.1.9M130.7,28.2c-.6,0-1.1-.4-1.1-1,0,0,0,0,0-.1,0-.5.2-.8,1.1-1.7.8-.9,1.4-2,1.6-3.1h.2c.3.8.5,1.7.5,2.6,0,2-1,3.3-2.3,3.3M142.3,10h-4.9c-.8,0-1.7,0-2.5.2l-.4-1.1c1.6.1,3.1.2,3.3.2h2.1l.6-.7c.2-.2.3-.4.5-.4.2,0,.4.1.6.3l.9.8c.2.2.3.3.3.4,0,.2-.2.3-.5.3M142.2,13.5c0,.7,0,4,0,4.2-.2.8-1.1.8-1.3.8-.7,0-.7-.6-.6-1.1h-3.3c0,.6.2,2-1.5,2s-.6-.5-.6-.8c0-.5.2-2.8.2-3.4,0-1.3,0-2.5-.3-3.8l2.3.9h3.1l.6-.7c0-.1.2-.2.4-.3.1,0,.3.2.4.2l1,.8c.2.2.3.3.3.4,0,.2-.2.4-.7.7M146.8,28.4c-2.4.2-4.8.3-7.3.3-2.9,0-3.5-.5-3.5-3,0-1.8,0-3.6-.3-5.4l2.4.6c.4,0,.6.2.6.5s-.3.5-.7.8c0,.6,0,3.8.2,4.2.2.2.5.3.7.3.3,0,1.4,0,2.6,0,4.1,0,4.4-.1,4.9-.9.5-.9.9-2,1.2-3h.2c.4,2.2.5,2.8.8,3.1.4.2.5.3.5.6,0,.5-.5,1.4-2.3,1.9M140.3,13h-3.3v3.6h3.3v-3.6ZM143.4,25c-.7,0-1-.5-1.4-1.6-.3-.9-.8-1.7-1.4-2.5v-.2c2.2.5,4,1.5,4,3,0,.6-.4,1.2-1,1.3,0,0,0,0,0,0M149.2,5.2c-.5,0-.8-.3-1.4-1.3-.4-.6-.9-1.2-1.5-1.6v-.3c1.5,0,3.9.4,3.9,2.1,0,.6-.4,1.1-1,1.1,0,0,0,0,0,0M153.7,27.3c-.8,0-1-.5-1.6-1.7-.5-1.4-1.4-2.6-2.5-3.7l.2-.2c2.8.9,5.2,2.4,5.2,4.3,0,.7-.5,1.3-1.2,1.3,0,0,0,0,0,0"/>
      <path id="_パス_987" data-name="パス 987" class="cls-2" d="M172.6,7.4c-3.1,1-6,2.3-8.9,3.9-.7.5-1.6.8-2.5.9-.8,0-1.6-.4-2.1-1-.4-.5-.7-1-.8-1.6.5.4,1.1.5,1.8.5,1,0,1.2,0,6.6-2,1.9-.7,3.6-1.2,6.7-2.1,1.5-.4,1.5-.4,2.2-.7.6-.3,1.3-.4,2-.5,1.6,0,2.8.6,2.8,1.4s-.4.9-1.3.9c-.4,0-.8,0-1.2,0-.3,0-.6,0-.9,0-1.9,0-3.7.7-5.1,2-.8.6-.8.8-1.1,2.5q0,.8-.6,3.8c-.2,1.4-.3,2.8-.3,4.2,0,3.4,1.1,4.8,3.9,4.8.5,0,1,0,1.4-.2.2,0,.4,0,.6,0,1.1,0,2,.7,2,1.4s-.9,1.1-2.9,1.1c-1.4,0-2.8-.3-4-1-1.9-1.1-2.9-3.3-2.9-6.4,0-2.7.6-5.3,1.5-7.8.6-1.6,1.7-3,3.2-3.9h0ZM175.5,10.9c1.2.2,2.3.7,3.3,1.3.8.4,1.4,1.1,1.5,2,0,.5-.4.9-.8.9-.4,0-.7-.2-1.1-.9-.7-1.2-1.7-2.3-2.9-3.1v-.2ZM177.9,8.9c3,.5,5,1.6,5,2.9,0,.5-.3.8-.8.9-.3,0-.5-.2-1.1-.8-.9-1.1-2-2-3.3-2.7v-.3Z"/>
      <path id="_パス_988" data-name="パス 988" class="cls-2" d="M186,9.1c2.8.2,4.5,1.8,4.5,3.2,0,.7-.5,1.3-1.3,1.3,0,0,0,0,0,0-.8,0-1-.5-1.5-1.8-.4-1-1-1.9-1.8-2.6h0ZM193.8,9.9c-.9,3.3-1.1,3.9-3.1,9.2-.3.7-.5,1.4-.5,2.1,0,.9.3,1.8.7,2.7.3.8.4,1.6.5,2.4,0,.8-.5,1.8-1.4,1.8s-1.3-1.1-1.3-1.9c0-4.1,0-5-1.9-6.3v-.2c1,0,1.9-.5,2.4-1.4,1.3-2.1,4.2-7.9,4.5-8.5h.2ZM188.5,2c3.2.7,4.7,2.2,4.7,3.7,0,.7-.5,1.3-1.2,1.4-.9,0-1.3-.9-1.6-1.8-.5-1.1-1.1-2.1-2-3v-.2ZM208.6,20.3l1.4-1.6c.2-.2.3-.4.5-.4.2,0,.4.2.5.3l1.8,1.6c.2.2.3.3.3.5,0,.3-.2.3-.5.3h-9.3c0,.8.2,6.1.2,6.5,0,.8-.6,1.5-1.4,1.5,0,0-.2,0-.3,0-.3,0-.9,0-.9-.8,0-1.4.1-5.7.2-7.2h-4.2c-1.2,0-2.4,0-3.5.3l-.6-1.2c2.1.2,4.2.2,4.7.2h3.7c0-.9,0-2.3,0-2.4v-3h-2.1c-1.2,0-2.4,0-3.6.3l-.6-1.2c2.1.2,4.4.2,4.6.2h1.7v-5.2h-2.8c-1.2,0-2.4,0-3.5.3l-.6-1.2c2.1.2,4.2.2,4.7.2h3.8c1.3-2.1,3-5.1,3.1-7.1l2.8,1.7c.2.1.4.2.4.5,0,.5-.7.5-1.1.5-1.5,1.5-3.5,3.6-4.6,4.5h4.5l1.1-1.4c.2-.2.3-.4.5-.4s.3,0,.6.3l1.8,1.4c.2,0,.3.3.3.5,0,.3-.2.3-.5.3h-8.3c0,.3,0,4.5,0,5.2h3.3l.9-1.2c.1-.2.3-.4.5-.4.2,0,.4.1.6.3l1.6,1.2c.2,0,.3.3.3.5,0,.3-.3.3-.5.3h-6.7c0,3.2,0,3.5,0,5.4h5.3ZM196.4,2.1c1.6.3,4.6,1.7,4.6,3.8s-.5,1.5-1.3,1.5-1.2-.7-1.5-1.8c-.4-1.3-1.1-2.4-2-3.4v-.2Z"/>
      <path id="_パス_989" data-name="パス 989" class="cls-2" d="M226.7,3.9c-.2.2-.4.3-.6.5,0,1.5,0,8.1,0,9.5,0,1.8.1,9.2.1,10.8.2,1.1-.3,2.3-1.3,2.9-.7.5-1.6.9-2.4,1,0-1.2-.7-2.3-1.7-3h0c.9,0,1.5,0,2.1,0s1.1,0,1.2-.5c.2-2.7.2-5.5,0-8.2h-4.2c-.2,2.7-.5,7.9-4.4,11.3h-.1c1.9-3.4,2.5-8,2.5-13s0-9.7-.3-12.1c0-.5-.1-1-.2-1.5l2.4,1.3h4.2l.6-.8c.2-.2.3-.4.5-.4.2,0,.5.2.7.3l1,.7c.2,0,.3.3.3.5,0,.2-.1.3-.4.5M224.2,10.3h-4.2c0,.4,0,2.3,0,2.7,0,1,0,1.9,0,3.1h4.2v-5.8ZM224.2,3.7h-4.2v5.9h4.2V3.7ZM241.5,28c-2-1-3.7-2.4-5.1-4.1-1.3,1.5-3,2.6-4.9,3.3h0c1.6-1.4,3-2.9,4.1-4.6-1.4-2.4-2.2-5.2-2.2-8h-2.1c0,3.6.2,9.4.2,13.1s-.2,1.3-1.6,1.3c-.4,0-.8-.3-.8-.7,0,0,0,0,0-.1,0-.4.3-8.8.3-10.4,0-5.2,0-12.9-.2-14.4,0-.7-.1-1.1-.2-1.6l2.5,1.3h6.3l.5-.6c.2-.2.4-.4.5-.4.2,0,.5.2.7.3l1.1.8c.2.1.3.3.4.5,0,.2-.1.4-.9.9-.1,4.1-.1,4.6-.9,5.7-.7.9-1.7,1.6-2.8,1.7-.2-1.2-1-2.3-2.1-2.9v-.2c.7.2,1.4.3,2.1.2,1.1,0,1.6,0,1.6-2.8s0-1.8,0-2.7h-6.6c0,1.1,0,9.4,0,10.1h7.1l.7-.8c.3-.3.4-.4.6-.4.3,0,.5.2.7.4l1.2.9c.2.1.3.3.3.5,0,.2-.1.5-1.1,1-.6,2.6-1.7,5-3.2,7.1,1.9,1.5,4.1,2.5,6.4,3h0c-1,.7-1.9,1.5-2.5,2.5M233.7,14.5c.3,2.4,1.2,4.7,2.6,6.6,1.2-2,1.9-4.3,2.1-6.6h-4.7Z"/>
      <path id="_パス_990" data-name="パス 990" class="cls-2" d="M267.3,28q-6.7,0-6.7-4.7c0-1.5,0-3.9,0-5.4h-3.7l1.4.7c.2.1.4.2.4.5s-.3.5-1,.6c-1.7,4.3-4.6,8.2-11.8,9v-.2c3.6-1,6.6-3.4,8.5-6.7.7-1.2,1-2.6,1-4h-1.7c0,1.8-1.3,1.8-1.5,1.8-.9,0-.9-.5-.9-.8s0-.6,0-.8c.1-2.4.2-7.8.2-9.2,0-2.5,0-5-.4-7.5l2.7,1.5h11.3l.8-1c.2-.2.4-.4.5-.4.2,0,.4.1.5.3l1.4,1.2c.2.2.3.3.3.5,0,.3-.6.7-1.1,1,0,.9,0,1.6,0,2,0,3.1.2,9.9.3,11,0,.3,0,.6,0,.7,0,1-1.1,1.4-1.6,1.4-.8,0-.8-.4-.8-1.6h-2.9v6.4c0,1.4.3,1.6,1.7,1.6s4.2,0,4.7,0c1.4-.3,1.9-2.3,2.8-5.7h.2c0,1.5.2,3,.6,4.5.2.3.5.5.8.7.1.1.2.3.2.5,0,2.2-4.4,2.2-6.3,2.2M265.6,3.5h-11.9v3.9h11.9v-3.9ZM265.6,8.2h-11.9v4.2h11.9v-4.2ZM265.6,13.1h-11.9v4.1h11.9v-4.1Z"/>
      <path id="_パス_991" data-name="パス 991" class="cls-2" d="M282.3,12.3c1.3-.1,2.6-.4,3.8-.8.7-.2,1.4-.4,2.1-.8.2,0,.3-.1.5-.1.6,0,1.2.2,1.8.5.7.4,1.1.8,1.1,1.3s0,.5-.8,1c-2.3,1.9-4.4,3.9-6.3,6.1.5-.4,1.2-.5,1.8-.5.9,0,1.8.5,2.2,1.3.4.7.5,1,.8,3.3.2,1.4.6,1.7,2.1,1.7,1.2,0,2.4-.2,3.5-.4.2,0,.4,0,.7,0,1.1,0,2,.6,2,1.4s-.3.8-1.3,1c-1,.2-2.1.3-3.1.2-2.5,0-3.8-.3-4.6-.9-.7-.6-.8-1.1-1-3.3,0-.9-.1-1.8-.5-2.7-.2-.4-.7-.6-1.1-.6-.9,0-1.7.5-2.3,1.2-1.4,1.6-2.6,3.3-3.5,5.2-.4.8-.8,1.1-1.3,1.1-.6,0-1.1-.6-1-1.2,0-1,.7-2,2.7-4.1,3.6-3.6,8-9,8-9.9,0-.1,0-.2-.2-.2,0,0,0,0,0,0-.5,0-1.8.5-5,2.2-.3.2-.7.4-1.1.4-1.1,0-2.6-1.7-2.6-3,0-.1,0-.3.1-.4.6.7,1.5,1.1,2.5,1.1M283.2,2.6c.5.3,1,.6,1.5.8.8.3,1.5.4,2.3.5,1.9.2,3.1.9,3.1,1.8s-.4.9-1.4.9h-.2c-.2,0-.8,0-.9,0-1.6.1-3.1.6-4.5,1.4l-.2-.3c1.1-.7,2.1-1.4,3-2.3-.7-.3-1.3-.7-1.8-1.2-.5-.4-.8-.9-1.1-1.4l.2-.2Z"/>
      <path id="_パス_992" data-name="パス 992" class="cls-2" d="M308,21.8c1.9,1.2,2.7,1.6,3.3,1.6s1.5-.8,2.3-2.7c.9-2.1,1.4-4.4,1.5-6.7,0-1.9-.5-2.7-1.7-2.7-.9,0-1.9.3-2.8.6-1.4,3.7-3.1,7.3-5,10.8-1.2,2.1-1.8,2.7-2.4,2.7-.6,0-1-.6-1-1.1q0-.4,1.3-2.1c2.2-3,4-6.2,5.4-9.6-.4.2-.8.3-2.4,1-.6.3-1.3.5-2,.5-.6,0-1.2-.3-1.6-.8-.5-.5-.8-1-.9-1.7,0-.1,0-.2,0-.3.6.6,1.4,1,2.3,1,1.7-.2,3.4-.6,5-1.2.4-1,.6-2.1.6-3.2,0-1.2-.6-2.2-1.7-2.6.3-.2.6-.3.9-.2.8,0,1.6.3,2.2.7.4.3.7.7.7,1.2-.2,1.3-.6,2.6-1.1,3.8.8-.2,1.5-.3,2.3-.3,2.2,0,3.3,1.5,3.3,4.6,0,3.3-1,6.5-2.7,9.3-.7,1.1-1.8,1.8-3.1,2-.7,0-1.1-.4-1.1-1.4,0-.8-.4-1.3-1.9-2.7l.2-.3ZM319.2,10.5c.2,0,.3,0,.5,0,3.7,0,6.5,2.5,6.5,5.7s-1,3.2-2.1,3.2-.7-.2-1.1-.9c-.3-.3-.7-.6-1.1-.7-.6-.1-1.1-.2-1.7-.3v-.4c.8,0,1.1,0,1.4,0,.7,0,1.4,0,2-.3.3-.2.5-.5.5-1.1,0-1.4-.6-2.7-1.7-3.6-.9-.8-2-1.2-3.2-1.2v-.4ZM320.5,5.5c1.2.1,2.4.4,3.5,1,.9.3,1.5,1.1,1.6,2,0,.5-.3.9-.8.9-.4,0-.7-.2-1.2-.9-.8-1.2-1.9-2.1-3.3-2.8v-.3ZM322.7,3.1c3.2.2,5.3,1.1,5.3,2.5,0,.4-.3.8-.8.8-.3,0-.5-.2-1.1-.8-1-1.1-2.2-1.8-3.5-2.3v-.3Z"/>
      <path id="_パス_993" data-name="パス 993" class="cls-2" d="M339.4,6.4c0,1.4.1,7.7.2,9,0,.5,0,2.9,0,3.4,0,.4,0,.9-.3,1.2-.3.4-.7.6-1.2.6-.8,0-.8-.7-.8-1s0-1,0-1h-4.5c0,1.4,0,3.4,0,3.5,0,.8-.5,1.6-1.4,1.7,0,0-.1,0-.2,0-.8,0-.8-.5-.8-.9s0-.3,0-1.1c0-.9.3-12.5.3-14.1,0-1.5,0-3-.3-4.5l2.9,1.8h3.5l.9-.9c.2-.2.4-.3.5-.3.2,0,.3,0,.5.3l1.1.9c.2.1.3.3.3.5,0,.2-.1.4-1,1M337.5,5.7h-4.6v12.2h4.6V5.7ZM356.6,11.5h-7.7c0,4,.2,11.9.3,15.9,0,.8-.7,1.5-1.5,1.5,0,0,0,0-.1,0-.9,0-.9-.5-.9-.9s0-.7,0-1.1c.2-2.1.2-14.5.2-15.4h-2.6c-1.2,0-2.4,0-3.6.3l-.6-1.2c2.1.2,4.4.2,4.7.2h2.1c0-7.1-.3-8.4-.6-9.6l3.3.9c.3,0,.5.2.5.5s-.4.6-1.1.9c0,1.2,0,6.3,0,7.4h3.9l1.4-1.8c.2-.3.3-.4.5-.4s.3.1.5.4l1.5,1.7c.2.1.3.3.3.5,0,.2-.2.2-.5.2"/>
      <path id="_パス_994" data-name="パス 994" class="cls-2" d="M365,27.6c2.3-1,4.3-2.4,5.9-4.3,1.9-2.3,2.9-5.2,2.9-8.2,0-1.2-.3-2.5-1-3.5-.3-.4-.9-.6-1.4-.6-.9,0-1.8.4-2.5,1-1.6,1.1-2.3,1.4-3,1.4-.7,0-1.4-.3-1.8-.8-.5-.5-.8-1.1-1-1.8,0,0,0-.2,0-.2.6.4,1.4.7,2.1.7.7,0,.8,0,3-.7,1-.4,2.1-.6,3.2-.6,2.7,0,4.6,2.4,4.6,5.9,0,3.3-1.6,6.5-4.2,8.6-2,1.6-4.3,2.8-6.7,3.4l-.2-.3ZM365,2.8c.9.3,1.9.5,2.9.5.8,0,1.6,0,2.3-.3.1,0,.2,0,.4,0,.6,0,1.3.2,1.8.4.6.2.8.6.8,1,0,.4-.2.7-.6.8-.6.2-1.2.3-1.8.3-1,.2-2.1.5-3.1,1q-.4.2-2,1l-.2-.3c1.1-.7,2.1-1.5,3-2.3-1.4-.1-2.8-.7-3.8-1.7v-.2Z"/>
    </g>
    <g id="_グループ_275" data-name="グループ 275">
      <path id="_パス_995" data-name="パス 995" class="cls-2" d="M391,74.2c1.9,1.2,2.7,1.6,3.3,1.6s1.5-.8,2.3-2.7c.9-2.1,1.4-4.4,1.5-6.7,0-1.9-.5-2.7-1.7-2.7-.9,0-1.9.3-2.8.6-1.4,3.7-3.1,7.3-5,10.8-1.2,2.1-1.8,2.7-2.4,2.7-.6,0-1-.6-1-1.1q0-.4,1.3-2.1c2.2-3,4-6.2,5.4-9.6-.4.2-.8.3-2.4,1-.6.3-1.3.5-2,.5-.6,0-1.2-.4-1.6-.8-.5-.5-.8-1-.9-1.7,0-.1,0-.2,0-.3.6.6,1.4,1,2.3,1,1.7-.2,3.4-.6,5-1.1.4-1,.6-2.1.6-3.2,0-1.2-.6-2.2-1.7-2.6.3-.2.6-.3.9-.2.8,0,1.6.3,2.2.7.4.3.7.7.7,1.2-.2,1.3-.6,2.6-1.1,3.8.8-.2,1.5-.3,2.3-.3,2.2,0,3.3,1.5,3.3,4.6,0,3.3-1,6.5-2.7,9.3-.7,1.1-1.8,1.8-3.1,2-.7,0-1.1-.4-1.1-1.4,0-.8-.4-1.3-1.9-2.7l.2-.3ZM402.2,62.9c.2,0,.3,0,.5,0,3.7,0,6.5,2.5,6.5,5.7s-1,3.2-2.1,3.2-.7-.2-1.1-.9c-.3-.3-.7-.6-1.1-.7-.6-.1-1.1-.2-1.7-.3v-.4c.8,0,1.1,0,1.4,0,.7,0,1.4,0,2-.3.3-.2.5-.5.5-1.1,0-1.4-.6-2.7-1.7-3.6-.9-.8-2-1.2-3.2-1.2v-.4ZM403.5,58c1.2.1,2.4.4,3.5,1,.9.3,1.5,1.1,1.6,2,0,.5-.3.9-.8.9-.4,0-.7-.2-1.2-.9-.8-1.2-1.9-2.1-3.3-2.8v-.3ZM405.7,55.5c3.2.2,5.3,1.1,5.3,2.5,0,.4-.3.8-.8.8-.3,0-.5-.2-1.1-.8-1-1.1-2.2-1.8-3.5-2.3v-.3Z"/>
      <path id="_パス_996" data-name="パス 996" class="cls-2" d="M421.4,56.4c-1,1.8-1.6,2.9-2.2,4.1l1.1.7c.2,0,.3.2.3.4,0,.2,0,.3-.2.4-.2.2-.5.4-.5.5,0,1.9-.1,3.3-.1,4.9,0,3.3.2,8.7.2,12s-.2,2-1.5,2c-.4,0-.9-.3-.9-.7,0,0,0-.2,0-.2,0-.5.2-2.4.2-2.9.1-3.4.1-4.9.2-15-1.3,2.5-3.2,4.7-5.5,6.3v-.2c2.8-4.1,5.1-8.5,6.8-13.2.2-.6.3-1.2.3-1.8l2.9,1.4c.2,0,.3.2.4.5,0,.3-.2.4-1.3.8M438.7,81c-1.5-.4-6.8-1.8-10.1-4.4-2,2.1-4.6,3.4-7.4,3.8v-.2c2.5-.9,4.7-2.6,6.3-4.7-1.3-1.3-2.2-3-2.5-4.8h.2c.7,1.3,1.7,2.5,3,3.5.6-1.6,1-3.2,1.1-4.9h-4.2c0,.7-.4,1.4-1.2,1.5,0,0-.2,0-.3,0-.8,0-.8-.5-.8-.7,0-.7,0-3.7,0-4.3,0-1.5,0-3-.3-4.4l2.8,1.4h4.1c0-.5,0-2.8,0-3.3h-3.8c-1.2,0-2.4,0-3.6.3l-.6-1.2c1.9.2,3.7.2,4.7.2h3.3c0-1.7-.2-3.3-.7-4.9l3.4.9c.2,0,.4.2.4.4,0,.2,0,.3-.2.4-.3.2-.6.5-.7.5,0,.5,0,.5,0,1.3s0,.8,0,1.4h4.1l1.4-1.5c.2-.2.3-.4.5-.4s.3.1.5.3l1.8,1.5c.2,0,.3.3.3.5,0,.3-.2.3-.5.3h-8.2c0,.5,0,2.8,0,3.3h4.1l.8-.8c.2-.3.3-.4.4-.4.2,0,.3.1.5.3l1.3.9c.2.2.3.2.3.5,0,.2,0,.3-.2.5-.2.2-.6.5-.7.6,0,.5,0,3.2,0,4.2,0,.2,0,1,0,1.1,0,.7-.7,1.3-1.4,1.2,0,0,0,0,0,0-.4,0-.8-.2-.8-.6,0,0,0-.1,0-.2,0,0,0-.2,0-.5h-4.7c-.2,2.1-.7,4.1-1.6,6,2.8,1.8,7.3,2.8,11.5,2.9v.2c-1.1.6-1.9,1.6-2.3,2.7M425,63.3v5.2h4.3c0-.8,0-2.7,0-5.2h-4.4ZM435.9,63.3h-4.5c0,2.7-.1,4.7-.2,5.2h4.7v-5.2Z"/>
      <path id="_パス_997" data-name="パス 997" class="cls-2" d="M449.1,64.7c1.3-.1,2.6-.4,3.8-.8.7-.2,1.4-.4,2.1-.8.2,0,.3-.1.5-.1.6,0,1.2.2,1.8.5.7.4,1.1.8,1.1,1.3s0,.5-.8,1c-2.3,1.9-4.4,3.9-6.3,6.1.5-.4,1.2-.5,1.8-.5.9,0,1.8.5,2.2,1.3.4.7.5,1,.8,3.3.2,1.4.6,1.7,2.1,1.7,1.2,0,2.4-.2,3.5-.4.2,0,.4,0,.7,0,1.1,0,2,.6,2,1.4s-.3.8-1.3,1c-1,.2-2.1.3-3.1.2-2.5,0-3.8-.3-4.6-.9-.7-.6-.8-1.1-1-3.3,0-.9-.1-1.8-.5-2.7-.2-.4-.7-.6-1.1-.6-.9,0-1.7.5-2.3,1.2-1.4,1.6-2.6,3.3-3.5,5.2-.4.8-.8,1.1-1.3,1.1-.6,0-1.1-.6-1-1.2,0-1,.7-2,2.7-4.1,3.6-3.6,8-9,8-9.9,0-.1,0-.2-.2-.2,0,0,0,0,0,0-.5,0-1.8.5-5,2.2-.3.2-.7.4-1.1.4-1.1,0-2.6-1.7-2.6-3,0-.1,0-.3.1-.4.6.7,1.5,1.1,2.5,1.1M449.9,55.1c.5.3,1,.6,1.5.8.8.3,1.5.4,2.3.5,1.9.2,3.1.9,3.1,1.8s-.4.9-1.4.9h-.2c-.2,0-.8,0-.9,0-1.6.1-3.1.6-4.5,1.4l-.2-.3c1.1-.7,2.1-1.4,3-2.3-.7-.3-1.3-.7-1.8-1.2-.5-.4-.8-.9-1.1-1.4l.2-.2Z"/>
      <path id="_パス_998" data-name="パス 998" class="cls-2" d="M476,65c3.7-4.7,4.5-5.9,4.6-6.5,0-.2-.2-.3-.5-.3-1.4.3-2.8,1-3.8,2-.8.7-1.2.9-1.6.9-.7-.1-1.4-.5-1.9-1.1-.3-.4-.5-.9-.5-1.4,0-.1,0-.3,0-.4.3.5.9.8,1.5.8.7,0,1.2-.2,3.5-1.1,1.9-.8,2.5-1,3.2-1,1,0,1.8.5,2.4,1.3.3.3.5.7.5,1.1,0,.4-.2.6-1.1,1.1-1,.7-1.9,1.5-2.6,2.4-1.9,1.9-3.6,4-5.2,6.2,1.6-1.4,3.6-2.1,5.7-2.1,3.7,0,6.4,2.4,6.4,5.8s-3.3,6.7-7.8,6.7-4.3-1.1-4.3-2.8,1.2-2.4,2.8-2.4c1.9,0,3.5,1.2,4,3,.8-.3,1.4-.8,1.9-1.5.7-1,1.1-2.2,1.1-3.4.2-2.4-1.6-4.4-4-4.6-.2,0-.3,0-.5,0-1.9,0-3.8.8-5.2,2.2-1,.8-1.8,2-2.2,3.2-.5,1.2-.8,1.6-1.5,1.6s-1-.5-1-1.4c0-.9.5-1.7,1.1-2.3l4.8-6.1ZM479.7,77.8q0-.1-.3-.8c-.2-.6-.6-1.1-1.2-1.4-.4-.2-.8-.3-1.3-.3-.9,0-1.5.5-1.5,1.2s1.1,1.6,2.8,1.6c.5,0,.9,0,1.4-.2,0,0,0,0,0,0"/>
      <path id="_パス_999" data-name="パス 999" class="cls-2" d="M494.9,78c0,.9-.8,1.6-1.7,1.6-.9,0-1.6-.7-1.6-1.6,0-.9.8-1.6,1.7-1.6.9,0,1.6.7,1.6,1.6M492.8,74.6c0-4.2-.1-8.4-.5-12.6,0-.6-.5-3.8-.5-4,0-.9.7-1.6,1.6-1.6s1.6.7,1.6,1.6-.5,3.2-.5,3.8c-.4,4.2-.6,8.5-.5,12.8h-1.1Z"/>
    </g>
    <g id="_グループ_274" data-name="グループ 274">
      <path id="_パス_1000" data-name="パス 1000" class="cls-2" d="M14.1,69.1c.9,0,2.3-1,5.5-3.9,2.8-2.5,3.1-2.7,4.2-2.7.9,0,1.8.5,2.4,1.1,2.4,2,5,3.9,7.6,5.6,2.4,1.5,4.9,2.8,7.5,3.9,1.4.7,1.7.8,2.1,1.3.3.3.4.8.4,1.2,0,.7-.6,1.3-1.4,1.3-2.3,0-8.3-4-14.7-9.7q-3.4-3-3.9-3c-.5,0-1.2.6-2.4,1.9-.4.5-3.7,4.4-4.1,5-.8.9-1.2,1.2-1.8,1.2-1.7-.3-3-1.6-3.2-3.3,0-.3,0-.6.2-.9.4.5,1.1.9,1.7,1"/>
      <path id="_パス_1001" data-name="パス 1001" class="cls-2" d="M46.6,81.1c3.7-3.1,6.6-7,8.4-11.4.7-1.5,1.2-3.2,1.4-4.8,0-.8-.4-1.4-1.6-2.1.4-.4.9-.6,1.4-.6,1,0,1.9.5,2.6,1.2.4.4.7,1,.7,1.6-.2,1-.5,2.1-1,3-1.4,3.4-3.5,6.5-6.1,9.1-1.6,1.7-3.5,3.2-5.5,4.3l-.3-.4ZM78.8,62.4c-2.9,5.5-7,10.2-12.1,13.7-.3.2-.6.5-.9.8-.2.2-.5.4-.8.4-.5,0-1-.5-1.6-1.4-.3-.4-.5-.8-.5-1.3q0-.1.2-.6c.1-.4.3-4.8.3-9.1s-.2-3.9-1.8-4.6c.4-.5,1.1-.9,1.8-.8,1.5,0,3.1,1.2,3.1,2.3,0,.3,0,.6-.2.8-.3.7-.5,1.5-.5,2.3-.3,2.8-.4,6.4-.4,8.8,5.2-2.8,9.7-6.8,13.1-11.7l.4.3Z"/>
      <path id="_パス_1002" data-name="パス 1002" class="cls-2" d="M83.7,64.4c5.1.3,8,1.7,8,4,0,.7-.6,1.4-1.3,1.4-.5,0-.8-.2-1.4-.9-1.4-1.8-3.3-3.2-5.4-4.1v-.4ZM109.2,61.5c-3.9,6.9-9.3,12.8-15.9,17.2q-3.8,2.6-4.4,2.6c-1.3,0-3.3-2.1-3.3-3.6,0-.4,0-.7.3-1,.5.8,1.3,1.3,2.3,1.4,1.3,0,5.5-2.5,9.5-5.7,2.6-2.1,5.1-4.5,7.4-6.9,1.1-1.1,1.7-1.8,3.6-4.3l.4.3ZM87.7,57.8c.6,0,.7,0,1.2,0,2,0,4.1.4,5.9,1.4.7.5,1.2,1.3,1.2,2.1,0,.7-.5,1.4-1.2,1.4,0,0,0,0,0,0-.4,0-.7-.2-1.6-1-1.5-1.6-3.4-2.8-5.5-3.5v-.4Z"/>
      <path id="_パス_1003" data-name="パス 1003" class="cls-2" d="M120.2,68c.6,0,1.5,0,2.6,0q2.9-.1,11.7-.5c1.8,0,3.7-.2,5.5-.5.2,0,.4,0,.6,0,.8,0,1.6.3,2.3.7.5.3.8.7.8,1.3,0,.7-.6,1.1-1.5,1.1-.2,0-.5,0-.7,0-1.5-.1-3.1-.2-4.6-.2-3.4,0-11,.3-14.6.6-.9,0-1.9.1-2.8.4-.3.1-.7.2-1.1.2-1.1,0-2.4-1.7-2.4-3.1,0-.5.2-.9.5-1.3,1,1.1,1.6,1.4,3.9,1.4"/>
      <path id="_パス_1004" data-name="パス 1004" class="cls-2" d="M152.5,83.3c2.3-2,4.3-4.3,5.9-6.9,2.4-3.8,4.2-8.1,4.2-10.2,0-.4-.2-.8-.4-1.1-2.3.4-4,.8-6.1,1.4-.8.3-1.6.4-2.5.5-.7,0-1.3-.3-1.8-.7-.7-.5-1.3-1.3-1.6-2.2,0,0,0-.2,0-.2.9.5,1.9.8,3,.7,1.6,0,3.6-.3,12-1.6,1.7-.2,3.4-.6,5-1.1.3-.1.6-.2.8-.2,1,0,2,.4,2.9.9,1,.5,1.3.9,1.3,1.6,0,.6-.4,1.1-1,1.1,0,0,0,0,0,0-.7,0-1.3-.2-1.9-.4-1.2-.4-2.5-.5-3.8-.5-1.7,0-3.3.2-5,.5,1.4.8,1.9,1.4,1.9,2.1,0,1.1-1.1,3.7-2.7,6.4-2.4,4.2-5.9,7.8-10.1,10.3l-.3-.4ZM155.3,56.3c.9.5,1.9.7,3,.7,2.1,0,4.4-.6,7.9-2,.3-.2.7-.2,1.1-.2.9,0,1.8.6,1.8,1.5,0,0,0,0,0,0,0,.7-.5,1.1-2,1.5-2.2.6-4.4.9-6.6.9-2,.1-4-.6-5.4-2.1l.3-.3Z"/>
      <path id="_パス_1005" data-name="パス 1005" class="cls-2" d="M179,77.4c3.4-2.8,6.5-6.1,9.1-9.7,1.9-2.7,2.8-4.5,2.8-5.3s-.3-1-1.1-1.4c.3-.1.6-.2.9-.2,1.4,0,3.1,1.3,3.1,2.4s0,.5-.5,1.1c-.2.3-.2.3-.6.8-.9,1.4-2.2,3-3,4,1.3.7,1.6,1.2,1.6,2h0c0,.7-.1,4.3-.1,4.9s.1,4.2.1,5.8v.6c0,1-.3,1.5-.9,1.5-.4,0-.8-.2-1-.6-.5-.8-.8-1.7-.9-2.6,0-.3,0-.7.1-1,.4-2.4.6-4.8.6-7.2,0-1.6,0-2-.6-2.4-2.7,3-5.9,5.6-9.4,7.6l-.3-.4Z"/>
      <path id="_パス_1006" data-name="パス 1006" class="cls-2" d="M206.7,82.7c2.6-2.7,4.8-5.9,6.5-9.3,1.6-3.3,3-7.4,3-9s-.3-1.2-1.3-1.7c.4-.4.9-.5,1.5-.6,1.1,0,2.1.5,2.8,1.3,1.9-1.2,3.6-2.6,5.2-4.2.4-.3.7-.8.7-1.3,0-.3-.3-.5-.8-.5-4.4.5-8.7,1.3-13,2.4-1,.3-2,.5-3,.6-.9,0-1.8-.4-2.4-1-.7-.6-1.3-1.4-1.5-2.3,1.5.4,3.1.6,4.7.6,3.8-.1,7.5-.5,11.3-1.1,2.8-.4,3-.5,3.7-.8.3-.2.7-.3,1.1-.3,1,.2,1.8.6,2.5,1.3,1.1.9,1.6,1.6,1.6,2.2,0,.3-.1.6-.4.8-.4.3-.8.4-1.3.5-.7.2-1.4.5-2.1.9-1.9,1.1-3.9,2.2-6,3.1-1,3.6-2.5,7.1-4.5,10.3-2,3.3-4.7,6.2-7.9,8.5l-.3-.3Z"/>
      <path id="_パス_1007" data-name="パス 1007" class="cls-2" d="M238.1,68c.6,0,1.5,0,2.6,0q2.9-.1,11.7-.5c1.8,0,3.7-.2,5.5-.5.2,0,.4,0,.6,0,.8,0,1.6.3,2.3.7.5.3.8.7.8,1.3,0,.7-.6,1.1-1.5,1.1-.2,0-.5,0-.7,0-1.5-.1-3.1-.2-4.6-.2-3.4,0-11,.3-14.6.6-.9,0-1.9.1-2.8.4-.3.1-.7.2-1.1.2-1.1,0-2.4-1.7-2.4-3.1,0-.5.2-.9.5-1.3,1,1.1,1.6,1.4,3.9,1.4"/>
      <path id="_パス_1008" data-name="パス 1008" class="cls-2" d="M273.7,54c.9,0,1.8.4,2.5,1,.4.3.7.7.7,1.2,0,.4,0,.8-.3,1.2-.4,2.2-.6,4.5-.6,6.8,5.7,1.1,9,3.3,9,5.9s-.6,1.7-1.3,1.7-.9-.3-1.5-1.3c-1.5-2.4-3.6-4.4-6.2-5.6,0,8.4,0,11.3.3,15.7,0,.3,0,.6,0,1,0,.5,0,1.1-.3,1.6-.2.3-.5.4-.8.4-.4,0-.9-.3-1.3-1-.5-.8-.8-1.7-.9-2.7,0-.5,0-1,.2-1.5.2-1,.3-2,.3-3.1.1-4,.2-9.2.2-15.6s0-3.3-.3-3.8c-.3-.6-1-1.1-1.7-1.2.4-.5,1.1-.9,1.8-.9M282.5,55.8c3.5.9,5.8,2.6,5.8,4.3,0,.6-.4,1.1-1,1.2,0,0,0,0,0,0-.6,0-.9-.3-1.4-1.3-.8-1.5-2-2.9-3.5-3.8l.2-.3ZM285.9,53.3c1.5.2,2.9.6,4.2,1.3,1,.4,1.7,1.3,1.9,2.3,0,.6-.4,1.1-.9,1.1,0,0,0,0,0,0-.4,0-.7-.2-1.4-1.1-1-1.4-2.4-2.5-4-3.3l.2-.3Z"/>
      <path id="_パス_1009" data-name="パス 1009" class="cls-2" d="M309.7,64.2c-1,3.7-2.6,7.2-4.6,10.4-2.5,3.8-6,6.7-10.1,8.5v-.2c3.6-3,6.6-6.8,8.8-11,1.5-2.9,2.7-5.9,3.4-9.1h-5.1c-1.4,0-2.9.1-4.3.4l-.7-1.5c2.4.2,5,.2,5.7.2h4.5l1-.9c.1-.2.3-.3.5-.3.2,0,.4.2.6.3l1.5,1.6c.2.2.3.4.3.5,0,.4-.7.7-1.3,1M314,54c0,2.5,0,13.5,0,15.8s.1,9.9.1,11.5,0,4-4.4,4.5c-.2-.9-.7-1.8-1.4-2.4-.8-.7-1.6-1.3-2.6-1.7v-.2c.3,0,3.7.2,4.2.2,1.4,0,1.6-.4,1.6-1.7s0-3.5,0-4.1c0-1.1.1-12.9.1-15.3,0-2.5,0-4.9-.3-7.4,0-.3-.4-1.7-.5-2l4,1c.3,0,.5.2.5.5s-.2.6-1.3,1.1M326.5,81.6c-5.3-3-11.8-12.2-11.9-23.6h.4c.4,2.7,1.1,5.2,2.1,7.7,2.6-2,5.6-5,6.4-7.8l3.3,2.8c.2.1.3.3.3.6,0,.7-.7.6-2,.6-2.4,1.8-5,3.4-7.7,4.6,4.6,9.9,10.9,11.9,13.5,12.4v.2c-1.8.2-3.4,1.1-4.4,2.6"/>
      <path id="_パス_1010" data-name="パス 1010" class="cls-2" d="M365.2,67.5h-19.1c-.3.6-.5,1.1-1.1,2.1l2,.7h10.2l1.1-1.1c.2-.2.4-.4.7-.4.2,0,.3,0,.7.4l1.4,1.1c.3.2.5.4.5.7,0,.3-.5.7-1.4,1.3,0,4.7,0,5.2,0,5.6,0,1.9.2,5.5.2,5.7.1.9-.5,1.7-1.4,1.8-.1,0-.3,0-.4,0-1,0-.9-.6-.9-1.8h-11.2c0,.7.1,2-2,2s-.9-.3-.9-.8.4-11.3.3-13.5c-2.8,4.5-6.6,8.2-11.2,10.9v-.2c4.2-4,7.7-9,10.1-14.4h-4.5c-1.5,0-2.9.1-4.4.3l-.7-1.5c2.5.2,5.2.3,5.7.3h9.5v-3.7h-5.7c-1.5,0-2.9,0-4.4.3l-.7-1.5c2.3.2,4.5.3,5.7.3h5.1v-3.5h-8.5c-1.5,0-2.9.1-4.4.3l-.7-1.5c2.5.2,5.1.3,5.7.3h10.9c1.3-1.9,2-4.2,2.1-6.5l3.3,1.8c.3.2.6.4.6.7s-.4.5-1.3.7c-.6.6-2.5,2.3-3.8,3.3h7.6l1.3-1.6c.2-.3.4-.5.6-.5s.3,0,.7.4l2,1.6c.2.1.3.4.4.6,0,.4-.3.4-.6.4h-13.2v3.5h5.4l1.3-1.7c.2-.3.4-.5.6-.5.3,0,.5.2.7.4l1.9,1.7c.3.3.4.5.4.6,0,.4-.3.4-.6.4h-9.7v3.7h9.7l1.6-1.7c.2-.2.4-.4.6-.4.2,0,.4.1.7.4l2,1.7c.2.1.3.4.4.6,0,.4-.4.4-.6.4M346.2,57.2c-1,0-1.2-.5-2-2.2-.5-1.2-1.2-2.2-2.3-3v-.3c2.9.3,5.7,1.9,5.7,4,0,.8-.5,1.4-1.2,1.5,0,0-.1,0-.2,0M357.7,71.3h-11.2v3h11.2v-3ZM357.7,75.1h-11.2v3.1h11.2v-3.1ZM357.7,79.1h-11.2v3.6h11.2v-3.6Z"/>
    </g>
    <rect id="_長方形_128" data-name="長方形 128" class="cls-1" width="511" height="92"/>
  </g>
</svg>