<?xml version="1.0" encoding="UTF-8"?>
<svg id="_レイヤー_1" data-name="レイヤー 1" xmlns="http://www.w3.org/2000/svg" version="1.1" viewBox="0 0 581 90">
  <defs>
    <style>
      .cls-1 {
        fill: #c9e8e2;
      }

      .cls-1, .cls-2 {
        stroke-width: 0px;
      }

      .cls-2 {
        fill: #2e2e2e;
      }
    </style>
  </defs>
  <g id="_グループ_434" data-name="グループ 434">
    <rect id="_長方形_120" data-name="長方形 120" class="cls-1" y="43" width="474" height="47"/>
    <g id="_グループ_260" data-name="グループ 260">
      <path id="_パス_869" data-name="パス 869" class="cls-2" d="M36.7,4.1h-5.4c0,1.6,0,20.3,0,20.7-.2,1.7-2,2.5-3.4,2.8-.2-1-.3-1.6-3.9-3.5v-.2c.4,0,2.8.3,3.6.3s1.3,0,1.4-.5c0-.4,0-6.4,0-7.4,0-2,0-10.5,0-12.3h-14.8c-1.2,0-2.4,0-3.6.3l-.6-1.2c2.1.2,4.4.2,4.7.2h17.8l1.4-1.6c.2-.2.3-.4.5-.4s.3.2.5.3l1.8,1.6c.2.2.3.3.3.5,0,.3-.3.3-.5.3M23.4,10c0,.9,0,3.7,0,4.6s0,3.6,0,4.2c0,1.5-1.1,1.6-1.4,1.6-.9,0-.9-.8-.9-1.7h-4.4c0,1.6.2,2.9-1.4,2.9-.5,0-.9-.3-1-.7,0,0,0-.1,0-.2,0-.2,0-1.4,0-1.6,0-3.1,0-5.5,0-8,0-1.3,0-2.7-.5-3.9l2.8,1.5h4.1l.8-.8c.2-.2.4-.4.5-.4s.2,0,.5.3l1.2,1c.2.2.4.3.4.5s-.5.5-1.1.9M21.2,9.2h-4.4v8.7h4.4v-8.7Z"/>
      <path id="_パス_870" data-name="パス 870" class="cls-2" d="M42.3,7.5c.2.9.3,1.7.3,2.6,0,3.2-1.1,4.3-2.2,4.3-.6,0-1-.4-1-1,0,0,0-.1,0-.2,0-.6.1-.8,1.3-2.3.7-1.1,1.2-2.3,1.5-3.5h.2ZM46.5,1.2c.3,0,.6.2.6.5s0,.3-1,.9c-.2,2.6-.2,5.3-.2,7.9,0,4.9,0,9.5.1,13,0,.8,0,2.2,0,3,0,.7-.6,1.3-1.3,1.4,0,0,0,0-.1,0-.5,0-.9-.2-.9-1s0-.2,0-.3c.2-2.4.2-5.1.2-7.5s0-10.3,0-12c0-5-.2-5.6-.7-6.8l3.1.9ZM46.5,7.8c2,.4,3.1,1.6,3.1,2.5,0,.6-.4,1.2-1,1.3,0,0,0,0,0,0-.7,0-.8-.5-1.2-1.7-.2-.7-.6-1.3-1-1.9v-.2ZM46.6,26.7c1.8-1.3,3.4-2.9,4.6-4.7-.5,0-.9-.2-1.1-.6-.3-.8-.6-1.6-1.1-2.3-.7.7-1.5,1.3-2.3,1.8v-.2c0,0,3.7-4.7,3.9-7.8l1.9.8c.2,0,.4.2.4.5s-.2.4-.8.5c-.2.4-.3.5-.5.9h1.7l.6-.6c.1-.2.3-.3.6-.3.2,0,.3.2.5.3l.8.7c.1.1.3.3.3.5,0,.4-.4.5-.8.7-2,6.2-5.1,8.6-8.6,10l-.2-.2ZM51.5,6.6c-1.2,0-2.4.1-3.6.3l-.6-1.2c1.9.2,3.8.2,4.6.2h3.7c0-3.8-.3-4.5-.7-5.5l2.8.8c.2,0,.5.2.5.5s-.4.6-.8.8c0,.4,0,2.1,0,2.4v1.1h1.8c.7-1.5,1.1-3.1,1.2-4.8l2.3.9c0,0,.5.2.5.5s-.3.4-.9.6c-.8,1-1.7,2-2.7,2.8h3.5l.9-1.1c.2-.2.3-.4.5-.4s.3.2.5.3l1.3,1.1c.1.1.3.2.3.5s-.2.3-.5.3h-8.3c2.6,2.8,6,4.6,9.8,5v.2c-1,.3-1.8,1.1-2.2,2.1-4.1-2-6.5-4-8.2-7.3v1.2c0,.8.2,4.2.2,4.9,0,.7-.6,1.3-1.3,1.2,0,0,0,0,0,0-.8,0-.8-.6-.8-.9,0-.8.1-4.7.1-5.5-2.1,3.2-5.3,5.7-8.9,7v-.2c2.8-2.1,5.4-4.7,7.4-7.7h-2.7ZM51.2,16.4c-.6.9-1.3,1.7-2,2.5.7.2,2.5.6,2.7,1.8.8-1.3,1.3-2.8,1.6-4.3h-2.3ZM49.7,1.8c3.2.6,3.8,1.9,3.8,2.7s0,1.2-1,1.2-.9-.4-1.4-1.5c-.4-.8-.9-1.6-1.5-2.2v-.2ZM63.4,16.4l.6-.8c.2-.2.3-.4.4-.4s.3,0,.6.3l1,.8c.2.1.3.3.3.5,0,.3-.3.3-.5.3h-3.4c0,1.2,0,1.5,0,4.5h1.8l.9-1.2c.1-.2.3-.4.5-.4s.3,0,.5.3l1.3,1.2c.2.1.3.3.3.5s-.3.3-.5.3h-4.8c0,.5.2,4.2.2,4.5,0,.7-.6,1.3-1.3,1.3,0,0,0,0,0,0-.8,0-.8-.6-.8-1s0-4.1,0-4.8h-2.7c-1.2,0-2.4,0-3.6.3l-.6-1.2c1.1.1,1.4.1,2.7.2v-2.4c0-1.3,0-2.6-.3-3.8l2.5,1h1.9c0-1.1-.1-2.2-.5-3.3l2.5.7c.3,0,.6.2.6.5s-.2.4-.8.8c0,.5,0,.9,0,1.4h1ZM60.6,21.6c0-1.1,0-3.1,0-4.5h-2.3v4.5h2.3Z"/>
      <path id="_パス_871" data-name="パス 871" class="cls-2" d="M72.4,5.9c.8.7,1.8,1,2.8.9,1,0,2.1-.2,3.1-.5.2-.7.3-1.4.3-2.1,0-.9-.5-1.7-1.3-2,.3-.2.7-.3,1.1-.2,1.3,0,2.3.6,2.3,1.3-.2.9-.4,1.7-.7,2.5.4-.1.8-.3,1.2-.5.8-.5.9-.5,1.3-.5.5,0,1,.4,1,.9,0,.5-.4.8-1.4,1.3-.9.4-1.9.7-2.9,1-1.3,3.7-2.9,7.3-4.8,10.7-.6,1.1-1.1,1.5-1.7,1.5-.6,0-1-.5-1-1.1,0-.5,0-.7,1.3-2.4,1.9-2.6,3.4-5.5,4.6-8.6-.4,0-.8.1-1.2.1-1.8,0-3.4-.8-4.3-2.4l.3-.2ZM86.1,6.8c1.5,0,3,.3,4.3,1,1.5.8,2.3,1.9,2.3,3.1,0,.5-.3,1-.8,1.1,0,0,0,0-.1,0-.3,0-.6-.1-.8-.4-.7-.6-1.6-.9-2.5-.8-1.7,0-2.4.9-2.4,3.1s.3,4.8.5,6.4c1.5.3,2.9.9,4.1,1.8.7.4,1.2,1.1,1.2,1.9,0,.7-.4,1.1-.9,1.1s-.5,0-1.4-1c-.8-.9-1.9-1.6-3-2.1,0,.3,0,.5,0,.8,0,2.4-1.6,3.7-4.4,3.7s-4.3-1.2-4.3-2.9,2.6-3.6,6-3.6c.2,0,.5,0,.7,0,0-2.2,0-2.5,0-2.9,0-5.2.9-6.7,4.5-7.5.4,0,.5-.1.5-.2-.1-.3-.3-.6-.6-.8-.9-.8-2-1.3-3.1-1.4v-.4ZM83.4,21.3c-2.7,0-4.5.8-4.5,2.1s1,1.6,2.7,1.6,3.3-.9,3.3-3.1v-.5c-.5-.1-1-.2-1.5-.2"/>
      <path id="_パス_872" data-name="パス 872" class="cls-2" d="M98.6,15.3c.7,0,1.9-.8,4.5-3.2,2.3-2,2.6-2.2,3.4-2.2.7,0,1.4.4,2,.9,5.7,4.5,7.5,5.6,12.4,7.8,1.2.5,1.4.7,1.7,1.1.2.3.3.6.3.9,0,.6-.5,1.1-1.1,1.1,0,0,0,0,0,0-1.8,0-6.8-3.3-12.1-8q-2.7-2.4-3.2-2.4c-.5,0-1,.5-3.5,3.4-.2.3-.7.8-1.2,1.5-.3.3-.5.5-.6.7-.6.8-1,1-1.5,1-.8,0-1.4-.5-1.9-1.1-.5-.4-.7-1-.8-1.7,0-.2,0-.4.1-.6.4.4.9.7,1.4.8M112.8,7.2c3.1.6,5,1.8,5,3.1,0,.5-.3.9-.8,1,0,0,0,0,0,0-.4,0-.7-.2-1.2-1-.8-1.2-1.8-2.1-3.1-2.8v-.3ZM115.1,4.7c3.1.2,5.3,1.3,5.3,2.7,0,.5-.3.8-.8.9-.3,0-.5-.1-1.1-.9-1-1.1-2.2-1.9-3.5-2.5v-.3Z"/>
      <path id="_パス_873" data-name="パス 873" class="cls-2" d="M130.2,13.8c.5,0,1.2,0,2.1,0q2.4-.1,9.6-.4c1.5,0,3-.1,4.5-.4.1,0,.3,0,.5,0,.7,0,1.3.2,1.9.6.4.2.6.6.7,1.1,0,.6-.5.9-1.2.9-.2,0-.4,0-.6,0-1.3-.1-2.5-.2-3.8-.2-2.8,0-9,.2-11.9.5-.8,0-1.5.1-2.3.3-.3,0-.6.2-.9.2-.9,0-2-1.4-2-2.5,0-.4.1-.8.4-1.1.8.9,1.3,1.2,3.2,1.2"/>
      <path id="_パス_874" data-name="パス 874" class="cls-2" d="M155.2,11.3c4.1.2,6.5,1.4,6.5,3.2,0,.6-.5,1.1-1.1,1.1-.4,0-.7-.2-1.1-.7-1.2-1.4-2.7-2.6-4.4-3.3v-.3ZM176.1,8.9c-3.2,5.7-7.6,10.5-13,14.1q-3.1,2.1-3.6,2.1c-1.1,0-2.7-1.8-2.7-2.9,0-.3,0-.6.3-.8.4.6,1.1,1.1,1.8,1.1,1.1,0,4.5-2.1,7.8-4.7,2.1-1.7,4.2-3.6,6.1-5.6.9-1,1.4-1.6,2.9-3.5l.3.2ZM158.5,5.9c.4,0,.7,0,.9,0,1.7,0,3.3.3,4.8,1.1.6.4.9,1,1,1.7,0,.6-.4,1.1-1,1.2,0,0,0,0,0,0-.4,0-.6-.2-1.3-.8-1.2-1.3-2.8-2.3-4.5-2.8v-.3ZM170,2.9c1.1.2,2.2.7,3.2,1.3,1,.6,1.5,1.3,1.5,2,0,.5-.3.9-.8,1,0,0,0,0,0,0-.4,0-.6-.2-1.2-1.1-.7-1.2-1.7-2.2-2.8-2.9l.2-.2ZM172.6.8c3,.4,5,1.5,5,2.8,0,.5-.3.9-.7.9,0,0,0,0,0,0-.3,0-.5-.2-1.1-.9-.9-1.1-1.9-2-3.2-2.6v-.3Z"/>
      <path id="_パス_875" data-name="パス 875" class="cls-2" d="M186.2,14.2c.9,0,1.8-.1,2.7-.3.9,0,1.7-.2,2.5-.6.2-.2.5-.2.8-.2.7,0,1.3.4,1.8.8.3.2.5.5.6.9,0,.3-.2.5-.4.7q-.4.3-1.4,3.4c-.3.9-.5,1.4-.9,2.7q.4,0,2-.2c.7,0,1.4-.2,2.1-.5.2,0,.4-.1.6-.1.6,0,1.2.2,1.7.5.6.3.9.6.9,1,0,.4-.3.8-.7.8,0,0,0,0-.1,0-.3,0-.6,0-.9-.2-1.1-.2-2.3-.3-3.4-.3-1.9,0-3.7.2-5.5.5-1.7.3-3.7.7-4.8,1-.3.1-.7.2-1,.2-1.2-.1-2.3-1-2.7-2.2.7.2,1.5.3,2.3.3,1,0,4.5-.3,7.7-.8.8-2.2,1.4-4.4,1.8-6.7,0-.2,0-.3-.3-.4,0,0,0,0,0,0-1.2.1-2.4.4-3.6.8-.5.2-1.1.4-1.7.4-1,0-1.9-.8-1.9-1.8,0,0,0-.2,0-.2.6.3,1.3.4,2,.4"/>
      <path id="_パス_876" data-name="パス 876" class="cls-2" d="M210,1.4c1.5,0,3,1,3,2.1,0,.3,0,.6-.2.8-.6,2.1-.9,4.3-.9,6.6,0,1.4.3,2,1,2,.8,0,1.5-.2,2.2-.6.4-.2.8-.3,1.2-.3.6,0,1.1.4,1.1.9,0,0,0,0,0,.1,0,.7-.3.9-1.9,1.3-1.5.3-2.8.9-4.1,1.7-1.6,1-2.6,2.7-2.7,4.6,0,2.3,1.6,3.5,4.4,3.5,1.1,0,2.1-.1,3.1-.4.4-.1.7-.2,1.1-.2,1.2,0,2.1.6,2.1,1.4s-.4.9-1.5,1.2c-1.1.2-2.2.2-3.3.2-2.8,0-4.6-.5-5.8-1.6-1-.9-1.6-2.3-1.6-3.7,0-1.8.8-3.4,2-4.7.9-1,2-1.8,3.1-2.5-1.7-.5-2-1.2-2-4.5s0-.1,0-2.2c0-.5,0-2.1,0-2.8,0-1.6-.3-2.1-1.6-2.5.4-.3.8-.4,1.3-.4"/>
      <path id="_パス_877" data-name="パス 877" class="cls-2" d="M231.7,13.9c-.8,2.4-1.4,4.9-1.7,7.5,0,.6,0,1.1.2,1.6,0,.4.1.8.2,1.2,0,.7-.3,1.1-.9,1.1s-1.2-.7-1.7-2c-.5-1.7-.8-3.4-.8-5.2,0-1.6.2-3.2.5-4.7.2-.9.2-1,1-4.5.2-.9.4-1.7.4-2.6,0-1-.4-2-1-2.8,1,.3,1.8.9,2.3,1.8.5.6.8,1.3.8,2.1,0,.6-.1,1-.9,2.7-1.1,2.3-1.7,4.8-1.8,7.3,0,1.4.2,2.5.5,2.5s.2,0,.2-.3c.3-.9,1.5-3.8,2.3-5.6h.4ZM235.8,8.2c.8,1.1,2.1,1.7,3.5,1.6.9,0,1.8-.1,2.6-.3v-1.6c0-.4,0-.8,0-1v-.6c0-1.2,0-1.3-.9-1.8-.2-.1-.4-.3-.4-.5,0-.3.5-.5,1.2-.5,1.2,0,2.1.6,2.1,1.4,0,.2,0,.4-.1.6,0,.3,0,.3-.1.6.5.5,1.1.8,1.7,1.1.3.2.6.2.9.2,1,.1,1.3.4,1.3,1.1,0,1.1-1.3,1.8-4.3,2.6,0,2.7.2,5.4.6,8.1,3,.9,5.2,2.6,5.2,4,0,.6-.4,1.1-.9,1.1,0,0,0,0,0,0-.4,0-.6-.2-1.3-1-.8-1-1.7-1.9-2.9-2.4,0,1.6-.2,2-.6,2.6-1,1-2.4,1.5-3.8,1.4-2.5,0-4.4-1.2-4.4-2.9s2.2-3.3,5.5-3.3c.5,0,.9,0,1.4,0-.1-4-.2-6.5-.2-7.5-.5,0-1.1.1-1.6.1-2.1.1-4.1-1.1-4.8-3.1l.3-.2ZM239.4,19.9c-.9,0-1.8.2-2.6.6-.5.3-.8.8-.8,1.3,0,1,1,1.6,2.7,1.6s2.6-.5,3-1.2c.2-.4.3-.9.3-1.3,0-.1,0-.6,0-.6-.9-.2-1.8-.4-2.7-.3M245.3,8.2c0,0,0-.2-.3-.4-.5-.5-.8-.7-1.4-1.5-.2.9-.2,1.8-.2,2.7,1.3-.4,2-.7,2-.9"/>
      <path id="_パス_878" data-name="パス 878" class="cls-2" d="M261.9,15.2c-2.5,3.1-5.8,5.5-9.5,6.9v-.2c2.4-1.8,7-5.9,8.2-9.3l2.4,1.6c.2.2.3.2.3.4,0,.4-.5.5-1.4.6M278.1,7.4c-.2,0-.3,0-.7,0-.4.2-2.4,1.3-2.9,1.6h0c.3-.7.8-1.8,1.2-3.1h-8.9c0,.7.1,4.1.1,4.8,0,.7-.4,1.3-1.1,1.4,0,0-.2,0-.2,0-.8,0-.8-.5-.8-.8s0-1.2,0-1.4c0-1.1,0-1.6,0-3.9h-8.6c0,2.5-1.2,4.3-2.5,4.3-.6,0-1.1-.4-1.1-1,0,0,0,0,0,0,0-.7.3-.9,1.6-2.2.8-.8,1.4-1.8,1.7-2.9h.2c0,.4,0,.5,0,1h8.6v-2.3h-4.3c-1.2,0-2.4.1-3.5.3l-.6-1.2c2.4.2,4.2.2,4.6.2h11l1-1.1c.1-.2.3-.4.5-.4.2,0,.4.1.5.3l1.3,1.1c.2.1.3.2.3.5,0,.3-.3.3-.5.3h-8.6v2.3h8.9l.6-.5c.3-.3.4-.4.6-.4.2,0,.4.1.5.3l1.6,1.7c.2.2.2.4.2.6,0,.5-.5.6-1.1.6M277.5,22c-1.7-.6-3.2-1.6-4.5-2.8-.2.1-.3.2-.7.5-.1.6-.5,3.4-.6,4-.4,1.7-.9,4.1-4.7,4.4-.2-1.2-.9-2.4-2-3.1h0c1,.1,2.1.2,3.1.3.5,0,1-.3,1.1-.8.6-1.7.9-3.5,1.1-5.3h-4.9c-1.1,4.3-4.6,8-11.2,8.8v-.2c4.7-1.5,7.8-4.5,8.9-8.6-1.2,0-2.3,0-3.4.3l-.6-1.2c1.9.2,3.8.2,4.7.2h6.6l.7-.8c0,0,.2-.2.3-.2-.7-.9-1.3-1.9-1.7-3h-1.1c-.8,0-1.6,0-2.4.2l-.4-1.1c.8,0,2.1.2,3.1.2l.8-.8c.2-.2.4-.4.6-.4s.3,0,.5.2l.8.7c.2.2.4.3.4.5,0,.3-.2.5-1.4,1,2.1,3,6.1,4.5,9.7,4.9v.2c-1.2.2-2.2,1-2.9,2M263,8.6h-4c-.5,0-1,0-1.5.1l-.4-.9c1.2,0,2.2,0,2.3,0h2.2l.2-.5c0-.2.2-.4.4-.4s.2,0,.5.3l.5.5c.2.2.3.3.3.4,0,.2-.2.3-.5.3M263,11.4h-4.1c-.5,0-1,0-1.5.1l-.4-.9c1.1,0,2,0,2.3,0h2.2l.4-.5c.1-.2.2-.3.4-.3s.2.1.5.3l.5.5c.1.1.2.3.2.4,0,.3-.2.3-.5.3M273,8.5h-3.3c-.5,0-1,0-1.5.1l-.4-.9c1.2,0,1.9,0,2.3,0h1.5l.4-.4c.1-.2.3-.4.5-.4s.3.2.5.4l.4.4c.1.1.2.3.2.5,0,.2-.2.3-.5.3M273.9,11.4h-4c-.5,0-1,0-1.5.1l-.4-.9c.9,0,1.8,0,2.3,0h2.1l.4-.5c.2-.3.3-.3.4-.3.2,0,.2.1.5.3l.5.5c.2.1.2.3.2.4,0,.3-.2.3-.5.3"/>
      <path id="_パス_879" data-name="パス 879" class="cls-2" d="M305.2,2.6l1-1c.2-.2.3-.4.5-.4s.2.1.4.2l1.6,1.1c.2,0,.3.2.3.4,0,.2-.8.8-1.1,1.1v6.2c0,2.1.3,13.4.3,15.9,0,.8-.5,1.4-1.2,1.5,0,0-.2,0-.2,0-.5,0-.9-.4-.9-.9,0,0,0,0,0,0,0-.2,0-1,0-1.1h-18.9c0,.6.1,2.3-1.6,2.3s-.7-.5-.7-1c0-2.5.2-13.8.2-16,0-3.2,0-6.3-.4-9.5l2.5,1.1h18.4ZM286.7,24.9h18.9V3.3h-18.9v21.6ZM298.5,9.2c0-4.1,0-4.2-.4-5.4l2.7.8c.2,0,.5.2.5.4s-.2.4-.8.8c0,.3,0,3.2,0,3.4h.9l1-1c.2-.2.4-.4.5-.4s.4.2.5.3l1.1,1.1c0,0,.3.3.3.4,0,.3-.3.3-.5.3h-3.9c0,.8,0,4.7,0,5.1h1.1l1-1.2c.2-.2.3-.4.5-.4.2,0,.4.2.6.3l1.3,1.1c.2.2.3.3.3.5s-.2.3-.5.3h-4.4c0,1.4.2,5.6.2,6.8,0,.8-.7,1.4-1.5,1.3,0,0,0,0,0,0-.8,0-.8-.7-.8-1.2,0-1.1,0-5.9,0-6.9h-4.3c-.5,3.9-3.2,7.2-6.9,8.5l-.2-.2c3.2-2,4.6-5.6,5.1-8.4h-1c-1.2,0-2.4,0-3.6.3l-.6-1.2c2.2.2,4.1.2,4.7.2h.6c.2-1.7.2-3.4.2-5.1h-.6c-1.2,0-2.4,0-3.6.3l-.6-1.2c1.5.1,2.7.2,4.7.2,0-1.8-.3-3.6-.7-5.3l3,.8c.2,0,.4.2.4.4,0,.3-.4.5-.7.7v3.3h4ZM294.5,9.9c0,2.3,0,4.1-.2,5.1h4.2c0-.3,0-4.5,0-5.1h-4.1Z"/>
      <path id="_パス_880" data-name="パス 880" class="cls-2" d="M338.1,5.5h-18.3c-1.1,1.8-3.7,5.7-7.4,7.9l-.2-.2c3.5-3.3,6.7-10.2,6.9-11.3.1-.6.2-1.2.2-1.9l3.1,1.2c.2,0,.4.2.4.5s-.4.5-1.2.7c-.4.7-.7,1.3-1.3,2.3h13.7l1.4-1.6c.2-.2.3-.4.5-.4s.3.1.6.3l2,1.7c.2.1.3.2.3.5s-.2.3-.5.3M328.5,16.4c-.1,0-.8.1-.9.2-.7,1.1-1.5,2.2-2.3,3.3.6.5,3.2,2.4,3.2,4.3,0,.6-.4,1.1-1,1.1,0,0,0,0,0,0-.8,0-1.1-.6-1.6-1.5-.6-.8-1.2-1.6-2-2.4-3.1,3.2-7.1,5.5-11.4,6.5v-.2c3.8-1.9,7.2-4.5,10-7.7-1.4-1.3-2.9-2.4-4.6-3.2v-.2c2,.4,3.9,1.1,5.7,2.1,2.2-3,2.3-4,2.3-4.9l2.8,1.7c.2,0,.3.3.3.5,0,.2-.2.4-.4.5,0,0,0,0,0,0M339.1,27.9c-1.9-.4-3.7-1.5-4.8-3.1-2.5-3.3-2.6-8.9-2.6-11.5h-12.2c-1.2,0-2.4,0-3.5.3l-.6-1.2c2.5.2,4.3.2,4.7.2h11.1l1.2-1.3c.2-.2.3-.3.5-.3s.3.2.4.2l1.5,1.2c.2.1.2.2.2.4,0,.4-.8.7-1.2.9,0,4.6.4,6.8,1.8,9.1,0,0,.8,1.2,1.5,1.2s.4,0,.6-.4c.8-1.1,1.4-2.3,2-3.6h.2c-.2,1.2-.5,3.9-.5,4.7,0,.4,0,.8.3,1.2.2.3.3.7.4,1,0,.5-.3.9-.8,1,0,0,0,0,0,0M333.7,9.6h-10.2c-1.2,0-2.4,0-3.5.3l-.6-1.2c1.9.2,3.8.2,4.7.2h6l1.2-1.5c.2-.2.3-.4.5-.4.2,0,.4.2.5.3l1.6,1.5c.2.2.3.3.3.5,0,.3-.2.3-.5.3"/>
      <path id="_パス_881" data-name="パス 881" class="cls-2" d="M349.6,20.8c1.9,1.2,2.7,1.6,3.3,1.6s1.5-.8,2.3-2.7c.9-2.1,1.4-4.4,1.5-6.7,0-1.9-.5-2.7-1.7-2.7-.9,0-1.9.3-2.8.6-1.4,3.7-3.1,7.3-5,10.8-1.2,2.1-1.8,2.7-2.4,2.7-.6,0-1-.6-1-1.1q0-.4,1.3-2.1c2.2-3,4-6.2,5.4-9.6-.4.2-.8.3-2.4,1-.6.3-1.3.5-2,.5-.6,0-1.2-.3-1.6-.8-.5-.5-.8-1-.9-1.7,0-.1,0-.2,0-.3.6.6,1.4,1,2.3,1,1.7-.2,3.4-.6,5-1.2.4-1,.6-2.1.6-3.2,0-1.2-.6-2.2-1.7-2.6.3-.2.6-.3.9-.2.8,0,1.6.3,2.2.7.4.3.7.7.7,1.2-.2,1.3-.6,2.6-1.1,3.8.8-.2,1.5-.3,2.3-.3,2.2,0,3.3,1.5,3.3,4.6,0,3.3-1,6.5-2.7,9.3-.7,1.1-1.8,1.8-3.1,2-.7,0-1.1-.4-1.1-1.4,0-.8-.4-1.3-1.9-2.7l.2-.3ZM360.8,9.5c.2,0,.3,0,.5,0,3.7,0,6.5,2.5,6.5,5.7s-1,3.2-2.1,3.2-.7-.2-1.1-.9c-.3-.3-.7-.6-1.1-.7-.6-.1-1.1-.2-1.7-.3v-.4c.8,0,1.1,0,1.4,0,.7,0,1.4,0,2-.3.3-.2.5-.5.5-1.1,0-1.4-.6-2.7-1.7-3.6-.9-.8-2-1.2-3.2-1.2v-.4ZM362.1,4.6c1.2.1,2.4.4,3.5,1,.9.3,1.5,1.1,1.6,2,0,.5-.3.9-.8.9-.4,0-.7-.2-1.2-.9-.8-1.2-1.9-2.2-3.3-2.8v-.3ZM364.3,2.1c3.2.2,5.3,1.1,5.3,2.5,0,.4-.3.8-.8.8-.3,0-.5-.2-1.1-.8-1-1.1-2.2-1.8-3.5-2.3v-.3Z"/>
      <path id="_パス_882" data-name="パス 882" class="cls-2" d="M378.9,9c-.1,0-.5.2-.8.2-1.7,2.4-3.9,4.5-6.5,6h-.1c2.1-2.8,3.7-4.8,4.4-7.2.1-.5.2-.9.2-1.4l2.8,1.5c.2,0,.3.2.3.4,0,.2-.1.4-.3.4M397,27.3c-4.9-.8-9-2.1-11-3.4-4.4,3-9.8,3.8-13.8,3.8v-.2c4.4-.8,8.6-2.4,12.4-4.7-1.3-1.1-2.3-2.5-3-4-2.4,2.4-5.2,4.3-8.3,5.6v-.2c3.8-2.5,8.3-7.6,8.9-9.9l2.5,1c.2,0,.3.2.3.4,0,.5-.9.6-1.2.7-.4.5-.5.5-.8.9h6.6l1.6-1.3c.4-.3.5-.4.7-.4.2,0,.4.1.5.2l1.4,1.2c.2.1.3.3.3.5,0,.3-.2.5-.4.5-.3,0-1.1.2-1.5.3-1.4,1.6-2.9,3-4.5,4.3,3.8,1.2,7.8,1.7,11.7,1.4v.2c-1,.6-1.8,1.6-2.2,2.7M397.8,5h-8.7c0,2,.1,5.1.1,7.1s-1.1,2.7-3.1,3.3c-.2-1.2-.9-2.2-2-2.8v-.2c.8,0,1.5,0,2.1,0s.6,0,.7-.2c0-.2,0-2.3,0-3.1v-4.2h-3.3c0,4.3-.8,7.5-4.7,10.4-1.7,1.3-3.7,2.2-5.9,2.6v-.2c8.4-4.2,8.4-9.7,8.4-12.8h-5.3c-1.2,0-2.4,0-3.6.3l-.6-1.2c2.1.2,4.2.2,4.7.2h7.3c0-1.4-.2-2.7-.7-4l3.2.8c.2,0,.5.2.5.5s-.2.4-.4.5c-.2.2-.3.3-.5.4,0,.3,0,.6,0,.9v.9h7.5l1.2-1.5c.2-.2.3-.4.5-.4.2,0,.4.2.6.3l1.9,1.6c.2.1.3.2.3.5s-.3.3-.5.3M382.2,18.1c0,0-.2.2-.3.3,1,1.4,2.3,2.7,3.8,3.6,1.4-1.1,2.7-2.4,3.6-3.9h-7.1ZM396.4,13.2c-.8,0-.9-.2-1.9-1.7-1.1-1.6-2.6-3.1-4.2-4.2v-.2c3.5.5,7.3,2.6,7.3,4.7,0,.6-.4,1.2-1,1.3,0,0-.1,0-.2,0"/>
      <path id="_パス_883" data-name="パス 883" class="cls-2" d="M413.9,25.5c2.4-.5,4.6-1.6,6.4-3.3,1.5-1.6,2.4-3.7,2.4-5.9,0-3.3-1.8-5.3-4.9-5.3-1.9.1-3.6.7-5.1,1.8-1.2.7-2.2,1.6-3.1,2.6,0,2.4.2,4,.5,7.5,0,.3,0,.6,0,1,0,1.5-.5,2.4-1.2,2.4s-.8-.3-.9-1.3c-.3-2-.7-4-1.4-5.9-.2.3-1.1,1.8-1.6,2.7-.4.7-.8,1-1.3,1-.6,0-1-.5-1-1.1,0-.5,0-.5,1.7-2.6.7-.8,1-1.2,1.5-1.9-.1-.4-1.1-3.5-1.4-4.3-.4-.1-.8-.4-1-.8-.2-.3-.3-.6-.3-.9,0-.4.2-.7.4-.7s.2,0,.6.3c.1,0,.3,0,.4,0,.8-.2,1.5-.5,2.2-1,.6-.3,1.2-.5,1.8-.8q0-.5.1-1.4c0-.4,0-1.1.2-2,0-1.1,0-1.5,0-1.9,0-1.1-.5-2.1-1.5-2.5.2,0,.4-.1.6-.1,1.3,0,3.2,1.5,3.2,2.5,0,.4-.2.8-.3,1.2-.4,1.3-.8,2.6-1,4,.8.1,1.3.7,1.4,1.5,0,.5,0,.6-.6,1.4,0,0-.5.7-1.3,2v.2c3.3-2.7,6.1-3.9,8.9-3.9,3.5-.2,6.4,2.4,6.6,5.9,0,.2,0,.4,0,.6,0,3.4-2,6.2-5.6,7.8-1.7.8-3.5,1.2-5.3,1.4v-.4ZM406.5,11.9c-1,.8-1.2.9-1.6,1,.8,2.2,1,2.8,1.4,3.8q.2-.4,1-1.4c.4-.5.7-1,1-1.5,0-.8,0-2.4.2-3.2-.7.4-1.4.8-2,1.3M407,18.5c.2.6.3.9.7,1.9.3,1,.5,1.3.8,2.2q0-.7,0-2.2c0-.6,0-1.5,0-2.8q0-.5,0-1c-.5.8-1.1,1.6-1.3,1.9"/>
      <path id="_パス_884" data-name="パス 884" class="cls-2" d="M436.8,11.6c3.7-4.7,4.5-5.9,4.6-6.5,0-.2-.2-.3-.5-.3-1.4.3-2.8,1-3.8,2-.8.7-1.2.9-1.6.9-.7-.1-1.4-.5-1.9-1.1-.3-.4-.5-.9-.5-1.4,0-.1,0-.3,0-.4.3.5.9.8,1.5.8.7,0,1.2-.2,3.5-1.1,1.9-.8,2.5-1,3.2-1,1,0,1.8.5,2.4,1.3.3.3.5.7.5,1.1,0,.4-.2.6-1.1,1.1-1,.7-1.9,1.5-2.6,2.4-1.9,1.9-3.6,4-5.2,6.2,1.6-1.3,3.6-2.1,5.7-2.1,3.8,0,6.4,2.4,6.4,5.8s-3.3,6.7-7.8,6.7-4.3-1.1-4.3-2.8,1.2-2.4,2.8-2.4c1.9,0,3.5,1.2,4,3,.8-.3,1.4-.8,1.9-1.5.7-1,1.1-2.2,1.1-3.4.2-2.4-1.6-4.4-4-4.6-.2,0-.3,0-.5,0-1.9,0-3.8.8-5.2,2.2-1,.8-1.8,2-2.2,3.2-.5,1.2-.8,1.6-1.4,1.6s-1-.5-1-1.4c0-.9.5-1.7,1.1-2.3l4.8-6.1ZM440.4,24.4q0-.1-.3-.8c-.2-.6-.6-1.1-1.2-1.4-.4-.2-.8-.3-1.3-.3-.9,0-1.5.5-1.5,1.2s1.1,1.6,2.8,1.6c.5,0,.9,0,1.4-.2,0,0,0,0,0,0"/>
    </g>
    <g id="_グループ_261" data-name="グループ 261">
      <path id="_パス_885" data-name="パス 885" class="cls-2" d="M40.3,83.3c-8-4.4-11.9-10.5-13.3-20.4-.7,6.5-3,17.3-16.6,21v-.3c5.2-2.5,9.5-6.9,11.8-12.4,1.2-3,1.9-6.1,2.2-9.2h-8.9c-1.5,0-2.9.1-4.4.3l-.7-1.4c2.9.2,5.5.2,5.7.2h8.4c.1-1.3.2-2.6.2-3.8,0-2.2-.2-4.4-.8-6.5l4.2,1.1c.3,0,.7.3.7.6s-.5.8-1.3,1.3c0,2.4-.1,4.7-.3,7.4h10.1l1.7-1.9c.2-.2.4-.4.6-.4.3,0,.5.2.7.4l2.5,1.9c.2.1.3.3.4.6,0,.4-.4.4-.6.4h-15c.6,2.7,1.5,5.3,2.8,7.8,2.7,5.5,7.3,8.5,14.1,10.3v.3c-1.7.4-3.2,1.4-4.2,2.9"/>
      <path id="_パス_886" data-name="パス 886" class="cls-2" d="M81.1,80.8c-1.7.3-3.2,1.2-4.2,2.6-4.5-2.8-7.6-7.4-9.5-12.4-1.3-3.3-2.5-7.8-2.7-16.8-.1,0-.2,0-.4,0-.4,12.6-2.8,24.3-16,29v-.3c4.2-2.8,7.6-6.7,9.9-11.3,2.7-5.5,3.2-13.3,3.2-17.5,0-.9,0-1.9-.3-2.8l4.5,1.1c.6.1.7.2.7.5,0,.6-.6.8-1,.9.3,6.4,2.2,14.2,5.7,19.1,2.5,3.5,6,6.1,10,7.4v.3Z"/>
      <path id="_パス_887" data-name="パス 887" class="cls-2" d="M117.1,81.5h-27.6c-1.5,0-2.9.1-4.4.3l-.7-1.5c2.5.2,5.1.3,5.7.3h7.9c0-6.9,0-23-.2-26.6,0-.9-.2-1.7-.5-2.5l4.1,1.2c.2,0,.6.2.6.6s0,.5-1.2,1.3c0,.9-.1,4.9-.1,5.8v3.5h7l1.6-2.1c.2-.3.4-.5.6-.5s.4.2.7.4l2.6,2.2c.2.1.4.3.4.6s-.3.4-.6.4h-12.2v9.3c0,.4,0,4.8,0,6.5h11.1l1.7-2.2c.3-.3.4-.4.6-.4.3,0,.5.2.7.4l2.5,2.2c.2.2.4.3.4.6,0,.3-.3.4-.6.4"/>
      <path id="_パス_888" data-name="パス 888" class="cls-2" d="M135.1,70.9c0,1.6.2,8.9.2,10.3s0,1.6-1.7,1.6-1.1-.4-1-2h-6.4c0,1.2,0,2.7-1.7,2.7s-1-.9-1-1.3,0-2,0-2.3c0-1.7.1-4,.1-6.6,0-4.3-.1-4.8-.3-6l3.2,1.8h5.7l.9-1c.2-.2.4-.4.6-.4.3,0,.5.2.7.4l1.4,1.1c.3.2.4.3.4.6s-.4.6-1.2,1.1M132.7,70.1h-6.5v9.9h6.5v-9.9ZM146.7,54.3c0,.5,0,1.1,0,1.9s.2,6,.2,6.9c0,.9-.8,1.7-1.7,1.7,0,0,0,0-.1,0-.9,0-1-.6-.9-1.7h-11.9c0,.7,0,1.9-1.7,1.9s-1.1-.7-1.1-1.1c0-.7,0-1.8.1-2.5,0-.9.1-3.3.1-5.5,0-1.7-.1-3.4-.4-5.1l3.3,1.7h11.1l.9-1c.2-.2.4-.4.7-.4.2,0,.4.1.8.4l1.4,1c.2.1.4.3.4.6,0,.3-.5.7-1.2,1.2M144.2,53.4h-11.9v8.8h11.9v-8.8ZM152.2,70.9v5.3c0,.2.2,5.6.2,5.8,0,.8-.5,1.6-1.3,1.7-.1,0-.3,0-.4,0-1.1,0-1.1-.7-1.1-2.7h-6.9c0,.7,0,1.5-.2,2.2-.3.5-.9.7-1.5.7-1.1,0-1.1-.7-1.1-1.1,0-1.6.3-8.4.3-9.8,0-3.7-.2-4.5-.5-5.5l3.4,1.8h6.1l.9-1c.3-.3.4-.4.7-.4.3,0,.6.2.8.4l1.4,1c.2.1.4.3.4.6,0,.3-.5.7-1.1,1.1M149.6,70.1h-6.9v10h6.9v-10Z"/>
      <path id="_パス_889" data-name="パス 889" class="cls-2" d="M160.4,57.4c.9.8,2.2,1.2,3.4,1.1,1.3,0,2.5-.2,3.8-.6.3-.8.4-1.7.4-2.5,0-1.1-.6-2.1-1.6-2.4.4-.2.9-.3,1.3-.3,1.6,0,2.8.7,2.8,1.6-.2,1-.5,2.1-.9,3.1.5-.1,1-.4,1.5-.6,1-.6,1.1-.6,1.6-.6.7,0,1.2.5,1.3,1.1,0,0,0,0,0,0,0,.6-.5,1-1.7,1.6-1.2.5-2.3.9-3.5,1.3-1.6,4.5-3.6,8.9-5.8,13.1-.7,1.3-1.3,1.8-2.1,1.8-.7,0-1.2-.6-1.2-1.3,0-.7.1-.8,1.6-2.9,2.3-3.2,4.2-6.7,5.6-10.5-.5,0-1,.1-1.5.1-2.3,0-3.7-.8-5.2-2.9l.3-.3ZM177.2,58.5c1.8,0,3.7.4,5.3,1.3,1.8,1,2.8,2.3,2.8,3.7,0,.6-.4,1.2-1,1.3,0,0,0,0-.1,0-.4,0-.8-.2-1-.4-.9-.7-1.9-1.1-3-1-2.1,0-2.9,1.1-2.9,3.8s.4,5.8.6,7.8c1.8.4,3.5,1.1,5.1,2.2.9.5,1.5,1.3,1.5,2.3,0,.8-.4,1.4-1.1,1.4s-.7-.1-1.7-1.3c-1-1.1-2.3-1.9-3.7-2.5,0,.3,0,.6,0,.9,0,2.9-2,4.5-5.4,4.5s-5.2-1.4-5.2-3.5,3.1-4.4,7.4-4.4c.3,0,.6,0,.9,0-.1-2.7-.1-3-.1-3.5,0-6.4,1.1-8.2,5.5-9.1.5-.1.6-.1.6-.3-.2-.4-.4-.8-.7-1-1.1-1-2.4-1.6-3.8-1.8v-.4ZM173.9,76.3c-3.3,0-5.5,1-5.5,2.6s1.2,1.9,3.3,1.9,4-1.1,4-3.7v-.6c-.6-.1-1.2-.2-1.8-.2"/>
      <path id="_パス_890" data-name="パス 890" class="cls-2" d="M190.3,78.1c3.2-2,6.3-4.3,9-6.8,2.8-2.7,5.4-5.7,7.6-8.9-2.3.6-5,1.4-6.7,2-.5.2-1.1.4-1.7.4-1.1,0-2.4-1.6-2.4-3,0-.2,0-.3,0-.5.9.7,1.9,1.1,3,1,2.1-.1,4.3-.5,6.3-1.1.6-.1,1.2-.4,1.7-.8.3-.3.4-.3.7-.3.6.1,1.2.4,1.7.8.8.6,1.2,1,1.2,1.5s-.1.5-1.1,1q-.4.2-2.2,2.3c-.3.3-.5.6-1.6,1.7,1,.6,1.4,1.2,1.4,2,0,.4,0,.8-.1,1.2,0,.7-.1,2.9-.1,4.5s0,2.7.1,4c0,.6,0,1.2,0,1.7,0,1.2-.4,1.8-1.1,1.8s-1-.5-1.4-1.5c-.2-.6-.4-1.3-.4-1.9q0-.3.3-1.2c.3-2.1.5-4.2.4-6.2,0-1.1,0-2.2-.3-3.3-2.2,2.3-4.6,4.3-7.2,6-2.2,1.5-4.6,2.8-7,3.9l-.3-.4ZM201.1,52.9h.7c2.8,0,4.7.6,5.8,1.8.4.4.7,1,.7,1.6,0,.7-.5,1.4-1.2,1.4,0,0,0,0-.1,0-.5,0-.9-.3-1.4-1-1.6-2.1-2.4-2.8-4.5-3.5v-.3ZM208.9,67.8c4.7.9,8.2,3.4,8.2,5.7,0,.8-.5,1.5-1.3,1.6,0,0,0,0,0,0-.6,0-1-.3-1.7-1.7-1.2-2.3-3.1-4.1-5.4-5.4l.2-.3Z"/>
      <path id="_パス_891" data-name="パス 891" class="cls-2" d="M223.4,74.3c4.1-3.2,7.8-7,10.9-11.2,2.8-3.8,4.4-6.8,4.4-8.1s-.4-1.1-1.2-1.6c.3-.2.8-.3,1.2-.3,1.4,0,3.4,1.6,3.4,2.7s0,.7-1.1,2.3c-1.2,1.9-2.6,3.7-4.1,5.4,1.1.5,1.7,1,1.9,1.5q.2.4.2,2c0,.5,0,1.5,0,3,0,1.3,0,2.1,0,3.2,0,1.6,0,4.7.2,6.3,0,.4,0,.8,0,1.1,0,1.1-.4,1.8-1.1,1.8s-1-.4-1.4-1.4c-.4-.9-.6-1.8-.6-2.8,0-.6,0-1.2.2-1.8.3-2.8.5-5.6.6-8.4,0-2.3-.1-2.9-.9-3.3-.2.2-.5.5-.7.7-2,2.2-4.2,4.2-6.6,6-1.5,1.2-3.1,2.2-4.8,3.1l-.3-.4Z"/>
      <path id="_パス_892" data-name="パス 892" class="cls-2" d="M255,57.8c.9,0,1.8.4,2.5,1,.5.3.9.9.9,1.5,0,.3,0,.4-.3,1-.4.8-.6,2.3-.8,8.2,3-1.5,5.8-3.5,8.4-5.7.6-.6.9-1,.9-1.4s-.2-.8-.8-1.3c.2-.1.5-.2.8-.2,1,.1,2,.6,2.7,1.3.7.6.9,1,.9,1.5,0,.5-.3.9-.7,1.1,0,0-1.6.8-1.8.9q-1.1.6-2.7,1.4c-2.4,1.3-5,2.4-7.6,3.3q0,1.7,0,2.5c0,1.1,0,2.2.3,3.3.3.8,1.4,1.1,3.8,1.1,2.1,0,4.2-.2,6.2-.8.3-.1.7-.2,1.1-.2.7,0,1.5.2,2.1.6.4.2.7.6.7,1.1,0,.8-.6,1.1-2.7,1.4-1.4.1-3.7.3-5.4.3-3.3,0-5.5-.4-6.7-1.2-1.1-.8-1.6-2.2-1.6-5.4s0-1.8,0-3.7c0-2.1,0-4.9,0-6.5,0-.9,0-1.8-.3-2.7-.2-.7-.8-1.2-1.5-1.4.4-.5,1-.8,1.6-.8M269.4,56.2c3.7.7,6,2.3,6,4,0,.6-.4,1.1-1,1.1-.5,0-.8-.3-1.5-1.3-.9-1.5-2.1-2.7-3.6-3.5l.2-.3ZM272.4,53.3c3.8.3,6.3,1.7,6.3,3.4,0,.6-.4,1.1-.9,1.1,0,0,0,0,0,0-.4,0-.6-.1-1.3-1.1-1.2-1.3-2.6-2.4-4.2-3.1l.2-.3Z"/>
      <path id="_パス_893" data-name="パス 893" class="cls-2" d="M285.8,67.1c.6,0,1.5,0,2.6,0q2.9-.1,11.7-.5c1.8,0,3.7-.2,5.5-.5.2,0,.4,0,.6,0,.8,0,1.6.3,2.3.7.5.3.8.7.8,1.3,0,.7-.6,1.1-1.5,1.1-.2,0-.5,0-.7,0-1.5-.1-3.1-.2-4.6-.2-3.4,0-11,.3-14.6.6-.9,0-1.9.1-2.8.4-.3.1-.7.2-1.1.2-1.1,0-2.4-1.7-2.4-3.1,0-.5.2-.9.5-1.3,1,1.1,1.6,1.4,3.9,1.4"/>
      <path id="_パス_894" data-name="パス 894" class="cls-2" d="M319.6,81.3c5.8-4,10.2-9.6,12.9-16,.9-2.1,1.6-4.2,2-6.4,0-.3-.1-.4-.4-.4-.1,0-.2,0-.4,0,0,0-.3,0-.7,0-1.9.1-6.4.8-9.2,1.3-.2,0-.5,0-.7,0-.6,0-1.2-.2-1.7-.5.1,1.2.2,1.9.3,3.1q.2,2.1.4,3.7c0,.3,0,.6,0,.8,0,1-.4,1.6-1,1.6s-2-1.8-2-3.1c0-.3,0-.6.1-1,0-.4.1-.9.1-1.3,0-1.4-.2-2.8-.6-4.1-.3-.8-.9-1.4-1.7-1.8.3-.2.6-.3.9-.3,1.1,0,2.2.5,3.1,1.2.3,0,.5,0,.8,0,1.3,0,6.1-.6,10.3-1.2.8,0,1.5-.2,2.1-.7.2-.2.4-.3.6-.3.5,0,1.1.4,2,1.3s1.3,1.4,1.3,1.9c0,.3-.1.5-.4.7-.4.3-.7.7-.8,1.1,0,0-.1.3-.2.5,0,.1-.2.5-.4,1.1-1.8,5-4.7,9.6-8.4,13.4-2.4,2.4-5.2,4.3-8.2,5.8l-.3-.4Z"/>
      <path id="_パス_895" data-name="パス 895" class="cls-2" d="M346.9,58.3c3.1.6,4.7,1.1,6.1,2.2,1.1.7,1.8,1.8,1.9,3.1,0,1-.6,1.8-1.4,1.8s-1-.3-1.6-1.3c-1.1-2.3-2.9-4.2-5.2-5.5v-.3ZM370,59.6c-2.8,5.5-6.7,10.4-11.5,14.3-1.9,1.6-3.9,3.1-6,4.4-.2.2-.5.3-.7.5-.4.4-1,.6-1.5.7-.8,0-1.7-.7-2.4-1.9-.5-.6-.7-1.3-.8-2.1,0-.3,0-.6.2-.9.6.9,1.5,1.4,2.6,1.6,1,0,2.8-.9,5.7-2.8,5.5-3.8,10.3-8.5,14.2-13.9l.4.2Z"/>
      <path id="_パス_896" data-name="パス 896" class="cls-2" d="M389.4,66.8c-2.4,1.4-5,2.5-7.6,3.3q0,1.8,0,2.5c0,1.1,0,2.2.3,3.3.4.8,1.4,1.1,3.8,1.1,2.1,0,4.3-.2,6.3-.8.3-.1.7-.2,1.1-.2.7,0,1.5.2,2.1.6.4.2.7.7.7,1.1,0,.8-.6,1.1-2.7,1.4-1.8.2-3.6.3-5.4.3-3.3,0-5.6-.4-6.7-1.2-1.2-.8-1.6-2.2-1.6-5.6s0-1.7,0-3.5c0-1.5,0-5,0-6.4,0-1,0-1.9-.3-2.8-.2-.7-.8-1.2-1.5-1.4.4-.5,1-.8,1.6-.8.9,0,1.8.4,2.6,1,.6.3.9.9.9,1.5,0,.3,0,.4-.3,1-.4.8-.6,2.6-.8,8.1,3-1.5,5.8-3.5,8.4-5.7.7-.7.9-1.1.9-1.5s-.2-.8-.8-1.3c.2-.1.5-.2.8-.2,1.4,0,3.6,1.7,3.6,2.8,0,.5-.3.9-.7,1,0,0-1.2.6-1.8.9l-2.7,1.4ZM402.3,56.7c0,2.2-1.8,4-4,4,0,0,0,0,0,0-2.2,0-4-1.8-3.9-4.1,0-2.2,1.8-3.9,3.9-3.9,2.2,0,4,1.8,4,4,0,0,0,0,0,0M395.5,56.7c0,1.6,1.3,2.8,2.8,2.8,1.6,0,2.8-1.3,2.8-2.8,0-1.6-1.3-2.8-2.8-2.8h0c-1.6,0-2.8,1.2-2.8,2.8,0,0,0,0,0,0"/>
      <path id="_パス_897" data-name="パス 897" class="cls-2" d="M410.9,67.1c.6,0,1.5,0,2.6,0q2.9-.1,11.7-.5c1.8,0,3.7-.2,5.5-.5.2,0,.4,0,.6,0,.8,0,1.6.3,2.3.7.5.3.8.7.8,1.3,0,.7-.6,1.1-1.5,1.1-.2,0-.5,0-.7,0-1.5-.1-3.1-.2-4.6-.2-3.4,0-11,.3-14.6.6-.9,0-1.9.1-2.8.4-.3.1-.7.2-1.1.2-1.1,0-2.4-1.7-2.4-3.1,0-.5.2-.9.5-1.3,1,1.1,1.6,1.4,3.9,1.4"/>
      <path id="_パス_898" data-name="パス 898" class="cls-2" d="M436.3,80.7c5.2-3.4,9.8-7.6,13.6-12.5,2.7-3.5,5.7-8.2,5.7-9.1s-.1-.3-.4-.3c-2.6.6-5.1,1.3-7.6,2.3-.8.4-1.7.7-2.6.7-1,0-1.8-.7-2.1-1.7-.2-.5-.4-1-.4-1.6,0-.2,0-.4,0-.6.8.7,1.8,1.1,2.8,1,2.4-.2,4.9-.5,7.2-1.1.9-.2,1.8-.5,2.5-1,.3-.2.6-.2.9-.3,1.1,0,3.3,1.9,3.3,2.9s-.1.7-.7,1.1q-.5.4-3.3,4.3c-.5.7-1,1.4-2.9,3.7,2.7,1.1,5.2,2.6,7.3,4.5,1.7,1.6,2.7,3.2,2.7,4.3,0,.9-.6,1.7-1.5,1.8-.3,0-.7-.2-.9-.4-.4-.5-.7-1.1-1-1.7-1.6-3.2-4.1-6-7.1-7.9-2.2,2.6-4.7,4.9-7.4,7-2.4,1.9-5,3.4-7.8,4.7l-.3-.4Z"/>
    </g>
  </g>
</svg>