<svg xmlns="http://www.w3.org/2000/svg" width="97.217" height="372" viewBox="0 0 97.217 372">
  <g id="グループ_305" data-name="グループ 305" transform="translate(0 0.186)">
    <g id="グループ_304" data-name="グループ 304" transform="translate(51.923 0)">
      <rect id="長方形_145" data-name="長方形 145" width="44" height="367" transform="translate(0.293 -0.185)" fill="#fff" opacity="0.9"/>
      <g id="グループ_301" data-name="グループ 301" transform="translate(10.219 11.617)">
        <path id="パス_1178" data-name="パス 1178" d="M58.387,15.76c-.176,0-1.008-.05-1.184-.05-.378.176-2.015,1.06-2.343,1.209l-.1-.1a7.959,7.959,0,0,0,.63-1.864H39.417c.151,1.688-.428,3.855-1.864,3.855a.985.985,0,0,1-1.008-1.031c0-.378.076-.506.932-1.513a5.161,5.161,0,0,0,1.26-3.072h.227a3.788,3.788,0,0,1,.4,1.159h15.9l1.033-.909a.858.858,0,0,1,.428-.25.616.616,0,0,1,.378.2l1.638,1.359a.816.816,0,0,1,.3.529c0,.376-.428.479-.655.479m.3-6.577H53.122c0,.43.076,2.371.076,2.771a1.047,1.047,0,0,1-1.134,1.135c-.731,0-.68-.554-.655-1.035H43.448c.025.606.025,1.339-1.134,1.339a.64.64,0,0,1-.705-.732c0-.126.1-1.384.1-1.585,0-.882.025-1.488.025-1.893H40.072a17.973,17.973,0,0,0-2.973.228l-.453-1.006c1.738.151,3.552.178,3.88.178H41.71a7.144,7.144,0,0,0-.479-2.9l2.393.657c.2.049.428.124.428.376,0,.151-.076.277-.655.554-.025.277,0,1.008,0,1.312h3.225a5.717,5.717,0,0,0-.479-2.924l2.419.63c.227.052.428.128.428.329s-.252.376-.68.653a7.918,7.918,0,0,0-.05,1.312h3.225a6.556,6.556,0,0,0-.4-2.924l2.293.606c.252.076.529.151.529.376,0,.176-.227.378-.756.705V8.583h2.67l.932-1.11c.151-.2.277-.328.4-.328.151,0,.3.178.453.3l1.209,1.083a.542.542,0,0,1,.252.376c0,.25-.2.275-.378.275M55.037,19.564c0,.731.076,4.209.076,4.99A2.606,2.606,0,0,1,54.1,26.97a3.122,3.122,0,0,1-1.688.705,3.221,3.221,0,0,0-1.839-2.44l-.025-.228a15.063,15.063,0,0,0,2.066.2c.857,0,.857-.1.857-1.285,0-.328-.076-4.135-.076-4.765H48.486c-.05,1.312.025,3.151.05,4.058.025.581.126,3.451.126,4.106,0,.4,0,1.335-1.159,1.335-.806,0-.806-.554-.806-.883,0-.653.151-3.826.176-4.558.025-.63.076-2.595.05-4.058H42.793c-.025,1.035.1,6.024.1,7.156a1.16,1.16,0,0,1-1.159,1.234c-.579,0-.781-.252-.781-.756,0-.2.025-.428.025-.527.1-1.585.151-3.829.151-5.292a10.924,10.924,0,0,0-.378-3.7l2.318,1.287H46.9a9.36,9.36,0,0,0-.453-3.126l2.343.655c.252.076.453.2.453.378,0,.2-.076.252-.68.707,0,.126-.05,1.184-.05,1.386h4.434l.63-.831c.126-.151.227-.277.353-.277a.744.744,0,0,1,.378.175l1.058.759c.2.149.378.3.378.45s-.277.4-.705.731M46.622,9.183H43.4l.05,2.272h3.174Zm1.638,0v2.272h3.2c.025-.759.025-1.54.025-2.272Z" transform="translate(-36.545 -5.659)" fill="#2e2e2e"/>
        <path id="パス_1179" data-name="パス 1179" d="M42.126,31.749a31.2,31.2,0,0,0-1.386,6.223,6.079,6.079,0,0,0,.176,1.359,4.464,4.464,0,0,1,.126.983c0,.554-.277.883-.756.883-.554,0-1.008-.554-1.386-1.688a15.371,15.371,0,0,1-.63-4.333,28.083,28.083,0,0,1,.4-3.932c.151-.781.151-.83.831-3.754a9.57,9.57,0,0,0,.328-2.19,4.241,4.241,0,0,0-.806-2.368,3.234,3.234,0,0,1,1.94,1.461,2.882,2.882,0,0,1,.655,1.737,5.26,5.26,0,0,1-.756,2.242,15.552,15.552,0,0,0-1.512,6.071c0,1.184.151,2.116.378,2.116.05,0,.126-.076.176-.252.277-.779,1.26-3.174,1.915-4.686ZM45.5,26.96a3.256,3.256,0,0,0,2.922,1.31,11.345,11.345,0,0,0,2.192-.252v-1.36c0-.353.025-.63.025-.831v-.5c0-.983-.05-1.056-.781-1.537a.7.7,0,0,1-.353-.453c0-.277.4-.453,1.033-.453,1.008,0,1.763.479,1.763,1.134a1.542,1.542,0,0,1-.1.531c-.05.225-.05.25-.1.5A6.6,6.6,0,0,0,53.487,26a1.709,1.709,0,0,0,.756.2c.831.1,1.108.354,1.108.932,0,.882-1.083,1.538-3.577,2.192a54.992,54.992,0,0,0,.479,6.753c2.469.754,4.333,2.167,4.333,3.3a.869.869,0,0,1-.806.956c-.353,0-.529-.124-1.083-.806A6.664,6.664,0,0,0,52.3,37.516c-.025,1.31-.126,1.663-.5,2.167a3.944,3.944,0,0,1-3.149,1.161c-2.116,0-3.653-1.009-3.653-2.4,0-1.638,1.814-2.719,4.61-2.719a8.853,8.853,0,0,1,1.134.076c-.1-3.327-.126-5.418-.126-6.25a9.807,9.807,0,0,1-1.335.1,4.026,4.026,0,0,1-4.031-2.57Zm2.973,9.775a4.974,4.974,0,0,0-2.141.479,1.263,1.263,0,0,0-.705,1.11c0,.831.857,1.335,2.242,1.335a2.83,2.83,0,0,0,2.519-1.009,2.547,2.547,0,0,0,.277-1.108c0-.1.025-.529.025-.529a7.7,7.7,0,0,0-2.217-.277m4.963-9.775c0-.049-.076-.151-.252-.3-.428-.4-.63-.6-1.184-1.208a12.957,12.957,0,0,0-.2,2.266c1.108-.328,1.638-.579,1.638-.756" transform="translate(-35.372 6.042)" fill="#2e2e2e"/>
        <path id="パス_1180" data-name="パス 1180" d="M41.592,39.351a1.631,1.631,0,0,1,1.814,1.46,3.188,3.188,0,0,1-.1.731,20.881,20.881,0,0,0-.126,2.721c0,.453,0,.453.076,2.822v.63c0,1.209-.227,1.688-.781,1.688a.842.842,0,0,1-.731-.527,3.739,3.739,0,0,1-.428-1.688,4.781,4.781,0,0,1,.151-1.135c.05-.453.151-2.066.151-2.973,0-2.115-.227-2.519-1.562-2.847a1.7,1.7,0,0,1,1.537-.88m-.126,18.868a17.466,17.466,0,0,0,5.416-7.808,33.938,33.938,0,0,0,1.587-9.978c0-1.157-.3-1.562-1.26-1.763a1.347,1.347,0,0,1,1.26-.731c1.159,0,2.192.783,2.192,1.612a1.742,1.742,0,0,1-.1.579,8.787,8.787,0,0,0-.2,1.234C49.8,47.059,49,50.134,47.336,52.93a15.165,15.165,0,0,1-5.668,5.541Z" transform="translate(-34.16 16.276)" fill="#2e2e2e"/>
        <path id="パス_1181" data-name="パス 1181" d="M46.064,63.132V61.6c-2.67.5-2.872.554-4.711,1.008a5.011,5.011,0,0,1-1.108.176c-1.134,0-1.814-.757-1.915-2.217a3.364,3.364,0,0,0,2.041.579,45.969,45.969,0,0,0,5.668-.63,22.181,22.181,0,0,0-.2-3.779c-.176-.554-.5-.806-1.285-1.033a1.571,1.571,0,0,1,1.209-.606,3.3,3.3,0,0,1,1.839.682.937.937,0,0,1,.328.705,1.841,1.841,0,0,1-.151.655,12.623,12.623,0,0,0-.378,3.2,23.148,23.148,0,0,0,4.535-.857,3.134,3.134,0,0,1,.781-.126,3.9,3.9,0,0,1,1.789.554,1.093,1.093,0,0,1,.63.932.571.571,0,0,1-.63.63,3.9,3.9,0,0,1-.63-.077,17.982,17.982,0,0,0-3.3-.225,27.043,27.043,0,0,0-3.2.225v.934c0,1.512.1,5.24.176,6.5.05.806.05,1.058.05,1.486,0,1.537-.5,2.544-1.285,2.544-.378,0-.579-.2-.831-.882a4.444,4.444,0,0,0-2.393-2.242l.126-.252a9.815,9.815,0,0,0,2.419.5c.227,0,.277-.126.327-.831.025-.5.076-2.469.1-3.829Zm-4.106.957c.025.428.025.63.025.806a9.95,9.95,0,0,1-1.008,4.081,2.176,2.176,0,0,1-1.764,1.411.9.9,0,0,1-.882-.983c0-.554.252-.907,1.008-1.512a5.806,5.806,0,0,0,2.343-3.8Zm7.684-.252c3.124,1.083,5.467,3.174,5.467,4.837,0,.731-.4,1.26-.957,1.26a.825.825,0,0,1-.579-.3,3.351,3.351,0,0,1-.554-1.083,10.087,10.087,0,0,0-3.527-4.484Zm1.285-9.75c2.444.63,3.88,1.636,3.88,2.746a.729.729,0,0,1-.68.756c-.353,0-.554-.176-1.033-.932a7.487,7.487,0,0,0-2.267-2.343ZM53.068,52.4c2.444.353,4.006,1.26,4.006,2.318a.691.691,0,0,1-.63.756c-.277,0-.428-.1-.932-.781a7.918,7.918,0,0,0-2.544-2.066Z" transform="translate(-35.332 26.103)" fill="#2e2e2e"/>
        <path id="パス_1182" data-name="パス 1182" d="M39.271,69.065a9.376,9.376,0,0,1,4.182,1.512,2.78,2.78,0,0,1,1.285,2.116c0,.705-.4,1.208-.957,1.208-.4,0-.68-.225-1.058-.882A8.519,8.519,0,0,0,39.17,69.29Zm15.771.882a30.143,30.143,0,0,1-7.86,9.773,35.888,35.888,0,0,1-4.106,3,5.052,5.052,0,0,1-.479.329,1.774,1.774,0,0,1-1.033.452c-.529,0-1.134-.479-1.663-1.31a2.74,2.74,0,0,1-.554-1.434,1.392,1.392,0,0,1,.151-.63,2.645,2.645,0,0,0,1.763,1.082c.68,0,1.94-.63,3.855-1.915a38.066,38.066,0,0,0,9.674-9.5Z" transform="translate(-34.761 37.427)" fill="#2e2e2e"/>
        <path id="パス_1183" data-name="パス 1183" d="M40.192,96.4a16.186,16.186,0,0,1-3.475,5.87l-.126-.076a20.938,20.938,0,0,0,1.839-6.6,2.087,2.087,0,0,0-.076-.653l2.039.6c.151.052.376.151.376.329,0,.2-.3.376-.578.527m5.114-1.911c-.682,0-.831-.5-1.008-1.209a9.25,9.25,0,0,0-.3-.883l-1.208.254v4.686c0,.227.1,5.238.1,5.364a1.134,1.134,0,0,1-1.233,1.335c-.5,0-.554-.376-.554-.655s.05-1.485.05-1.738c.05-2.041.05-2.847.126-8.666l-3,.606c-.252.4-.453.653-.682.653-.151,0-.328-.151-.4-.452l-.506-2.067a19.186,19.186,0,0,0,3.7.3A41.11,41.11,0,0,0,43.188,85.7c.027-.1.153-.88.176-1.031l1.99,1.134c.277.151.4.277.4.479,0,.227-.329.353-.907.452-.353.455-1.942,2.723-2.066,2.9-.3.38-1.585,2.042-1.837,2.368.453,0,2.44-.1,2.869-.1a14.822,14.822,0,0,0-.83-1.562l.024-.1c2.546,1.035,3.277,2.318,3.277,3.1a1.074,1.074,0,0,1-.983,1.161M42.787,83.358a23.48,23.48,0,0,1-2.617,3.372c.277.2,1.157.857,1.157,1.638a1.062,1.062,0,0,1-.981,1.085c-.252,0-.657-.076-1.135-1.009-.806-1.564-1.058-2.089-1.812-2.618l.049-.149a7.475,7.475,0,0,1,2.393.83,17.937,17.937,0,0,0,1.285-4.358c0-.049-.049-.655-.049-.731l2.289.932c.227.1.4.228.4.428,0,.252-.2.43-.983.581m2.948,16.071c-.8,0-1.008-.732-1.209-1.614a6.215,6.215,0,0,0-1.008-2.4l.076-.076c1.159.38,3.1,1.564,3.1,3a.991.991,0,0,1-.959,1.085m13.2-12.523H52.713c0,1.564,0,2.848.025,4.211h2.244l.957-1.035c.2-.227.326-.3.427-.3a.739.739,0,0,1,.479.252l1.234,1.058a.6.6,0,0,1,.252.378c0,.175-.176.249-.4.249H50.294a16.809,16.809,0,0,0-2.971.228l-.5-.981c1.386.1,2.744.153,4.258.153,0-1.74-.025-4.135-.025-4.211H49.614a15.531,15.531,0,0,0-2.971.227l-.479-1.006c1.713.153,3.5.178,3.853.178h1.035c-.076-3.352-.153-3.577-.581-5.091l2.721.606c.2.05.4.149.4.4,0,.227-.328.452-.858.8-.025.254-.025,2.192-.025,3.277h3.1l.957-1.058c.2-.2.3-.329.428-.329.151,0,.3.128.5.277l1.36,1.058a.563.563,0,0,1,.25.378c0,.173-.2.275-.378.275m-2.165,9.019c0,.6-.025,1.26,0,2.269,0,.653.175,4.206.175,4.229a1.1,1.1,0,0,1-1.181,1.184c-.731,0-.731-.5-.731-.729,0-.178.025-.959.025-1.108H49.386c.025.68.1,1.762-1.056,1.762-.754,0-.754-.527-.754-.705,0-1.033.126-5.516.126-6.448a12.051,12.051,0,0,0-.277-2.694l2.264,1.135h5.067l.655-.732c.151-.153.277-.252.4-.252.1,0,.227.076.428.227l.981.757a.533.533,0,0,1,.254.375c0,.225-.228.4-.705.731m-1.711-.506h-5.7v5.747h5.7Z" transform="translate(-36.514 45.683)" fill="#2e2e2e"/>
        <path id="パス_1184" data-name="パス 1184" d="M39.363,101.311a2.085,2.085,0,0,0,1.562.682c.6,0,.731-.027,3.275-.831a4.084,4.084,0,0,1,1.36-.328,1.1,1.1,0,0,1,1.159.957.7.7,0,0,1-.252.5c-.126.128-.277.2-.831.378a4.24,4.24,0,0,0-2.167,1.412,13.057,13.057,0,0,0-3.754,8.514c0,3,1.814,4.864,4.736,4.864,2.645,0,4.56-1.513,5.618-4.436a20.135,20.135,0,0,0,.882-6.7c0-.657-.05-1.639-.126-2.316a7.978,7.978,0,0,0-.453-2.093,3.556,3.556,0,0,1-.2-1.056.832.832,0,0,1,.806-.885.9.9,0,0,1,.831.63,4.779,4.779,0,0,1,.2,1.488c.151,2.165,1.562,4.483,4.661,7.682.5.532.655.81.655,1.236a.868.868,0,0,1-.882.907c-.5,0-1.033-.455-1.889-1.639a23.637,23.637,0,0,1-3.124-5.944l-.05.025a25.686,25.686,0,0,1,.277,4.132c0,3.93-.554,6.322-1.889,8.01a6.687,6.687,0,0,1-5.416,2.573,5.731,5.731,0,0,1-6.1-5.9,13.584,13.584,0,0,1,5.416-10.128l-.05-.052a7.563,7.563,0,0,1-1.915.277,2.716,2.716,0,0,1-2.57-1.836Zm13.428-2.419a7.223,7.223,0,0,1,2.67,1.234,2.34,2.34,0,0,1,1.134,1.641.754.754,0,0,1-.705.828c-.3,0-.529-.2-.831-.679a8.106,8.106,0,0,0-2.368-2.823Zm1.965-1.688c2.469.457,4.006,1.386,4.006,2.471a.716.716,0,0,1-.63.781c-.227,0-.428-.151-.781-.63a7.383,7.383,0,0,0-2.7-2.393Z" transform="translate(-35.383 56.549)" fill="#2e2e2e"/>
        <path id="パス_1185" data-name="パス 1185" d="M42.307,122.642a31.888,31.888,0,0,0-1.26,6.048,4.793,4.793,0,0,0,.2,1.386,2.608,2.608,0,0,1,.151.781.718.718,0,0,1-.707.756c-.427,0-.831-.328-1.159-.907a11.545,11.545,0,0,1-1.234-5.568,25.354,25.354,0,0,1,1.083-6.752,9.3,9.3,0,0,0,.453-2.494,4,4,0,0,0-.554-2.068h.077c.326,0,.855.428,1.334,1.085a4.143,4.143,0,0,1,.882,2.192c0,.5-.126.831-.855,2.293a11.544,11.544,0,0,0-1.386,5.213c0,1.26.351,2.848.6,2.848.151,0,.275-.3.957-2.141.3-.783.328-.882.781-1.967.2-.5.2-.5.353-.83Zm3.149,4.484a3.7,3.7,0,0,0,3.727,1.942,18.842,18.842,0,0,0,3.426-.428,3.6,3.6,0,0,1,1.184-.2c.833,0,1.486.453,1.486,1.033a1.012,1.012,0,0,1-.781.957,12.149,12.149,0,0,1-3.325.378c-3.451,0-5.114-1.008-5.946-3.554Zm.376-11.108a3.99,3.99,0,0,0,2.017.453,12.881,12.881,0,0,0,3.727-.63,2.362,2.362,0,0,1,.907-.2c.883,0,1.463.4,1.463,1.058,0,.38-.3.682-.808.858a11.323,11.323,0,0,1-3.2.4,5.909,5.909,0,0,1-4.281-1.737Z" transform="translate(-35.352 67.842)" fill="#2e2e2e"/>
        <path id="パス_1186" data-name="パス 1186" d="M39.953,147.278a25.564,25.564,0,0,0,4.434-6.323,19.82,19.82,0,0,0,2.041-6.122c0-.5-.227-.806-.907-1.184a1.577,1.577,0,0,1,1.008-.378,2.926,2.926,0,0,1,1.94.883,23.829,23.829,0,0,0,3.527-2.848,1.25,1.25,0,0,0,.5-.857c0-.2-.227-.351-.554-.351a78.393,78.393,0,0,0-8.893,1.636,7.939,7.939,0,0,1-2.066.4,2.4,2.4,0,0,1-1.638-.68,3.077,3.077,0,0,1-1.033-1.587,11.857,11.857,0,0,0,3.2.378,53.312,53.312,0,0,0,7.684-.779,9.356,9.356,0,0,0,2.494-.531,1.465,1.465,0,0,1,.731-.2,3.183,3.183,0,0,1,1.713.907c.731.6,1.108,1.109,1.108,1.486a.753.753,0,0,1-.252.529,2.414,2.414,0,0,1-.882.353,7.44,7.44,0,0,0-1.411.606,41.479,41.479,0,0,1-4.081,2.115,26.608,26.608,0,0,1-3.048,7,19.39,19.39,0,0,1-5.391,5.769Z" transform="translate(-35.342 77.975)" fill="#2e2e2e"/>
        <path id="パス_1187" data-name="パス 1187" d="M55.909,146.229a27.265,27.265,0,0,1-5.9,5.744,38.417,38.417,0,0,1-7.155,4.284,4.032,4.032,0,0,0-.705.428.8.8,0,0,1-.479.175c-.328,0-.6-.2-1.008-.705a2.517,2.517,0,0,1-.554-1.233.92.92,0,0,1,.126-.479,3.276,3.276,0,0,0,.151-1.009c.025-.655.076-4.231.076-5.265,0-2.57-.126-2.872-1.386-3.275a1.478,1.478,0,0,1,1.285-.6c1.083,0,2.293.88,2.293,1.688a1.3,1.3,0,0,1-.151.554,5.233,5.233,0,0,0-.3,1.738c-.151,1.688-.252,4.256-.252,5.566,0,.076,0,.3.025.63a33.1,33.1,0,0,0,7.13-3.426,37.2,37.2,0,0,0,6.55-5.013Z" transform="translate(-34.822 88.545)" fill="#2e2e2e"/>
        <path id="パス_1188" data-name="パス 1188" d="M39.271,156.922a9.376,9.376,0,0,1,4.182,1.512,2.78,2.78,0,0,1,1.285,2.116c0,.705-.4,1.208-.957,1.208-.4,0-.68-.225-1.058-.882a8.519,8.519,0,0,0-3.552-3.729Zm15.771.882a30.144,30.144,0,0,1-7.86,9.773,35.89,35.89,0,0,1-4.106,3,5.053,5.053,0,0,1-.479.329,1.774,1.774,0,0,1-1.033.452c-.529,0-1.134-.479-1.663-1.31a2.74,2.74,0,0,1-.554-1.434,1.392,1.392,0,0,1,.151-.63,2.645,2.645,0,0,0,1.763,1.082c.68,0,1.94-.63,3.855-1.915a38.066,38.066,0,0,0,9.674-9.5Z" transform="translate(-34.761 97.128)" fill="#2e2e2e"/>
        <path id="パス_1189" data-name="パス 1189" d="M38.212,177.062c3.426.153,5.442,1.135,5.442,2.672a.927.927,0,0,1-.882.956c-.327,0-.556-.151-.957-.6a9.877,9.877,0,0,0-3.68-2.773Zm17.408-2.041a34.6,34.6,0,0,1-10.833,11.765c-2.622,1.738-2.622,1.738-3,1.738a3.006,3.006,0,0,1-2.217-2.417.973.973,0,0,1,.225-.68,2.06,2.06,0,0,0,1.538.957c.907,0,3.779-1.738,6.5-3.9a52.347,52.347,0,0,0,5.064-4.686c.756-.808,1.161-1.312,2.445-2.924Zm-14.664-2.444c.328-.023.6-.023.781-.023a8.159,8.159,0,0,1,4.033.93,1.823,1.823,0,0,1,.8,1.438.917.917,0,0,1-.882.983c-.3,0-.477-.128-1.056-.705a8.537,8.537,0,0,0-3.754-2.368Zm9.651-2.492a9,9,0,0,1,2.67,1.058c.806.527,1.234,1.108,1.234,1.663a.755.755,0,0,1-.707.83c-.326,0-.5-.175-.981-.907a7.543,7.543,0,0,0-2.343-2.442ZM52.7,168.32c2.519.353,4.13,1.286,4.13,2.368a.7.7,0,0,1-.63.781c-.277,0-.453-.124-.932-.781a7.484,7.484,0,0,0-2.67-2.14Z" transform="translate(-35.465 104.873)" fill="#2e2e2e"/>
        <path id="パス_1190" data-name="パス 1190" d="M54.674,197.371a14.333,14.333,0,0,1-3.074,3.9,9.458,9.458,0,0,1-6.374,2.519,5.2,5.2,0,0,1-3.048-.882c-1.159-.882-1.663-2.393-1.663-5.039,0-1.461.1-3.779.227-5.542.227-2.948.227-2.948.353-4.787.05-.806.076-1.335.076-1.915,0-.882-.328-1.31-1.386-1.713a1.049,1.049,0,0,1,.781-.252c1.461,0,2.8.934,2.8,1.94a3.455,3.455,0,0,1-.176.983c-.252.932-.655,3.653-.907,5.82a50.047,50.047,0,0,0-.378,5.744c0,3.048.882,4.157,3.325,4.157,3.325,0,6.827-1.963,9.2-5.165Z" transform="translate(-34.343 115.301)" fill="#2e2e2e"/>
        <path id="パス_1191" data-name="パス 1191" d="M49.4,201.683a49.077,49.077,0,0,0-7.382,3.225,3.972,3.972,0,0,1-2.091.729,2.246,2.246,0,0,1-1.713-.83,2.839,2.839,0,0,1-.705-1.36,2.7,2.7,0,0,0,1.486.453c.831,0,.983-.05,5.517-1.638,1.587-.554,3.023-1.008,5.542-1.738,1.209-.353,1.234-.353,1.864-.579a4.047,4.047,0,0,1,1.688-.378c1.335,0,2.318.5,2.318,1.184,0,.5-.353.756-1.083.756a8.321,8.321,0,0,1-1.008-.076,3.818,3.818,0,0,0-.781-.05,6.909,6.909,0,0,0-4.283,1.637c-.655.529-.705.655-.882,2.066-.076.705-.076.705-.479,3.2a27.3,27.3,0,0,0-.277,3.477c0,2.847.932,3.98,3.275,3.98a5.227,5.227,0,0,0,1.184-.126,3.787,3.787,0,0,1,.5-.05c.882,0,1.663.554,1.663,1.159s-.781.907-2.444.907a6.95,6.95,0,0,1-3.351-.831c-1.612-.907-2.444-2.721-2.444-5.341a18.953,18.953,0,0,1,1.26-6.475,6.2,6.2,0,0,1,2.67-3.225Z" transform="translate(-35.893 126.106)" fill="#2e2e2e"/>
      </g>
    </g>
    <g id="グループ_303" data-name="グループ 303" transform="translate(0 36.539)">
      <rect id="長方形_146" data-name="長方形 146" width="42.112" height="292.78" fill="#fff" opacity="0.9"/>
      <g id="グループ_302" data-name="グループ 302" transform="translate(10.077 10.077)">
        <path id="パス_1192" data-name="パス 1192" d="M5.673,21.13a21.707,21.707,0,0,0,5.72-5.368,5.228,5.228,0,0,0,1.26-2.543,1.533,1.533,0,0,0-.707-1.236,1.211,1.211,0,0,1,.68-.225A2.52,2.52,0,0,1,14.868,13.8c0,.427-.175.756-.8,1.562a14.351,14.351,0,0,1-3.05,3,21.688,21.688,0,0,1-5.165,3.05Zm12.974-9.5c3.779,1.334,7.533,4.787,7.533,6.953a1.175,1.175,0,0,1-1.108,1.308c-.4,0-.653-.225-.93-.855a14.79,14.79,0,0,0-5.668-7.13ZM21.67,8.155c2.595.553,4.081,1.537,4.081,2.7a.756.756,0,0,1-.7.781c-.329,0-.556-.176-1.009-.882A7.144,7.144,0,0,0,21.57,8.382ZM23.686,6.14c2.622.25,4.308,1.157,4.308,2.293a.692.692,0,0,1-.655.754c-.252,0-.378-.1-.907-.729A8.084,8.084,0,0,0,23.61,6.367Z" transform="translate(-5.673 -6.14)" fill="#2e2e2e"/>
        <path id="パス_1193" data-name="パス 1193" d="M10.6,22.31c2.141.932,3.275,2.091,3.275,3.351a.915.915,0,0,1-.857.983c-.4,0-.6-.227-.806-.857a8.036,8.036,0,0,0-1.789-3.3Zm1.99,12.6a26.385,26.385,0,0,0,7.054-7.759c1.26-2.089,2.192-4.056,2.192-4.736,0-.428-.227-.655-1.033-1.008a1.211,1.211,0,0,1,.831-.252c.907,0,2.192,1.083,2.192,1.864,0,.227-.025.277-.328.68-.151.2-.2.3-.4.6a31.366,31.366,0,0,1-4.711,6.575,19.729,19.729,0,0,1-5.618,4.283Zm2.041-14.083a6.5,6.5,0,0,1,2.67,1.688,2.278,2.278,0,0,1,.68,1.512.949.949,0,0,1-.857.983c-.378,0-.579-.2-.756-.781a7.733,7.733,0,0,0-1.913-3.2Z" transform="translate(-2.442 3.838)" fill="#2e2e2e"/>
        <path id="パス_1194" data-name="パス 1194" d="M7.443,44.8a28.591,28.591,0,0,0,5.668-6.4,7.893,7.893,0,0,0,1.512-3.2c0-.5-.252-.831-.882-1.157a1.084,1.084,0,0,1,.907-.38,2.716,2.716,0,0,1,1.864.858c.329.326.428.5.428.8,0,.151-.05.254-.225.5-.052.076-.052.076-.329.5-.2.328-.353.554-.653,1.009a4.737,4.737,0,0,0,.7.074,15.669,15.669,0,0,0,2.723-.479,2.634,2.634,0,0,0,1.208-.479,1.145,1.145,0,0,1,.655-.227,3.5,3.5,0,0,1,1.765.983,1.012,1.012,0,0,1,.4.808c0,.25-.151.477-.527.705-.277.175-.277.175-1.26,1.711a34.167,34.167,0,0,1-7.558,8.666A29.3,29.3,0,0,1,7.8,52.761l-.176-.277a34.313,34.313,0,0,0,9.044-8.062,34.112,34.112,0,0,0,3.6-5.541,3.805,3.805,0,0,0,.4-.907c0-.1-.1-.151-.25-.151a23.907,23.907,0,0,0-3.277.63,2.509,2.509,0,0,1-.554.076,2.208,2.208,0,0,1-1.31-.5,24.988,24.988,0,0,1-7.633,7.027Z" transform="translate(-4.47 12.564)" fill="#2e2e2e"/>
        <path id="パス_1195" data-name="パス 1195" d="M6.453,65.584A37.029,37.029,0,0,0,15.7,57.069c1.839-2.393,3.878-5.618,3.878-6.172,0-.151-.1-.2-.3-.2a35.873,35.873,0,0,0-5.165,1.562,5.1,5.1,0,0,1-1.764.5,1.706,1.706,0,0,1-1.461-1.134,2.7,2.7,0,0,1-.279-1.083,1.514,1.514,0,0,1,.05-.4,2.665,2.665,0,0,0,1.938.705,27.984,27.984,0,0,0,4.939-.781,4.843,4.843,0,0,0,1.74-.655,1.3,1.3,0,0,1,.6-.176c.781,0,2.269,1.31,2.269,1.99,0,.3-.1.453-.506.731-.326.252-.326.252-2.269,2.922-.351.5-.679.932-1.987,2.544a16.979,16.979,0,0,1,4.985,3.048,4.8,4.8,0,0,1,1.841,2.948,1.142,1.142,0,0,1-1.033,1.234.837.837,0,0,1-.6-.277,5.758,5.758,0,0,1-.682-1.134,13.459,13.459,0,0,0-4.862-5.39,34.339,34.339,0,0,1-5.065,4.785,27.581,27.581,0,0,1-5.316,3.2Z" transform="translate(-5.143 23.143)" fill="#2e2e2e"/>
        <path id="パス_1196" data-name="パス 1196" d="M7.412,73.466a30.456,30.456,0,0,0,5.7-6.4c1.182-1.787,1.711-2.845,1.711-3.45,0-.428-.227-.756-.806-1.134a1.691,1.691,0,0,1,.806-.227c1.033,0,2.217.806,2.217,1.537a.882.882,0,0,1-.227.553c-.076.1-.151.254-.252.4-.277.453-.328.5-.5.779a3.3,3.3,0,0,0,.63.076,23.154,23.154,0,0,0,3.273-.428,3.019,3.019,0,0,0,1.033-.4c.3-.176.353-.2.5-.2a2.919,2.919,0,0,1,1.562,1.008c.378.378.48.6.48.855,0,.277-.153.455-.531.705-.376.228-.428.3-.806.883-1.033,1.612-1.713,2.57-3.3,4.686,1.411,1.31,2.041,2.266,2.041,3.1a.939.939,0,0,1-.857,1.008c-.353,0-.6-.228-.932-.831a10.218,10.218,0,0,0-1.335-2.041,33.887,33.887,0,0,1-5.013,4.51,32.211,32.211,0,0,1-5.769,3.275l-.176-.277a37.432,37.432,0,0,0,9.976-8.643,11.727,11.727,0,0,0-3.021-2.467l.124-.252a12.657,12.657,0,0,1,3.729,1.688,38.332,38.332,0,0,0,2.847-4.36,3.52,3.52,0,0,0,.479-1.031c0-.126-.1-.2-.277-.2a25.475,25.475,0,0,0-3.3.5,3.165,3.165,0,0,1-.63.1,1.676,1.676,0,0,1-1.184-.63,25.216,25.216,0,0,1-7.986,7.585Z" transform="translate(-4.868 31.991)" fill="#2e2e2e"/>
        <path id="パス_1197" data-name="パス 1197" d="M7.338,90.951a40.065,40.065,0,0,0,7.407-7.633c1.915-2.595,3.023-4.61,3.023-5.49,0-.43-.252-.757-.831-1.11a1.355,1.355,0,0,1,.8-.227c.983,0,2.345,1.083,2.345,1.864,0,.378-.05.5-.781,1.562a35.365,35.365,0,0,1-2.771,3.653c.731.353,1.132.655,1.285,1.033.124.252.124.252.124,1.386,0,.328,0,1.033-.024,2.015-.025.883-.025,1.461-.025,2.167,0,1.083.049,3.174.124,4.308.027.3.027.579.027.781,0,.756-.3,1.234-.781,1.234-.4,0-.705-.277-.983-.932a5.094,5.094,0,0,1-.4-1.889A6.752,6.752,0,0,1,16,92.462a56.329,56.329,0,0,0,.378-5.744c0-1.562-.1-1.963-.606-2.24a5.984,5.984,0,0,0-.452.477,32.042,32.042,0,0,1-4.484,4.106A25.854,25.854,0,0,1,7.54,91.2Z" transform="translate(-4.542 41.664)" fill="#2e2e2e"/>
        <path id="パス_1198" data-name="パス 1198" d="M5.958,107.714A20.112,20.112,0,0,0,11.7,99.928a10.628,10.628,0,0,0,.932-3.3c0-.579-.3-.983-1.083-1.436a1.31,1.31,0,0,1,.983-.38,2.683,2.683,0,0,1,1.764.833,1.537,1.537,0,0,1,.479,1.108A6.323,6.323,0,0,1,14.1,98.8a19.217,19.217,0,0,1-4.157,6.223,16.936,16.936,0,0,1-3.779,2.948Zm21.968-12.8a26.6,26.6,0,0,1-8.265,9.372,3.1,3.1,0,0,0-.6.554.7.7,0,0,1-.531.277c-.326,0-.705-.353-1.082-.957a1.729,1.729,0,0,1-.353-.883c0-.074,0-.074.126-.4.1-.277.2-3.3.2-6.2,0-2.343-.124-2.67-1.26-3.149a1.417,1.417,0,0,1,1.211-.554c1.006,0,2.091.831,2.091,1.587a1.225,1.225,0,0,1-.153.554,4.779,4.779,0,0,0-.326,1.585c-.178,1.942-.277,4.36-.277,5.972a26.7,26.7,0,0,0,8.969-7.961Z" transform="translate(-5.479 52.867)" fill="#2e2e2e"/>
        <path id="パス_1199" data-name="パス 1199" d="M9.124,108.892a5.7,5.7,0,0,0,3.73,2.141,24.2,24.2,0,0,0,.428-3.527,1.747,1.747,0,0,0-1.161-1.738.718.718,0,0,1,.531-.178c1.31,0,2.8,1.009,2.8,1.916,0,.277-.027.353-.428,1.033a12.681,12.681,0,0,0-.957,2.7c.779.176,1.26.6,1.26,1.109a.679.679,0,0,1-.353.653c-.2.128-.2.128-.831.254a2.322,2.322,0,0,0-.606.175c-.754,3.277-.754,3.277-1.082,4.99.452.076.554.1,1.335.176,1.006.1,1.386.353,1.386.907,0,.5-.606.855-1.537.855a4.362,4.362,0,0,1-1.438-.225,12.218,12.218,0,0,0-.124,1.762c0,2.294,1.083,3.478,3.2,3.478a3.666,3.666,0,0,0,3.779-3.98,6.867,6.867,0,0,0-1.711-4.434,7.407,7.407,0,0,0-2.067-1.789l.178-.279a10.019,10.019,0,0,1,3.451,2.345,6.33,6.33,0,0,1,2.015,4.409,5.028,5.028,0,0,1-5.341,4.913,4.194,4.194,0,0,1-3.955-2.192,6.347,6.347,0,0,1-.453-2.519,13.636,13.636,0,0,1,.151-1.99C9.754,119.145,9,118.213,9,116.979c0-1.436,1.083-2.8,3.5-4.409a6.158,6.158,0,0,1-3.6-3.527Zm.506,7.709c0,.781.554,1.26,1.889,1.638.151-.857.4-2.343.8-4.484-1.814.93-2.694,1.837-2.694,2.847" transform="translate(-3.482 61.439)" fill="#2e2e2e"/>
        <path id="パス_1200" data-name="パス 1200" d="M27.827,124.192H23.343c0,1.335,0,16.93-.025,17.257-.151,1.436-1.638,2.116-2.8,2.343-.126-.806-.227-1.36-3.25-2.9v-.153c.328.052,2.368.228,3,.228.655,0,1.108,0,1.209-.4.076-.328.076-5.341.076-6.147,0-1.638-.076-8.767-.025-10.228H9.21a17.878,17.878,0,0,0-2.973.227l-.5-1.008c1.764.151,3.653.175,3.88.175H24.426l1.159-1.334c.126-.151.277-.327.4-.327s.277.124.453.277l1.537,1.335c.126.124.252.227.252.378,0,.252-.227.277-.4.277M16.767,129.1c0,.731.025,3.074.025,3.829,0,.554.076,3,.076,3.5,0,1.285-.907,1.335-1.184,1.335-.756,0-.731-.63-.731-1.438h-3.7c.05,1.362.126,2.4-1.209,2.4a.712.712,0,0,1-.806-.781c0-.2.076-1.159.076-1.36.076-2.62.076-4.56.076-6.7a9,9,0,0,0-.378-3.273l2.343,1.26H14.8l.68-.655c.2-.2.328-.3.428-.3s.176.025.428.227l1.008.806c.2.176.3.252.3.428,0,.227-.4.453-.882.731m-1.814-.63h-3.7v7.256h3.7Z" transform="translate(-5.632 72.539)" fill="#2e2e2e"/>
        <path id="パス_1201" data-name="パス 1201" d="M24.8,144.258l.63-.579c.2-.176.353-.327.554-.327a1.063,1.063,0,0,1,.479.277l1.386,1.13a.776.776,0,0,1,.328.5c0,.38-.4.581-1.789.506a18.309,18.309,0,0,1-1.864,1.26l-.2-.126a15.053,15.053,0,0,0,.529-2.041H8.676c-.025.63-.126,3.349-1.965,3.349a.9.9,0,0,1-1.008-.956,1.341,1.341,0,0,1,.579-.983,6.792,6.792,0,0,0,2.141-2.719l.2.05a3.234,3.234,0,0,1,.05.657h3.5c-.428-.228-.453-.38-.6-1.286a8.55,8.55,0,0,0-.479-1.691,29.686,29.686,0,0,1-3.577-.1v-.176c5.29-.477,13.577-2.064,15.544-3.3l1.486,1.312c.126.126.227.225.227.376,0,.254-.3.329-.531.329-.149,0-.754-.1-.88-.1-.554.151-.957.25-1.889.453l1.965.957a.482.482,0,0,1,.328.4c0,.227-.3.428-.857.5a22.963,22.963,0,0,1-2.368,2.321ZM14.092,153.8a19.787,19.787,0,0,1-7.484,5.217l-.1-.178c2.948-1.913,6.55-5.815,7.256-7.783-1.285-.227-1.386-.956-1.386-1.787a14.787,14.787,0,0,0-.227-3.327l2.014.48c.2.049.506.175.506.4s-.353.43-.68.6a16.188,16.188,0,0,0,.05,1.967c.151.353.3.353,1.638.353,3.074,0,3.25-.049,3.653-.225.529-.227.983-1.614,1.159-2.193h.2a3.7,3.7,0,0,0,.479,1.663c.428.353.6.506.6.756,0,.2-.2.93-1.814,1.233a44.234,44.234,0,0,1-5.19.126l.857.554c.176.1.328.252.328.4,0,.178-.126.3-.756.38a7.916,7.916,0,0,1-.6.757h4.963l.905-.757a.9.9,0,0,1,.48-.254.975.975,0,0,1,.5.2l1.058.731c.1.077.378.277.378.529,0,.175-.151.326-.428.425-.2.076-.68.151-1.159.254a15.718,15.718,0,0,1-2.645,2.771,17.517,17.517,0,0,0,7.558,1.638,12.7,12.7,0,0,0,1.537-.076v.2a4.962,4.962,0,0,0-2.041,2.192,19.859,19.859,0,0,1-8.087-3.2,19.868,19.868,0,0,1-9.548,3.1l-.025-.2A25.315,25.315,0,0,0,16.41,156.8a10.1,10.1,0,0,1-2.116-3Zm-3.9-6.575c.1,1.009,0,4.562-1.915,4.562a.97.97,0,0,1-1.035-.907c0-.506.254-.705.934-1.26a5.634,5.634,0,0,0,1.814-2.4Zm9.9-2.968c1.083-2.242,1.386-3.275,1.335-4.158-1.839.38-3.678.657-5.542.858,1.083.554,1.94,1.411,1.94,2.192a.9.9,0,0,1-.831,1.006c-.882,0-.983-.857-1.083-1.46a5.747,5.747,0,0,0-.5-1.69c-1.562.153-2.8.228-3.93.254,1.763.779,2.015,1.864,2.015,2.115a.94.94,0,0,1-.529.883ZM14.672,153.8a8.172,8.172,0,0,0,2.469,2.42,13.277,13.277,0,0,0,2.293-2.42Zm.882-8.54c.731.178,2.948.682,2.948,2.167a.905.905,0,0,1-.882.934c-.655,0-.907-.6-1.184-1.285a4.027,4.027,0,0,0-.983-1.612Zm7.256,1.992c1.789.678,3.855,1.51,3.855,3.1a1.072,1.072,0,0,1-1.083,1.033c-.63,0-.831-.5-1.26-1.486a10.017,10.017,0,0,0-1.638-2.419Z" transform="translate(-5.653 83.262)" fill="#2e2e2e"/>
        <path id="パス_1202" data-name="パス 1202" d="M13.878,155.044c1.108,0,2.595,1.159,2.595,2.015,0,.428-.2.756-1.134,1.839-2.948,3.477-4.382,5.593-4.382,6.5,0,.579.275,1.033,1.384,2.293,3,3.426,4.333,5.593,4.333,6.98,0,.88-.4,1.434-1.033,1.434a.865.865,0,0,1-.731-.428c-.151-.227-.151-.227-.376-1.184a22.108,22.108,0,0,0-3.2-6.172c-1.108-1.688-1.31-2.115-1.31-2.8a4.666,4.666,0,0,1,.705-2.19c.3-.581.353-.682,2.193-3.93,1.031-1.841,1.335-2.571,1.335-3.176,0-.378-.228-.68-.833-1.108a.821.821,0,0,1,.453-.076" transform="translate(-2.717 95.044)" fill="#2e2e2e"/>
      </g>
    </g>
    <rect id="長方形_147" data-name="長方形 147" width="97" height="372" transform="translate(0.217 -0.185)" fill="none"/>
  </g>
</svg>
