<?xml version="1.0" encoding="UTF-8"?>
<svg id="_レイヤー_1" data-name="レイヤー 1" xmlns="http://www.w3.org/2000/svg" version="1.1" viewBox="0 0 581 136">
  <defs>
    <style>
      .cls-1 {
        fill: none;
      }

      .cls-1, .cls-2, .cls-3 {
        stroke-width: 0px;
      }

      .cls-2 {
        fill: #2e2e2e;
      }

      .cls-3 {
        fill: #f8f6cd;
      }
    </style>
  </defs>
  <g id="_グループ_247" data-name="グループ 247">
    <g id="_グループ_245" data-name="グループ 245">
      <path id="_パス_766" data-name="パス 766" class="cls-2" d="M13.1,72c2.1-2.2,3.9-4.8,5.3-7.6,1.3-2.7,2.4-6,2.4-7.3s-.3-1-1.1-1.4c.3-.3.8-.5,1.2-.5.9,0,1.7.4,2.3,1.1,1.5-1,2.9-2.1,4.2-3.4.3-.2.6-.6.6-1,0-.2-.3-.4-.7-.4-3.6.4-7.2,1.1-10.7,2-.8.3-1.6.4-2.5.5-.7,0-1.4-.3-2-.8-.6-.5-1-1.2-1.2-1.9,1.3.3,2.5.5,3.8.5,3.1,0,6.2-.4,9.2-.9,1,0,2-.3,3-.6.3-.2.6-.2.9-.2.8.1,1.5.5,2.1,1.1.9.7,1.3,1.3,1.3,1.8,0,.2-.1.5-.3.6-.3.2-.7.4-1.1.4-.6.2-1.2.4-1.7.7-1.6.9-3.2,1.8-4.9,2.5-.8,3-2,5.8-3.7,8.4-1.7,2.7-3.9,5.1-6.5,6.9l-.3-.3Z"/>
      <path id="_パス_767" data-name="パス 767" class="cls-2" d="M37.8,71.5c4.3-3.3,8-7.3,10.7-12,1.5-2.5,3.1-5.8,3.1-6.4s-.2-.3-.4-.3c-1.1.1-2.1.3-3.2.6-2.9.6-3.1.7-6.7,1.7-.5.2-1,.3-1.5.3-1.5-.1-2.7-1.3-2.9-2.8v-.2c1.1.5,2.3.7,3.5.7,2.8-.2,5.7-.5,8.4-1.1.7,0,1.4-.3,2.1-.7.2-.1.4-.2.6-.2,1.1,0,3.1,1.8,3.1,2.8s0,.5-.8,1.1c-.3.4-.6.8-.8,1.3-2.1,3.7-4.7,7.1-7.6,10.2-2.1,2.2-4.6,4-7.4,5.4l-.2-.3Z"/>
      <path id="_パス_768" data-name="パス 768" class="cls-2" d="M59.2,62.2c2.6-2.2,4.9-4.8,6.8-7.7,1.4-2.1,2.1-3.4,2.1-4.1s-.3-.9-1-1.4c.3-.2.6-.3,1-.3,1.2,0,2.7,1,2.7,1.8,0,.2-.1.5-.3.7,0,.1-.2.3-.3.5-.3.5-.4.6-.6.9.2,0,.5,0,.8,0,1.3,0,2.6-.3,3.9-.5.4,0,.9-.3,1.2-.5.4-.2.4-.2.6-.2.7.2,1.4.6,1.9,1.2.5.5.6.7.6,1s-.2.5-.6.8c-.5.3-.5.4-1,1.1-1.2,1.9-2.1,3.1-4,5.6,1.7,1.6,2.4,2.7,2.4,3.7,0,.6-.4,1.2-1,1.2-.4,0-.7-.3-1.1-1-.4-.9-1-1.7-1.6-2.4-1.8,2-3.8,3.8-6,5.4-2.2,1.5-4.5,2.9-6.9,3.9l-.2-.3c4.6-2.7,8.6-6.2,12-10.4-1-1.2-2.3-2.2-3.6-3l.2-.3c1.6.4,3.1,1.1,4.5,2,1.3-1.7,2.4-3.4,3.4-5.2.3-.4.5-.8.6-1.2,0-.1-.1-.2-.3-.2-1.3.1-2.7.3-4,.6-.2,0-.5.1-.8.1-.6,0-1.1-.3-1.4-.8-2.5,3.7-5.8,6.8-9.6,9.1l-.2-.3Z"/>
      <path id="_パス_769" data-name="パス 769" class="cls-2" d="M87.8,58.4c2.7.2,5.4.7,8,1.6,1.5-2,2.7-4.1,3.5-6.4-1.8.3-2.2.4-5.2,1-.7.2-1.5.4-2.2.6-.5.2-1.1.3-1.7.3-.7,0-1.4-.4-2-.9-.5-.4-.9-1-1.1-1.6.9.3,1.9.5,2.8.4,2.3,0,4.6-.3,6.8-.8.8,0,1.5-.3,2.2-.6.2-.1.5-.2.8-.2.7,0,1.3.3,1.9.7.6.3.9.7.9,1.1s-.2.5-.7.8c-.4.3-.5.4-1,1.3-1,1.7-2.1,3.4-3.3,5,3.3,1.5,4.8,3,4.8,4.4s-.4,1.1-.9,1.1-.7-.2-1.4-1c-1-1.2-2.3-2.3-3.6-3.1-1.8,1.9-3.9,3.5-6.3,4.7-2.5,1.3-5.1,2.3-7.8,2.9l-.2-.4c5.7-2.2,9.3-4.5,12.5-8.1-2.2-1.2-4.6-2-7-2.5v-.4Z"/>
      <path id="_パス_770" data-name="パス 770" class="cls-2" d="M113.9,60c.5,0,1.2,0,2.1,0q2.4-.1,9.6-.4c1.5,0,3-.1,4.5-.4.1,0,.3,0,.5,0,.7,0,1.3.2,1.9.6.4.2.6.6.7,1.1,0,.6-.5.9-1.2.9-.2,0-.4,0-.6,0-1.3-.1-2.5-.2-3.8-.2-2.8,0-9,.2-11.9.5-.8,0-1.5.1-2.3.3-.3,0-.6.2-.9.2-.9,0-2-1.4-2-2.5,0-.4.1-.8.4-1.1.8.9,1.3,1.2,3.2,1.2"/>
      <path id="_パス_771" data-name="パス 771" class="cls-2" d="M139.2,52.9c2.5.5,3.8.9,5,1.8.9.6,1.5,1.5,1.5,2.5,0,.8-.5,1.5-1.1,1.5s-.8-.3-1.3-1.1c-.9-1.9-2.4-3.5-4.3-4.5v-.3ZM158.1,53.9c-2.3,4.5-5.5,8.5-9.4,11.7-1.6,1.3-3.2,2.5-4.9,3.6-.2.1-.4.3-.6.4-.3.3-.8.5-1.2.5-.6,0-1.4-.6-2-1.6-.4-.5-.6-1.1-.7-1.7,0-.3,0-.5.2-.8.5.7,1.3,1.2,2.1,1.3.8,0,2.3-.8,4.6-2.3,4.5-3.1,8.5-6.9,11.6-11.4l.3.2Z"/>
      <path id="_パス_772" data-name="パス 772" class="cls-2" d="M164.6,72.5c1.9-1.6,3.5-3.5,4.9-5.7,2-3.1,3.4-6.7,3.4-8.3,0-.3-.1-.6-.4-.9-1.9.3-3.2.7-5,1.1-.7.2-1.3.4-2,.4-.6,0-1.1-.2-1.5-.6-.6-.4-1-1.1-1.3-1.8,0,0,0-.1,0-.2.7.4,1.6.6,2.4.6,1.3,0,2.9-.2,9.9-1.3,1.4-.2,2.8-.5,4.1-.9.2-.1.5-.2.7-.2.8,0,1.6.3,2.4.7.8.4,1.1.8,1.1,1.3,0,.5-.4.9-.8.9,0,0,0,0,0,0-.5,0-1.1-.2-1.6-.3-1-.3-2.1-.4-3.1-.4-1.4,0-2.7.2-4.1.4,1.2.7,1.6,1.1,1.6,1.7,0,.9-.9,3.1-2.2,5.2-2,3.5-4.8,6.4-8.3,8.5l-.2-.3ZM166.8,50.4c.8.4,1.6.6,2.4.5,2.2-.1,4.5-.7,6.5-1.6.3-.1.6-.2.9-.2.8,0,1.4.5,1.5,1.2,0,0,0,0,0,0,0,.6-.4.9-1.7,1.2-1.8.5-3.6.7-5.4.8-1.7,0-3.3-.5-4.4-1.7l.2-.2Z"/>
      <path id="_パス_773" data-name="パス 773" class="cls-2" d="M186.3,67.7c2.8-2.3,5.3-5,7.4-7.9,1.5-2.2,2.3-3.7,2.3-4.3s-.2-.8-.9-1.2c.2-.1.5-.2.7-.2,1.2,0,2.5,1.1,2.5,2s0,.4-.4.9c-.2.2-.2.2-.5.7-.8,1.1-1.8,2.5-2.4,3.2,1,.6,1.3,1,1.3,1.6h0c0,.6,0,3.5,0,4s0,3.4.1,4.7v.5c0,.8-.3,1.2-.7,1.2-.3,0-.6-.2-.8-.5-.4-.6-.6-1.4-.7-2.1,0-.3,0-.5.1-.8.3-2,.5-3.9.5-5.9,0-1.3,0-1.6-.5-1.9-2.2,2.5-4.8,4.6-7.7,6.2l-.2-.3Z"/>
      <path id="_パス_774" data-name="パス 774" class="cls-2" d="M212.1,47.6c1.5,0,3,1,3,2.1,0,.3,0,.6-.2.8-.6,2.1-.9,4.3-.9,6.6,0,1.4.3,2,1,2,.8,0,1.5-.2,2.2-.6.4-.2.8-.3,1.2-.3.6,0,1.1.4,1.1.9,0,0,0,0,0,.1,0,.7-.3.9-1.9,1.3-1.5.3-2.8.9-4.1,1.7-1.6,1-2.6,2.7-2.7,4.6,0,2.3,1.6,3.5,4.4,3.5,1.1,0,2.1-.1,3.1-.4.4-.1.7-.2,1.1-.2,1.2,0,2.1.6,2.1,1.4s-.4.9-1.5,1.2c-1.1.2-2.2.2-3.3.2-2.8,0-4.6-.5-5.8-1.6-1-.9-1.6-2.3-1.6-3.7,0-1.8.8-3.4,2-4.7.9-1,2-1.8,3.1-2.5-1.7-.5-2-1.2-2-4.5s0-.1,0-2.2c0-.5,0-2.1,0-2.8,0-1.6-.3-2.1-1.6-2.5.4-.3.8-.4,1.3-.4"/>
      <path id="_パス_775" data-name="パス 775" class="cls-2" d="M232,50.2c1.1-.1,2,.6,2.2,1.7,0,0,0,0,0,0,0,.3,0,.6-.1.9-.1,1.1-.2,2.2-.2,3.3q0,.5,0,3.4v.8c0,1.4-.3,2-.9,2-.4,0-.7-.3-.9-.6-.3-.6-.5-1.3-.5-2,0-.5,0-.9.2-1.4,0-.5.2-2.5.2-3.6,0-2.5-.3-3-1.9-3.4.4-.7,1.1-1.1,1.8-1.1M231.8,72.9c3-2.5,5.2-5.7,6.5-9.4,1.2-3.9,1.9-7.9,1.9-12,0-1.4-.4-1.9-1.5-2.1.3-.6.9-.9,1.5-.9,1.4,0,2.6.9,2.6,1.9,0,.2,0,.5-.1.7-.1.5-.2,1-.2,1.5-.7,6.8-1.6,10.5-3.6,13.9-1.6,2.8-4,5.1-6.8,6.7l-.2-.3Z"/>
      <path id="_パス_776" data-name="パス 776" class="cls-2" d="M251.3,52.9c2.5.5,3.8.9,5,1.8.9.6,1.5,1.5,1.5,2.5,0,.8-.5,1.5-1.2,1.5s-.8-.3-1.3-1.1c-.9-1.9-2.4-3.5-4.3-4.5v-.3ZM270.3,53.9c-2.3,4.5-5.5,8.5-9.4,11.7-1.6,1.3-3.2,2.5-4.9,3.6-.2.1-.4.3-.6.4-.3.3-.8.5-1.2.5-.6,0-1.4-.6-2-1.6-.4-.5-.6-1.1-.7-1.7,0-.3,0-.5.2-.8.5.7,1.3,1.2,2.1,1.3.8,0,2.3-.8,4.6-2.3,4.5-3.1,8.5-6.9,11.6-11.4l.3.2Z"/>
      <path id="_パス_777" data-name="パス 777" class="cls-2" d="M273.9,62.5c2.6-2.2,4.9-4.8,6.8-7.7,1.2-1.9,1.8-3.1,1.8-3.8s-.3-1-1.1-1.4c.3-.3.7-.5,1.1-.5.9,0,1.7.4,2.2,1,.4.4.5.6.5,1s0,.3-.3.6q0,0-.4.6c-.2.4-.4.7-.8,1.2.3,0,.6,0,.8,0,1.1,0,2.2-.3,3.3-.6.5,0,1-.3,1.4-.6.2-.2.5-.3.8-.3.8.2,1.5.6,2.1,1.2.3.2.5.6.5,1s-.2.6-.6.8q-.3.2-1.5,2.1c-2.4,4-5.5,7.5-9.1,10.4-2.2,1.7-4.7,3.2-7.3,4.4l-.2-.3c4.2-2.6,7.8-5.8,10.9-9.7,1.7-2.1,3.1-4.3,4.3-6.6.2-.3.4-.7.5-1.1,0-.1-.1-.2-.3-.2-1.3.2-2.6.4-3.9.8-.2,0-.4,0-.7,0-.6,0-1.1-.2-1.6-.6-2.4,3.4-5.5,6.3-9.2,8.4l-.2-.3Z"/>
      <path id="_パス_778" data-name="パス 778" class="cls-2" d="M323.7,66.2c-1.4,0-5-1.7-7.2-4.7-1.8,1.9-4.1,3.3-6.6,4.1v-.2c2.1-1.5,4-3.3,5.7-5.3-1.4-2.5-2.3-5.3-2.7-8.1h-10.2c0,8,0,12.4-4.8,16.3v-.2c2.4-3.3,2.8-8.8,2.8-12.4,0-2-.1-3.9-.5-5.9l2.7,1.4h9.9c0-.3-.2-1.1-.2-1.7-.1-1.1-.3-2.1-.6-3.1l2.9.7c.3,0,.5.2.5.3,0,.3-.5.6-.8.8,0,.7,0,1.5.2,3h5.5l1.1-1.4c.2-.3.3-.4.5-.4.2,0,.4.1.5.3l1.5,1.5c.2.2.3.3.3.5s-.3.3-.5.3h-8.9c.3,2.3,1,4.5,2,6.5,1.2-1.5,2.1-3.3,2.4-5.2l2.3,1.5c.3.2.4.3.4.5,0,.2-.1.3-1,.6-.9,1.5-2,2.9-3.1,4.3,1,1.4,2.4,2.5,4.1,3.1.5,0,.8-.2,1.1-.8.5-.6.9-1.3,1.2-2h.1c0,.5,0,2.9,0,3.4,0,.3,0,.5.2.8.3.5.4.6.4.8,0,.9-.9.9-1.1.9M300,73.4c-.6,0-1.1-.4-1.1-1,0,0,0,0,0-.1,0-.5.2-.8,1.1-1.7.8-.9,1.4-2,1.6-3.1h.2c.3.8.5,1.7.5,2.6,0,2-1,3.3-2.3,3.3M311.6,55.3h-4.9c-.8,0-1.7,0-2.5.2l-.4-1.1c1.6.1,3.1.2,3.3.2h2.1l.6-.7c.2-.2.3-.4.5-.4.2,0,.4.1.6.3l.9.8c.2.2.3.3.3.5,0,.2-.2.3-.5.3M311.5,58.7c0,.7,0,4,0,4.2-.2.8-1.1.8-1.3.8-.7,0-.7-.6-.6-1.1h-3.3c0,.6.2,2-1.5,2s-.6-.5-.6-.8c0-.5.2-2.8.2-3.4,0-1.3,0-2.5-.3-3.8l2.3.9h3.1l.6-.7c0-.1.2-.2.4-.3.1,0,.3.2.4.2l1,.8c.2.2.3.3.3.5,0,.2-.2.4-.7.7M316.1,73.7c-2.4.2-4.8.3-7.3.3-2.9,0-3.5-.5-3.5-3,0-1.8,0-3.6-.3-5.4l2.4.6c.4,0,.6.2.6.5s-.3.5-.7.8c0,.6,0,3.8.2,4.2.2.2.5.3.7.3.3,0,1.4,0,2.6,0,4.1,0,4.4-.1,4.9-.9.5-.9.9-2,1.2-3h.2c.4,2.2.5,2.8.8,3.1.4.2.5.3.5.6,0,.5-.5,1.4-2.3,1.9M309.6,58.2h-3.3v3.6h3.3v-3.6ZM312.7,70.2c-.7,0-1-.5-1.4-1.6-.3-.9-.8-1.7-1.5-2.4v-.2c2.2.5,4,1.5,4,3,0,.6-.4,1.2-1,1.3,0,0,0,0,0,0M318.5,50.5c-.5,0-.8-.3-1.4-1.3-.4-.6-.9-1.2-1.5-1.6v-.3c1.5,0,3.9.4,3.9,2.1,0,.6-.4,1.1-1,1.1,0,0,0,0,0,0M323,72.6c-.8,0-1-.5-1.6-1.7-.5-1.4-1.4-2.6-2.5-3.7l.2-.2c2.8.9,5.2,2.4,5.2,4.3,0,.7-.5,1.3-1.2,1.3,0,0,0,0,0,0"/>
      <path id="_パス_779" data-name="パス 779" class="cls-2" d="M337.2,71.1c3.6-.4,5.4-1,7.2-2.1,3-1.9,4.7-5.2,4.6-8.7.1-2.4-.8-4.8-2.4-6.5-1.6-1.5-3.8-2.3-6-2.3-.4,0-.7,0-1.4,0,.9,1,1.4,2.4,1.3,3.8-.2,3.7-1.4,7.3-3.4,10.5-1.4,2.1-2.8,3.2-4.2,3.2-2.4,0-4.3-2.9-4.3-6.7,0-6.6,5.2-11.5,12.3-11.5s10.5,4.2,10.5,10c0,4.1-2.5,7.8-6.3,9.3-2.5,1-5.2,1.4-7.9,1.3v-.4ZM333.6,54.2c-2.1,2-3.3,4.7-3.3,7.6,0,3.1,1.1,5.2,2.7,5.2s2.2-1.1,3.4-3.2c1.8-2.9,2.8-6.3,3-9.7,0-.5,0-1-.2-1.5-.1-.3-.3-.5-.5-.8-1.9.3-3.7,1.2-5.1,2.4"/>
      <path id="_パス_780" data-name="パス 780" class="cls-2" d="M358.2,52.2c.7.7,1.8,1.1,2.8,1,1,0,2-.1,3-.4.1-1.6.1-1.9.1-2.4,0-1.1-.3-1.6-1.3-1.9.2-.3.5-.4,1.1-.4.6,0,1.3.2,1.8.5.6.3.9.7.9,1.1q0,.2-.3.8c-.2.6-.4,1.2-.5,1.8.7-.2,1.3-.4,1.9-.8.7-.4,1.5-.6,2.3-.6.8,0,1.3.4,1.3.9s-.4.8-1.8,1.2c-1.1.3-1.7.5-2.7.7q-1,.2-1.3.3c-.2,1.3-.3,2.3-.3,3.4,1-.2,2-.4,3-.4,2.3-.1,4.5.6,6.3,2,1.7,1.3,2.7,3.4,2.6,5.5,0,5.1-4.6,8.3-12.3,8.3h-.4v-.4c1.9-.2,3.8-.6,5.6-1.4,2.9-1.1,4.8-3.8,4.8-7,0-3.8-2.8-6.3-6.9-6.3-.2,0-.4,0-.6,0,.6.6.9,1.5.8,2.4,0,1.8-1.1,4.4-2.8,6.7q0,.3.3,1c.1.3.2.6.2,1,0,.4-.2.7-.5.7s-.9-.5-1.3-1.2c-1.6,1.5-3.3,2.5-4.7,2.5s-2.9-1.5-2.9-3.9c.1-2.5,1.2-4.8,3.1-6.4,1.1-1.1,2.5-1.9,3.9-2.5,0-1.6,0-1.7,0-1.9q.1-1.4.1-1.7c-.5,0-1.1.1-1.6.2-1.7.1-3.4-.7-4.3-2.2l.2-.2ZM360.3,61.6c-1.1,1.4-1.8,3-1.8,4.8,0,1.6.5,2.5,1.5,2.5s2.6-1,3.8-2.3c-.2-1.3-.3-2.6-.2-3.9,0-1,0-2,.1-3.7-1.3.6-2.4,1.5-3.3,2.6M364.9,61.8c0,1.1,0,1.9.2,3.3.6-.9,1.1-1.9,1.6-2.9.4-.9.6-1.8.7-2.8,0-.6-.1-1.1-.5-1.6-.6,0-1.2.2-1.8.4-.1,1.6-.2,2.5-.2,3.6"/>
      <path id="_パス_781" data-name="パス 781" class="cls-2" d="M389.2,57.8c3.7-4.7,4.5-5.9,4.6-6.5,0-.2-.2-.3-.5-.3-1.4.3-2.8,1-3.8,2-.8.7-1.2.9-1.6.9-.7-.1-1.4-.5-1.9-1.1-.3-.4-.5-.9-.5-1.4,0-.1,0-.3,0-.4.3.5.9.8,1.5.8.7,0,1.2-.2,3.5-1.1,1.9-.8,2.5-1,3.2-1,1,0,1.8.5,2.4,1.3.3.3.5.7.5,1.1,0,.4-.2.6-1.1,1.1-1,.7-1.9,1.5-2.6,2.4-1.9,1.9-3.6,4-5.2,6.2,1.6-1.3,3.6-2.1,5.7-2.1,3.8,0,6.4,2.4,6.4,5.8s-3.3,6.7-7.8,6.7-4.3-1.1-4.3-2.8,1.2-2.4,2.8-2.4c1.9,0,3.5,1.2,4,3,.8-.3,1.4-.8,1.9-1.5.7-1,1.1-2.2,1.1-3.4.2-2.4-1.6-4.4-4-4.6-.2,0-.3,0-.5,0-1.9,0-3.8.8-5.2,2.2-1,.8-1.8,2-2.2,3.2-.5,1.2-.8,1.6-1.4,1.6s-1-.5-1-1.4c0-.9.5-1.7,1.1-2.3l4.8-6.1ZM392.8,70.6q0-.1-.3-.8c-.2-.6-.6-1.1-1.2-1.4-.4-.2-.8-.3-1.3-.3-.9,0-1.5.5-1.5,1.2s1.1,1.6,2.8,1.6c.5,0,.9,0,1.4-.2,0,0,0,0,0,0"/>
    </g>
    <g id="_グループ_244" data-name="グループ 244">
      <path id="_パス_782" data-name="パス 782" class="cls-2" d="M11.7,9.8c.7.8,1.7,1.3,2.8,1.3,1.1,0,2.2-.3,3.3-.6,0-1.1-.1-2.1-.3-3.2-.2-.7-.2-.7-1-1.2-.6-.3-.8-.5-.8-.8,0-.6,1.1-1.2,2.1-1.2.5,0,1,.3,1.2.8.1.4.2.8.1,1.3,0,.3,0,.6,0,.8.8.3,1.6.6,2.5.7.9.2,1.3.5,1.3,1.1,0,.9-1.3,2-3.8,3.1v5.4c4.8-2.3,6.7-3,8.4-3,2.6,0,4.3,1.5,4.3,3.8,0,1.7-.9,3.3-2.2,4.4-1.1.9-2.4,1.4-3.8,1.4-1.5.2-2.8-.9-2.9-2.3,0-.2,0-.4,0-.5,0-1.2.5-2.5,1.1-3.5h.3c-.3,1-.5,1.9-.5,2.8,0,1.3.6,2,1.6,2,2.1,0,4.6-2.6,4.6-4.7,0-1.3-1-2.4-2.3-2.5-.1,0-.3,0-.4,0-1.1,0-2,.3-4.2,1.4-1.5.8-3,1.6-4.1,2.2q0,.4,0,1.5c0,1.2,0,2.5-.4,3.7-.3.8-.7,1.3-1.3,1.3s-.6-.2-.8-.8c-.2-.6-.5-1.1-1-1.5-.4-.4-.9-.8-1.4-1.1-.5.3-1.1.5-1.7.6-.9-.1-1.7-.9-1.8-1.8,0-.7.3-1.1.7-1.1s.2,0,1,.3c.2.1.4.2.6.2,1.7-.3,3.3-.9,4.8-1.8,0-1.3,0-1.9,0-3.3s0-1.5,0-2.3c-1,.3-2,.5-3,.5-1.7-.1-3.1-1.3-3.4-2.9l.2-.2ZM14.8,21.3c.8.5,1.6.8,2.4,1,.4,0,.5-.7.7-2.8-1.3.8-1.8,1.1-3.1,1.8M19.2,7.9c0,.1,0,.4,0,.9v1.3c1.2-.5,1.8-.9,1.8-1.2s-.6-.8-1.8-1.3v.3ZM26.6,12.1c1.6-2.1,3.2-3.1,5-3.1s3,1.2,3,2.4c0,.6-.4,1.1-1,1.2,0,0,0,0,0,0-.4,0-.7-.2-.9-.5-.6-.8-1.6-1.3-2.7-1.3-1.2.1-2.3.7-3.1,1.6l-.3-.3Z"/>
      <path id="_パス_783" data-name="パス 783" class="cls-2" d="M58.5,18.5c-.9,1.8-2.2,3.4-3.7,4.7-2.1,1.9-4.8,3-7.6,3-1.3,0-2.6-.3-3.7-1.1-1.4-1.1-2-2.9-2-6s.1-4.5.3-6.7q.3-3.5.4-5.7c0-1,0-1.6,0-2.3,0-1.1-.4-1.6-1.7-2.1.3-.2.6-.3.9-.3,1.8,0,3.4,1.1,3.4,2.3,0,.4,0,.8-.2,1.2-.3,1.1-.8,4.4-1.1,7-.3,2.3-.4,4.6-.5,6.9,0,3.7,1.1,5,4,5s8.2-2.4,11-6.2l.3.3Z"/>
      <path id="_パス_784" data-name="パス 784" class="cls-2" d="M73.4,15.5c1.3,1.1,3,1.7,4.7,1.7,1.7.2,3.2-1.1,3.4-2.8,0,0,0-.1,0-.2,0-1.5-1.3-2.7-2.8-2.7,0,0-.1,0-.2,0-2,0-4.1,1-8.2,3.9,1.6,2.5,2.8,5.2,3.8,8,.3.8.5,1.6.5,2.4,0,.5-.4,1-1,1,0,0,0,0,0,0-.3,0-.6-.1-.8-.4-.2-.4-.3-.8-.4-1.2-.5-3.2-1.6-6.3-3.1-9.1-.6.4-.8.6-1.7,1.2s-1.2.7-1.7.7c-1.1-.2-2-1-2.2-2.1,0,0,0-.1,0-.2.3.3.8.5,1.3.5.8,0,1.2-.2,3.5-1.5-.5-.8-.7-1-1-1.4-.9-1.3-1-1.4-1-1.9,0-.6.3-1.2.7-1.7.4-.4.9-.7,1.5-.8.2,0,.3,0,.5,0,.3,0,.6.1.9.1,1,0,2,0,3-.2.5,0,.8-.3.8-.8,0-.5-.2-.9-.5-1.2l.2-.2c1.5.7,2,1.5,2,2.5,0,.6-.4,1.2-1,1.3,0,0-.1,0-.2,0-.2,0-.5,0-.7-.2-1.4-.4-2.9-.7-4.4-.8-.6,0-1.2.4-1.3,1,0,0,0,0,0,.1,0,.5.3,1.2,1.6,3.2,2.7-1.5,3.1-1.7,4.1-2.1,1.6-.8,3.3-1.3,5-1.4,2.7,0,4.7,1.7,4.7,4,0,2.2-1.8,4-4,4,0,0-.1,0-.2,0-2.1,0-4-.9-5.9-2.9l.2-.3Z"/>
      <path id="_パス_785" data-name="パス 785" class="cls-2" d="M114.3,18.1c-1.5,4-3.6,6-6.2,6s-3.4-1.5-3.4-4c0-1.9.4-3.8.8-5.7.4-1.4.6-2.9.6-4.3,0-1.7-.8-2.7-2.2-2.7s-2.7.8-4.4,2.3c-1.7,1.4-3.1,2.9-4.4,4.7,0,.6,0,.7,0,.9,0,2.1,0,4.2.3,6.3,0,.7,0,1.1,0,1.8,0,2.1-.4,3.2-1.2,3.2-.3,0-.6-.2-.7-.5-.2-.4-.3-.9-.3-1.4q-.2-1.2-1.6-5.1c-.2.3-.8,1.4-1.4,2.3-.3.6-.6.8-1,.8-.6,0-1.1-.5-1.1-1.1,0-.5.2-1,.6-1.3q.5-.6,1.3-1.8t.8-1c-.3-1.3-.7-2.6-1.2-3.8-.2-.3-.3-.6-.3-1,0-1.2,1.9-2.6,4.9-3.5.2-1.2.3-2.4.3-3.6,0-1.7-.6-2.9-1.7-3.4.2,0,.4-.1.5-.1.8.1,1.6.5,2.2,1.1.6.4,1,1.1,1.1,1.9,0,.4,0,.7-.2,1.1-.3,1-.6,2.1-.8,3.2.4.2.7.7.8,1.1,0,.4,0,.5-.8,1.6v.2c3.9-3.8,6.5-5.4,8.9-5.4,2.1,0,3.8,1.7,3.8,3.8,0,0,0,0,0,0,0,1.1,0,1.1-1,4.8-.5,1.5-.8,3.1-.8,4.7,0,1.1.2,1.7.8,2,.4.2.8.4,1.3.4,1.4-.1,2.8-.8,3.6-2,.7-.8,1.3-1.6,1.8-2.6l.3.2ZM94.1,12.6v-.8c0-.3,0-.5,0-.9-1.1.2-2.1.6-3,1.3-.7.5-.8.7-.8,1.1.2,1.3.6,2.5,1.1,3.7,1.4-2.1,2.1-3.2,2.8-4.3M93.9,16.9c0-.2,0-.6,0-1.1-.6.9-.7,1.1-.9,1.5-.3.5-.6.9-.9,1.5.5,1.2,1,2.4,1.7,3.5,0,0,0,0,0,0t0,0c0,0,0-.3,0-.7v-4.6Z"/>
      <path id="_パス_786" data-name="パス 786" class="cls-2" d="M127.4,25c-.6,0-.9-.5-1.3-1.1-.6-1-1.3-1.9-2-2.8-1.6,2.7-3.9,4.9-6.7,6.3v-.2c2.2-2.1,4-4.6,5.3-7.4-.9-.7-1.8-1.2-2.9-1.6-.2,1.2-.4,1.9-1.6,1.9s-1-.4-1-.6.6-2.4.7-2.8c.3-1.4.5-2.1,1.8-8.5-1,0-2,.1-2.9.3l-.6-1.2c1,0,2.1.2,3.7.2.4-1.9.7-3.8.8-5.7,0-.5,0-1-.1-1.4l2.8.8c.3,0,.6.2.6.5s-.1.5-1,.9c-.2.8-.9,4.2-1,4.9h2.8l.7-.7c.2-.2.4-.4.6-.4.2,0,.4.1.5.3l1.2,1.1c.1,0,.3.3.3.5s-.2.5-1,1c-.2,3.6-.9,7.1-2.2,10.4.5.3,3.7,2.1,3.7,4.2s-.9,1.3-1.1,1.3M121.7,8c-.5,2.3-1.3,6.4-1.9,9.6,1.1.2,2.2.5,3.3.9,1.1-3.4,1.7-7,1.7-10.6h-3.1ZM143.8,14.4h-7.2c0,1.6.2,8.6.2,10s-.3,3-3.3,3.6c0-.6-.2-2-3.1-3.2v-.2c.5,0,3.1.3,3.4.3.6,0,.8-.2.8-1,0-.5,0-1.8,0-9.4h-3.2c-1.2,0-2.4,0-3.6.3l-.6-1.2c2.1.2,4.3.2,4.7.2h2.8c0-1.8,0-5.5-.6-6.8l1.3.3c1-1.4,1.9-2.9,2.6-4.4h-5.5c-1.2,0-2.4,0-3.6.3l-.6-1.2c2,.2,4.1.2,4.6.2h5.1l.7-.7c.3-.3.4-.4.6-.4.2,0,.5.2.7.3l1.8,1.2c.2.1.3.4.3.6,0,.5-.3.6-1.6.6-1.1.8-1.4,1.1-4.7,3.6l1,.2c.5.1.5.3.5.5,0,.3-.4.6-.8.8,0,.5,0,.8,0,1.1,0,.6,0,3.2,0,3.7h3.3l1.3-1.6c.2-.2.3-.4.5-.4.2,0,.4.1.5.3l1.8,1.6c.2.2.3.3.3.5,0,.3-.2.3-.5.3"/>
      <path id="_パス_787" data-name="パス 787" class="cls-2" d="M161.2,8.1c.7.5,1.5.9,2.4.9q0,0,.5,0h.2c.8,0,1.3.3,1.3,1s-1.6,2-4.1,3.1c.3.5,1.4,2.5,1.8,3.3.5.8.8,1.7.9,2.6,0,1.4-1.1,2.5-2.4,2.7-.4,0-.7-.2-1.1-.7-1.3-1.3-3.1-2.1-4.9-2.1-2.2,0-3.8,1.3-3.8,3.1s1.4,2.6,3.7,2.6c.6,0,1.2,0,1.8-.1.3,0,.7-.1,1-.1.5,0,.9.1,1.3.3.4.2.6.6.7,1,0,.8-.9,1.1-3,1.1-4.4,0-7-1.6-7-4.3s2.4-4.4,5.7-4.4c1.5,0,2.9.3,4.3.7.5.1.9.2,1.4.3.2,0,.4-.2.5-.4,0,0,0,0,0,0-.3-1.8-1-3.5-1.9-5-1.8.7-3.7,1-5.6,1.1-1.7,0-3.3-.5-4.6-1.5-.6-.5-1.1-1.1-1.5-1.8l.3-.2c1.3,1.3,3.2,2,5,1.9,1.9,0,3.8-.4,5.6-1.1-.6-1.3-1.3-2.5-2.1-3.7-.7.2-1.5.3-2.2.3-1.9,0-3.8-.9-4.9-2.4l.3-.3c.9.7,2,1.1,3.2,1.1.9,0,1.7-.1,2.6-.4-2.4-3.5-2.9-4-4.6-4,0,0-.1,0-.2,0,0-.5,1.1-1,2.2-1,.5,0,1,0,1.4.3.2.2.3.3.5.9.5,1.2,1.1,2.3,1.8,3.3.7-.3,1.3-.6,2-.9.3-.2.7-.3,1.1-.3.4,0,.9.3.9.7,0,0,0,0,0,0,0,.8-.8,1.3-3,2.1q1.3,2.3,2.1,3.6c1.3-.5,2.1-1,2.1-1.2s-.4-.6-1.6-1.8l.2-.3Z"/>
      <path id="_パス_788" data-name="パス 788" class="cls-2" d="M172.6,5.9c.8.7,1.8,1,2.8.9,1,0,2.1-.2,3.1-.5.2-.7.3-1.4.3-2.1,0-.9-.5-1.7-1.3-2,.3-.2.7-.3,1.1-.2,1.3,0,2.3.6,2.3,1.3-.2.9-.4,1.7-.7,2.5.4-.1.8-.3,1.2-.5.8-.5.9-.5,1.3-.5.5,0,1,.4,1,.9,0,.5-.4.8-1.4,1.3-.9.4-1.9.7-2.9,1-1.3,3.7-2.9,7.3-4.7,10.7-.6,1.1-1.1,1.5-1.7,1.5-.6,0-1-.5-1-1.1,0-.5,0-.7,1.3-2.4,1.9-2.6,3.4-5.5,4.6-8.6-.4,0-.8.1-1.2.1-1.8,0-3.4-.8-4.3-2.4l.3-.2ZM186.3,6.8c1.5,0,3,.3,4.3,1,1.5.8,2.3,1.9,2.3,3.1,0,.5-.3,1-.8,1.1,0,0,0,0-.1,0-.3,0-.6-.1-.8-.4-.7-.6-1.6-.9-2.5-.8-1.7,0-2.4.9-2.4,3.1s.3,4.8.5,6.4c1.5.3,2.9.9,4.1,1.8.7.4,1.2,1.1,1.2,1.9,0,.7-.4,1.1-.9,1.1s-.5,0-1.4-1c-.8-.9-1.9-1.6-3-2.1,0,.3,0,.5,0,.8,0,2.4-1.6,3.7-4.4,3.7s-4.3-1.2-4.3-2.9,2.6-3.6,6-3.6c.2,0,.5,0,.7,0,0-2.2,0-2.5,0-2.9,0-5.2.9-6.7,4.5-7.5.4,0,.5-.1.5-.2-.1-.3-.3-.6-.6-.8-.9-.8-2-1.3-3.1-1.4v-.4ZM183.6,21.3c-2.7,0-4.5.8-4.5,2.1s1,1.6,2.7,1.6,3.3-.9,3.3-3.1v-.5c-.5-.1-1-.2-1.5-.2"/>
      <path id="_パス_789" data-name="パス 789" class="cls-2" d="M207.9,12.8c-1.8,6.2-5.3,11.9-10.8,15.2v-.2c5.3-4.8,8.4-12.2,9.8-21h-5.4c-1.2,0-2.4,0-3.6.3l-.6-1.2c2.1.2,4.2.2,4.7.2h5c.2-1.5.3-2.9.3-4.4,0-.6,0-1.1-.3-1.7l3.4,1.1c.2,0,.5.2.5.4,0,.3-.4.5-1.1.9-.2.8-.5,3.2-.6,3.6h10.6l1.2-1.5c.2-.2.3-.4.5-.4s.2,0,.5.3l1.9,1.5c.2.1.3.2.3.5s-.2.3-.5.3h-14.7c-.3,1.8-.6,3.8-1,5.3h7.1l1-.8c.3-.2.4-.3.5-.3s.3.2.4.3l1.2,1.2c.2.1.3.4.4.6,0,.4-.8.7-1.4.9-.8,2.6-2.1,5.1-3.7,7.4,3.2,2.5,7.2,3.9,11.3,4v.2c-1.3.5-2.4,1.5-3.1,2.7-3.5-1-6.7-2.9-9.2-5.6-2.7,3-6.4,5-10.4,5.6v-.2c3.6-1.5,6.7-3.9,9.1-7-1.8-2.4-3-5.3-3.4-8.3h-.2ZM208.5,12.8c.6,2.6,1.9,5.1,3.7,7.1,1.5-2.1,2.6-4.5,3.1-7.1h-6.9Z"/>
      <path id="_パス_790" data-name="パス 790" class="cls-2" d="M253.1,27c-1,0-1.7,0-4.5,0-9,0-13.1-.5-14.9-4.7-.5.8-1.1,1.5-1.7,2.2-1.4,1.5-1.5,1.7-1.8,2-.2.8-.3,1.1-.6,1.1-.2,0-.3,0-.4-.2l-2-2.5c1.8-.3,3.5-1,5-2v-8.8c-1.3,0-2.7,0-4,.3l-.6-1.2c1.7.1,2.6.2,4.3.2l.7-.8c0-.1.2-.3.4-.3.2,0,.3,0,.4.2l1.3,1.1c.1,0,.3.3.3.4s-.5.6-.9.9c0,.9,0,6,0,6.6.5,3.5,5.9,3.6,8.6,3.6s9-.2,12.1-1.1h0c-1,.8-1.7,1.9-1.9,3.1M233,6.8c-.9,0-1.2-.8-1.4-1.4-.5-1.5-1.4-2.9-2.6-4v-.2c2.4.5,5.2,2.1,5.2,4.1,0,.7-.5,1.3-1.2,1.4,0,0,0,0,0,0M254,7.9h-6.8l1.9,1.2c.2,0,.3.3.3.5,0,.3-.2.4-.8.5-.5.3-2.3,2.1-2.7,2.4h3.4l1.1-1.1c.2-.2.3-.4.5-.4s.3.1.5.3l1.4,1.1c.1,0,.3.3.3.5s-.3.3-.5.3h-7.6c0,1.4,0,1.6,0,2.6h2.5l.9-1c.2-.2.3-.4.5-.4.2,0,.4.1.6.3l1.4,1c.2.1.3.3.3.4,0,.2-.3.3-.5.3h-5.7c0,1.5,0,1.7,0,3.1h4.3l1-1.1c.4-.4.5-.4.5-.4.2,0,.3.1.6.3l1.5,1.1c.2,0,.3.3.3.5,0,.3-.2.3-.5.3h-7.8c0,.4,0,2.3,0,2.5,0,.4,0,1.3-1.5,1.3s-.7-.5-.7-.8,0-2.6,0-3.1h-3c-1.2,0-2.4,0-3.6.3l-.6-1.2c2,.2,4.1.2,4.7.2h2.6c0-1.7,0-1.9,0-3.1h-1.2c-1.2,0-2.4,0-3.6.3l-.6-1.2c2,.2,4.1.2,4.7.2h.7v-2.6h-3c-1.2,0-2.4,0-3.5.3l-.6-1.2c2.1.2,4.2.2,4.6.2h4.7c.7-1.4,1.2-3,1.5-4.6h-7.3c1.1.5,3.2,1.8,3.2,3.2,0,.7-.4,1.2-1.1,1.3,0,0,0,0,0,0-.8,0-.9-.4-1.3-2-.3-.9-.7-1.8-1.3-2.5-1.1,0-2.2,0-3.2.3l-.6-1.2c1.9.2,3.8.2,4.7.2h3.4c0-.9,0-1.8,0-2.8h-1.4c-1.2,0-2.4,0-3.6.3l-.6-1.2c2.1.2,4.2.2,4.7.2h.9c0-1.1-.2-2.2-.6-3.2l3,.7c.2,0,.5.2.5.4s-.5.6-.9.9v1.1h3.1l.9-1c.2-.2.3-.4.5-.4.2,0,.4.1.6.3l1.4,1c.2.1.3.3.3.5,0,.3-.2.3-.5.3h-6.3c0,.9,0,1.1,0,2.8h5.5l.9-1.1c.2-.3.3-.4.5-.4s.2,0,.6.3l1.4,1c.2.1.4.3.4.5s-.3.3-.5.3"/>
      <path id="_パス_791" data-name="パス 791" class="cls-2" d="M264.3,14.3c-.7,2.4-1.2,4.8-1.5,7.3,0,.6,0,1.1.2,1.7.1.3.2.6.2.9,0,.5-.3.9-.8.9,0,0,0,0,0,0-.5,0-1-.4-1.4-1.1-1-2.1-1.6-4.4-1.5-6.7,0-2.7.5-5.5,1.3-8.1.3-1,.5-2,.5-3,0-.9-.2-1.7-.7-2.5h0c.4,0,1,.5,1.6,1.3.6.8,1,1.7,1.1,2.6,0,.6-.2,1-1,2.8-1,1.9-1.6,4.1-1.7,6.3,0,1.5.4,3.4.7,3.4s.3-.4,1.1-2.6c.4-.9.4-1.1.9-2.4q.2-.6.4-1h.3ZM268.1,19.7c1,1.7,2.2,2.3,4.5,2.3,1.4,0,2.8-.2,4.1-.5.5-.2.9-.2,1.4-.2,1,0,1.8.5,1.8,1.2,0,.6-.4,1-.9,1.1-1.3.3-2.6.5-4,.5-4.1,0-6.1-1.2-7.1-4.3h.3ZM268.5,6.4c.7.4,1.6.6,2.4.5,1.5,0,3-.3,4.5-.8.3-.2.7-.2,1.1-.2,1.1,0,1.8.5,1.8,1.3s-.4.8-1,1c-1.2.3-2.5.5-3.8.5-1.2,0-2.4-.2-3.4-.8-.6-.3-1.2-.8-1.7-1.3l.2-.2Z"/>
      <path id="_パス_792" data-name="パス 792" class="cls-2" d="M287.2,5.5c1.1,1.4,2.2,2,4.5,2.6.3-1.4.4-2.8.5-4.2,0-.9-.5-1.8-1.4-2.1.2-.2.4-.2.6-.2,1.6,0,3.4,1.2,3.4,2.3s0,.4-.5,1.2c-.5,1-.9,2.1-1.1,3.2.9.2,1.5.7,1.5,1.3,0,.3-.1.6-.4.8q-.2.2-1,.3c-.3,0-.5.1-.7.2q-.9,3.9-1.3,6c.5,0,.7.1,1.6.2,1.2.1,1.7.4,1.7,1.1s-.7,1-1.8,1c-.6,0-1.2,0-1.7-.3-.1.7-.2,1.4-.2,2.1,0,2.8,1.3,4.2,3.8,4.2s4.5-1.9,4.5-4.8c0-2-.8-3.8-2.1-5.3-.7-.9-1.5-1.6-2.5-2.1l.2-.3c1.6.6,3,1.6,4.1,2.8,1.5,1.4,2.3,3.3,2.4,5.3,0,3.4-2.7,5.9-6.4,5.9-2,.1-3.8-.9-4.7-2.6-.4-1-.6-2-.5-3,0-.8,0-1.6.2-2.4-1.9-.8-2.8-2-2.8-3.4s1.3-3.4,4.2-5.3c-2-.7-3.6-2.3-4.3-4.2l.3-.2ZM287.8,14.8c0,.9.7,1.5,2.3,2,.2-1,.5-2.8,1-5.4-2.2,1.1-3.2,2.2-3.2,3.4"/>
      <path id="_パス_793" data-name="パス 793" class="cls-2" d="M328.5,13.4l1.6-1.8c.2-.2.3-.4.5-.4s.3.2.5.3l2.2,2c.2.2.3.3.3.5,0,.3-.3.3-.5.3h-21.8c-1.2,0-2.4,0-3.6.3l-.6-1.4c2.3.2,4.4.2,4.6.2h16.7Z"/>
      <path id="_パス_794" data-name="パス 794" class="cls-2" d="M352.5,2.7l.8-.9c.2-.2.3-.4.5-.4.2,0,.4.1.5.3l1.5,1.2c.3.2.3.4.3.5,0,.4-.4.6-1.1,1.1,0,1.4,0,1.9,0,3.2,0,7.3.2,11.2.3,16.8,0,0,0,.5,0,.6,0,1.3-1.6,1.4-1.7,1.4-.9,0-.8-.8-.8-1.3h-11.5c0,.6,0,.8-.1,1.1-.4.5-1,.7-1.6.7-.8,0-.8-.4-.8-.8,0-.6.2-3,.2-3.5.1-2.9.2-10.3.2-13.3.1-2.8,0-5.6-.4-8.4l3,1.5h10.6ZM341.5,9.9h11.5V3.4h-11.5v6.5ZM341.5,17.1h11.5v-6.5h-11.5v6.5ZM341.5,24.6h11.5v-6.7h-11.5v6.7Z"/>
      <path id="_パス_795" data-name="パス 795" class="cls-2" d="M386.9,9.9h-11.6c0,.8-.2,1.5-.2,2.3h4.8l.8-.8c0,0,.3-.3.5-.3.2,0,.4.1.5.2l1.2.9c.2.1.3.3.3.5,0,.3-.5.7-1,1,0,1.5,0,3.1,0,4.4,0,.7.2,3.6.2,4.2,0,.7-.6,1.3-1.3,1.3,0,0,0,0-.1,0-.8,0-.8-.4-.8-1h-8.9c0,1.3-1.2,1.3-1.4,1.3-.8,0-.9-.4-.9-.7,0-.2,0-.3,0-.5.1-1.7.2-3.4.2-5.1,0-2.1,0-4.7-.2-6.8l2.4,1.4h1.6c0-.8.2-2.2.2-2.3h-8.2c-1.2,0-2.4,0-3.6.3l-.6-1.2c2.1.2,4.2.2,4.7.2h7.8c0-.8,0-1.5-.1-2.3.5,0,2.6.6,2.6.6.3,0,.5.2.5.4s-.3.5-.8.7c0,.2,0,.3,0,.5h8.2l1-1.2c.2-.2.3-.4.5-.4s.3.1.5.3l1.4,1.2c.1,0,.3.3.3.4,0,.3-.3.3-.5.3M387.1,26.4h-21.2c0,.7,0,1.6-1.5,1.6s-.9-.6-.9-1,0-1.6,0-1.9c0-2.5.1-4.9.1-7.3,0-4.2-.1-5-.4-6.1l2.9.9c.2,0,.4.2.5.5,0,.4-.4.6-.8.9,0,1.4,0,2.8,0,4.2s0,1.3,0,4.7c0,.4,0,2.4,0,2.8h17.4l1.1-1.4c.2-.2.3-.4.5-.4s.3,0,.5.3l1.8,1.5c.1.1.3.3.3.5s-.3.3-.5.3M384,3.2c0,.5.1,2.8.1,3.3,0,.9-.6,1.3-1.4,1.3s-.8-.2-.8-1.1h-15.3c0,.8-.5,1.5-1.3,1.5,0,0-.2,0-.2,0-.4,0-.8-.3-.8-.7,0,0,0,0,0,0,0-.5.2-2.7.2-3.1,0-1.3,0-2.6-.4-3.9l2.7,1.2h15.1l.8-.8c.1-.1.3-.2.4-.2.2,0,.4.1.6.3l1.1.9c.1,0,.2.2.2.4,0,.2-.1.4-.9,1M370.1,2.4h-3.6v3.6h3.6v-3.6ZM380.1,13h-8.9v2.3h8.9v-2.3ZM380.1,16h-8.9v2.5h8.9v-2.5ZM380.1,19.2h-8.9v2.7h8.9v-2.7ZM375.8,2.4h-3.7v3.6h3.7v-3.6ZM381.9,2.4h-4.1v3.6h4.1v-3.6Z"/>
      <path id="_パス_796" data-name="パス 796" class="cls-2" d="M397.3,20.6c1.9,1.2,2.7,1.6,3.3,1.6s1.5-.8,2.3-2.7c.9-2.1,1.4-4.4,1.5-6.7,0-1.9-.5-2.7-1.7-2.7-.9,0-1.9.3-2.8.6-1.4,3.7-3,7.3-5,10.8-1.2,2.1-1.8,2.7-2.4,2.7-.6,0-1-.6-1-1.1q0-.4,1.3-2.1c2.2-3,4-6.2,5.4-9.6-.4.2-.8.3-2.4,1-.6.3-1.3.5-2,.5-.6,0-1.2-.4-1.6-.8-.5-.4-.8-1-.9-1.7,0,0,0-.2,0-.3.6.6,1.4,1,2.3,1,1.7-.2,3.4-.6,5-1.1.4-1,.6-2.1.6-3.2,0-1.2-.6-2.3-1.7-2.7.3-.2.6-.3.9-.2.8,0,1.6.3,2.2.7.4.3.7.7.7,1.2-.2,1.3-.6,2.6-1.1,3.8.8-.2,1.5-.3,2.3-.3,2.2,0,3.3,1.5,3.3,4.6,0,3.3-1,6.5-2.7,9.3-.7,1.1-1.8,1.8-3.1,2-.7,0-1.1-.4-1.1-1.4,0-.8-.4-1.3-1.9-2.7l.2-.3ZM408.5,9.3h.5c3.7,0,6.5,2.5,6.5,5.7s-1,3.1-2.1,3.1-.7-.2-1.1-.9c-.3-.4-.7-.6-1.1-.7-.6-.2-1.1-.3-1.7-.3v-.4c.5,0,1,0,1.4,0,.7,0,1.4,0,2-.3.3-.2.5-.5.5-1.1,0-1.4-.6-2.7-1.7-3.6-.9-.8-2-1.2-3.2-1.2v-.4Z"/>
      <path id="_パス_797" data-name="パス 797" class="cls-2" d="M445.1,18.1c-1.5,4-3.6,6-6.2,6s-3.4-1.5-3.4-4c0-1.9.4-3.8.8-5.7.4-1.4.6-2.9.6-4.3,0-1.7-.8-2.7-2.2-2.7s-2.7.8-4.4,2.3c-1.7,1.4-3.1,2.9-4.4,4.7,0,.6,0,.7,0,.9,0,2.1,0,4.2.3,6.3,0,.7,0,1.1,0,1.8,0,2.1-.4,3.2-1.2,3.2-.3,0-.6-.2-.7-.5-.2-.4-.3-.9-.3-1.4q-.2-1.2-1.6-5.1c-.2.3-.8,1.4-1.4,2.3-.3.6-.6.8-1,.8-.6,0-1.1-.5-1.1-1.1,0-.5.2-1,.6-1.3q.5-.6,1.3-1.8t.8-1c-.3-1.3-.7-2.6-1.2-3.8-.2-.3-.3-.6-.3-1,0-1.2,1.9-2.6,4.9-3.5.2-1.2.3-2.4.3-3.6,0-1.7-.6-2.9-1.7-3.4.2,0,.4-.1.5-.1.8.1,1.6.5,2.2,1.1.6.4,1,1.1,1.1,1.9,0,.4,0,.7-.2,1.1-.3,1-.6,2.1-.8,3.2.4.2.7.7.8,1.1,0,.4,0,.5-.8,1.6v.2c3.9-3.8,6.5-5.4,8.9-5.4,2.1,0,3.8,1.7,3.8,3.8,0,0,0,0,0,0,0,1.1,0,1.1-1,4.8-.5,1.5-.8,3.1-.8,4.7,0,1.1.2,1.7.8,2,.4.2.8.4,1.3.4,1.4-.1,2.8-.8,3.6-2,.7-.8,1.3-1.6,1.8-2.6l.3.2ZM424.9,12.6v-.8c0-.3,0-.5,0-.9-1.1.2-2.1.6-3,1.3-.7.5-.8.7-.8,1.1.2,1.3.6,2.5,1.1,3.7,1.4-2.1,2.1-3.2,2.8-4.3M424.7,16.9c0-.2,0-.6,0-1.1-.6.9-.7,1.1-.9,1.5-.3.5-.6.9-.9,1.5.5,1.2,1,2.4,1.7,3.5,0,0,0,0,0,0t0,0c0,0,0-.3,0-.7v-4.6Z"/>
      <path id="_パス_798" data-name="パス 798" class="cls-2" d="M455.1,11.6c3.7-4.7,4.5-5.9,4.6-6.5,0-.2-.2-.3-.5-.3-1.4.3-2.8,1-3.8,2-.8.7-1.2.9-1.6.9-.7-.1-1.4-.5-1.9-1.1-.3-.4-.5-.9-.5-1.4,0-.1,0-.3,0-.4.3.5.9.8,1.5.8.7,0,1.2-.2,3.5-1.1,1.9-.8,2.5-1,3.2-1,1,0,1.8.5,2.4,1.3.3.3.5.7.5,1.1,0,.4-.2.6-1.1,1.1-1,.7-1.9,1.5-2.6,2.4-1.9,1.9-3.6,4-5.2,6.2,1.6-1.3,3.6-2.1,5.7-2.1,3.8,0,6.4,2.4,6.4,5.8s-3.3,6.7-7.8,6.7-4.3-1.1-4.3-2.8,1.2-2.4,2.8-2.4c1.9,0,3.5,1.2,4,3,.8-.3,1.4-.8,1.9-1.5.7-1,1.1-2.2,1.1-3.4.2-2.4-1.6-4.4-4-4.6-.2,0-.3,0-.5,0-1.9,0-3.8.8-5.2,2.2-1,.8-1.8,2-2.2,3.2-.5,1.2-.8,1.6-1.4,1.6s-1-.5-1-1.4c0-.9.5-1.7,1.1-2.3l4.8-6.1ZM458.8,24.4q0-.1-.3-.8c-.2-.6-.6-1.1-1.2-1.4-.4-.2-.8-.3-1.3-.3-.9,0-1.5.5-1.5,1.2s1.1,1.6,2.8,1.6c.5,0,.9,0,1.4-.2,0,0,0,0,0,0"/>
    </g>
    <g id="_グループ_246" data-name="グループ 246">
      <rect id="_長方形_112" data-name="長方形 112" class="cls-3" y="88" width="419" height="47"/>
      <path id="_パス_799" data-name="パス 799" class="cls-2" d="M11.7,117.9c1.1,1,2.6,1.5,4.2,1.4,2.1,0,3.3-.1,12.8-1.2,1.8-.1,3.6-.4,5.4-.8.3-.1.7-.2,1-.2.9,0,1.7.3,2.4.7,1.4.6,1.9,1.1,1.9,1.9,0,.6-.5,1.1-1.1,1.1,0,0,0,0,0,0-.6,0-1.1-.2-1.7-.3-1.6-.4-3.2-.6-4.8-.6-5.5.2-11,.9-16.4,2-.2,0-.5,0-.7,0-.8,0-1.5-.5-2.3-1.5-.5-.6-.8-1.4-.8-2.1v-.3s0-.2,0-.2ZM20.5,108.3c2.3,0,4.5-.4,6.7-.8.7-.1,1.4-.4,2-.7.5-.3,1-.4,1.6-.4,1,0,1.9.4,2.7,1,.3.2.5.6.5,1,0,.3-.1.6-.4.8-.3.2-.6.3-1.7.3-3.2,0-6.5.4-9.7.8-.8.2-1.6.3-2.4.3-.7,0-1.4-.3-1.9-.9-.6-.6-1-1.4-1.2-2.2,1.2.6,2.5.8,3.8.8"/>
      <path id="_パス_800" data-name="パス 800" class="cls-2" d="M53.4,113.8c1.1,0,2.2-.2,3.3-.4q2.5-.4,3-.7c.3-.2.6-.3,1-.3.8.1,1.6.5,2.1,1,.4.2.7.6.7,1.1,0,.3-.2.6-.5.8q-.4.4-1.7,4.2c-.4,1.1-.6,1.7-1.1,3.3q.5,0,2.4-.3c.9,0,1.7-.3,2.5-.6.2,0,.5-.1.8-.1.7,0,1.4.3,2.1.6.7.3,1.1.7,1.1,1.2,0,.5-.3.9-.8,1,0,0,0,0-.1,0-.4,0-.7,0-1.1-.2-1.4-.2-2.8-.4-4.1-.3-2.3,0-4.5.2-6.8.6-2,.3-4.5.8-5.8,1.2-.4.2-.8.2-1.3.3-1.5-.2-2.8-1.2-3.3-2.7.9.3,1.9.4,2.8.4,1.2,0,5.5-.4,9.4-.9,1-2.7,1.7-5.4,2.3-8.2,0-.2-.1-.4-.3-.4,0,0,0,0-.1,0-1.5.2-3,.5-4.4,1-.7.3-1.4.4-2.1.5-1.2,0-2.3-1-2.4-2.3,0-.1,0-.2,0-.3.8.3,1.6.5,2.4.5"/>
      <path id="_パス_801" data-name="パス 801" class="cls-2" d="M78.6,128c2.6-2.7,4.8-5.9,6.5-9.3,1.6-3.3,3-7.4,3-9s-.3-1.2-1.3-1.7c.4-.4.9-.5,1.5-.6,1.1,0,2.1.5,2.8,1.3,1.9-1.2,3.6-2.6,5.2-4.2.4-.3.7-.8.7-1.3,0-.3-.3-.5-.8-.5-4.4.5-8.7,1.3-13,2.4-1,.3-2,.5-3,.6-.9,0-1.8-.4-2.4-1-.7-.6-1.3-1.4-1.5-2.3,1.5.4,3.1.6,4.7.6,3.8-.1,7.5-.5,11.3-1.1,2.8-.4,3-.5,3.7-.8.3-.2.7-.3,1.1-.3,1,.2,1.8.6,2.5,1.3,1.1.9,1.6,1.6,1.6,2.2,0,.3-.1.6-.4.8-.4.3-.8.4-1.3.5-.7.2-1.4.5-2.1.9-1.9,1.1-3.9,2.2-6,3.1-1,3.6-2.5,7.1-4.5,10.3-2,3.3-4.7,6.2-7.9,8.5l-.3-.3Z"/>
      <path id="_パス_802" data-name="パス 802" class="cls-2" d="M108.8,104.6c3.1.6,4.7,1.1,6.1,2.2,1.1.7,1.8,1.8,1.9,3.1,0,1-.6,1.8-1.4,1.8s-1-.3-1.6-1.3c-1.1-2.3-3-4.2-5.2-5.5v-.3ZM131.9,105.9c-2.8,5.5-6.7,10.4-11.5,14.3-1.9,1.6-3.9,3.1-6,4.4-.2.2-.5.3-.7.5-.4.4-1,.6-1.5.7-.8,0-1.7-.7-2.4-1.9-.5-.6-.7-1.3-.8-2.1,0-.3,0-.6.2-.9.6.9,1.5,1.4,2.6,1.6,1,0,2.8-.9,5.7-2.8,5.5-3.8,10.3-8.5,14.2-13.9l.4.2Z"/>
      <path id="_パス_803" data-name="パス 803" class="cls-2" d="M135.4,127c5.2-3.4,9.8-7.6,13.6-12.5,2.7-3.5,5.7-8.2,5.7-9.1s-.1-.3-.4-.3c-2.6.6-5.1,1.3-7.6,2.3-.8.4-1.7.7-2.6.7-1,0-1.8-.7-2.1-1.7-.2-.5-.4-1-.4-1.6,0-.2,0-.4,0-.6.8.7,1.8,1.1,2.8,1,2.4-.2,4.9-.5,7.2-1.1.9-.2,1.8-.5,2.5-1,.3-.2.6-.2.9-.3,1.1,0,3.3,1.9,3.3,2.9s-.1.7-.7,1.1q-.5.4-3.3,4.3c-.5.7-1,1.4-2.9,3.7,2.7,1.1,5.2,2.6,7.3,4.5,1.7,1.6,2.7,3.2,2.7,4.3,0,.9-.6,1.7-1.5,1.8-.3,0-.7-.2-.9-.4-.4-.5-.7-1.1-1-1.7-1.6-3.2-4.1-6-7.1-7.9-2.2,2.6-4.7,4.9-7.4,7-2.4,1.9-5,3.4-7.8,4.7l-.3-.4Z"/>
      <path id="_パス_804" data-name="パス 804" class="cls-2" d="M181.8,113.1c-2.4,1.4-5,2.5-7.6,3.3q0,1.8,0,2.5c0,1.1,0,2.2.3,3.3.4.8,1.4,1.1,3.8,1.1,2.1,0,4.3-.2,6.3-.8.3-.1.7-.2,1.1-.2.7,0,1.5.2,2.1.6.4.2.7.7.7,1.1,0,.8-.6,1.1-2.7,1.4-1.8.2-3.6.3-5.4.3-3.3,0-5.6-.4-6.7-1.2-1.2-.8-1.6-2.2-1.6-5.6s0-1.7,0-3.5c0-1.5,0-5,0-6.4,0-1,0-1.9-.3-2.8-.2-.7-.8-1.2-1.5-1.4.4-.5,1-.8,1.6-.8.9,0,1.8.4,2.6,1,.6.3.9.9.9,1.5,0,.3,0,.4-.3,1-.4.8-.6,2.6-.8,8.1,3-1.5,5.8-3.5,8.4-5.7.7-.7.9-1.1.9-1.5s-.2-.8-.8-1.3c.2-.1.5-.2.8-.2,1.4,0,3.6,1.7,3.6,2.8,0,.5-.3.9-.7,1,0,0-1.2.6-1.8.9l-2.7,1.4ZM194.8,103c0,2.2-1.8,4-4,4,0,0,0,0,0,0-2.2,0-4-1.7-4.1-3.9,0-2.2,1.7-4,3.9-4.1,0,0,0,0,.1,0,2.2,0,4,1.8,4,4,0,0,0,0,0,0M187.9,103c0,1.6,1.3,2.8,2.8,2.8,1.6,0,2.8-1.3,2.8-2.8,0-1.6-1.3-2.8-2.8-2.8h0c-1.6,0-2.8,1.2-2.8,2.8,0,0,0,0,0,0"/>
      <path id="_パス_805" data-name="パス 805" class="cls-2" d="M203.4,113.3c.6,0,1.5,0,2.5,0q2.9-.1,11.7-.5c1.8,0,3.7-.2,5.5-.5.2,0,.4,0,.6,0,.8,0,1.6.3,2.3.7.5.3.8.7.8,1.3,0,.7-.6,1.1-1.5,1.1-.2,0-.5,0-.7,0-1.5-.1-3.1-.2-4.6-.2-3.4,0-11,.3-14.6.6-.9,0-1.9.1-2.8.4-.3.1-.7.2-1.1.2-1.1,0-2.4-1.7-2.4-3.1,0-.5.2-.9.5-1.3,1,1.1,1.6,1.4,3.9,1.4"/>
      <path id="_パス_806" data-name="パス 806" class="cls-2" d="M235.1,107.3c4.6-1.1,9.1-2.9,13.2-5.3,1.2-.7,1.4-1,1.4-1.6s0-.5-.4-1.2c.8,0,1.5.2,2.1.6.9.5,1.6,1.3,1.8,2.3,0,.6-.2.8-1.1,1-.5.1-1.1.3-1.6.5-1.1.5-2.6,1.1-3.8,1.5,2.2,1.1,2.6,1.6,2.6,3s0,1.4-.1,2.4c4-.6,4.7-.7,5.7-1.1.4-.2.8-.3,1.2-.3,1.2,0,2.4.5,3.4,1.2.5.2.8.7.8,1.3,0,.5-.4.9-.9.9,0,0,0,0-.1,0-.5,0-1.1-.1-1.6-.2-1.5-.3-3-.5-4.5-.5-1.2,0-2.4,0-4.2.2-.3,3.7-1.5,7.2-3.5,10.3-1.7,2.7-3.9,4.9-6.6,6.7l-.3-.3c4.5-4.3,7.3-10.1,7.8-16.3-2.8.4-5.6,1-8.4,1.7-.5.2-1.1.3-1.7.3-.9,0-1.8-.4-2.4-1.1-.8-.8-1-1.2-1.1-1.8,1,.3,2.1.5,3.2.4q1.8,0,10.5-1v-1.3c0-2.4-.3-3.3-1.1-3.9-3.3,1-6.7,1.7-10.2,2.1v-.4Z"/>
      <path id="_パス_807" data-name="パス 807" class="cls-2" d="M269.4,127.5c5.8-4,10.2-9.6,12.9-16,.9-2.1,1.6-4.2,2-6.4,0-.3-.1-.4-.4-.4-.1,0-.2,0-.4,0,0,0-.3,0-.7,0-1.9.1-6.4.8-9.2,1.3-.2,0-.5,0-.7,0-.6,0-1.2-.2-1.7-.5.1,1.2.2,1.9.3,3.1q.2,2.1.4,3.7c0,.3,0,.6,0,.8,0,1-.4,1.6-1,1.6s-2-1.8-2-3.1c0-.3,0-.6.1-1,0-.4.1-.9.1-1.3,0-1.4-.2-2.8-.6-4.1-.3-.8-.9-1.4-1.7-1.8.3-.2.6-.3.9-.3,1.1,0,2.2.5,3.1,1.2.3,0,.5,0,.8,0,1.3,0,6.1-.6,10.3-1.2.8,0,1.5-.2,2.1-.7.2-.2.4-.3.6-.3.5,0,1.1.4,2,1.3s1.3,1.4,1.3,1.9c0,.3-.1.5-.4.7-.4.3-.7.7-.8,1.1,0,0-.1.3-.2.5,0,.1-.2.5-.4,1.1-1.8,5-4.7,9.6-8.4,13.4-2.4,2.4-5.2,4.3-8.2,5.8l-.3-.4Z"/>
      <path id="_パス_808" data-name="パス 808" class="cls-2" d="M296.7,104.6c3.1.6,4.7,1.1,6.1,2.2,1.1.7,1.8,1.8,1.9,3.1,0,1-.6,1.8-1.4,1.8s-1-.3-1.6-1.3c-1.1-2.3-2.9-4.2-5.2-5.5v-.3ZM319.9,105.9c-2.8,5.5-6.7,10.4-11.5,14.3-1.9,1.6-3.9,3.1-6,4.4-.2.2-.5.3-.7.5-.4.4-1,.6-1.5.7-.8,0-1.7-.7-2.4-1.9-.5-.6-.7-1.3-.8-2.1,0-.3,0-.6.2-.9.6.9,1.5,1.4,2.6,1.6,1,0,2.8-.9,5.7-2.8,5.5-3.8,10.3-8.5,14.2-13.9l.4.2Z"/>
      <path id="_パス_809" data-name="パス 809" class="cls-2" d="M339.3,113.1c-2.4,1.4-5,2.5-7.6,3.3q0,1.8,0,2.5c0,1.1,0,2.2.3,3.3.4.8,1.4,1.1,3.8,1.1,2.1,0,4.3-.2,6.3-.8.3-.1.7-.2,1.1-.2.7,0,1.5.2,2.1.6.4.2.7.7.7,1.1,0,.8-.6,1.1-2.7,1.4-1.8.2-3.6.3-5.4.3-3.3,0-5.6-.4-6.7-1.2-1.2-.8-1.6-2.2-1.6-5.6s0-1.7,0-3.5c0-1.5,0-5,0-6.4,0-1,0-1.9-.3-2.8-.2-.7-.8-1.2-1.5-1.4.4-.5,1-.8,1.6-.8.9,0,1.8.4,2.6,1,.6.3.9.9.9,1.5,0,.3,0,.4-.3,1-.4.8-.6,2.6-.8,8.1,3-1.5,5.8-3.5,8.4-5.7.7-.7.9-1.1.9-1.5s-.2-.8-.8-1.3c.2-.1.5-.2.8-.2,1.4,0,3.6,1.7,3.6,2.8,0,.5-.3.9-.7,1,0,0-1.2.6-1.8.9l-2.7,1.4ZM352.2,103c0,2.2-1.8,4-4,4,0,0,0,0,0,0-2.2,0-4-1.8-3.9-4.1,0-2.2,1.8-3.9,3.9-3.9,2.2,0,4,1.8,4,4,0,0,0,0,0,0M345.4,103c0,1.6,1.3,2.8,2.8,2.8,1.6,0,2.8-1.3,2.8-2.8,0-1.6-1.3-2.8-2.8-2.8h0c-1.6,0-2.8,1.2-2.8,2.8,0,0,0,0,0,0"/>
      <path id="_パス_810" data-name="パス 810" class="cls-2" d="M360.8,113.3c.6,0,1.5,0,2.6,0q2.9-.1,11.7-.5c1.8,0,3.7-.2,5.5-.5.2,0,.4,0,.6,0,.8,0,1.6.3,2.3.7.5.3.8.7.8,1.3,0,.7-.6,1.1-1.5,1.1-.2,0-.5,0-.7,0-1.5-.1-3.1-.2-4.6-.2-3.4,0-11,.3-14.6.6-.9,0-1.9.1-2.8.4-.3.1-.7.2-1.1.2-1.1,0-2.4-1.7-2.4-3.1,0-.5.2-.9.5-1.3,1,1.1,1.6,1.4,3.9,1.4"/>
      <path id="_パス_811" data-name="パス 811" class="cls-2" d="M386.2,127c5.2-3.4,9.8-7.6,13.6-12.5,2.7-3.5,5.7-8.2,5.7-9.1s-.1-.3-.4-.3c-2.6.6-5.1,1.3-7.6,2.3-.8.4-1.7.7-2.6.7-1,0-1.8-.7-2.1-1.7-.2-.5-.4-1-.4-1.6,0-.2,0-.4,0-.6.8.7,1.8,1.1,2.8,1,2.4-.2,4.9-.5,7.2-1.1.9-.2,1.8-.5,2.5-1,.3-.2.6-.2.9-.3,1.1,0,3.3,1.9,3.3,2.9s-.1.7-.7,1.1q-.5.4-3.3,4.3c-.5.7-1,1.4-2.9,3.7,2.7,1.1,5.2,2.6,7.3,4.5,1.7,1.6,2.7,3.2,2.7,4.3,0,.9-.6,1.7-1.5,1.8-.3,0-.7-.2-.9-.4-.4-.5-.7-1.1-1-1.7-1.6-3.2-4.1-6-7.1-7.9-2.2,2.6-4.7,4.9-7.4,7-2.4,1.9-5,3.4-7.8,4.7l-.3-.4Z"/>
    </g>
    <rect id="_長方形_113" data-name="長方形 113" class="cls-1" width="466" height="136"/>
  </g>
</svg>