<?xml version="1.0" encoding="UTF-8"?>
<svg id="_レイヤー_1" data-name="レイヤー 1" xmlns="http://www.w3.org/2000/svg" version="1.1" viewBox="0 0 194 79.6">
  <defs>
    <style>
      .cls-1 {
        fill: #2e2e2e;
        stroke-width: 0px;
      }
    </style>
  </defs>
  <g id="_グループ_436" data-name="グループ 436">
    <path id="_パス_1365" data-name="パス 1365" class="cls-1" d="M87.7,1.6c-21.5,0-39.4,17.6-39.4,39s18,39,39.4,39,39.4-17.6,39.4-39S109.1,1.6,87.7,1.6ZM87.7,6.1c18.8,0,34.6,15.7,34.6,34.5s-15.7,34.5-34.6,34.5c-19-.1-34.4-15.5-34.6-34.5.2-19,15.6-34.3,34.6-34.5ZM177.8,59.7V0h-.6l-45.3,63.6v.6h41v14.4h4.8v-14.4h10.7v-4.5h-10.7ZM173,59.7h-32.1v-.6l31.5-44.3h.6v44.9Z"/>
    <path id="_パス_1366" data-name="パス 1366" class="cls-1" d="M7.5,46.5c1.2-.6.3-2.3-1.1-.8-1.1,1.2-6.7,4.1-4.6,0,.7-1.1,1.4-2.1,2-3.2,1.1-1.4-.6-2.3-1.2-1.5-.9,1.2-1.4,2.8-2.2,4-.3.5-.4,1.1-.4,1.7-.2.8.4,1.7,1.2,1.9,0,0,0,0,0,0,.5,0,1.1,0,1.6,0,1.6-.5,3.2-1.1,4.6-2ZM6.3,37c-1,0-1.8.8-1.8,1.7-.3,1.3.1,1.3,1.1.8.7-.4,1.2-.9,1.5-1.6,0-.4-.1-.8-.5-.8,0,0-.2,0-.2,0ZM7.2,34.3c1.9,0,4.3,0,6.6-.1-1.9,3-4.9,6.9-6.4,10.6-1,2.2-2.4,7,2.2,5.4,2.5-1,4.8-2.4,6.9-4.1.4-.2.5-.7.3-1.1-.3-.4-.6-.2-1,0-.3.2-.5.4-.8.6-1.7,1.4-3.5,2.6-5.5,3.5-3.3,1.4-1.6-2.6-.4-5,1.9-3.5,4.1-6.9,6.5-10.1,3.2.1,15.7.2,19.3-.5,1.4-.3,1.7-1.1,0-1.2-1.3,0-2.7,0-4,.3-5.1.6-11.6.7-14.5.2,2-2.9,1.3-2.2,2.8-4.2,0-.2.4-.5.5-.8,0-.3,0-.7-.2-.8-.4-.4-.9.1-1.1.5-1.9,2.5-1.6,2.4-3.5,5,0,.1-.1.2-.3.3-2.3.3-4.7.3-7,.1-1.4-.1-1.8.3-2,.6-.1.2,0,.9,1.6.7h0ZM26.2,45.3c-1.4,1.3-7.7,2.6-9,1.3-.5-.5-.5-1,.6-1,.7,0,1.3,0,2-.2.8-.2,1.5-.5,2.2-1,.4-.2.7-.7.6-1.2,0-.5-.5-.8-1-.9-1.3,0-2.6.2-3.8.8-.9.4-1.6,1.3-1.8,2.3-.7,2.7,2.1,2.9,3.9,2.8,2.8-.1,5.4-.8,7.9-2.1.3-.2.5-.5.3-.9-.2-.4-.5-.4-.9-.4-.3,0-.6.2-.9.4ZM21.1,43.9c-1.1.8-2.4,1.2-3.8,1.1,1.7-1.1,4.7-2.3,3.8-1.1ZM33.9,44.9c0-.2-.1-.5-.2-.7-.2-.9-1-1.4-1.8-1.3-.2,0-.3,0-.5.2-.4.2-.8.4-1.2.7-.6.4-1.8,1.9-2.3,2.2.3-.9.7-1.8,1.2-2.6.1-.3.3-.6.4-1,0-.2-.1-.5-.4-.6-.2,0-.5,0-.7.2-.2.2-.3.4-.3.6-.9,1.6-1.6,3-2.4,4.5-.2.2-.3.5-.4.8-.1.4,0,.7.4.8.2,0,.4,0,.5,0,.3-.2.6-.4.9-.7,1.3-1.1,2.7-2.8,4-3.8,1.2-.9.9-.3,1.3.9.1.8.9,1.4,1.7,1.3.1,0,.2,0,.3,0,.5-.1,1.1-.3,1.5-.6,1.4-.8,3-2,4.4-2.7,1.4-.9,1.2-.2,1.2,1.3s0,.7,0,1.1c0,1.8,1,2.6,2.8,2.4,1.4-.2,2.8-.7,4-1.5.8-.3.9-.9.7-1.2-.2-.3-.5-.3-1.3,0-1,.4-2,.8-3,1.1-1.3.4-2,0-1.9-1.5.1-.6,0-1.3,0-1.9,0-.8-.7-1.3-1.4-1.3-.1,0-.3,0-.4,0-.6.1-1.3.4-1.8.7-1.4.7-2.7,1.5-4.1,2.3-.4.2-.8.4-1.3.2Z"/>
  </g>
</svg>