<svg xmlns="http://www.w3.org/2000/svg" width="299" height="90" viewBox="0 0 299 90">
  <g id="グループ_328" data-name="グループ 328" transform="translate(-0.478 -0.478)">
    <path id="パス_1353" data-name="パス 1353" d="M-33.844,19.217a2.99,2.99,0,0,0,1.562-1.209c.554-.756,1.008-1.562,1.512-2.267C-27.142,9.9-23.464,4.2-19.837-1.593a1.023,1.023,0,0,1,1.008-.5c1.411-.1,2.872-.3,4.283-.4.4-.05.756-.151,1.31-.252a16.818,16.818,0,0,0-5.139-.957c.5-.756.907-1.461,1.31-2.015,3.88-5.643,7.709-11.236,11.589-16.829a3.859,3.859,0,0,0,.554-.957,1.1,1.1,0,0,0-.2-.857,1.276,1.276,0,0,0-.857-.1,4.205,4.205,0,0,0-.806.6C-8.3-22.352-9.81-20.89-11.372-19.379-17.015-14.189-22.658-9.05-28.352-3.86a2.285,2.285,0,0,1-1.663.705C-32.534-3.1-35-3-37.472-2.9c-2.973.2-5.9.353-8.868.6q-4.535.227-9.069.6a4.2,4.2,0,0,0-.756.2c-.151.1-.4.3-.353.453a1.579,1.579,0,0,0,.4.554,3.75,3.75,0,0,0,1.31.1c2.419-.1,4.938-.353,7.356-.5,4.988-.252,9.876-.453,14.864-.705.5,0,1.008-.05,1.764-.1a8.736,8.736,0,0,1-.907.957c-2.67,2.267-5.29,4.585-7.911,6.953-.5.453-1.008.857-1.512,1.36-.151.1-.1.453-.2.655.3,0,.5.151.705,0a14.192,14.192,0,0,0,1.814-1.209c3.074-2.67,6.2-5.341,9.221-8.112A3.3,3.3,0,0,1-27.7-1.794c1.713,0,3.477-.2,5.24-.252h1.008A6.99,6.99,0,0,1-22-1.089c-2.217,3.426-4.384,6.752-6.55,10.128-1.612,2.57-3.074,5.139-4.535,7.709A4.346,4.346,0,0,0-33.844,19.217Zm7.205-22.774c5.391-4.988,10.883-9.976,16.224-14.864.05,0,.1,0,.1.05-.705,1.108-1.512,2.267-2.318,3.376C-15-11.468-17.418-7.941-19.786-4.364a1.724,1.724,0,0,1-1.512.806c-1.764,0-3.477.1-5.24.151C-26.588-3.457-26.639-3.507-26.639-3.558Zm22.119.1c.655.806,1.108.554,1.512.2a20.553,20.553,0,0,0,5.29-6.2,5.1,5.1,0,0,0,.554-1.814c.151-1.058-.655-1.814-1.461-1.562a5.535,5.535,0,0,0-.705.453,6.567,6.567,0,0,0-1.108.957,41.94,41.94,0,0,0-6.55,8.162c-.6,1.108-.756.6-1.915.756-1.663.1-1.26,1.965,0,2.015-1.209,2.57-2.872,6-4.434,9.221a8.7,8.7,0,0,0-.554,1.612c-.2,1.461.655,2.519,1.864,2.318a11.8,11.8,0,0,0,1.763-.655A26.186,26.186,0,0,0-2.5,4.5,8.348,8.348,0,0,0-.841-.837a19.353,19.353,0,0,1,5.744-.3c.353,0,.756-.1.705-.554-.05-.806-.4-.907-.806-.857A36.778,36.778,0,0,1-5.779-2.3c1.26-2.469,5.694-7.81,7-8.314A24.615,24.615,0,0,1-4.519-3.457Zm2.368,2.67a8.681,8.681,0,0,1-.655,2.973,26.171,26.171,0,0,1-8.062,8.364c-.453.2-1.008.3-1.461.5a.314.314,0,0,1-.151-.252,4.017,4.017,0,0,1,.151-.756c1.008-2.066,1.915-4.182,2.872-6.248A43.447,43.447,0,0,1-7.391-.232C-6.686-1.139-3.864-.434-2.151-.787ZM5-12.829c1.864,0,4.333-.05,6.55-.1C9.689-9.957,6.666-6.027,5.1-2.3c-.957,2.217-2.368,7,2.167,5.442a27.341,27.341,0,0,0,6.9-4.132.835.835,0,0,0,.3-1.108c-.3-.4-.6-.2-1.008.05a8.4,8.4,0,0,0-.806.6A24.453,24.453,0,0,1,7.17,2.085C3.9,3.446,5.558-.535,6.767-2.9a75.749,75.749,0,0,1,6.55-10.077c3.174.1,15.67.2,19.348-.453,1.411-.3,1.663-1.058,0-1.159a33.432,33.432,0,0,0-4.031.252c-5.089.554-11.589.655-14.461.151,1.965-2.872,1.26-2.167,2.771-4.232.1-.2.4-.5.453-.756,0-.252-.05-.705-.2-.806-.4-.353-.907.1-1.108.5-1.915,2.519-1.612,2.368-3.477,4.988a.607.607,0,0,1-.252.252,32.644,32.644,0,0,1-7,.1c-1.411-.1-1.763.3-1.965.6C3.29-13.333,3.442-12.627,5-12.829ZM23.949-1.845C22.538-.535,16.24.775,14.93-.535c-.453-.453-.453-1.008.554-1.008a8.392,8.392,0,0,0,1.965-.2A9.814,9.814,0,0,0,19.666-2.7,1.083,1.083,0,0,0,20.22-3.91a1.075,1.075,0,0,0-1.008-.857,9.207,9.207,0,0,0-3.779.756A3.127,3.127,0,0,0,13.62-1.744C12.914.977,15.685,1.179,17.5,1.078A20.043,20.043,0,0,0,25.41-.988a.648.648,0,0,0,.3-.857c-.2-.353-.453-.4-.857-.353A6.729,6.729,0,0,0,23.949-1.845ZM18.86-3.306A6.048,6.048,0,0,1,15.081-2.2C16.743-3.306,19.767-4.465,18.86-3.306ZM33.27-.232c3.074.151,3.628-1.713,1.713-1.562-.353,0-.756.05-1.058.05-.806.05-1.058-.1-1.209-.857-.1-.453-.151-.957-.3-1.461A1.475,1.475,0,0,0,30.448-5.17a2.542,2.542,0,0,0-1.36.6c-.6.4-1.159.957-1.814,1.461a5.787,5.787,0,0,1-.5.4,21.5,21.5,0,0,1,1.209-2.67,2.374,2.374,0,0,0,.2-.857.591.591,0,0,0-.252-.554.549.549,0,0,0-.554.1,3.772,3.772,0,0,0-.655.907c-1.26,2.267-2.469,4.585-3.729,6.852-.1.252-.3.453-.3.756,0,1.159,1.411.705,1.864-.3a10.977,10.977,0,0,1,2.721-3.275c.756-.705,3.023-3.124,3.88-1.209C31.456-1.794,31.658-.333,33.27-.232ZM44.405,1.582c-1.36.554-1.411-.05-.957-1.31.453-1.008,1.209-1.864,1.058-2.922-.2-2.217-2.267-1.562-3.678-.857A25.012,25.012,0,0,0,35.991-.333C34.328,1.078,36.646-1.341,37-1.845c.5-.655.907-1.411,1.36-2.116.5-.806.6-1.26.3-1.461-.3-.3-.756,0-1.26.655a2.382,2.382,0,0,1-.353.6c-.6.907-1.209,1.814-1.864,2.67-.5.806-1.008,1.612-1.562,2.419a.73.73,0,0,0,0,1.058c.4.4.806.151,1.108,0a1.678,1.678,0,0,0,.554-.453C36.343.775,37.3.02,38.309-.686,39.367-1.341,40.526-2,41.634-2.6c2.116-.705,1.562.4.957,1.864-.151.6-.453,1.058-.6,1.713a1.42,1.42,0,0,0,.705,1.713,2.689,2.689,0,0,0,2.066-.1c2.116-.857,4.283-1.763,6.349-2.721,1.965-.907,1.461-2.217-.655-1.26A66.962,66.962,0,0,1,44.405,1.582ZM57.354-1.845c.2-.453.353-.756.5-1.058a13.741,13.741,0,0,0,.4-1.713c.05-1.108-.6-1.612-1.713-1.512a3.478,3.478,0,0,0-1.915.806,14.936,14.936,0,0,0-3.426,3.477c-2.469,3.93-.6,5.139,1.209,4.585,1.26-.4,1.965-1.31,3.376-2.62a1.383,1.383,0,0,1,.907-.5c1.209-.252,2.469-.4,3.729-.655a11.97,11.97,0,0,0,1.864-.3.831.831,0,0,0,.5-.4.684.684,0,0,0-.353-.655,1.836,1.836,0,0,0-.756-.1c-.6.1-1.512.2-2.066.3C58.916-2.046,58.161-2,57.354-1.845Zm-4.837.252c.2.957.907,1.26,1.965,1.26C53.172,2.539,50.2,1.179,52.517-1.593ZM56.8-4.918c0,.4.1.705,0,.806a7.084,7.084,0,0,1-.907,1.864,1.035,1.035,0,0,1-1.562.2.544.544,0,0,1-.151-.806A4.41,4.41,0,0,1,56.8-4.918ZM67.835-1.845c.2-.453.353-.756.5-1.058a13.744,13.744,0,0,0,.4-1.713c.05-1.108-.6-1.612-1.713-1.512a3.478,3.478,0,0,0-1.915.806,14.936,14.936,0,0,0-3.426,3.477c-2.469,3.93-.6,5.139,1.209,4.585,1.26-.4,1.965-1.31,3.376-2.62a1.383,1.383,0,0,1,.907-.5c1.209-.252,2.469-.4,3.729-.655a11.971,11.971,0,0,0,1.864-.3.831.831,0,0,0,.5-.4.684.684,0,0,0-.353-.655,1.836,1.836,0,0,0-.756-.1c-.6.1-1.512.2-2.066.3C69.4-2.046,68.641-2,67.835-1.845ZM63-1.593c.2.957.907,1.26,1.965,1.26C63.653,2.539,60.68,1.179,63-1.593ZM67.28-4.918c0,.4.1.705,0,.806a7.084,7.084,0,0,1-.907,1.864,1.035,1.035,0,0,1-1.562.2.544.544,0,0,1-.151-.806A4.41,4.41,0,0,1,67.28-4.918Zm13.957,6.5c-1.36.554-1.411-.05-.957-1.31.453-1.008,1.209-1.864,1.058-2.922-.2-2.217-2.267-1.562-3.678-.857A25.012,25.012,0,0,0,72.823-.333c-1.663,1.411.655-1.008,1.008-1.512.5-.655.907-1.411,1.36-2.116.5-.806.6-1.26.3-1.461-.3-.3-.756,0-1.26.655a2.383,2.383,0,0,1-.353.6c-.6.907-1.209,1.814-1.864,2.67-.5.806-1.008,1.612-1.562,2.419a.73.73,0,0,0,0,1.058c.4.4.806.151,1.108,0a1.678,1.678,0,0,0,.554-.453C73.175.775,74.133.02,75.14-.686,76.2-1.341,77.357-2,78.466-2.6c2.116-.705,1.562.4.957,1.864-.151.6-.453,1.058-.6,1.713a1.42,1.42,0,0,0,.705,1.713,2.689,2.689,0,0,0,2.066-.1c2.116-.857,4.283-1.763,6.349-2.721,1.965-.907,1.461-2.217-.655-1.26A66.962,66.962,0,0,1,81.237,1.582Zm19.046-14.41c1.864,0,4.333-.05,6.55-.1-1.864,2.973-4.887,6.9-6.449,10.631-.957,2.217-2.368,7,2.167,5.442a27.342,27.342,0,0,0,6.9-4.132.835.835,0,0,0,.3-1.108c-.3-.4-.6-.2-1.008.05a8.4,8.4,0,0,0-.806.6,24.452,24.452,0,0,1-5.492,3.527c-3.275,1.36-1.612-2.62-.4-4.988A75.751,75.751,0,0,1,108.6-12.98c3.174.1,15.67.2,19.348-.453,1.411-.3,1.663-1.058,0-1.159a33.432,33.432,0,0,0-4.031.252c-5.089.554-11.589.655-14.461.151,1.965-2.872,1.26-2.167,2.771-4.232.1-.2.4-.5.453-.756,0-.252-.05-.705-.2-.806-.4-.353-.907.1-1.108.5-1.915,2.519-1.612,2.368-3.477,4.988a.607.607,0,0,1-.252.252,32.644,32.644,0,0,1-7,.1c-1.411-.1-1.763.3-1.965.6C98.57-13.333,98.721-12.627,100.283-12.829ZM119.228-1.845c-1.411,1.31-7.709,2.62-9.019,1.31-.453-.453-.453-1.008.554-1.008a8.391,8.391,0,0,0,1.965-.2,9.814,9.814,0,0,0,2.217-.957A1.083,1.083,0,0,0,115.5-3.91a1.075,1.075,0,0,0-1.008-.857,9.207,9.207,0,0,0-3.779.756A3.127,3.127,0,0,0,108.9-1.744c-.705,2.721,2.066,2.922,3.88,2.822a20.043,20.043,0,0,0,7.911-2.066.648.648,0,0,0,.3-.857c-.2-.353-.453-.4-.857-.353A6.73,6.73,0,0,0,119.228-1.845Zm-5.089-1.461A6.048,6.048,0,0,1,110.36-2.2C112.023-3.306,115.046-4.465,114.139-3.306Zm19.6,2.116c.453-.2.2-.6-.151-.705-.3-.05-.6.2-.857.3a18.114,18.114,0,0,1-2.721,1.26c-3.074.907-.453-3.93-.05-4.787a2.82,2.82,0,0,0,.4-1.008.964.964,0,0,0-.2-.756,1.3,1.3,0,0,0-.756-.05c-.2.05-.4.3-.554.5-.453.453-.907.957-1.36,1.411a1.153,1.153,0,0,1-1.058.4A8.257,8.257,0,0,0,120.185-2.5a6.273,6.273,0,0,0-.957,1.058,1.439,1.439,0,0,0-.151,1.663,1.429,1.429,0,0,0,1.562.655,2.85,2.85,0,0,0,1.411-.4c1.764-.907,3.376-2.015,5.089-3.074a11.832,11.832,0,0,0-.2,1.763C126.937,2.64,132.227.221,133.739-1.19Zm-13.251.6a8.111,8.111,0,0,1,5.694-3.023A12.479,12.479,0,0,1,120.488-.585Z" transform="translate(161.835 67.38)" fill="#2e2e2e"/>
    <path id="パス_1354" data-name="パス 1354" d="M-10.048-3.283a6.989,6.989,0,0,1,.554-.957c2.872-4.434,5.794-8.817,8.666-13.3.806-1.209,1.562-2.469,2.267-3.729.3-.554.3-1.058-.1-1.26-.554-.252-.756.2-.957.554-1.411,2.167-2.872,4.333-4.283,6.4-2.57,3.93-5.139,7.81-7.759,11.639a1.141,1.141,0,0,1-1.058.655h-6.651c.1-.3.2-.4.252-.554,2.116-3.225,4.333-6.449,6.449-9.674,1.159-1.763,2.318-3.527,3.426-5.29a3.5,3.5,0,0,0,.5-1.159.95.95,0,0,0-1.209.554c-1.008,1.26-1.814,2.469-2.721,3.678-2.67,3.93-5.391,7.81-8.062,11.689a1.392,1.392,0,0,1-1.36.806c-3.678,0-7.407.05-11.085.151-4.887.151-9.825.3-14.813.5-1.159,0-2.419.252-3.678.353-.453.05-.957.2-.907.756,0,.554.6.5.957.5,1.612-.05,3.124-.2,4.736-.2,4.736-.151,9.422-.3,14.108-.453,3.225-.05,6.449-.05,9.674-.05.252,0,.4.05.705.05a1.435,1.435,0,0,0-.2.4C-24,.9-25.365,2.914-26.726,5.081c-.857,1.31-1.562,2.721-2.368,4.081-.151.252-.4.655,0,.957.4-.5.857-1.008,1.26-1.612a36.186,36.186,0,0,0,2.721-3.376c1.411-1.965,2.771-4.081,4.132-6.1a1.287,1.287,0,0,1,1.26-.756c1.965.05,3.88,0,5.794,0a6.32,6.32,0,0,1,.756.1,3.3,3.3,0,0,0-.4.655c-2.57,3.779-5.089,7.608-7.709,11.438A26.674,26.674,0,0,1-24.055,14a7.172,7.172,0,0,0-1.612,2.267c-.4.756-.353,1.26.1,1.512.453.3.957.1,1.411-.554.705-1.008,1.512-2.015,2.217-3.023,3.426-5.039,6.9-10.128,10.279-15.166a1.461,1.461,0,0,1,1.31-.756c1.512,0,2.973,0,4.434-.1,1.31-.05,2.519-.3,3.829-.353v-.2A27.8,27.8,0,0,0-10.048-3.283Zm23.883.806c.453-.2.2-.6-.151-.705-.3-.05-.6.2-.857.3a18.112,18.112,0,0,1-2.721,1.26c-3.074.907-.453-3.93-.05-4.787a2.82,2.82,0,0,0,.4-1.008.964.964,0,0,0-.2-.756,1.3,1.3,0,0,0-.756-.05c-.2.05-.4.3-.554.5-.453.453-.907.957-1.36,1.411a1.153,1.153,0,0,1-1.058.4A8.257,8.257,0,0,0,.281-3.787,6.272,6.272,0,0,0-.676-2.729,1.439,1.439,0,0,0-.827-1.066,1.429,1.429,0,0,0,.734-.411a2.85,2.85,0,0,0,1.411-.4C3.909-1.721,5.521-2.83,7.234-3.888a11.833,11.833,0,0,0-.2,1.764C7.033,1.352,12.323-1.066,13.835-2.477Zm-13.251.6A8.111,8.111,0,0,1,6.277-4.9,12.479,12.479,0,0,1,.583-1.872ZM25.474-7.717c1.159-.957-.151-2.721-1.159-1.713C22.854-8.07,20.133-5.2,19.176-4.341c-1.31,1.108-2.62,2.318-3.93,3.426a5.721,5.721,0,0,1-1.159.756,1.135,1.135,0,0,0-.252-.252c.151-.655.3-1.31.5-1.915l1.612-4.333a3.772,3.772,0,0,0,.1-1.058c-.05-.453-.4-.554-.705-.2a1.325,1.325,0,0,0-.453.705,37.869,37.869,0,0,0-1.612,3.93,13.16,13.16,0,0,0-.705,2.771C12.323.848,13.281,1.554,14.54,1A8.644,8.644,0,0,0,16.556-.31c1.814-1.562,3.88-3.174,5.643-4.938-.151,1.411.05,2.973,1.915,3.023a6.385,6.385,0,0,0,1.713-.2c1.159-.2.806-1.209-.453-1.209h-.756c-2.066,0-1.058-2.469-.1-3.275ZM36.055-3.132c-1.411,1.31-7.709,2.62-9.019,1.31-.453-.453-.453-1.008.554-1.008a8.391,8.391,0,0,0,1.965-.2,9.814,9.814,0,0,0,2.217-.957A1.083,1.083,0,0,0,32.326-5.2a1.075,1.075,0,0,0-1.008-.857A9.207,9.207,0,0,0,27.54-5.3a3.127,3.127,0,0,0-1.814,2.267C25.02-.31,27.792-.109,29.605-.21a20.043,20.043,0,0,0,7.911-2.066.648.648,0,0,0,.3-.857c-.2-.353-.453-.4-.857-.353A6.729,6.729,0,0,0,36.055-3.132ZM30.966-4.593a6.048,6.048,0,0,1-3.779,1.108C28.85-4.593,31.873-5.752,30.966-4.593ZM62.659-2.477c.453-.2.2-.6-.151-.705-.3-.05-.6.2-.857.3A18.112,18.112,0,0,1,58.93-1.62c-3.074.907-.453-3.93-.05-4.787a2.82,2.82,0,0,0,.4-1.008.964.964,0,0,0-.2-.756,1.3,1.3,0,0,0-.756-.05c-.2.05-.4.3-.554.5-.453.453-.907.957-1.36,1.411a1.153,1.153,0,0,1-1.058.4A8.257,8.257,0,0,0,49.1-3.787a6.272,6.272,0,0,0-.957,1.058A1.439,1.439,0,0,0,48-1.066a1.429,1.429,0,0,0,1.562.655,2.85,2.85,0,0,0,1.411-.4c1.764-.907,3.376-2.015,5.089-3.074a11.832,11.832,0,0,0-.2,1.764C55.856,1.352,61.147-1.066,62.659-2.477Zm-13.251.6A8.111,8.111,0,0,1,55.1-4.9,12.479,12.479,0,0,1,49.407-1.872ZM79.89-.159c.907-1.763,1.763-3.729,2.62-5.694.2-.453.252-.857-.1-1.159-.2-.353-.6-.2-1.008-.1a5.091,5.091,0,0,1-.857.151,5.318,5.318,0,0,0-1.26.1A9.448,9.448,0,0,0,75.2-4.694a5.54,5.54,0,0,0-1.36,1.512,1.206,1.206,0,0,0-.1,1.411,1.191,1.191,0,0,0,1.411.353,9.107,9.107,0,0,0,2.116-.806c.806-.4,2.318-1.612,3.174-2.015a12.029,12.029,0,0,1-1.36,3.275A5.216,5.216,0,0,1,75.96,1.554,63.68,63.68,0,0,0,65.782,6.592c-1.108.857-2.318,1.663-3.477,2.62a6.9,6.9,0,0,0-1.461,1.915A1.575,1.575,0,0,0,62,13.6a5.312,5.312,0,0,0,1.814.151,15.164,15.164,0,0,0,6.8-2.57,24.87,24.87,0,0,0,7.709-8.314,4.049,4.049,0,0,1,1.411-1.612C81.4.7,82.964.093,84.526-.411c3.124-1.108,1.209-.05,4.333-1.108a3.612,3.612,0,0,0,1.108-.5c.252-.151.5-.554.252-.857a1.5,1.5,0,0,0-.857-.4,1.281,1.281,0,0,0-.705.151C84.476-1.62,85.282-2.023,81.15-.562ZM64.775,12.588c-3.88.907-3.023-1.26-.554-3.023,2.872-2.368,9.271-6.3,12.949-7.306C74.852,6.542,69.612,11.228,64.775,12.588ZM75.86-3.334A6.909,6.909,0,0,1,80.445-5.6C78.58-3.737,74.953-1.62,75.86-3.334Zm19.4.2c.2-.453.353-.756.5-1.058a13.74,13.74,0,0,0,.4-1.713c.05-1.108-.6-1.612-1.713-1.512a3.478,3.478,0,0,0-1.915.806,14.936,14.936,0,0,0-3.426,3.477c-2.469,3.93-.6,5.139,1.209,4.585,1.26-.4,1.965-1.31,3.376-2.62a1.383,1.383,0,0,1,.907-.5c1.209-.252,2.469-.4,3.729-.655a11.971,11.971,0,0,0,1.864-.3.831.831,0,0,0,.5-.4.683.683,0,0,0-.353-.655,1.836,1.836,0,0,0-.756-.1c-.6.1-1.512.2-2.066.3C96.82-3.334,96.064-3.283,95.258-3.132Zm-4.837.252c.2.957.907,1.26,1.965,1.26C91.076,1.252,88.1-.109,90.421-2.88ZM94.7-6.206c0,.4.1.705,0,.806A7.084,7.084,0,0,1,93.8-3.535a1.035,1.035,0,0,1-1.562.2.544.544,0,0,1-.151-.806A4.41,4.41,0,0,1,94.7-6.206Zm11.034,3.074c.2-.453.353-.756.5-1.058a13.741,13.741,0,0,0,.4-1.713c.05-1.108-.6-1.612-1.713-1.512a3.478,3.478,0,0,0-1.915.806,14.936,14.936,0,0,0-3.426,3.477c-2.469,3.93-.6,5.139,1.209,4.585,1.26-.4,1.965-1.31,3.376-2.62a1.383,1.383,0,0,1,.907-.5c1.209-.252,2.469-.4,3.729-.655a11.971,11.971,0,0,0,1.864-.3.831.831,0,0,0,.5-.4.684.684,0,0,0-.353-.655,1.837,1.837,0,0,0-.756-.1c-.6.1-1.512.2-2.066.3C107.3-3.334,106.544-3.283,105.738-3.132ZM100.9-2.88c.2.957.907,1.26,1.965,1.26C101.556,1.252,98.583-.109,100.9-2.88Zm4.283-3.325c0,.4.1.705,0,.806a7.084,7.084,0,0,1-.907,1.864,1.035,1.035,0,0,1-1.562.2.544.544,0,0,1-.151-.806A4.41,4.41,0,0,1,105.184-6.206Zm8.364,11.941a11.62,11.62,0,0,1,1.36-3.93A134.591,134.591,0,0,1,123.021-12.2a20.8,20.8,0,0,1,1.26-1.915c.453-.806.453-1.31,0-1.562-.353-.2-.806,0-1.31.655a2.775,2.775,0,0,0-.453.705,61.983,61.983,0,0,1-5.442,7.507,3.3,3.3,0,0,1-1.965,1.058A3.7,3.7,0,0,0,113.6-5.4a7.66,7.66,0,0,0-3.678,2.57,5.278,5.278,0,0,0-.5,1.411A1.12,1.12,0,0,0,110.827-.21a4.512,4.512,0,0,0,1.159-.4c1.108-.806,2.217-1.663,3.275-2.519.252-.2.5-.4.806-.655a1.868,1.868,0,0,1-.2.756c-1.008,2.015-2.015,4.132-2.973,6.147a9.352,9.352,0,0,0-.655,2.318c-.2,1.209.806,1.915,1.965,1.512a6.065,6.065,0,0,0,1.512-.756,60.359,60.359,0,0,0,8.666-7.759c1.663-1.663.705-2.217-.806-.857C122.164-1.016,120.35.5,118.889,1.806a48.394,48.394,0,0,1-3.98,3.225C114.657,5.333,114.2,5.434,113.548,5.736Zm-2.469-7.558a4.542,4.542,0,0,1,2.771-2.116A5.641,5.641,0,0,1,111.079-1.822Z" transform="translate(58.266 23.32)" fill="#2e2e2e"/>
    <rect id="長方形_163" data-name="長方形 163" width="299" height="90" transform="translate(0.478 0.478)" fill="none"/>
  </g>
</svg>
