<svg xmlns="http://www.w3.org/2000/svg" width="95.608" height="404" viewBox="0 0 95.608 404">
  <g id="グループ_290" data-name="グループ 290" transform="translate(-0.5 0.359)">
    <path id="パス_1133" data-name="パス 1133" d="M0,0H43.668V345.982H0Z" transform="translate(52.44 0.569)" fill="#fff" opacity="0.9"/>
    <g id="グループ_287" data-name="グループ 287" transform="translate(62.518 11.13)">
      <path id="パス_1106" data-name="パス 1106" d="M38.33,17.424A28.554,28.554,0,0,0,44,11.025a7.893,7.893,0,0,0,1.512-3.2c0-.5-.252-.831-.882-1.157a1.084,1.084,0,0,1,.907-.38,2.716,2.716,0,0,1,1.864.858c.329.326.428.5.428.8,0,.151-.05.254-.225.5-.052.076-.052.076-.329.506-.2.326-.353.553-.653,1.008a4.737,4.737,0,0,0,.7.074,15.783,15.783,0,0,0,2.723-.477,2.653,2.653,0,0,0,1.208-.48,1.157,1.157,0,0,1,.655-.227,3.5,3.5,0,0,1,1.765.983,1.012,1.012,0,0,1,.4.808c0,.252-.151.477-.527.705-.277.176-.277.176-1.26,1.711a34.167,34.167,0,0,1-7.558,8.666,29.385,29.385,0,0,1-6.048,3.655l-.176-.279a34.313,34.313,0,0,0,9.044-8.062,34.04,34.04,0,0,0,3.6-5.541,3.774,3.774,0,0,0,.4-.907c0-.1-.1-.151-.25-.151a23.906,23.906,0,0,0-3.277.63,2.522,2.522,0,0,1-.554.077,2.211,2.211,0,0,1-1.31-.506,24.967,24.967,0,0,1-7.633,7.027Z" transform="translate(-35.233 -6.289)" fill="#2e2e2e"/>
      <path id="パス_1107" data-name="パス 1107" d="M40.049,23.274a4.467,4.467,0,0,1,2.167.756h.328c.705,0,2.492-.227,5.946-.731,1.134-.176,1.285-.225,1.638-.453a.938.938,0,0,1,.5-.176,2.9,2.9,0,0,1,1.485.781c.682.579.934.907.934,1.285a1.071,1.071,0,0,1-.228.655,3.6,3.6,0,0,0-.553,1.209c-.277.858-.277.907-.907,3.426-.252,1.033-.252,1.033-.4,1.562.857.3,1.184.6,1.184,1.058,0,.43-.277.579-1.058.579a5.227,5.227,0,0,1-.529-.025h-.932c-1.814,0-4.864.151-7,.353-.027,1.058-.252,1.488-.705,1.488-.327,0-.63-.3-.882-.833a4.083,4.083,0,0,1-.277-1.234,1.3,1.3,0,0,1,.076-.428,6.183,6.183,0,0,0,.1-1.359,37.945,37.945,0,0,0-.453-5.922A2.737,2.737,0,0,0,39.066,23.6a1.529,1.529,0,0,1,.983-.329m2.293,4.358c.049,1.035.076,2.066.227,4.814.93-.076,1.411-.128,3.525-.3,1.009-.076,1.612-.129,3.277-.279a71.2,71.2,0,0,0,1.083-7.257c0-.151-.076-.227-.252-.227-.479,0-2.595.227-4.434.48a22.354,22.354,0,0,1-2.318.25,2.7,2.7,0,0,1-1.234-.3c.076.88.076,1.132.126,2.82" transform="translate(-34.733 4.842)" fill="#2e2e2e"/>
      <path id="パス_1108" data-name="パス 1108" d="M38.556,39.782c3.478.175,5.467,1.134,5.467,2.694a.945.945,0,0,1-.882.959c-.328,0-.579-.151-.983-.606a9.7,9.7,0,0,0-3.678-2.8Zm17.408-2.015a34.463,34.463,0,0,1-10.833,11.74c-2.595,1.764-2.595,1.764-3,1.764a3.007,3.007,0,0,1-2.217-2.444.909.909,0,0,1,.228-.657,2.039,2.039,0,0,0,1.537.957c.907,0,3.779-1.738,6.5-3.9a55.087,55.087,0,0,0,5.064-4.711,37.921,37.921,0,0,0,2.444-2.922ZM41.3,35.3c.428-.027.479-.027.806-.027a8.034,8.034,0,0,1,4.006.932,1.78,1.78,0,0,1,.806,1.438.917.917,0,0,1-.882.981c-.3,0-.479-.126-1.058-.7a8.522,8.522,0,0,0-3.754-2.37Z" transform="translate(-35.131 13.405)" fill="#2e2e2e"/>
      <path id="パス_1109" data-name="パス 1109" d="M45.657,51.288a26.166,26.166,0,0,0,3.6-.378,3.9,3.9,0,0,0,1.611-.529,1.636,1.636,0,0,1,.68-.126,3.8,3.8,0,0,1,1.234.228.73.73,0,0,1,.579.679c0,.4-.326.6-1.033.6-1.008,0-1.864.076-3.729.254.579.427.756.653.756.983a2.448,2.448,0,0,1-.076.477c-.1.354-.227,1.663-.428,3.9.453-.025.453-.025,1.562-.1.479-.025,1.108-.05,1.889-.1a6.015,6.015,0,0,0,1.386-.2,1.692,1.692,0,0,1,.5-.077,3.693,3.693,0,0,1,1.411.4c.581.227.831.529.831.934a.556.556,0,0,1-.6.6,6.446,6.446,0,0,1-1.033-.175,17.538,17.538,0,0,0-3.9-.329,33.246,33.246,0,0,0-7.759.857,5.539,5.539,0,0,1-.882.126,2.5,2.5,0,0,1-2.066-1.913,5.528,5.528,0,0,0,2.393.427c.68,0,3.2-.176,4.887-.353.076-1.409.126-2.9.126-3.729,0-.983-.05-1.26-.3-1.562-.453.05-.655.076-1.209.151a5.934,5.934,0,0,1-1.008.126,2.221,2.221,0,0,1-1.94-1.612,7.066,7.066,0,0,0,2.519.428" transform="translate(-33.969 23.587)" fill="#2e2e2e"/>
      <path id="パス_1110" data-name="パス 1110" d="M44.5,65.728a47.474,47.474,0,0,1-4.206,4.787c.1,0,1.787,0,3.174-.126a4.565,4.565,0,0,0-.885-1.461l.128-.176c1.11.527,2.848,1.335,2.848,2.77a.915.915,0,0,1-.907.959.874.874,0,0,1-.831-.682c-.052-.149-.178-.855-.2-.981-.455.1-.984.252-1.488.351.024,5.846.024,6.5.076,9.827,0,.176.05.957.05,1.108a.888.888,0,0,1-.455.882,1.533,1.533,0,0,1-.752.227c-.578,0-.653-.3-.653-.707,0-.175.049-.93.049-1.082.126-3.25.126-3.327.176-9.9-.882.2-1.663.329-2.444.455-.175.5-.3.756-.6.756-.176,0-.277-.076-.428-.529l-.655-2.091a9.043,9.043,0,0,0,3.2.4,28.532,28.532,0,0,0,3.347-5.667,4.551,4.551,0,0,0,.277-1.31L45.1,64.621c.277.176.5.3.5.553s-.151.351-1.108.554m-4.711,8.564c.353.126.5.176.5.428,0,.3-.4.529-.831.756a15.823,15.823,0,0,1-2.694,5.594l-.149-.025A24.98,24.98,0,0,0,37.8,74.42a7.773,7.773,0,0,0-.052-.857Zm2.293-11.538A23.785,23.785,0,0,1,39.936,65.1a2.315,2.315,0,0,1,1.335,1.814.922.922,0,0,1-.907.983c-.527,0-.754-.378-.983-.831a7.062,7.062,0,0,0-1.814-2.595l.05-.151a8.956,8.956,0,0,1,1.965.6,12.425,12.425,0,0,0,1.058-4.254l2.066,1.31c.176.1.353.25.353.4,0,.3-.252.326-.983.376M57.848,73.309c0,.781-.025,1.486,0,3.581,0,.554.076,3.2.076,3.8,0,1.409-.477,2.089-2.288,2.644A3.351,3.351,0,0,0,54.4,81.044V80.82c.334.025.638.05,1.253.05.432,0,.637,0,.637-.705,0-.556.025-3.253.025-3.858H54.245c.024.68.077,4.108.077,4.887,0,.5,0,1.461-1.058,1.461-.63,0-.63-.4-.63-.705,0-.806.1-4.76.1-5.643h-1.49v2.67c0,.353.052,2.066.052,2.469a1.008,1.008,0,0,1-1.033,1.108c-.5,0-.7-.252-.7-.831,0-.756.126-4.56.149-5.416H48.2c0,.781.049,4.686.049,5.566,0,.48,0,1.362-1.105,1.362-.63,0-.655-.378-.655-.63,0-.176.128-1.764.151-2.116.025-.63.151-3.678.178-4.382a11.409,11.409,0,0,1-4.058,5.44l-.126-.151c3.651-4.51,3.752-9.271,3.752-13.023a16.867,16.867,0,0,0-.378-4.331L48.15,65.05H55.3l.606-.5a.676.676,0,0,1,.428-.2.718.718,0,0,1,.428.227l.88.729c.153.126.277.252.277.4,0,.252-.3.48-.731.757-.024.376.052,2.318.052,2.744,0,.68-1.085.857-1.312.857-.5,0-.554-.2-.5-1.033H48c0,.732-.05,1.438-.153,2.523l.506.277h7.6l.8-.657c.2-.149.272-.225.371-.225a.863.863,0,0,1,.373.225l.877.833c.149.148.3.3.3.45,0,.126-.076.2-.831.857m-13.6,3.628c-.682,0-.781-.529-.959-1.663a6.117,6.117,0,0,0-.63-2.116l.1-.1C44.823,74.065,45.2,75.274,45.2,75.9a.991.991,0,0,1-.957,1.033M58.857,62.7H48.579a16.1,16.1,0,0,0-2.974.227l-.5-1c1.688.149,3.451.176,3.881.176h7.079l.8-.882c.151-.176.277-.3.4-.3a1.248,1.248,0,0,1,.48.25l1.233.883a.468.468,0,0,1,.252.375c0,.252-.225.277-.376.277m-3.4,2.948H48v2.773h7.455Zm-5.742,6.775H48.2V75.7h1.512Zm3.023,0h-1.49V75.7h1.49Zm3.576,0H54.245V75.7h2.066Z" transform="translate(-36.486 30.661)" fill="#2e2e2e"/>
      <path id="パス_1111" data-name="パス 1111" d="M41.319,78.924A1.464,1.464,0,0,0,42.4,79.3c.657,0,1.159-.151,3.378-.932a6.794,6.794,0,0,1,2.266-.531c1.236,0,2.595,1.035,2.595,1.965a.823.823,0,0,1-.3.657,1.973,1.973,0,0,1-.655.326,4.359,4.359,0,0,0-2.066,1.79c-.655.983-1.26,2.041-2.294,3.954a17.664,17.664,0,0,1,7.333,1.841,7.138,7.138,0,0,0,.3-1.916,2.229,2.229,0,0,0-1.233-2.064.5.5,0,0,1,.326-.1,2.8,2.8,0,0,1,1.612.682,2.588,2.588,0,0,1,1.184,1.837,1.027,1.027,0,0,1-.124.531,2.52,2.52,0,0,0-.252.578c-.178.732-.178.732-.277,1.11a14.229,14.229,0,0,1,2.847,2.039,1.988,1.988,0,0,1,.831,1.387.865.865,0,0,1-.831.93c-.353,0-.63-.175-1.184-.8a16.284,16.284,0,0,0-2.219-2.015,9.928,9.928,0,0,1-4.812,4.963,13.1,13.1,0,0,1-4.785,1.157l-.052-.3A10.552,10.552,0,0,0,52.326,89.6,14.394,14.394,0,0,0,45,87.236c-.2.4-.2.4-1.108,2.193a17.862,17.862,0,0,1-2.393,3.779,2.721,2.721,0,0,1-1.967.93c-1.134,0-1.812-.831-1.812-2.217a5.015,5.015,0,0,1,1.889-3.6,8.258,8.258,0,0,1,4.331-1.74c2.721-4.432,2.922-4.736,4.106-6.372.4-.579.48-.682.48-.833,0-.175-.227-.327-.5-.327a7.438,7.438,0,0,0-2.67,1.085c-1.335.705-1.663.831-2.141.831a2.384,2.384,0,0,1-1.99-1.992Zm-1.083,10a3.669,3.669,0,0,0-1.159,2.393c0,.554.277.93.7.93.48,0,.883-.351,1.589-1.359.479-.732,1.434-2.269,2.19-3.628a5.507,5.507,0,0,0-3.324,1.663" transform="translate(-35.65 42.331)" fill="#2e2e2e"/>
      <path id="パス_1112" data-name="パス 1112" d="M49.2,94.806a49.1,49.1,0,0,0-7.383,3.225,3.97,3.97,0,0,1-2.091.731,2.245,2.245,0,0,1-1.711-.831,2.938,2.938,0,0,1-.705-1.36,2.7,2.7,0,0,0,1.486.453c.831,0,.983-.05,5.517-1.638,1.587-.554,3.023-1.008,5.542-1.738,1.208-.353,1.234-.353,1.864-.579a4.074,4.074,0,0,1,1.688-.378c1.335,0,2.318.5,2.318,1.184,0,.479-.353.731-1.085.731a8.287,8.287,0,0,1-1.006-.076,7.576,7.576,0,0,0-.781-.025,6.906,6.906,0,0,0-4.283,1.638c-.657.529-.705.655-.882,2.066-.076.705-.076.705-.48,3.2a27.608,27.608,0,0,0-.277,3.477c0,2.847.934,3.98,3.277,3.98a5.227,5.227,0,0,0,1.184-.126,3.791,3.791,0,0,1,.5-.05c.883,0,1.664.554,1.664,1.159s-.781.907-2.444.907a6.949,6.949,0,0,1-3.351-.831c-1.612-.907-2.445-2.721-2.445-5.341a18.96,18.96,0,0,1,1.26-6.475,6.369,6.369,0,0,1,2.67-3.25Zm2.343,2.973a8.5,8.5,0,0,1,2.721,1.058,2.335,2.335,0,0,1,1.26,1.688.756.756,0,0,1-.705.781c-.329,0-.579-.2-.959-.781a8.354,8.354,0,0,0-2.417-2.544Zm2.066-1.688c2.519.378,4.157,1.31,4.157,2.419a.683.683,0,0,1-.63.731c-.277,0-.453-.151-.882-.68a7.649,7.649,0,0,0-2.748-2.217Z" transform="translate(-35.925 52.422)" fill="#2e2e2e"/>
      <path id="パス_1113" data-name="パス 1113" d="M57.763,129.1c-.277,0-9.825.049-12.5-.806a5.551,5.551,0,0,1-3.527-3.225c-.579.705-1.965,2.193-2.8,3.074,0,.655-.126,1.033-.428,1.033-.126,0-.328-.178-.5-.378L36.5,126.933c1.033-.1,1.789-.178,4.132-1.688v-6.928a18.319,18.319,0,0,0-3.349.225l-.506-1.008c1.335.126,1.965.126,3.5.176l.731-.731c.176-.176.277-.227.4-.227a.684.684,0,0,1,.453.227l.983.806a.488.488,0,0,1,.252.378c0,.176-.176.378-.705.731,0,.606,0,5.821.025,5.946.731,2.4,4.787,2.4,7.029,2.4a48.739,48.739,0,0,0,10.128-.934v.126a4.313,4.313,0,0,0-1.814,2.67m-16.4-17.259c-.806,0-.907-.351-1.335-1.911a6.52,6.52,0,0,0-1.184-2.7l.076-.126c1.587.68,3.5,1.864,3.5,3.527a1.088,1.088,0,0,1-1.058,1.208m16.275,5.947a13.875,13.875,0,0,1-6.349-5.416c0,.578.151,3.1.151,3.6,0,1.008-1.083,1.134-1.285,1.134-.554,0-.579-.353-.579-.554,0-.579.076-3.149.1-3.68a15.683,15.683,0,0,1-6.424,4.815l-.151-.153a32.211,32.211,0,0,0,5.519-5.593H46.98a16.7,16.7,0,0,0-2.948.227l-.5-1.006c1.562.126,3.1.176,3.855.176H49.7v-2.093a43.97,43.97,0,0,1-5.719.227v-.227a40.307,40.307,0,0,0,8.994-2.066,3.341,3.341,0,0,0,1.058-.705l1.587,1.512a.648.648,0,0,1,.252.428c0,.178-.126.254-.3.254a3.632,3.632,0,0,1-1.134-.228,28.278,28.278,0,0,1-3.149.6v2.294H55.6l.68-.984c.151-.225.277-.328.4-.328a1.059,1.059,0,0,1,.529.279l1.134.983a.663.663,0,0,1,.252.4c0,.149-.1.252-.378.252H51.591a11.4,11.4,0,0,0,8.162,3.88V116a3.632,3.632,0,0,0-2.116,1.789m-1.285,4.006c-.126.328-.175.479-.68,1.942a3.769,3.769,0,0,1-3.855,2.717,3.436,3.436,0,0,0-1.537-2.466l.1-.176a10.222,10.222,0,0,0,2.368.554c.781,0,1.083-.707,1.335-1.285a11.878,11.878,0,0,0,.579-1.943H52.321c-.252.682-.378,1.11-1.058,1.11-.076,0-.957,0-.957-.579,0-.126.781-1.737.907-2.064a9.333,9.333,0,0,0,.529-1.589H49.348c-.428,3.1-1.486,6-5.92,7.709l-.151-.176a9.741,9.741,0,0,0,4.333-7.482c-.831.076-1.184.126-1.486.178l-.5-.984c1.713.126,3.5.153,3.88.153h2.269l.653-.48a.678.678,0,0,1,.4-.176.558.558,0,0,1,.4.2l.655.579c.176.176.328.3.328.506,0,.25-.353.4-.957.63-.378.907-.529,1.285-.731,1.864h1.915l.731-.655a.684.684,0,0,1,.453-.227c.1,0,.2.05.453.252l.907.781a.691.691,0,0,1,.277.427c0,.225-.151.4-.907.68" transform="translate(-36.476 61.79)" fill="#2e2e2e"/>
      <path id="パス_1114" data-name="パス 1114" d="M42.99,133.454c-.38,1.159-.732,2.291-1.085,3.653a9.346,9.346,0,0,0-.5,2.8,3.825,3.825,0,0,0,.2,1.108,2.007,2.007,0,0,1,.151.705.767.767,0,0,1-.731.806c-.554,0-1.108-.756-1.688-2.267a13.354,13.354,0,0,1-.707-4.459,31.169,31.169,0,0,1,.858-6.374,11.887,11.887,0,0,0,.4-2.872,5.328,5.328,0,0,0-.5-2.368c.428.025.858.428,1.488,1.335a3.8,3.8,0,0,1,.806,2.091,4.956,4.956,0,0,1-.655,2.167,15.144,15.144,0,0,0-1.335,5.845c0,1.285.3,2.595.63,2.595.151,0,.2-.076.63-1.033.049-.126.049-.126.453-1.058.149-.3,1.108-2.368,1.31-2.8Zm5.87-9.3a1.656,1.656,0,0,1,1.285-.479,3.622,3.622,0,0,1,1.789.453.9.9,0,0,1,.453.83,2.527,2.527,0,0,1-.1.682,16.8,16.8,0,0,0-.228,2.645,13.115,13.115,0,0,0,1.412-.554,2.318,2.318,0,0,1,.754-.178c.682,0,1.161.354,1.161.833,0,.351-.2.554-.732.756a25.811,25.811,0,0,1-2.568.68c.025.831.025,1.386.076,2.444.076,1.386.1,1.915.1,2.595,0,4.61-1.837,7.583-5.668,9.17l-.2-.252a8.484,8.484,0,0,0,3.1-3.426c.983-1.889,1.285-3.829,1.285-7.936,0-.983,0-1.486-.052-2.345a9.9,9.9,0,0,1-2.039.228,4.069,4.069,0,0,1-3.325-1.488l.2-.225a3.079,3.079,0,0,0,1.992.6,13.486,13.486,0,0,0,3.149-.455c-.151-2.644-.178-3.021-.378-3.5-.2-.556-.6-.833-1.461-1.008Z" transform="translate(-35.029 73.48)" fill="#2e2e2e"/>
      <path id="パス_1115" data-name="パス 1115" d="M58.4,155.1c-1.159,0-4.132-1.411-6.021-3.93a13.009,13.009,0,0,1-5.517,3.426l-.025-.151a22.807,22.807,0,0,0,4.736-4.436,18.873,18.873,0,0,1-2.242-6.777h-8.54c0,6.626,0,10.306-4.006,13.606l-.1-.126c2.066-2.746,2.393-7.358,2.393-10.356a26.686,26.686,0,0,0-.378-4.909l2.267,1.184h8.263c-.025-.227-.126-.934-.2-1.386a15.512,15.512,0,0,0-.5-2.62l2.419.553c.227.05.378.126.378.277,0,.254-.4.506-.68.68.025.556.05,1.209.2,2.5H55.4l.932-1.184c.176-.227.277-.329.4-.329a.827.827,0,0,1,.453.254l1.285,1.209c.126.126.252.225.252.4,0,.225-.227.25-.4.25H50.939a16.97,16.97,0,0,0,1.663,5.416,9.154,9.154,0,0,0,1.99-4.357l1.915,1.209c.227.151.353.275.353.4,0,.2-.1.25-.831.527a31.594,31.594,0,0,1-2.595,3.556,6.829,6.829,0,0,0,3.4,2.595c.453,0,.63-.178.957-.655a11.648,11.648,0,0,0,1.008-1.69h.128c0,.455-.077,2.42-.077,2.823a1.164,1.164,0,0,0,.176.653c.277.4.3.5.3.657,0,.731-.731.731-.932.731M38.67,161.092a.88.88,0,0,1-.932-.93c0-.452.176-.63.957-1.411a5.848,5.848,0,0,0,1.36-2.618l.151-.027a6.208,6.208,0,0,1,.4,2.219c0,1.663-.857,2.768-1.94,2.768m9.649-15.143H44.238a11.06,11.06,0,0,0-2.091.153l-.328-.878c1.31.1,2.544.126,2.721.126H46.3l.5-.606c.126-.151.277-.328.4-.328a.984.984,0,0,1,.479.252l.756.632c.2.175.277.275.277.374,0,.2-.151.275-.4.275m-.05,2.9c-.025.554.05,3.3,0,3.5-.126.63-.932.68-1.083.68-.578,0-.554-.529-.529-.957H43.936c.025.529.126,1.663-1.26,1.663-.529,0-.529-.428-.529-.655,0-.378.126-2.366.126-2.8a21.362,21.362,0,0,0-.227-3.173l1.889.731H46.53l.529-.6a.509.509,0,0,1,.353-.227c.1,0,.252.126.353.2l.857.657c.2.149.252.275.252.376,0,.2-.2.326-.6.6m3.779,12.445A50.425,50.425,0,0,1,46,161.52c-2.444,0-2.948-.453-2.948-2.492a21.718,21.718,0,0,0-.225-4.461l1.963.506c.3.076.5.175.5.428,0,.277-.225.4-.578.63a15.674,15.674,0,0,0,.149,3.5c.126.2.4.227.6.25.228.027,1.159.05,2.192.05,3.451,0,3.628-.1,4.056-.756a9.481,9.481,0,0,0,.983-2.519h.151c.3,1.866.378,2.368.705,2.571.3.175.428.252.428.5,0,.4-.4,1.132-1.94,1.56m-5.366-12.848H43.91v3.027h2.771Zm2.595,9.978c-.6,0-.806-.452-1.184-1.335a5.611,5.611,0,0,0-1.209-2.042l.1-.175c1.713.4,3.2,1.234,3.2,2.494a.96.96,0,0,1-.907,1.058m4.787-16.474c-.453,0-.63-.279-1.157-1.112A4.357,4.357,0,0,0,51.67,139.5l.076-.222c1.209-.025,3.174.324,3.174,1.737a.871.871,0,0,1-.857.934m3.779,18.439c-.655,0-.831-.4-1.31-1.434a8.1,8.1,0,0,0-2.091-3.05l.126-.176c2.368.779,4.308,1.967,4.308,3.577a1.03,1.03,0,0,1-1.033,1.083" transform="translate(-36.354 83.635)" fill="#2e2e2e"/>
      <path id="パス_1116" data-name="パス 1116" d="M44.871,173.069c2.971-.353,4.508-.8,6.021-1.762a8.187,8.187,0,0,0,3.829-7.23,7.113,7.113,0,0,0-2.042-5.391A7.2,7.2,0,0,0,47.64,156.8c-.3,0-.6.025-1.134.076a4.17,4.17,0,0,1,1.085,3.174,18.372,18.372,0,0,1-2.8,8.742c-1.135,1.738-2.345,2.645-3.529,2.645-2.041,0-3.551-2.393-3.551-5.593,0-5.517,4.358-9.624,10.228-9.624,5.064,0,8.742,3.5,8.742,8.339a8.333,8.333,0,0,1-5.267,7.785,16.348,16.348,0,0,1-6.548,1.058Zm-3.023-14.106A8.6,8.6,0,0,0,39.1,165.31c0,2.546.907,4.31,2.219,4.31.855,0,1.814-.883,2.847-2.7a17.494,17.494,0,0,0,2.492-8.087,3.664,3.664,0,0,0-.175-1.285,2.472,2.472,0,0,0-.4-.63,8.115,8.115,0,0,0-4.232,2.041" transform="translate(-35.65 95.591)" fill="#2e2e2e"/>
      <path id="パス_1117" data-name="パス 1117" d="M39.7,173.4a3.17,3.17,0,0,0,2.319.857,12.788,12.788,0,0,0,2.469-.3c.1-1.335.1-1.612.1-1.99,0-.934-.277-1.335-1.058-1.564.151-.25.428-.353.907-.353a3.577,3.577,0,0,1,1.513.4c.5.252.756.554.756.907,0,.2,0,.2-.254.705a6.792,6.792,0,0,0-.427,1.512,7.028,7.028,0,0,0,1.612-.63,3.486,3.486,0,0,1,1.889-.529c.653,0,1.082.3,1.082.779,0,.455-.326.682-1.51,1.035-.934.277-1.411.4-2.219.578-.831.178-.831.178-1.108.228-.126,1.058-.227,1.938-.277,2.8a10.594,10.594,0,0,1,2.519-.3,8.119,8.119,0,0,1,5.265,1.638,5.731,5.731,0,0,1,2.193,4.61c0,4.283-3.831,6.878-10.228,6.878h-.329l-.024-.327a15.191,15.191,0,0,0,4.686-1.134,6.152,6.152,0,0,0,4.029-5.794c0-3.149-2.293-5.265-5.719-5.265a4.288,4.288,0,0,0-.529.025,2.745,2.745,0,0,1,.705,1.963,10.594,10.594,0,0,1-2.316,5.62c.074.277.074.277.25.806a2.453,2.453,0,0,1,.176.806c0,.353-.149.554-.427.554-.353,0-.757-.378-1.085-.983a6.223,6.223,0,0,1-3.88,2.066c-1.461,0-2.392-1.26-2.392-3.25a7.7,7.7,0,0,1,2.543-5.366,10.057,10.057,0,0,1,3.275-2.091c.076-1.335.076-1.411.076-1.562.1-1.159.1-1.159.1-1.411a7.244,7.244,0,0,1-1.335.124,3.725,3.725,0,0,1-3.551-1.863Zm1.713,7.835a6.817,6.817,0,0,0-1.537,4c0,1.312.453,2.067,1.209,2.067a5.414,5.414,0,0,0,3.149-1.915,20.44,20.44,0,0,1-.2-3.225c0-.857.027-1.638.1-3.1a7.34,7.34,0,0,0-2.723,2.167m3.88.252c0,.957.027,1.587.126,2.77a13.356,13.356,0,0,0,1.31-2.442,6.572,6.572,0,0,0,.556-2.319,1.938,1.938,0,0,0-.4-1.308,6.163,6.163,0,0,0-1.461.326c-.1,1.335-.126,2.067-.126,2.974" transform="translate(-35.192 104.986)" fill="#2e2e2e"/>
      <path id="パス_1118" data-name="パス 1118" d="M44.06,193.163c3.047-3.907,3.752-4.889,3.8-5.391,0-.153-.151-.254-.376-.254a6.608,6.608,0,0,0-3.2,1.688c-.68.554-1.008.732-1.36.732a2.6,2.6,0,0,1-1.587-.907,2.112,2.112,0,0,1-.453-1.184,1.011,1.011,0,0,1,.076-.353,1.371,1.371,0,0,0,1.211.653c.553,0,1.031-.151,2.921-.93a7.16,7.16,0,0,1,2.67-.808,2.632,2.632,0,0,1,1.99,1.085,1.346,1.346,0,0,1,.4.88c0,.327-.149.479-.882.957a10.517,10.517,0,0,0-2.192,2.041,43.779,43.779,0,0,0-4.308,5.165,7.676,7.676,0,0,1,4.788-1.789c3.122,0,5.339,2.015,5.339,4.837,0,3.225-2.746,5.568-6.5,5.568-2.141,0-3.552-.907-3.552-2.293a2.1,2.1,0,0,1,2.368-1.965,3.372,3.372,0,0,1,3.325,2.519,3.756,3.756,0,0,0,1.587-1.209,4.822,4.822,0,0,0,.932-2.872,3.6,3.6,0,0,0-3.779-3.829,6.34,6.34,0,0,0-4.308,1.814,5.958,5.958,0,0,0-1.814,2.67c-.378,1.033-.655,1.31-1.209,1.31-.5,0-.857-.453-.857-1.132a3.187,3.187,0,0,1,.932-1.916Zm3.047,10.68c0-.1,0-.1-.227-.705a2.034,2.034,0,0,0-.983-1.157,2.19,2.19,0,0,0-1.058-.277c-.779,0-1.285.427-1.285,1.031,0,.783.957,1.31,2.368,1.31a4.65,4.65,0,0,0,1.159-.151.075.075,0,0,0,.025-.05" transform="translate(-34.713 116.107)" fill="#2e2e2e"/>
    </g>
    <g id="グループ_289" data-name="グループ 289" transform="translate(0 34.239)">
      <rect id="長方形_139" data-name="長方形 139" width="44" height="363" transform="translate(0.5 0.402)" fill="#fff" opacity="0.9"/>
      <g id="グループ_288" data-name="グループ 288" transform="translate(10.452 9.223)">
        <path id="パス_1119" data-name="パス 1119" d="M15.177,16.272V14.735c-2.67.5-2.872.554-4.711,1.008a5.01,5.01,0,0,1-1.108.176c-1.134,0-1.814-.757-1.915-2.217a3.364,3.364,0,0,0,2.041.579,45.971,45.971,0,0,0,5.668-.63,22.181,22.181,0,0,0-.2-3.779c-.176-.554-.5-.806-1.285-1.033a1.571,1.571,0,0,1,1.209-.606,3.3,3.3,0,0,1,1.839.682.937.937,0,0,1,.328.705,1.841,1.841,0,0,1-.151.655,12.623,12.623,0,0,0-.378,3.2,23.149,23.149,0,0,0,4.535-.857,3.134,3.134,0,0,1,.781-.126,3.9,3.9,0,0,1,1.789.554,1.093,1.093,0,0,1,.63.932.571.571,0,0,1-.63.63,3.9,3.9,0,0,1-.63-.077,17.981,17.981,0,0,0-3.3-.225,27.042,27.042,0,0,0-3.2.225v.934c0,1.512.1,5.24.176,6.5.05.806.05,1.058.05,1.486,0,1.537-.5,2.544-1.285,2.544-.378,0-.579-.2-.831-.882A4.444,4.444,0,0,0,12.2,22.873l.126-.252a9.814,9.814,0,0,0,2.419.5c.227,0,.277-.126.328-.831.025-.5.076-2.469.1-3.829Zm-4.106.957c.025.428.025.63.025.806a9.95,9.95,0,0,1-1.008,4.081,2.177,2.177,0,0,1-1.763,1.411.9.9,0,0,1-.882-.983c0-.554.252-.907,1.008-1.512a5.806,5.806,0,0,0,2.343-3.8Zm7.684-.252c3.124,1.083,5.467,3.174,5.467,4.837,0,.731-.4,1.26-.957,1.26a.825.825,0,0,1-.579-.3,3.352,3.352,0,0,1-.554-1.083A10.087,10.087,0,0,0,18.6,17.2Zm1.285-9.75c2.444.63,3.88,1.636,3.88,2.746a.729.729,0,0,1-.68.756c-.353,0-.554-.176-1.033-.932a7.487,7.487,0,0,0-2.267-2.343ZM22.181,5.54c2.444.353,4.006,1.26,4.006,2.318a.691.691,0,0,1-.63.756c-.277,0-.428-.1-.932-.781A7.918,7.918,0,0,0,22.08,5.767Z" transform="translate(-3.916 -5.54)" fill="#2e2e2e"/>
        <path id="パス_1120" data-name="パス 1120" d="M25.022,24.263a27.264,27.264,0,0,1-5.9,5.744,38.417,38.417,0,0,1-7.155,4.284,4.033,4.033,0,0,0-.705.428.8.8,0,0,1-.479.175c-.328,0-.6-.2-1.008-.705a2.517,2.517,0,0,1-.554-1.233.92.92,0,0,1,.126-.479A3.277,3.277,0,0,0,9.5,31.468c.025-.655.076-4.231.076-5.265,0-2.57-.126-2.872-1.386-3.275a1.478,1.478,0,0,1,1.285-.6c1.083,0,2.293.88,2.293,1.688a1.3,1.3,0,0,1-.151.554,5.233,5.233,0,0,0-.3,1.738c-.151,1.688-.252,4.256-.252,5.566,0,.076,0,.3.025.63a33.1,33.1,0,0,0,7.13-3.426,37.2,37.2,0,0,0,6.55-5.013Z" transform="translate(-3.406 5.866)" fill="#2e2e2e"/>
        <path id="パス_1121" data-name="パス 1121" d="M9.161,36.233a4.467,4.467,0,0,1,2.167.756h.328c.705,0,2.494-.227,5.946-.731,1.134-.176,1.285-.227,1.638-.453a.938.938,0,0,1,.5-.176,2.906,2.906,0,0,1,1.486.781c.68.579.932.907.932,1.285a1.082,1.082,0,0,1-.227.655,3.574,3.574,0,0,0-.554,1.209c-.277.858-.277.907-.907,3.426-.252,1.033-.252,1.033-.4,1.562.857.3,1.184.6,1.184,1.058,0,.43-.277.579-1.058.579a5.227,5.227,0,0,1-.529-.025h-.932c-1.814,0-4.862.151-7,.353C11.7,47.569,11.478,48,11.025,48c-.328,0-.63-.3-.882-.831a4.084,4.084,0,0,1-.277-1.234,1.3,1.3,0,0,1,.076-.428,6.183,6.183,0,0,0,.1-1.359,37.738,37.738,0,0,0-.453-5.922,2.732,2.732,0,0,0-1.411-1.661,1.529,1.529,0,0,1,.983-.329m2.293,4.358c.05,1.035.076,2.066.227,4.814.932-.076,1.411-.128,3.527-.3,1.008-.076,1.612-.129,3.275-.279a70.721,70.721,0,0,0,1.083-7.257c0-.151-.076-.227-.252-.227-.479,0-2.595.227-4.434.48a22.355,22.355,0,0,1-2.318.25,2.7,2.7,0,0,1-1.234-.3c.076.88.076,1.132.126,2.82" transform="translate(-3.417 14.905)" fill="#2e2e2e"/>
        <path id="パス_1122" data-name="パス 1122" d="M6.363,66.726a22.764,22.764,0,0,0,5.24-5.416,28.955,28.955,0,0,0,3.527-6.852c-.453.1-.453.1-1.411.329-.378.076-.932.2-1.663.353a4.994,4.994,0,0,1-1.461.25,1.854,1.854,0,0,1-1.159-.4A2.38,2.38,0,0,1,8.4,53.348a1.454,1.454,0,0,1,.025-.3,4.607,4.607,0,0,0,2.595.68,42.247,42.247,0,0,0,4.484-.4,15.846,15.846,0,0,0,.806-3.577,1.577,1.577,0,0,0-.353-1.06,2.228,2.228,0,0,0-.983-.553,1.755,1.755,0,0,1,1.335-.581c.983,0,2.192.907,2.192,1.639a2.5,2.5,0,0,1-.252.831,7.148,7.148,0,0,0-.378,1.058c-.479,1.56-.479,1.56-.63,2.014,1.386-.151,3.149-.4,3.678-.529a1.351,1.351,0,0,0,.806-.376.728.728,0,0,1,.5-.178c.428,0,.983.4,1.587,1.161a1.226,1.226,0,0,1,.328.855c0,.252-.076.378-.453.705-.1.1-.1.1-1.033,3.527-1.134,4.158-3.048,7.585-4.232,7.585a.853.853,0,0,1-.579-.277,1.977,1.977,0,0,1-.277-.757c-.2-.831-.479-1.234-1.738-2.543l.151-.2a3.036,3.036,0,0,1,.428.277,5.088,5.088,0,0,0,2.167.956c.2,0,.378-.2.63-.679a31.247,31.247,0,0,0,2.469-7.156,8.478,8.478,0,0,0,.277-1.537c0-.252-.1-.353-.4-.353a43.646,43.646,0,0,0-4.61.6,26.378,26.378,0,0,1-4.333,7.887,19.8,19.8,0,0,1-6.071,4.911Z" transform="translate(-4.65 23.009)" fill="#2e2e2e"/>
        <path id="パス_1123" data-name="パス 1123" d="M12.533,63.1c1.033,0,2.167.831,2.167,1.612a.982.982,0,0,1-.151.479c-.3.756-.353,1.234-.353,4.662,0,2.341.05,5.919.126,9.521.025.4.025.757.025.983,0,1.312-.3,1.889-.957,1.889a1,1,0,0,1-.781-.427,2.707,2.707,0,0,1-.277-1.513c0-.4,0-.68.05-1.587.05-2.014.126-7.457.126-11.184,0-2.848-.126-3.252-1.285-3.806a1.481,1.481,0,0,1,1.31-.63" transform="translate(-1.347 33.57)" fill="#2e2e2e"/>
        <path id="パス_1124" data-name="パス 1124" d="M8.65,99.124a20.661,20.661,0,0,0,4.056-4.709c1.638-2.571,2.872-5.542,2.872-6.953a.973.973,0,0,0-.3-.732c-1.587.277-2.519.5-4.157.934a6.39,6.39,0,0,1-1.688.326,2.017,2.017,0,0,1-1.26-.479A3.025,3.025,0,0,1,7.113,86a.438.438,0,0,1,.025-.151,3.56,3.56,0,0,0,2.041.477c1.134,0,2.469-.175,8.238-1.031a19.8,19.8,0,0,0,3.4-.732,1.446,1.446,0,0,1,.579-.126,4.494,4.494,0,0,1,1.965.606c.655.328.907.6.907,1.033a.689.689,0,0,1-.68.729,5.329,5.329,0,0,1-1.335-.277,9.712,9.712,0,0,0-2.595-.3,24.66,24.66,0,0,0-3.4.3c.983.581,1.31.934,1.31,1.461a12.428,12.428,0,0,1-1.839,4.333,20.221,20.221,0,0,1-6.878,7.03Zm1.889-18.416a4.6,4.6,0,0,0,2.015.455A14.045,14.045,0,0,0,17.971,79.8a1.751,1.751,0,0,1,.756-.149,1.161,1.161,0,0,1,1.234,1.056c0,.48-.328.705-1.386,1.009a19.634,19.634,0,0,1-4.484.63,4.722,4.722,0,0,1-3.729-1.461ZM21.9,80.055a7.714,7.714,0,0,1,2.67,1.058A2.183,2.183,0,0,1,25.781,82.8a.729.729,0,0,1-.68.756c-.328,0-.554-.2-.957-.831A7.05,7.05,0,0,0,21.8,80.281Zm2.066-1.764c2.469.3,4.106,1.233,4.106,2.318a.674.674,0,0,1-.6.705c-.277,0-.4-.1-.907-.705a7.613,7.613,0,0,0-2.7-2.091Z" transform="translate(-4.14 43.896)" fill="#2e2e2e"/>
        <path id="パス_1125" data-name="パス 1125" d="M10.473,105.483a32.768,32.768,0,0,0,6.147-6.624c1.26-1.79,1.94-3.05,1.94-3.6,0-.4-.2-.653-.731-.983a1.855,1.855,0,0,1,.6-.126c.957,0,2.091.882,2.091,1.663,0,.227-.076.38-.353.732a5.2,5.2,0,0,0-.4.553,32.312,32.312,0,0,1-2.041,2.7c.857.5,1.108.808,1.108,1.36l-.025.581c-.025,1.031-.025,1.031-.05,2.568v.153c0,.25.05,2.82.1,3.979v.43c0,.679-.227,1.031-.6,1.031a.862.862,0,0,1-.756-.5,4.289,4.289,0,0,1-.5-1.636,2.77,2.77,0,0,1,.1-.657,30.46,30.46,0,0,0,.4-4.913c0-1.157-.05-1.359-.428-1.663a24.884,24.884,0,0,1-6.424,5.191Z" transform="translate(-1.857 54.67)" fill="#2e2e2e"/>
        <path id="パス_1126" data-name="パス 1126" d="M11.318,116.676a3.657,3.657,0,0,1-.932.126,1.668,1.668,0,0,1-1.159-.4,2.341,2.341,0,0,1-1.033-1.636,1.446,1.446,0,0,1,.025-.3,4.66,4.66,0,0,0,2.595.679,41.27,41.27,0,0,0,4.484-.4,16.42,16.42,0,0,0,.806-3.577,1.58,1.58,0,0,0-.353-1.06c-.176-.2-.3-.275-.983-.553a1.76,1.76,0,0,1,1.335-.579c.983,0,2.192.907,2.192,1.638a2.333,2.333,0,0,1-.252.831,8.119,8.119,0,0,0-.378,1.058c-.3.982-.529,1.663-.63,2.014,1.411-.149,3.174-.4,3.678-.527a1.362,1.362,0,0,0,.806-.378.726.726,0,0,1,.5-.176c.353,0,.68.2,1.26.806a1.674,1.674,0,0,1,.655,1.159c0,.3-.076.4-.453.756a2.933,2.933,0,0,0-.328.932c-1.234,4.635-1.965,6.626-3.124,8.49-.705,1.134-1.285,1.688-1.814,1.688-.479,0-.655-.227-.857-1.033-.2-.857-.479-1.26-1.738-2.57l.151-.176c.2.126.353.2.453.277a5.068,5.068,0,0,0,2.141.932c.2,0,.378-.2.63-.68a30.1,30.1,0,0,0,2.469-7.13,8.254,8.254,0,0,0,.277-1.562c0-.252-.1-.328-.4-.328a44.451,44.451,0,0,0-4.61.6,26.606,26.606,0,0,1-4.333,7.885,19.709,19.709,0,0,1-6.071,4.913l-.176-.252a22.764,22.764,0,0,0,5.24-5.416,29.979,29.979,0,0,0,3.552-6.852l-1.436.3ZM21.9,109.42a7.784,7.784,0,0,1,3.3,1.234,1.589,1.589,0,0,1,.857,1.36.744.744,0,0,1-.705.731c-.3,0-.529-.176-.932-.705a6.818,6.818,0,0,0-2.62-2.393Zm1.94-2.015c2.721.3,4.308,1.108,4.308,2.192a.686.686,0,0,1-.655.731c-.227,0-.4-.126-.957-.705a8.316,8.316,0,0,0-2.8-1.99Z" transform="translate(-4.793 63.68)" fill="#2e2e2e"/>
        <path id="パス_1127" data-name="パス 1127" d="M8.384,124.146a9.376,9.376,0,0,1,4.182,1.512,2.785,2.785,0,0,1,1.285,2.116c0,.705-.4,1.208-.957,1.208-.4,0-.68-.225-1.058-.882a8.528,8.528,0,0,0-3.552-3.729Zm15.771.882a30.144,30.144,0,0,1-7.86,9.773,36.192,36.192,0,0,1-4.106,3,5.046,5.046,0,0,1-.479.329,1.774,1.774,0,0,1-1.033.452c-.529,0-1.134-.479-1.663-1.31a2.726,2.726,0,0,1-.554-1.434,1.392,1.392,0,0,1,.151-.63,2.645,2.645,0,0,0,1.764,1.082c.68,0,1.94-.63,3.855-1.915a38.067,38.067,0,0,0,9.674-9.5Z" transform="translate(-3.345 75.056)" fill="#2e2e2e"/>
        <path id="パス_1128" data-name="パス 1128" d="M8.36,138.873a3.089,3.089,0,0,0,2.015.63,7.008,7.008,0,0,0,2.67-.527,3.02,3.02,0,0,0,.1-.781c0-.831-.3-1.184-1.31-1.587a1.491,1.491,0,0,1,.932-.254c1.058,0,1.839.48,1.839,1.135a3.88,3.88,0,0,1-.2,1.033,6.26,6.26,0,0,1,1.688-.68.726.726,0,0,1,.731.705c0,.554-.731,1.008-3.074,1.839a27.438,27.438,0,0,1-2.519,4.887,4.423,4.423,0,0,1,2.066-.554,2.648,2.648,0,0,1,2.645,2.091,9.525,9.525,0,0,1,2.393-3.552A5.8,5.8,0,0,1,22.19,141.6c1.512,0,2.595.781,2.595,1.915,0,.705-.479,1.36-1.537,2.116a31.569,31.569,0,0,1-4.358,2.267c-1.512.68-1.713.781-2.267,1.056v.606c0,.076,0,.378.025.831v.932a2.313,2.313,0,0,1-.176,1.134.793.793,0,0,1-.731.428c-.554,0-.882-.4-.882-1.083,0-.277.05-1.486.1-2.041-1.789,1.058-2.645,2.091-2.645,3.225,0,1.209,1.033,1.814,3.074,1.814a13.733,13.733,0,0,0,2.7-.3,2.669,2.669,0,0,1,.983-.151c.957,0,1.663.428,1.663,1.008,0,.4-.277.68-.781.831a16.816,16.816,0,0,1-3.477.3c-3.4,0-5.24-1.083-5.24-3.048a3.9,3.9,0,0,1,1.537-2.922,14.667,14.667,0,0,1,2.217-1.461,4.657,4.657,0,0,0,.025-.579c0-2.116-.554-3.124-1.738-3.124a3.192,3.192,0,0,0-2.066.957,9.911,9.911,0,0,0-1.638,1.965c-.428.6-.806.882-1.184.882a.926.926,0,0,1-.882-1.008,1.654,1.654,0,0,1,.5-1.085,6.292,6.292,0,0,1,.983-.83,18.138,18.138,0,0,0,3.628-5.568,4.646,4.646,0,0,1-1.335.2A3.534,3.534,0,0,1,8.208,139Zm10.556,8.013a16.988,16.988,0,0,0,3.451-2.847,1.714,1.714,0,0,0,.4-.957c0-.479-.378-.731-1.108-.731a4.247,4.247,0,0,0-3.023,1.36,7.175,7.175,0,0,0-1.663,2.822,7.018,7.018,0,0,0-.328,1.713c.277-.176.277-.176,2.267-1.36" transform="translate(-3.875 83.351)" fill="#2e2e2e"/>
        <path id="パス_1129" data-name="パス 1129" d="M26.908,162.917a19.93,19.93,0,0,1-9.447-9.247c-4.862,7.1-9.523,9.724-12.017,10.606l-.1-.149a38.158,38.158,0,0,0,8.49-8.465,10.42,10.42,0,0,0,2.116-4.006l2.167.956c.2.1.353.228.353.38,0,.2-.05.376-.554.6a17.8,17.8,0,0,0,11.362,7.156v.227a4.361,4.361,0,0,0-2.368,1.94m-3.351,4.006c-.05,1.033-.05,2.341-.025,3.426,0,.452.126,2.492.126,2.921,0,.68-.957.984-1.386.984-.328,0-.579-.126-.579-.506,0-.1.025-.3.05-.63H12.7c.025.455.076,1.362-1.461,1.362a.528.528,0,0,1-.579-.554c0-.227.126-1.287.126-1.486.126-2.293.1-4.637.1-5.065a25.072,25.072,0,0,0-.151-2.845l2.242,1.182h8.591l.655-.806a.525.525,0,0,1,.378-.252.706.706,0,0,1,.428.228l1.058.857c.1.074.328.25.328.376,0,.254-.378.5-.857.808m-1.108-4.511H14.891a16.58,16.58,0,0,0-2.948.228l-.5-1.009c1.562.126,3.124.178,3.88.178h4.258l.831-1.035c.126-.176.252-.3.4-.3a1.033,1.033,0,0,1,.453.25l1.335,1.033a.542.542,0,0,1,.252.378c0,.252-.227.277-.4.277m-.705,3.9H12.674v6.2h9.069Z" transform="translate(-5.343 93.749)" fill="#2e2e2e"/>
        <path id="パス_1130" data-name="パス 1130" d="M16.255,188.3a10.79,10.79,0,0,0,5.316-2.746,6.869,6.869,0,0,0,1.965-4.914c0-2.746-1.537-4.409-4.106-4.409a8.1,8.1,0,0,0-4.283,1.537,12.109,12.109,0,0,0-2.595,2.167c.076,2.015.151,3.327.428,6.275.025.252.025.5.025.806,0,1.26-.378,2.014-1.033,2.014-.479,0-.68-.277-.756-1.058a24.865,24.865,0,0,0-1.184-4.936c-.151.277-.882,1.51-1.31,2.215-.353.554-.68.831-1.058.831a.893.893,0,0,1-.806-.93c0-.4.025-.455,1.411-2.192.554-.68.806-.983,1.234-1.587-.1-.353-.957-2.948-1.159-3.577a1.348,1.348,0,0,1-.857-.63,1.418,1.418,0,0,1-.252-.756c0-.353.151-.579.353-.579.126,0,.126,0,.529.25a1.175,1.175,0,0,0,.353.076,7.408,7.408,0,0,0,1.839-.8,11.734,11.734,0,0,1,1.486-.63c.025-.38.025-.38.1-1.134.025-.327.05-.882.126-1.688.05-.907.076-1.286.076-1.587a2.1,2.1,0,0,0-1.26-2.091,1.714,1.714,0,0,1,.529-.1c1.108,0,2.645,1.233,2.645,2.116a3,3,0,0,1-.277,1.006,19.1,19.1,0,0,0-.806,3.3,1.435,1.435,0,0,1,1.184,1.26c0,.38-.076.531-.529,1.184-.05.076-.4.606-1.108,1.639v.175c2.721-2.24,5.089-3.275,7.457-3.275a5.219,5.219,0,0,1,5.517,5.443c0,2.847-1.663,5.139-4.686,6.5a13.869,13.869,0,0,1-4.434,1.159Zm-6.2-11.362c-.831.655-.957.731-1.335.83.655,1.841.831,2.319,1.184,3.126.2-.3.2-.3.831-1.159a14.653,14.653,0,0,0,.857-1.26c.025-.68.076-1.967.151-2.645a9.447,9.447,0,0,0-1.688,1.108m.4,5.467c.2.527.252.731.554,1.585.277.831.4,1.108.68,1.814,0-.6,0-.6-.05-1.837,0-.5-.025-1.285-.05-2.343,0-.454,0-.454-.025-.831-.453.63-.932,1.335-1.108,1.612" transform="translate(-4.314 104.94)" fill="#2e2e2e"/>
        <path id="パス_1131" data-name="パス 1131" d="M22.676,188.74a5.731,5.731,0,0,0,2.847,1.157c.731.178,1.058.455,1.058.959a.677.677,0,0,1-.756.707,6.594,6.594,0,0,1-1.713-.406,5.884,5.884,0,0,0-2.015-.376,9.754,9.754,0,0,0-1.234.1c-.151,2.874-.252,3.655-.655,4.736-.378,1.008-1.058,1.614-1.814,1.614-.4,0-.6-.176-.705-.63a4.055,4.055,0,0,0-1.814-2.3l.176-.249a6.865,6.865,0,0,0,2.469.981c.328,0,.479-.2.655-.932a14.969,14.969,0,0,0,.328-3.048,51.523,51.523,0,0,0-5.946,1.486c-.025,1.26-.05,2.645-.05,3.451,0,2.719.126,3.477.68,3.955a4.121,4.121,0,0,0,2.444.529,16.833,16.833,0,0,0,3.729-.453,1.662,1.662,0,0,1,.5-.052c1.083,0,1.814.406,1.814,1.011,0,.5-.378.806-1.209.905a20.682,20.682,0,0,1-2.973.2c-3.527,0-5.064-.583-5.794-2.168-.378-.83-.453-1.913-.5-6.928-.756.252-.756.252-2.645,1.008a5.024,5.024,0,0,1-1.638.428,2.535,2.535,0,0,1-1.94-2.217A.672.672,0,0,1,6,192.04a1.97,1.97,0,0,0,1.512.68,20.9,20.9,0,0,0,4.661-.957,23.3,23.3,0,0,0-.227-3.729c-.151-.68-.554-1.033-1.411-1.287a1.366,1.366,0,0,1,1.058-.376,3.548,3.548,0,0,1,1.864.606,1.109,1.109,0,0,1,.554,1.006,3.853,3.853,0,0,1-.1.756,19.364,19.364,0,0,0-.277,2.694c1.915-.477,4.106-.956,5.9-1.26v-1.861c0-2.2-.025-2.294-.655-2.849-.428-.353-.579-.554-.579-.806,0-.3.378-.527.882-.527a2.2,2.2,0,0,1,1.587.754,1.257,1.257,0,0,1,.353.957c0,.151-.025.4-.076,1.26-.025.2-.076,1.713-.126,2.874a16.769,16.769,0,0,1,2.368-.151c-.277-.28-.277-.3-.806-.882Z" transform="translate(-4.915 115.817)" fill="#2e2e2e"/>
        <path id="パス_1132" data-name="パス 1132" d="M18.509,201.1a49.068,49.068,0,0,0-7.382,3.225,3.972,3.972,0,0,1-2.091.729,2.246,2.246,0,0,1-1.713-.83,2.839,2.839,0,0,1-.705-1.36,2.7,2.7,0,0,0,1.486.453c.831,0,.983-.05,5.517-1.637,1.587-.554,3.023-1.008,5.542-1.738,1.209-.353,1.234-.353,1.864-.579a4.047,4.047,0,0,1,1.688-.378c1.335,0,2.318.5,2.318,1.184,0,.5-.353.756-1.083.756a8.321,8.321,0,0,1-1.008-.076,3.819,3.819,0,0,0-.781-.05,6.909,6.909,0,0,0-4.283,1.638c-.655.529-.705.655-.882,2.066-.076.705-.076.705-.479,3.2a27.3,27.3,0,0,0-.277,3.477c0,2.847.932,3.98,3.275,3.98a5.227,5.227,0,0,0,1.184-.126,3.786,3.786,0,0,1,.5-.05c.882,0,1.663.554,1.663,1.159s-.781.907-2.444.907a6.949,6.949,0,0,1-3.351-.831c-1.612-.907-2.444-2.721-2.444-5.341a18.953,18.953,0,0,1,1.26-6.475,6.2,6.2,0,0,1,2.67-3.225Z" transform="translate(-4.477 125.908)" fill="#2e2e2e"/>
      </g>
    </g>
    <rect id="長方形_140" data-name="長方形 140" width="95" height="404" transform="translate(0.5 -0.359)" fill="none"/>
  </g>
</svg>
