<svg xmlns="http://www.w3.org/2000/svg" width="229.784" height="9.817" viewBox="0 0 229.784 9.817">
  <path id="パス_1351" data-name="パス 1351" d="M1.548-1.509v-3.6H.56V3.758h.988V-.592H6.086v4.35h.988V-5.107H6.086v3.6ZM15.432-5.26a4.624,4.624,0,0,0-4.62,4.6,4.6,4.6,0,0,0,4.62,4.573,4.6,4.6,0,0,0,4.62-4.573A4.624,4.624,0,0,0,15.432-5.26Zm0,.917A3.643,3.643,0,0,1,19.065-.674a3.665,3.665,0,0,1-3.633,3.668A3.665,3.665,0,0,1,11.8-.674,3.643,3.643,0,0,1,15.432-4.343ZM26.1-4.19h2.163v-.917H22.968v.917h2.14V3.758H26.1Zm5.526,7.948h4.6V2.841H32.609V-.639h3.5v-.917h-3.5V-4.19h3.609v-.917h-4.6Zm9.617-8.865H40.25V3.758h3.433V2.841H41.238Zm11.992,0H52.16l3.6,9.394,3.6-9.394h-1.07l-2.528,6.76ZM66.609,1.242l1.046,2.516h1.093L64.763-5.53,60.672,3.758h1.082l1.07-2.516ZM66.221.325h-3L64.74-3.226Zm12.6-4.714a4.28,4.28,0,0,0-2.645-.87,4.636,4.636,0,0,0-4.62,4.62,4.614,4.614,0,0,0,4.62,4.55,4.565,4.565,0,0,0,2.645-.87V1.818a3.881,3.881,0,0,1-2.681,1.176,3.682,3.682,0,0,1-3.6-3.668A3.669,3.669,0,0,1,76.12-4.343a3.794,3.794,0,0,1,2.7,1.176Zm9.135,5.631,1.046,2.516H90.1L86.113-5.53,82.022,3.758H83.1l1.07-2.516ZM87.571.325h-3L86.09-3.226ZM94.825-4.19h2.163v-.917H91.7v.917h2.14V3.758h.988Zm6.537-.917h-.988V3.758h.988Zm8.324-.153a4.624,4.624,0,0,0-4.62,4.6,4.6,4.6,0,0,0,4.62,4.573,4.6,4.6,0,0,0,4.62-4.573A4.624,4.624,0,0,0,109.685-5.26Zm0,.917a3.643,3.643,0,0,1,3.633,3.668,3.665,3.665,0,0,1-3.633,3.668,3.665,3.665,0,0,1-3.633-3.668A3.643,3.643,0,0,1,109.685-4.343Zm8.371,8.1h.988V-3.073l6.913,7.23V-5.107h-.988V1.759l-6.913-7.242Zm24.83-8.147a4.28,4.28,0,0,0-2.645-.87,4.636,4.636,0,0,0-4.62,4.62,4.614,4.614,0,0,0,4.62,4.55,4.565,4.565,0,0,0,2.645-.87V1.818a3.881,3.881,0,0,1-2.681,1.176,3.682,3.682,0,0,1-3.6-3.668,3.669,3.669,0,0,1,3.574-3.668,3.794,3.794,0,0,1,2.7,1.176Zm8.194-.87a4.624,4.624,0,0,0-4.62,4.6,4.6,4.6,0,0,0,4.62,4.573A4.6,4.6,0,0,0,155.7-.663,4.624,4.624,0,0,0,151.081-5.26Zm0,.917a3.643,3.643,0,0,1,3.633,3.668,3.665,3.665,0,0,1-3.633,3.668,3.665,3.665,0,0,1-3.633-3.668A3.643,3.643,0,0,1,151.081-4.343Zm12.486-.917a4.624,4.624,0,0,0-4.62,4.6,4.6,4.6,0,0,0,4.62,4.573,4.6,4.6,0,0,0,4.62-4.573A4.624,4.624,0,0,0,163.566-5.26Zm0,.917A3.643,3.643,0,0,1,167.2-.674a3.665,3.665,0,0,1-3.633,3.668,3.665,3.665,0,0,1-3.633-3.668A3.643,3.643,0,0,1,163.566-4.343Zm9.3.153h.294c1.187,0,2.257.141,2.257,1.6,0,1.376-1.129,1.587-2.245,1.587h-.306Zm0,4.056h.247l2.681,3.891H177L174.182-.216A2.316,2.316,0,0,0,176.4-2.661c0-2-1.564-2.445-3.245-2.445h-1.281V3.758h.988ZM180.6,3.758h1.646a4.712,4.712,0,0,0,3.5-1.117,4.275,4.275,0,0,0,1.446-3.3,4.292,4.292,0,0,0-1.47-3.374,4.833,4.833,0,0,0-3.456-1.07H180.6Zm.988-.917V-4.19h.717a3.81,3.81,0,0,1,2.751.858,3.5,3.5,0,0,1,1.152,2.657,3.51,3.51,0,0,1-1.105,2.6,3.718,3.718,0,0,1-2.8.917Zm10.346-7.948h-.988V3.758h.988Zm4.209,8.865h.988V-3.073l6.913,7.23V-5.107h-.988V1.759l-6.913-7.242Zm17.212-2.516L214.4,3.758H215.5L211.51-5.53l-4.091,9.288H208.5l1.07-2.516Zm-.388-.917h-3l1.517-3.551Zm7.254-4.515h2.163v-.917h-5.29v.917h2.14V3.758h.988Zm5.526,7.948h4.6V2.841h-3.609V-.639h3.5v-.917h-3.5V-4.19h3.609v-.917h-4.6Z" transform="translate(-0.56 5.53)" fill="#2e2e2e"/>
</svg>
