<?xml version="1.0" encoding="UTF-8"?>
<svg id="_レイヤー_1" data-name="レイヤー 1" xmlns="http://www.w3.org/2000/svg" version="1.1" viewBox="0 0 581 90">
  <defs>
    <style>
      .cls-1 {
        fill: #d4cce0;
      }

      .cls-1, .cls-2, .cls-3 {
        stroke-width: 0px;
      }

      .cls-2 {
        fill: none;
      }

      .cls-3 {
        fill: #2e2e2e;
      }
    </style>
  </defs>
  <g id="_グループ_272" data-name="グループ 272">
    <rect id="_長方形_125" data-name="長方形 125" class="cls-1" width="431" height="47"/>
    <path id="_パス_952" data-name="パス 952" class="cls-3" d="M443,31.8c1.9,1.2,2.7,1.6,3.3,1.6s1.5-.8,2.3-2.7c.9-2.1,1.4-4.4,1.5-6.7,0-1.9-.5-2.7-1.7-2.7-.9,0-1.9.3-2.8.6-1.4,3.7-3.1,7.3-5,10.8-1.2,2.1-1.8,2.7-2.4,2.7-.6,0-1-.6-1-1.1q0-.4,1.3-2.1c2.2-3,4-6.2,5.4-9.6-.4.2-.8.3-2.4,1-.6.3-1.3.5-2,.5-.6,0-1.2-.3-1.6-.8-.5-.5-.8-1-.9-1.7,0-.1,0-.2,0-.3.6.6,1.4,1,2.3,1,1.7-.2,3.4-.6,5-1.1.4-1,.6-2.1.6-3.2,0-1.2-.6-2.2-1.7-2.6.3-.2.6-.3.9-.2.8,0,1.6.3,2.2.7.4.3.7.7.7,1.2-.2,1.3-.6,2.6-1.1,3.8.8-.2,1.5-.3,2.3-.3,2.2,0,3.3,1.5,3.3,4.6,0,3.3-1,6.5-2.7,9.3-.7,1.1-1.8,1.8-3.1,2-.7,0-1.1-.4-1.1-1.4,0-.8-.4-1.3-1.9-2.7l.2-.3ZM454.2,20.5c.2,0,.3,0,.5,0,3.7,0,6.5,2.5,6.5,5.7s-1,3.2-2.1,3.2-.7-.2-1.1-.9c-.3-.3-.7-.6-1.1-.7-.6-.1-1.1-.2-1.7-.3v-.4c.8,0,1.1,0,1.4,0,.7,0,1.4,0,2-.3.3-.2.5-.5.5-1.1,0-1.4-.6-2.7-1.7-3.6-.9-.8-2-1.2-3.2-1.2v-.4ZM455.5,15.6c1.2.1,2.4.4,3.5,1,.9.3,1.5,1.1,1.6,2,0,.5-.3.9-.8.9-.4,0-.7-.2-1.2-.9-.8-1.2-1.9-2.1-3.3-2.8v-.3ZM457.7,13.1c3.2.2,5.3,1.1,5.3,2.5,0,.4-.3.8-.8.8-.3,0-.5-.2-1.1-.8-1-1.1-2.2-1.8-3.5-2.3v-.3Z"/>
    <g id="_グループ_270" data-name="グループ 270">
      <path id="_パス_953" data-name="パス 953" class="cls-3" d="M27.3,71.4c-.2-1-.5-2.1-1.1-3-.5-.8-1.1-1-3.6-1h-2.4v16.4c0,2.6.3,3,3.4,3.2v.9h-9.5v-.9c3-.2,3.3-.5,3.3-3.2v-16.4h-2.1c-2.8,0-3.4.3-3.8,1-.5.9-.9,1.9-1.1,3h-1c.2-2,.3-4.2.4-6h.7c.5.8.9.8,1.8.8h13.1c.7,0,1.3-.2,1.7-.8h.7c0,1.5.2,4,.3,5.9h-1Z"/>
      <path id="_パス_954" data-name="パス 954" class="cls-3" d="M32.1,73c4.2.2,6.6,1.4,6.6,3.2,0,.6-.5,1.1-1.1,1.1-.4,0-.7-.2-1.2-.7-1.2-1.5-2.7-2.6-4.4-3.4v-.3ZM53,70.6c-3.2,5.6-7.6,10.5-13,14.1q-3.1,2.1-3.6,2.1c-1.1,0-2.7-1.8-2.7-2.9,0-.3,0-.6.3-.8.4.6,1.1,1.1,1.8,1.2,1.1,0,4.5-2.1,7.8-4.7,2.1-1.8,4.2-3.6,6.1-5.7.9-.9,1.4-1.5,2.9-3.5l.3.2ZM35.4,67.6c.5,0,.6,0,1,0,1.7,0,3.3.3,4.8,1.1.6.4.9,1,1,1.7,0,.6-.4,1.1-1,1.2,0,0,0,0,0,0-.4,0-.6-.2-1.3-.8-1.2-1.3-2.8-2.3-4.5-2.8v-.3Z"/>
      <path id="_パス_955" data-name="パス 955" class="cls-3" d="M67.5,79.3c1.5-1.7,3.1-3.9,3.1-4.3,0-.1-.1-.2-.3-.2-1.9.5-3.7,1.1-5.5,1.9.5,1.6,1.1,3.3,2.1,6.1.4,1,.6,1.7.7,2,.2.7.4,1.2.5,1.4.2.4.3.9.3,1.4,0,.6-.5,1-1,1,0,0,0,0,0,0-.5,0-.9-.3-1-.8,0-.3-.1-.4-.6-2.4-.7-2.8-1.4-5.4-2.2-8.2-1.5.6-1.8.7-3.6,1.6-.3.2-.7.3-1.1.3-1.1-.1-2-1-2.2-2.1.5.1,1,.2,1.5.2,1.7-.1,3.4-.5,5-1.2-1.3-3.8-1.4-3.8-2.9-3.9.4-.8,1.2-1.2,2.1-1.1,1,0,1.6.4,1.6,1.1v.2c0,.1,0,.3,0,.4.1,1,.3,1.9.6,2.8.4-.2,3.4-1.1,4.1-1.4.4,0,.8-.3,1.1-.7.2-.2.4-.3.7-.3.8.2,1.5.5,2.1,1.1.5.5.7.8.7,1.1s-.2.7-.9.8c-.4,0-.5,0-1.1.6-.1,0-.3.2-.6.5-.4.3-.8.6-1.2,1-.9.7-1.2.9-1.8,1.3l-.2-.2Z"/>
      <path id="_パス_956" data-name="パス 956" class="cls-3" d="M79.9,68.7c3.2,1.4,5,3.3,5,5.2,0,.7-.5,1.4-1.2,1.5,0,0,0,0,0,0-.3,0-.6-.2-.8-.4-.2-.4-.4-.9-.5-1.3-.5-1.8-1.4-3.4-2.7-4.7l.2-.2ZM83.1,88c2.4-1.8,4.6-3.8,6.6-6,2.9-3.3,5.3-7,7.1-11,.3-.7.5-1.4.6-2.1,0-.7-.4-1.1-1.3-1.7.3-.2.6-.3,1-.3.8,0,1.6.5,2.1,1.1.6.4,1,1.1,1.1,1.8,0,.4,0,.5-.5,1.1-.2.2-.3.5-.5.8-1.9,3.7-4.4,7.2-7.3,10.2-2.5,2.7-5.4,4.9-8.7,6.6l-.2-.3ZM86.1,66.3c1.7.6,3.1,1.6,4.3,2.9.5.6.8,1.4.8,2.1,0,.7-.4,1.4-1.1,1.5,0,0,0,0-.1,0-.3,0-.5-.2-.7-.4q-.2-.2-.5-1.2c-.6-1.8-1.6-3.4-2.9-4.7l.2-.2Z"/>
      <path id="_パス_957" data-name="パス 957" class="cls-3" d="M110.5,71.4c2.4,0,4.7-.3,7-.7,2.6-.3,2.9-.4,3.5-.8.2-.2.5-.2.8-.2.9.2,1.7.7,2.3,1.5.5.5.6.7.6,1.1,0,.2,0,.4-.2.5q-.5.5-1,2.1c-.3.9-.9,3.2-1.5,5.2,1.2.5,1.6.9,1.6,1.5s-.2.7-.8.7-.4,0-.9,0c-.4,0-.9,0-1.3,0-3.4,0-6.8.5-10.1,1.2-.4.1-.9.2-1.4.2-.7,0-1.3-.3-1.8-.8-.6-.5-.9-1.1-1.1-1.8,1.1.4,2.2.6,3.4.5,3.5-.2,7-.5,10.5-1.1.6-2.7,1.1-5.5,1.5-8.2,0-.4-.2-.5-.7-.5-3.1.2-6.1.7-9.1,1.4-.5.2-1,.3-1.5.3-1.4-.2-2.6-1.3-3-2.7,1,.4,2.1.6,3.1.6"/>
      <path id="_パス_958" data-name="パス 958" class="cls-3" d="M135.8,76c.5,0,1.2,0,2.1,0q2.4-.1,9.6-.4c1.5,0,3-.1,4.5-.4.1,0,.3,0,.5,0,.7,0,1.3.2,1.9.6.4.2.6.6.7,1.1,0,.6-.5.9-1.2.9-.2,0-.4,0-.6,0-1.3-.1-2.5-.2-3.8-.2-2.8,0-9,.2-11.9.5-.8,0-1.5.1-2.3.3-.3,0-.6.2-.9.2-.9,0-2-1.4-2-2.5,0-.4.2-.8.4-1.1.8.9,1.3,1.2,3.2,1.2"/>
      <path id="_パス_959" data-name="パス 959" class="cls-3" d="M162.1,88.6c1.9-1.6,3.5-3.5,4.9-5.7,2-3.1,3.4-6.7,3.4-8.3,0-.3-.1-.6-.4-.9-1.9.3-3,.6-5,1.1-.7.2-1.3.4-2,.4-.6,0-1.1-.2-1.5-.6-.6-.5-1-1.1-1.3-1.8,0,0,0-.1,0-.2.7.4,1.6.6,2.4.6,1.4,0,3-.2,9.9-1.2,1.4-.2,2.7-.5,4.1-.9.2,0,.5-.2.7-.2.8,0,1.6.3,2.4.7.8.4,1.1.7,1.1,1.2,0,.5-.3.8-.8.9,0,0,0,0,0,0-.5,0-1.1-.2-1.6-.3-1-.3-2.1-.4-3.1-.4-1.4,0-2.7.1-4.1.4,1.2.7,1.6,1.1,1.6,1.8s-.9,3.1-2.2,5.2c-2,3.4-4.8,6.3-8.3,8.4l-.2-.3ZM164.4,66.5c.8.4,1.6.5,2.4.5,2.3-.1,4.5-.7,6.5-1.6.3-.1.6-.2.9-.2.8,0,1.4.5,1.5,1.3,0,.6-.4.8-1.7,1.2-1.8.5-3.6.7-5.4.8-1.7.1-3.3-.5-4.5-1.8l.2-.2ZM178,65.7c1.1.2,2.2.7,3.2,1.3.8.4,1.3,1.1,1.5,2,0,.5-.3.9-.8.9-.4,0-.7-.2-1.1-1-.7-1.2-1.7-2.2-2.8-2.9v-.3ZM180.5,63.6c3,.4,4.9,1.5,4.9,2.8,0,.4-.3.8-.7.8-.3,0-.5-.1-1.1-.8-.9-1.1-2-1.9-3.2-2.5v-.3Z"/>
      <path id="_パス_960" data-name="パス 960" class="cls-3" d="M193.9,76.5c-.7,2.4-1.2,4.8-1.5,7.3,0,.6,0,1.1.2,1.7.1.3.2.6.2.9,0,.5-.3.9-.8.9,0,0,0,0,0,0-.5,0-1-.4-1.4-1.1-1-2.1-1.6-4.4-1.5-6.7,0-2.7.5-5.5,1.3-8.1.3-1,.5-2,.5-3,0-.9-.2-1.7-.7-2.5h0c.4,0,1,.5,1.6,1.3.6.8,1,1.7,1.1,2.6,0,.6-.2,1-1,2.8-1,1.9-1.6,4.1-1.7,6.3,0,1.5.4,3.4.7,3.4s.3-.4,1.1-2.6c.4-.9.4-1.1.9-2.4q.2-.6.4-1h.3ZM197.7,81.9c1,1.7,2.2,2.3,4.5,2.3,1.4,0,2.8-.2,4.1-.5.5-.2.9-.2,1.4-.2,1,0,1.8.5,1.8,1.2,0,.6-.4,1-.9,1.1-1.3.3-2.6.5-4,.5-4.1,0-6.1-1.2-7.1-4.3l.3-.2ZM198.2,68.6c.7.4,1.6.6,2.4.5,1.5,0,3-.3,4.5-.8.3-.2.7-.2,1.1-.2,1.1,0,1.8.5,1.8,1.3s-.4.8-1,1c-1.2.3-2.5.5-3.8.5-1.9,0-3.8-.7-5.1-2.1l.2-.2Z"/>
      <path id="_パス_961" data-name="パス 961" class="cls-3" d="M234.5,80.7c-.9,1.8-2.2,3.4-3.7,4.7-2.1,1.9-4.8,3-7.6,3-1.3,0-2.6-.3-3.7-1.1-1.4-1.1-2-2.9-2-6s.1-4.5.3-6.7q.3-3.5.4-5.7c0-1,0-1.6,0-2.3,0-1.1-.4-1.6-1.7-2.1.3-.2.6-.3.9-.3,1.8,0,3.4,1.1,3.4,2.3,0,.4,0,.8-.2,1.2-.3,1.1-.8,4.4-1.1,7-.3,2.3-.4,4.6-.5,6.9,0,3.7,1.1,5,4,5s8.2-2.4,11-6.2l.3.3Z"/>
      <path id="_パス_962" data-name="パス 962" class="cls-3" d="M249.4,77.7c1.3,1.1,3,1.7,4.7,1.7,1.7.2,3.2-1.1,3.4-2.8,0,0,0-.1,0-.2,0-1.5-1.3-2.7-2.8-2.7,0,0-.1,0-.2,0-2,0-4.1,1-8.2,3.9,1.6,2.5,2.8,5.2,3.8,8,.3.8.5,1.6.5,2.4,0,.5-.4,1-1,1,0,0,0,0,0,0-.3,0-.6-.1-.8-.4-.2-.4-.3-.8-.4-1.2-.5-3.2-1.6-6.3-3.1-9.1-.6.4-.8.6-1.7,1.2s-1.2.7-1.7.7c-1.1-.2-2-1-2.2-2.1,0,0,0-.1,0-.2.3.3.8.5,1.3.5.8,0,1.2-.2,3.5-1.5-.5-.8-.7-1-1-1.4-.9-1.3-1-1.4-1-1.9,0-.6.3-1.2.7-1.7.4-.4.9-.7,1.5-.8.2,0,.3,0,.5,0,.3,0,.6.1.9.1,1,0,2,0,3-.2.5,0,.8-.3.8-.8,0-.5-.2-.9-.5-1.2l.2-.2c1.5.7,2,1.5,2,2.5,0,.6-.4,1.2-1,1.3,0,0-.1,0-.2,0-.2,0-.5,0-.7-.2-1.4-.4-2.9-.7-4.4-.8-.6,0-1.2.4-1.3,1,0,0,0,0,0,.1,0,.5.3,1.2,1.6,3.2,2.7-1.5,3.1-1.7,4.1-2.1,1.6-.8,3.3-1.3,5-1.4,2.7,0,4.7,1.7,4.7,4,0,2.2-1.8,4-4,4,0,0-.1,0-.2,0-2.1,0-4-.9-5.9-2.9l.2-.3Z"/>
      <path id="_パス_963" data-name="パス 963" class="cls-3" d="M290.3,80.2c-1.5,4-3.6,6-6.2,6s-3.4-1.5-3.4-4c0-1.9.4-3.8.8-5.7.4-1.4.6-2.9.6-4.3,0-1.7-.8-2.7-2.2-2.7s-2.7.8-4.4,2.3c-1.7,1.4-3.1,2.9-4.4,4.7,0,.6,0,.7,0,.9,0,2.1,0,4.2.3,6.3,0,.7,0,1.1,0,1.8,0,2.1-.4,3.2-1.2,3.2-.3,0-.6-.2-.7-.5-.2-.4-.3-.9-.3-1.4q-.2-1.2-1.6-5.1c-.2.3-.8,1.4-1.4,2.3-.3.6-.6.8-1,.8-.6,0-1.1-.5-1.1-1.1,0-.5.2-1,.6-1.3q.5-.6,1.3-1.8t.8-1c-.3-1.3-.7-2.6-1.2-3.8-.2-.3-.3-.6-.3-1,0-1.2,1.9-2.6,4.9-3.5.2-1.2.3-2.4.3-3.6,0-1.7-.6-2.9-1.7-3.4.2,0,.4-.1.5-.1.8.1,1.6.5,2.2,1.1.6.4,1,1.1,1.1,1.9,0,.4,0,.7-.2,1.1-.3,1-.6,2.1-.8,3.2.4.2.7.7.8,1.2,0,.4,0,.5-.8,1.6v.2c3.9-3.8,6.5-5.4,8.9-5.4,2.1,0,3.8,1.7,3.8,3.8,0,0,0,0,0,0,0,1.1,0,1.1-1,4.8-.5,1.5-.8,3.1-.8,4.7,0,1.1.2,1.7.8,2,.4.2.8.4,1.3.4,1.4-.1,2.8-.8,3.6-2,.7-.8,1.3-1.6,1.8-2.6l.3.2ZM270,74.7v-.8c0-.3,0-.5,0-.9-1.1.2-2.1.6-3,1.3-.7.5-.8.7-.8,1.1.2,1.3.6,2.5,1.1,3.7,1.4-2.1,2.1-3.2,2.8-4.3M269.8,79.1c0-.2,0-.6,0-1.2-.6.9-.7,1.1-.9,1.5-.3.5-.6.9-.9,1.5.5,1.2,1,2.4,1.7,3.5,0,0,0,0,0,0t0,0c0,0,0-.3,0-.7v-4.6Z"/>
      <path id="_パス_964" data-name="パス 964" class="cls-3" d="M318.6,82.2c-1.4,0-5-1.7-7.2-4.7-1.8,1.9-4.1,3.3-6.6,4.1v-.2c2.1-1.5,4-3.3,5.7-5.3-1.4-2.5-2.3-5.3-2.7-8.1h-10.2c0,8,0,12.4-4.8,16.3v-.2c2.4-3.3,2.8-8.8,2.8-12.4,0-2-.1-3.9-.5-5.9l2.7,1.4h9.9c0-.3-.1-1.1-.2-1.7-.1-1.1-.3-2.1-.6-3.1l2.9.7c.3,0,.5.2.5.3,0,.3-.5.6-.8.8,0,.7,0,1.5.2,3h5.5l1.1-1.4c.2-.3.3-.4.5-.4.2,0,.4.1.5.3l1.5,1.5c.1.2.3.3.3.5s-.3.3-.5.3h-8.9c.3,2.3,1,4.5,2,6.5,1.2-1.5,2.1-3.3,2.4-5.2l2.3,1.5c.3.2.4.3.4.5,0,.2-.1.3-1,.6-.9,1.5-2,2.9-3.1,4.3,1,1.4,2.4,2.5,4.1,3.1.5,0,.8-.2,1.1-.8.5-.6.9-1.3,1.2-2h.1c0,.5,0,2.9,0,3.4,0,.3,0,.5.2.8.3.5.4.6.4.8,0,.9-.9.9-1.1.9M295,89.4c-.6,0-1.1-.4-1.1-1,0,0,0,0,0-.1,0-.5.2-.8,1.1-1.7.8-.9,1.4-2,1.6-3.1h.2c.3.8.5,1.7.5,2.6,0,2-1,3.3-2.3,3.3M306.5,71.2h-4.9c-.8,0-1.7,0-2.5.2l-.4-1.1c1.6.1,3.1.2,3.3.2h2.1l.6-.7c.1-.2.3-.4.5-.4.2,0,.4.1.6.3l.9.8c.2.2.3.3.3.5,0,.2-.2.3-.5.3M306.5,74.7c0,.7,0,4,0,4.2-.2.8-1.1.8-1.3.8-.7,0-.7-.6-.6-1.1h-3.3c0,.6.2,2-1.5,2s-.6-.5-.6-.8c0-.5.2-2.8.2-3.4,0-1.3,0-2.5-.3-3.8l2.3.9h3.1l.6-.7c0-.1.2-.2.4-.3.1,0,.3.2.4.2l1,.8c.2.2.3.3.3.5,0,.2-.2.4-.7.7M311,89.6c-2.4.2-4.8.3-7.3.3-2.9,0-3.5-.5-3.5-3,0-1.8,0-3.6-.3-5.4l2.4.6c.4,0,.6.2.6.5s-.3.5-.7.8c0,.6,0,3.8.2,4.2.2.2.5.3.7.3.3,0,1.4,0,2.6,0,4.1,0,4.4-.1,4.9-.9.5-.9.9-2,1.2-3h.2c.4,2.2.5,2.8.8,3.1.4.2.5.3.5.6,0,.5-.5,1.4-2.3,1.9M304.5,74.2h-3.3v3.6h3.3v-3.6ZM307.7,86.2c-.7,0-1-.5-1.4-1.6-.3-.9-.8-1.7-1.4-2.4v-.2c2.2.5,4,1.5,4,3,0,.6-.4,1.2-1,1.3,0,0,0,0,0,0M313.4,66.4c-.5,0-.8-.3-1.4-1.3-.4-.6-.9-1.2-1.5-1.6v-.3c1.5,0,3.9.4,3.9,2.1,0,.6-.4,1.1-1,1.1,0,0,0,0,0,0M318,88.6c-.8,0-1-.5-1.6-1.7-.5-1.4-1.4-2.6-2.5-3.7l.2-.2c2.8.9,5.2,2.4,5.2,4.3,0,.7-.5,1.3-1.2,1.3,0,0,0,0,0,0"/>
      <path id="_パス_965" data-name="パス 965" class="cls-3" d="M325.1,67.2c.7.5,1.5.8,2.4.8,1.1,0,2.2-.2,3.2-.6,0-.3.1-.6.1-.9,0-1-.4-1.4-1.6-1.9.3-.2.7-.3,1.1-.3,1.3,0,2.2.6,2.2,1.4,0,.4-.1.8-.2,1.2.6-.4,1.3-.6,2-.8.5,0,.9.4.9.8,0,.7-.9,1.2-3.7,2.2-.8,2.1-1.8,4-3,5.9.8-.4,1.6-.7,2.5-.7,1.6,0,2.5.8,3.2,2.5.6-1.6,1.6-3.1,2.9-4.3,1.2-1.2,2.9-1.9,4.6-2,1.8,0,3.1.9,3.1,2.3s-.6,1.6-1.8,2.5c-1.7,1-3.4,2-5.2,2.7-1.8.8-2.1.9-2.7,1.3v.7c0,0,0,.5,0,1v1.1c0,.5,0,.9-.2,1.4-.2.3-.5.5-.9.5-.7,0-1.1-.5-1.1-1.3s0-1.8.1-2.4c-2.1,1.3-3.2,2.5-3.2,3.9s1.2,2.2,3.7,2.2c1.1,0,2.2-.1,3.2-.4.4-.1.8-.2,1.2-.2,1.1,0,2,.5,2,1.2s-.3.8-.9,1c-1.4.3-2.8.4-4.2.4-4.1,0-6.3-1.3-6.3-3.7,0-1.4.7-2.7,1.8-3.5.8-.7,1.7-1.3,2.7-1.8,0-.2,0-.5,0-.7,0-2.5-.7-3.8-2.1-3.8-.9,0-1.8.5-2.5,1.2-.8.7-1.4,1.5-2,2.4-.5.7-1,1.1-1.4,1.1-.6,0-1.1-.5-1.1-1.2,0,0,0,0,0,0,0-.5.2-1,.6-1.3.4-.4.8-.7,1.2-1,1.2-.9,3.3-4.1,4.4-6.7-.5.2-1.1.2-1.6.2-1.5,0-3-.9-3.7-2.2l.2-.2ZM337.8,76.8c1.5-1,2.9-2.1,4.1-3.4.3-.3.4-.7.5-1.1,0-.6-.5-.9-1.3-.9-1.4,0-2.7.6-3.6,1.6-.9,1-1.6,2.1-2,3.4-.2.7-.3,1.4-.4,2.1q.3-.2,2.7-1.6"/>
      <path id="_パス_966" data-name="パス 966" class="cls-3" d="M350.6,88.1c4.3-3.3,8-7.3,10.7-12,1.5-2.5,3.1-5.8,3.1-6.4s-.1-.3-.4-.3c-1.1,0-2.2.3-3.2.6q-3.8.8-6.7,1.7c-.5.2-1,.2-1.5.3-1.5-.1-2.7-1.3-2.9-2.8v-.2c1.1.5,2.4.7,3.6.7,2.8-.2,5.6-.5,8.3-1.1.7,0,1.4-.3,2.1-.7.2-.1.4-.2.6-.2,1.1,0,3.1,1.8,3.1,2.8s0,.5-.8,1.1c-.3.4-.6.8-.8,1.3-2.1,3.7-4.7,7.1-7.6,10.2-2.1,2.2-4.6,4-7.4,5.4l-.3-.3ZM373.8,65.5c0,1.8-1.5,3.3-3.3,3.3s-3.3-1.5-3.3-3.3c0-1.8,1.5-3.3,3.3-3.3h0c1.8,0,3.3,1.4,3.3,3.2,0,0,0,0,0,0M368.2,65.5c0,1.3,1,2.3,2.3,2.3,1.3,0,2.3-1,2.3-2.3s-1-2.3-2.3-2.3c-1.3,0-2.3,1-2.3,2.3"/>
      <path id="_パス_967" data-name="パス 967" class="cls-3" d="M378.7,88.4c3.3-2.3,6.2-5.2,8.5-8.5,1.7-2.4,3.5-6,3.5-6.7s-.2-.4-.5-.4c-2.9.4-5.7,1-8.5,1.7-.5.2-1,.3-1.5.3-1.3-.2-2.2-1.3-2.3-2.6v-.2c.9.4,1.9.7,2.9.7,2.7-.2,5.5-.5,8.2-.9.6,0,1.2-.3,1.7-.7.1-.1.3-.2.5-.2.6,0,1.2.4,1.7.8.7.5,1,.9,1,1.3s0,.4-.5.8c-.3.3-.5.6-.7,1-1.8,3.4-4.1,6.5-6.9,9.2-2,1.9-4.3,3.5-6.9,4.7l-.2-.3ZM380,66.4c.8.3,1.6.5,2.4.5,2-.1,4-.6,5.9-1.4.3-.2.7-.3,1.1-.3.8,0,1.7.6,1.7,1.3s-.5.8-1.6,1.2c-1.6.5-3.2.7-4.9.7-1.7,0-3.4-.5-4.7-1.7v-.3Z"/>
      <path id="_パス_968" data-name="パス 968" class="cls-3" d="M397.1,87.2c4.3-2.7,8-6.2,11.1-10.2,2.2-2.9,4.7-6.7,4.7-7.4s-.1-.2-.4-.2c-2.1.5-4.2,1.1-6.2,1.9-.7.3-1.4.5-2.1.6-.8,0-1.5-.6-1.8-1.4-.2-.4-.3-.8-.3-1.3,0-.2,0-.3,0-.5.6.6,1.5.9,2.3.8,2-.1,4-.4,5.9-.9.7-.1,1.4-.4,2.1-.8.2-.1.5-.2.7-.2.9,0,2.7,1.6,2.7,2.4s-.1.5-.6.9q-.4.3-2.7,3.5c-.4.6-.8,1.1-2.4,3.1,2.2.9,4.2,2.1,6,3.7,1.4,1.3,2.2,2.6,2.2,3.5,0,.8-.5,1.4-1.2,1.5-.3,0-.5-.1-.7-.3-.3-.4-.6-.9-.8-1.4-1.3-2.6-3.3-4.9-5.8-6.5-1.8,2.1-3.9,4-6.1,5.7-2,1.5-4.1,2.8-6.4,3.8l-.2-.3Z"/>
    </g>
    <g id="_グループ_271" data-name="グループ 271">
      <path id="_パス_969" data-name="パス 969" class="cls-3" d="M37.7,11.4c-2.4.2-3.4.7-3.6,2.4-.2,2.2-.2,4.4-.2,6.6v3.4c0,4.8-.7,8.2-3.1,10.7-1.9,1.9-4.6,2.9-7.3,2.8-2.3,0-4.6-.6-6.5-2-2.4-1.9-3.6-4.9-3.6-9.7v-10.2c0-3.7-.3-3.8-3.5-4.1v-1.1h10.5v1.1c-3.2.2-3.5.4-3.5,4.1v9.3c0,6.5,2.6,10.3,7.6,10.3s7.7-4.9,7.7-11.6v-3.1c0-2.2,0-4.5-.3-6.7-.2-1.6-1.1-2.1-3.9-2.3v-1.1h9.7v1.1Z"/>
      <path id="_パス_970" data-name="パス 970" class="cls-3" d="M66.5,11.4c-2.8.3-3.3.7-4.8,4.3-1.1,2.6-5.4,13-8.5,21.3h-1.3c-2.7-7.4-6.1-16.2-8.4-22.1-1.2-3-1.8-3.4-4.2-3.6v-1.2h10v1.1c-2.9.3-3,.6-2.4,2.4,1.1,2.9,4,10.7,6.7,17.7h0c2-5.1,5.1-13,6.4-17.1.8-2.3.5-2.6-2.8-3v-1.1h9.1v1.1Z"/>
      <path id="_パス_971" data-name="パス 971" class="cls-3" d="M66.8,37c3-2.2,5.6-4.9,7.7-7.9,2.2-3.1,3.9-6.5,5.2-10.1q-.7.1-2.1.5c-.6.1-1.4.3-2.4.5-.7.2-1.4.4-2.1.4-.6,0-1.2-.2-1.7-.6-.8-.5-1.4-1.4-1.5-2.4,0-.1,0-.3,0-.4,1.1.7,2.5,1.1,3.8,1,2.2,0,4.4-.3,6.6-.6.6-1.7,1-3.5,1.2-5.2,0-.6-.2-1.1-.5-1.6-.4-.4-.9-.7-1.4-.8.5-.6,1.2-.9,2-.8,1.4,0,3.2,1.3,3.2,2.4,0,.4-.2.8-.4,1.2-.2.5-.4,1-.6,1.6q-.7,2.3-.9,3c2-.2,4.6-.6,5.4-.8.4,0,.9-.2,1.2-.6.2-.2.5-.3.7-.3.6,0,1.4.6,2.3,1.7.3.3.5.8.5,1.3,0,.4-.1.6-.7,1q-.1.1-1.5,5.2c-1.7,6.1-4.5,11.1-6.2,11.1-.3,0-.6-.2-.8-.4-.2-.3-.3-.7-.4-1.1-.3-1.2-.7-1.8-2.5-3.7l.2-.3c.2.1.4.3.6.4,1.8,1.1,2.6,1.4,3.2,1.4s.6-.3.9-1c1.6-3.3,2.8-6.9,3.6-10.5.2-.7.3-1.5.4-2.3,0-.4-.1-.5-.6-.5-2.3.2-4.5.5-6.8.9-2.1,5.4-3.8,8.5-6.4,11.6-2.5,3-5.5,5.4-8.9,7.2l-.3-.4Z"/>
      <path id="_パス_972" data-name="パス 972" class="cls-3" d="M100.9,19c3.2,1.4,4.8,3.1,4.8,4.9,0,.7-.5,1.4-1.2,1.4,0,0,0,0,0,0-.6,0-.9-.3-1.2-1.3-.5-1.8-1.4-3.4-2.6-4.8l.3-.3ZM103.8,37.5c4.2-3.1,7.7-7,10.3-11.4,1.8-3,3.2-5.9,3.2-6.9s-.3-1-1.5-1.5c.3-.3.8-.4,1.2-.4,1.3,0,3.3,1.6,3.3,2.7s0,.4-.5,1c-.5.6-.9,1.3-1.3,2-2,3.6-4.5,7-7.5,9.8-2.1,2-4.4,3.7-7,5l-.3-.3ZM106.8,16.8c1.5.5,2.8,1.4,3.9,2.5.6.6,1,1.4,1,2.2,0,.7-.5,1.4-1.3,1.4-.6,0-.8-.3-1.1-1.1-.5-1.8-1.5-3.4-2.8-4.7l.3-.3Z"/>
      <path id="_パス_973" data-name="パス 973" class="cls-3" d="M132.6,8c.9,0,1.8.4,2.5,1,.4.3.7.7.7,1.2,0,.4,0,.8-.3,1.2-.4,2.2-.6,4.5-.6,6.8,5.6,1,9,3.3,9,5.9s-.6,1.7-1.3,1.7-.9-.3-1.5-1.3c-1.5-2.4-3.6-4.4-6.2-5.6,0,6.1,0,11.8.2,14.5,0,1.3,0,1.6,0,2.1,0,.5,0,1.1-.3,1.6-.2.3-.5.4-.8.4-.5,0-1-.5-1.4-1.3-.4-.7-.6-1.5-.7-2.3,0-.5,0-1,.2-1.5.2-1,.3-2,.3-3.1.1-4.7.2-8.8.2-15.4s0-3.4-.3-3.9c-.4-.6-1-1-1.7-1.2.4-.5,1.1-.9,1.8-.8"/>
      <path id="_パス_974" data-name="パス 974" class="cls-3" d="M180.5,20.4c-2.8.3-3.4,1.1-4.7,3-1.1,1.6-2.1,3.3-3.5,5.4,1.7,1.7,5.4,5.8,6.6,8.2l-.3.4c-1.8-.1-3.5-.7-5-1.7-.5-.6-2.2-2.5-3.5-4-2.9,3.9-5.6,5.4-8.5,5.4-5.2,0-8.1-3.9-8.1-7.4s2.7-5.4,6.1-7.8c-1.8-1.7-2.9-3.5-2.9-5.7,0-3.6,3.1-6.5,6.7-6.4,3.2-.2,5.9,2.3,6,5.4,0,0,0,.1,0,.2,0,1.4-.6,2.7-1.7,3.6-1.1.9-2.2,1.7-3.3,2.4,1.3,1.1,4.2,3.7,6.8,6.3,1-1.5,1.8-3,2.4-4.7.8-1.9.4-2.4-2.5-2.7v-1.1h9.3v1.1ZM169.2,30.7c-2.6-2.8-5.5-5.4-8.5-7.8-2.7,1.9-3.7,3.8-3.7,5.8-.1,3,2.2,5.6,5.3,5.7.1,0,.2,0,.3,0,2.6-.2,5.1-1.5,6.6-3.7M159.6,15.3c0,2.1,1.3,3.5,3.7,5.4,2-1.4,3-3,3-5.2s-1.4-4.3-3.4-4.3-3.3,1.6-3.3,4.1"/>
      <path id="_パス_975" data-name="パス 975" class="cls-3" d="M199,14.2h-4.2v7.7c.5-.2,2.8-1,3.3-1.1l.2.3c-.6.3-3,1.8-3.5,2.2,0,2.8.1,9.3.1,11.9s0,3.3-3.8,4.1c-.4-1.4-.7-2.2-3.9-4h0c1.3,0,3,.2,3.8.2,1.3,0,1.3-.1,1.3-1.7v-9.2c-.6.4-3.4,2-4,2.3-.2.6-.4,1-.7,1s-.4-.1-.6-.4l-1.8-3.4c1,0,1.8.1,7.1-1.5v-8.4h-1c-1.5,0-2.9,0-4.4.3l-.7-1.5c2,.1,4.1.3,6.1.3v-3.3c0-1.5-.2-3-.7-4.4l3.9,1c.2,0,.4.2.4.5,0,.3-.4.6-1.3,1.3v5h.7l.8-1.3c.2-.3.3-.5.6-.5.3,0,.5.2.7.4l1.6,1.3c.2.1.3.3.4.6,0,.3-.3.4-.6.4M219.2,26.3h-7.9l1.9.9c.3.1.6.3.6.6s-.4.6-1.1.8c-.6,1.4-1.5,2.7-2.4,4,4,1.6,7.2,3.8,7.2,5.3,0,.7-.5,1.3-1.2,1.4,0,0,0,0-.1,0-.4,0-.7,0-1.7-1-1.6-1.6-3.4-3.1-5.4-4.3-1.7,1.6-5.3,4.8-13,5v-.3c4.2-.7,8-2.7,10.9-5.9-1.3-.6-2.6-1.1-4-1.6-.7,1.3-.8,1.6-1.7,1.6s-1.6-.2-1.6-.9c0-.3.1-.6.3-.9,1.3-2.1,2.2-4,2.7-4.9h-1.5c-1.5,0-2.9,0-4.4.3l-.7-1.5c1.9.1,3.8.3,5.7.3h1.4c.9-1.7,1.6-3.6,2-5.5h-3.7c-1.5,0-2.9,0-4.4.3l-.7-1.5c2.9.2,5,.3,5.7.3h7c.9-1.9,1.7-3.8,2.3-5.8.1-.7.2-1.3.2-2l3.3,1.8c.3.2.5.3.5.6,0,.3-.2.7-1.5.9-2,2.3-3.8,4.4-4,4.6h4.9l1.1-1.8c.2-.3.4-.4.6-.4.3,0,.5.2.7.4l2,1.7c.2.1.3.4.4.6,0,.3-.3.4-.6.4h-13.5l2.8,1.3c.3.1.5.3.5.5,0,.4-.4.6-1.4.8-.4.7-.5.9-1.4,2.8h9.3l1.2-1.7c.2-.3.3-.4.6-.4s.4.1.7.4l2.1,1.7c.2.1.3.4.4.6,0,.3-.3.4-.6.4M217.7,11h-14c-1.5,0-2.9,0-4.4.3l-.7-1.5c2.3.2,4.6.3,5.7.3h1.7c.1-1.5,0-3.1-.5-4.6l3.7,1c.3,0,.6.3.6.6s-.5.7-1.2,1v2h5l1.1-1.6c.2-.3.4-.4.5-.4.3,0,.5.2.7.4l1.9,1.5c.2.1.3.4.4.6,0,.2-.2.4-.6.4M204.5,18.2c-1,0-1.1-.5-1.5-1.9-.3-1.5-.9-3-1.8-4.2h0c.9.3,4.6,1.9,4.6,4.5s-.6,1.6-1.3,1.6M205.2,26.3c-.8,1.6-1.8,3.9-2.2,4.6,1.6.2,3.2.5,4.7.9,1.1-1.4,2.7-3.7,2.8-5.5h-5.3Z"/>
      <path id="_パス_976" data-name="パス 976" class="cls-3" d="M237.7,16.4c-.1,5.2.1,13.5.1,18.7s0,3.6-4.4,4.4c-.2-.8-.6-2.3-3.3-3.7v-.3c.6,0,3.8.2,4.3.2.3,0,.6-.1.7-.4.2-.5.2-6.9.2-8v-.4h-7.3c-.1,7.3-2.3,10.1-5,12.7h-.2c2.6-4.5,3-7,3-20.2s0-3.4-.2-5.2c-.9.7-1.9,1.4-3,2v-.2c2-2.3,6.2-8.3,6.4-11.1l2.9,1.6c.2.1.4.3.4.6,0,.6-.8.7-1.3.7-.4.4-.5.6-1.4,1.7h3.9l.9-.8c.4-.4.6-.5.8-.5.3,0,.5.1.7.3l1.4,1.3c.2.2.3.4.4.6,0,.4-.1.4-1.9,1-2.1,1.7-3.2,2.6-4.1,3.3h3.4l1-.9c.2-.2.4-.3.7-.3.2,0,.4.1.6.3l1.3,1c.2.1.3.3.3.5,0,.3-.1.3-1.3,1M228.9,10.6c-1.2,1.5-2.1,2.6-2.6,3.1l2,1.2h2.5c.9-1.4,1.7-2.8,2.4-4.3h-4.4ZM230.5,21.2h-2.5v4.8s2.5,0,2.5,0v-4.8ZM230.5,15.7h-2.5c0,.7,0,4,0,4.7h2.5v-4.7ZM235.3,15.7h-2.5v4.7h2.5v-4.7ZM235.3,21.2h-2.5v4.8h2.5v-4.8ZM254.8,38.3c-1.3,0-1.6-1.4-1.8-2.1-.1-.6-.5-2.2-.6-2.6-3.5,1.5-7.1,2.7-10.8,3.6-.1.2-.2.4-.3.7,0,.2-.3.3-.5.3-.3,0-.6-.3-.7-.6l-1.5-3.3c.6.1,1.3.2,1.9.2.8,0,4.3-.4,5.4-.5v-8.2h-3.1c0,1.5,0,3-1.8,3s-.9-.3-.9-.9.2-5,.2-5.9c0-2,0-7.5-.2-9.1l3,1.6h2.7c0-.9,0-4.8,0-5.6,0-1-.3-2-.7-2.9l3.8,1.1c.4.1.6.3.6.5,0,.3-.1.4-1.1,1.1,0,.6-.1,1.3,0,1.9,0,1.3,0,3.2,0,3.9h3.3l1.1-1.2c.4-.4.6-.5.7-.5.3,0,.5.2.7.4l1.5,1.4c.3.3.4.4.4.6s-.1.4-.5.6c-.4.3-.5.3-.9.6,0,1,0,6.6,0,7.2,0,.4.1,2.3.1,2.7,0,.8-.6,1.6-1.4,1.6-.1,0-.2,0-.3,0-.9,0-1.1-.4-.9-2.1h-3.9v7.9c2.3-.3,3.4-.6,4-.7-.4-1.2-.9-2.4-1.7-3.4h.2c2.3,1.1,5.7,4.1,5.7,6.9.1.9-.5,1.7-1.4,1.8,0,0,0,0-.1,0M245.8,15.4h-3.1v9.5h3.1c0-3.1,0-3.8,0-9.5M252.2,15.4h-3.9c0,.8,0,4.6,0,5.5s0,3.1,0,4h4v-9.5Z"/>
      <path id="_パス_977" data-name="パス 977" class="cls-3" d="M271.9,10.9c-.4.9-.7,1.5-3.1,7.2-.4.9-2.9,5.5-3.1,6.5-.2.6-.3,1.2-.3,1.8,0,1.2.3,2.5.8,3.6.3.9.5,1.9.6,2.9.1,1.1-.7,2.1-1.8,2.3,0,0-.1,0-.2,0-1.1-.1-1.9-1.1-1.9-2.3,0-.7.4-4.1.4-4.7.2-2-1.1-3.8-3.1-4.2v-.3c.7,0,2.5-.2,3.3-1,2.9-3.9,5.6-7.9,8-12.1l.4.2ZM261.4,8.4c1.3.2,6.5.9,6.5,4.4,0,.9-.6,1.6-1.5,1.7,0,0,0,0-.1,0-1,0-1.2-.4-2-2.1-.7-1.5-1.8-2.8-3.1-3.7v-.3ZM294.2,17.4c-1.6.6-2.1,1.4-3,2.8-4.9-2.5-8.8-6.5-11-11.5h-.3c-2.9,4.4-6.5,8.2-10.8,11.2l-.2-.2c3.3-4,7.9-9.9,9-14.2l3,1.7c.6.3.7.6.7.8,0,.5-.4.6-.7.6,2.7,3.9,8.9,8.1,13.3,8.4v.3ZM279.2,25.3c0,2.1,0,4,0,6.1,0,1,.2,6.3.2,6.4,0,.9-.3,2-1.8,2-.6,0-1.2-.4-1.3-1,0,0,0-.2,0-.2,0-.7.1-3.8.1-4.4,0-2.7,0-3.3.1-8.8h-2.6c-1.5,0-2.9.1-4.4.4l-.7-1.5c2.5.2,5.1.2,5.7.2h10.5l1.1-1.1c.1-.1.4-.4.5-.4.2,0,.4.1.6.3l1.6,1.1c.3.2.5.5.5.8,0,.5-.3.7-1.4,1.3,0,3.1,0,3.6,0,4.8,0,3.1,0,4.8-4.4,5.8-.3-1.6-1.4-2.9-2.8-3.7v-.3c1.2.2,2.4.3,3.7.3.7,0,1-.1,1-1.3,0-1.4,0-5.1,0-6.7h-6.3ZM280.9,19.2l1.1-1.4c.1-.2.3-.5.6-.5s.4.2.7.4l1.6,1.4c.2.1.3.4.3.6,0,.3-.3.4-.6.4h-6.2c-1.5,0-2.9.1-4.4.3l-.7-1.5c2.3.2,4.6.3,5.7.3h1.9Z"/>
      <path id="_パス_978" data-name="パス 978" class="cls-3" d="M329.4,29.8c-1.7,0-6.1-2.1-8.8-5.8-2.2,2.3-5,4.1-8.1,5v-.2c2.6-1.8,4.9-4,6.9-6.5-1.7-3.1-2.8-6.4-3.3-9.9h-12.5c0,9.7,0,15.1-5.9,20v-.2c2.9-4,3.4-10.8,3.4-15.2,0-2.4-.1-4.8-.6-7.2l3.3,1.7h12.1c0-.3-.2-1.4-.3-2-.1-1.3-.4-2.6-.7-3.8l3.5.8c.3,0,.6.2.6.4,0,.4-.6.7-1,1,0,.8,0,1.8.3,3.7h6.7l1.4-1.7c.3-.3.4-.5.6-.5.3,0,.5.2.7.4l1.9,1.8c.2.2.4.3.4.6s-.3.4-.6.4h-10.8c.4,2.8,1.2,5.5,2.4,7.9,1.5-2.1,2.8-4.2,2.9-6.4l2.8,1.8c.3.2.5.4.5.6,0,.3-.1.4-1.2.8-1.1,1.8-2.4,3.6-3.8,5.2,1.2,1.8,3,3.1,5,3.8.7,0,.9-.3,1.4-1,.6-.8,1.1-1.6,1.5-2.5h.2c0,.7-.1,3.5-.1,4.1,0,.3,0,.7.3,1,.4.6.4.7.4,1,0,1.1-1.1,1.1-1.4,1.1M300.5,38.6c-.7,0-1.3-.5-1.4-1.2,0,0,0-.1,0-.2,0-.7.3-.9,1.4-2.1,1-1.1,1.7-2.4,2-3.8h.2c.4,1,.6,2.1.6,3.2,0,2.4-1.3,4.1-2.8,4.1M314.6,16.4h-6c-1,0-2.1,0-3.1.2l-.5-1.3c1.9.1,3.7.2,4,.2h2.6l.7-.9c.2-.2.4-.5.6-.5.3,0,.5.2.7.4l1.1.9c.3.3.4.4.4.6,0,.3-.2.4-.6.4M314.5,20.6c0,.8,0,4.8,0,5.1-.2.9-1.4,1-1.6,1-.9,0-.8-.8-.8-1.4h-4c0,.8.2,2.4-1.8,2.4s-.8-.6-.8-1c0-.6.2-3.5.2-4.1,0-1.6-.1-3.1-.3-4.7l2.8,1.1h3.8l.8-.9c.1-.2.3-.3.5-.3.1,0,.4.2.5.3l1.3,1c.3.2.4.4.4.6,0,.3-.3.5-.9.9M320.1,38.9c-1.1.3-7.1.3-8.9.3-3.6,0-4.3-.7-4.3-3.7.1-2.2,0-4.4-.3-6.5l2.9.7c.4.1.7.3.7.6s-.3.6-.9.9c0,.7-.1,4.7.2,5.1.2.3.6.3.9.4.3,0,1.7,0,3.2,0,5.1,0,5.3-.1,5.9-1.1.7-1.2,1.1-2.4,1.4-3.7h.2c.4,2.7.6,3.5,1,3.8.4.3.6.4.6.7,0,.6-.6,1.7-2.8,2.3M312.2,20h-4.1v4.4h4.1v-4.4ZM316,34.6c-.9,0-1.2-.7-1.7-2-.4-1.1-1-2.1-1.8-3v-.3c2.7.6,4.8,1.8,4.8,3.7,0,.8-.5,1.5-1.3,1.5,0,0,0,0,0,0M323,10.5c-.7,0-.9-.4-1.7-1.6-.5-.8-1.1-1.4-1.8-2v-.3c1.9,0,4.8.5,4.8,2.5,0,.7-.5,1.3-1.2,1.4,0,0,0,0,0,0M328.6,37.5c-1,0-1.2-.6-1.9-2.1-.7-1.7-1.7-3.2-3.1-4.5l.2-.3c3.5,1.1,6.3,2.9,6.3,5.2,0,.8-.6,1.5-1.4,1.6,0,0,0,0,0,0"/>
      <path id="_パス_979" data-name="パス 979" class="cls-3" d="M336.2,18.5c5.1.3,8,1.7,8,4,0,.7-.6,1.4-1.3,1.4-.5,0-.8-.2-1.4-.9-1.4-1.8-3.3-3.2-5.4-4.1v-.4ZM361.7,15.6c-3.9,6.9-9.3,12.8-15.9,17.2q-3.8,2.6-4.4,2.6c-1.3,0-3.3-2.1-3.3-3.6,0-.4,0-.7.3-1,.5.8,1.3,1.3,2.3,1.4,1.3,0,5.5-2.5,9.5-5.7,2.6-2.1,5.1-4.5,7.4-6.9,1.1-1.1,1.7-1.8,3.6-4.3l.4.3ZM340.2,12c.6,0,.7,0,1.2,0,2,0,4.1.4,5.9,1.4.7.5,1.2,1.3,1.2,2.1,0,.7-.5,1.4-1.2,1.4,0,0,0,0,0,0-.4,0-.7-.2-1.6-1-1.5-1.6-3.4-2.8-5.5-3.5v-.4Z"/>
      <path id="_パス_980" data-name="パス 980" class="cls-3" d="M379.4,26.2c1.9-2.1,3.8-4.7,3.8-5.2,0-.2-.2-.3-.3-.3-2.3.6-4.5,1.4-6.7,2.3.6,2,1.3,4,2.5,7.5.4,1.2.7,2.1.9,2.5.3.9.5,1.4.6,1.7.2.5.4,1.1.4,1.7,0,.7-.5,1.3-1.2,1.3,0,0,0,0-.1,0-.6,0-1.1-.4-1.2-1-.1-.3-.1-.5-.7-2.9-.8-3.4-1.7-6.6-2.7-10-1.9.8-2.1.9-4.4,1.9-.4.2-.9.4-1.3.4-1.2,0-2.3-1-2.7-2.5.6.2,1.2.2,1.8.2,2.1-.2,4.2-.7,6.1-1.4-1.6-4.6-1.7-4.7-3.6-4.7.5-.9,1.5-1.5,2.5-1.4,1.3,0,2,.5,2,1.4v.2c0,.2,0,.3,0,.5.1,1.2.4,2.3.8,3.5.5-.2,4.1-1.4,5-1.7.5-.1,1-.4,1.4-.8.2-.2.5-.3.9-.3,1,.2,1.9.6,2.6,1.3.6.6.9,1,.9,1.4s-.3.8-1.1,1c-.5.1-.6.1-1.3.7-.1.1-.4.3-.7.6-.5.4-1,.8-1.5,1.2-1.1.8-1.5,1.1-2.2,1.6l-.3-.3Z"/>
      <path id="_パス_981" data-name="パス 981" class="cls-3" d="M394.5,13.3c3.9,1.8,6.2,4.1,6.2,6.4,0,.9-.6,1.7-1.5,1.8,0,0,0,0,0,0-.4,0-.7-.2-.9-.5-.3-.5-.5-1.1-.7-1.6-.6-2.2-1.7-4.1-3.3-5.8l.2-.3ZM398.5,36.9c2.9-2.2,5.6-4.6,8.1-7.4,3.6-4,6.5-8.5,8.7-13.4.4-.8.7-1.7.7-2.6,0-.8-.4-1.4-1.6-2.1.4-.3.8-.4,1.2-.3,1,.1,1.9.6,2.6,1.3.7.5,1.2,1.3,1.3,2.2,0,.5,0,.7-.7,1.3-.2.3-.4.6-.6.9-2.4,4.6-5.4,8.8-8.9,12.5-3.1,3.3-6.7,6-10.6,8l-.3-.4ZM402.1,10.3c2.7,1.2,4.2,2.1,5.2,3.5.6.7,1,1.7,1,2.6.1.9-.5,1.7-1.4,1.8,0,0,0,0-.1,0-.3,0-.7-.2-.9-.5q-.2-.3-.6-1.5c-.7-2.2-2-4.1-3.6-5.7l.3-.3Z"/>
    </g>
    <rect id="_長方形_126" data-name="長方形 126" class="cls-2" width="470" height="90"/>
  </g>
</svg>