<svg xmlns="http://www.w3.org/2000/svg" width="64.146" height="267.605" viewBox="0 0 64.146 267.605">
  <path id="パス_1372" data-name="パス 1372" d="M36.6,9.622A17.794,17.794,0,0,0,20.56,0C11.349,0,3.207,6.168,3.207,15.79c0,8.882,6.25,12.583,13.487,15.872l3.783,1.645c5.757,2.632,11.431,5.1,11.431,12.336,0,6.99-6.086,12.089-12.747,12.089S7.648,52.551,6.744,46.218L0,48.11c1.974,9.622,9.375,16.037,19.326,16.037A19.15,19.15,0,0,0,38.817,44.985c0-9.869-6.826-13.9-14.885-17.435L19.82,25.741c-4.194-1.891-9.7-4.359-9.7-9.7,0-5.674,4.77-9.622,10.28-9.622,5.263,0,8.224,2.467,10.691,6.744ZM72.617,26.234V1.069H65.709V63.077h6.908V32.649h31.744V63.077h6.908V1.069h-6.908V26.234Zm75-25.165H140.71V63.077h6.908Zm35.938,6.415h2.056c8.306,0,15.79.987,15.79,11.184,0,9.622-7.895,11.1-15.708,11.1h-2.138Zm0,28.372h1.727l18.75,27.221H212.5l-19.737-27.8c9.54-.822,15.543-7.566,15.543-17.106,0-13.981-10.938-17.106-22.7-17.106h-8.964V63.077h6.908ZM252.473,7.484H267.6V1.069H230.6V7.484h14.967V63.077h6.908Z" transform="translate(64.146) rotate(90)" fill="#d4cce0"/>
</svg>
