<svg xmlns="http://www.w3.org/2000/svg" width="442.239" height="22.331" viewBox="0 0 442.239 22.331">
  <path id="パス_1359" data-name="パス 1359" d="M-129.167-9.5h.672c2.714,0,5.159.322,5.159,3.655,0,3.144-2.58,3.628-5.133,3.628h-.7Zm0,9.271h.564l6.127,8.895h2.768l-6.449-9.083a5.294,5.294,0,0,0,5.079-5.589c0-4.568-3.574-5.589-7.417-5.589h-2.929V8.665h2.257ZM-108.8,8.665H-98.29v-2.1h-8.25V-1.385h8.008v-2.1h-8.008V-9.5h8.25v-2.1H-108.8ZM-70.934-9.957a9.782,9.782,0,0,0-6.046-1.989A10.6,10.6,0,0,0-87.541-1.385a10.547,10.547,0,0,0,10.561,10.4,10.435,10.435,0,0,0,6.046-1.989V4.231a8.871,8.871,0,0,1-6.127,2.687,8.415,8.415,0,0,1-8.223-8.384A8.387,8.387,0,0,1-77.115-9.85a8.672,8.672,0,0,1,6.181,2.687Zm21.417-1.989A10.568,10.568,0,0,0-60.078-1.439,10.505,10.505,0,0,0-49.517,9.015,10.505,10.505,0,0,0-38.956-1.439,10.568,10.568,0,0,0-49.517-11.946Zm0,2.1a8.326,8.326,0,0,1,8.3,8.384,8.378,8.378,0,0,1-8.3,8.384,8.378,8.378,0,0,1-8.3-8.384A8.326,8.326,0,0,1-49.517-9.85ZM-29.309,8.665H-27l2.607-13.7h.054l6.5,14.538L-11.3-5.04h.054l2.607,13.7h2.311l-4.111-21.417-7.39,17.01L-25.2-12.752Zm32.139,0H5.141L7.748-5.04H7.8L14.3,9.5,20.835-5.04h.054L23.5,8.665h2.311L21.695-12.752,14.3,4.258,6.942-12.752Zm33.617,0H46.955v-2.1H38.7V-1.385h8.008v-2.1H38.7V-9.5h8.25v-2.1H36.448Zm22.546,0h2.257V-6.948l15.8,16.527V-11.6H74.795V4.1l-15.8-16.553Zm30.339,0h3.762c3.171,0,5.589-.4,8.008-2.553a9.772,9.772,0,0,0,3.305-7.551,9.81,9.81,0,0,0-3.359-7.712c-2.392-2.042-4.864-2.445-7.9-2.445H89.333Zm2.257-2.1V-9.5h1.639c2.392,0,4.434.322,6.288,1.962a8,8,0,0,1,2.633,6.073,8.023,8.023,0,0,1-2.526,5.939c-1.854,1.747-3.923,2.1-6.4,2.1Zm24.024,2.1h10.507v-2.1h-8.25V-1.385h8.008v-2.1h-8.008V-9.5h8.25v-2.1H115.614Zm22.412,0h3.762c3.171,0,5.589-.4,8.008-2.553A9.772,9.772,0,0,0,153.1-1.439a9.81,9.81,0,0,0-3.359-7.712c-2.392-2.042-4.864-2.445-7.9-2.445h-3.816Zm2.257-2.1V-9.5h1.639c2.392,0,4.434.322,6.288,1.962a8,8,0,0,1,2.633,6.073,8.023,8.023,0,0,1-2.526,5.939c-1.854,1.747-3.923,2.1-6.4,2.1ZM182.9-.2h1.639a7.3,7.3,0,0,0,4.81-1.344A5.687,5.687,0,0,0,191.286-5.9,5.582,5.582,0,0,0,189-10.522a8.543,8.543,0,0,0-5.025-1.075h-3.332V8.665H182.9Zm0-9.3h.833c2.634,0,5.294.242,5.294,3.547,0,2.9-2.123,3.655-4.622,3.655h-1.5Zm28.861-2.445A10.568,10.568,0,0,0,201.2-1.439,10.505,10.505,0,0,0,211.763,9.015,10.505,10.505,0,0,0,222.324-1.439,10.568,10.568,0,0,0,211.763-11.946Zm0,2.1a8.326,8.326,0,0,1,8.3,8.384,8.378,8.378,0,0,1-8.3,8.384,8.378,8.378,0,0,1-8.3-8.384A8.326,8.326,0,0,1,211.763-9.85Zm24-1.747H233.5V8.665h2.257ZM248.068,8.665h2.257V-6.948l15.8,16.527V-11.6h-2.257V4.1l-15.8-16.553ZM283.781-9.5h4.945v-2.1H276.633v2.1h4.891V8.665h2.257Zm26.308.7a5.814,5.814,0,0,0-5.24-3.144c-3.01,0-5.67,2.015-5.67,5.159,0,2.9,2.042,4.111,4.407,5.186l1.236.537C306.7-.2,308.557.6,308.557,2.968a4.073,4.073,0,0,1-4.165,3.95,4.174,4.174,0,0,1-4.058-3.762l-2.2.618a6.4,6.4,0,0,0,12.684-1.021c0-3.225-2.23-4.541-4.864-5.7l-1.344-.591c-1.371-.618-3.171-1.424-3.171-3.171A3.215,3.215,0,0,1,304.8-9.85a3.719,3.719,0,0,1,3.493,2.2Z" transform="translate(131.424 12.752)" fill="#2e2e2e" style="mix-blend-mode: multiply;isolation: isolate"/>
</svg>
