<svg xmlns="http://www.w3.org/2000/svg" width="581" height="90.154" viewBox="0 0 581 90.154">
  <g id="グループ_445" data-name="グループ 445" transform="translate(0.239)">
    <g id="グループ_443" data-name="グループ 443">
      <rect id="長方形_129" data-name="長方形 129" width="581" height="48" transform="translate(-0.239 42.154)" fill="#b9cce8"/>
      <g id="グループ_277" data-name="グループ 277" transform="translate(11.3)">
        <path id="パス_1012" data-name="パス 1012" d="M9.351,24.876a30.284,30.284,0,0,0,9.4-9.16,30.508,30.508,0,0,0,3.144-6.5,6.51,6.51,0,0,0,.363-1.36c0-.242-.181-.393-.546-.393a78.075,78.075,0,0,0-7.83.846c-1.209.212-1.693.3-1.9.3a2.216,2.216,0,0,1-1.238-.484c.03.364.03.364.119,1.513.123,1.391.274,3.718.274,4.353,0,1.239-.242,1.723-.846,1.723-.423,0-.726-.244-1.03-.878a5.268,5.268,0,0,1-.542-1.9,3.708,3.708,0,0,1,.151-.877,4.777,4.777,0,0,0,.151-1.451c0-2.3-.544-3.567-1.9-4.414a1.208,1.208,0,0,1,.635-.212c.6,0,1,.151,2.689,1.026a2.238,2.238,0,0,0,.969.272c.512,0,2.177-.18,3.928-.423,0-.272,0-.272.032-1.661a5.375,5.375,0,0,0-.333-2.237c-.212-.364-.514-.544-1.27-.756a1.628,1.628,0,0,1,1.542-.816,4.047,4.047,0,0,1,1.9.484,1.037,1.037,0,0,1,.635.967c0,.212,0,.212-.212.846a7.367,7.367,0,0,0-.242,1.179c-.121,1.421-.121,1.421-.153,1.784.484-.062.484-.062,1.634-.181.452-.03,1.209-.121,2.267-.212a1.074,1.074,0,0,0,.937-.393,1.029,1.029,0,0,1,.6-.242c.846,0,2.692,1.632,2.692,2.388,0,.331-.092.453-.665.937-.242.242-.242.242-.635,1.119a30.907,30.907,0,0,1-3.718,6.621A25.708,25.708,0,0,1,9.531,25.208Z" transform="translate(-7.114 0.942)" fill="#2e2e2e"/>
        <path id="パス_1013" data-name="パス 1013" d="M28.9,6.163a42.823,42.823,0,0,0,6.258-.7,7.807,7.807,0,0,0,1.965-.7A2.274,2.274,0,0,1,38.175,4.5a5.418,5.418,0,0,1,1.967.423c.514.24.756.512.756.907a.769.769,0,0,1-.544.724,6.278,6.278,0,0,1-1.784.212c-1.3.062-2.479.151-4.867.395.694.484,1.028.935,1.028,1.391a5.588,5.588,0,0,1-.123.935c-.089.485-.391,3.962-.512,5.835a70.775,70.775,0,0,0,7.435-.663,2.086,2.086,0,0,1,.635-.123,6.183,6.183,0,0,1,1.967.484c1.149.485,1.6.907,1.6,1.481a.859.859,0,0,1-.907.846,8.732,8.732,0,0,1-1.994-.363,23.639,23.639,0,0,0-4.928-.423,71.535,71.535,0,0,0-8.737.606,36.945,36.945,0,0,0-4.051.756,7.182,7.182,0,0,1-1.421.212,2.586,2.586,0,0,1-1.814-.846,3.4,3.4,0,0,1-1.088-1.846,9.144,9.144,0,0,0,3.658.635,46.072,46.072,0,0,0,4.624-.331c1.362-.121,1.664-.153,3.055-.242.151-2.419.151-2.9.151-4.777,0-2.3-.062-2.721-.484-3.3a24.647,24.647,0,0,0-2.781.363,5.035,5.035,0,0,1-.576.06,3.092,3.092,0,0,1-1.6-.544,3.872,3.872,0,0,1-1.48-1.632,12.019,12.019,0,0,0,3.537.484" transform="translate(2.182 3.058)" fill="#2e2e2e"/>
        <path id="パス_1014" data-name="パス 1014" d="M36.671,22.715A44.367,44.367,0,0,0,47.764,12.5c2.207-2.872,4.657-6.742,4.657-7.405,0-.183-.121-.244-.364-.244a43.157,43.157,0,0,0-6.2,1.876,6.108,6.108,0,0,1-2.118.6,2.05,2.05,0,0,1-1.752-1.362,3.288,3.288,0,0,1-.333-1.3,1.816,1.816,0,0,1,.06-.484,3.2,3.2,0,0,0,2.328.846,33.462,33.462,0,0,0,5.924-.939,5.743,5.743,0,0,0,2.086-.786,1.553,1.553,0,0,1,.727-.212c.935,0,2.721,1.574,2.721,2.388,0,.363-.121.544-.6.878-.395.3-.395.3-2.723,3.507-.423.6-.815,1.119-2.387,3.053a20.346,20.346,0,0,1,5.986,3.658c1.389,1.27,2.205,2.6,2.205,3.535A1.373,1.373,0,0,1,56.743,21.6a1.015,1.015,0,0,1-.724-.333A6.692,6.692,0,0,1,55.2,19.9a16.172,16.172,0,0,0-5.833-6.468A41.108,41.108,0,0,1,43.29,19.18a33.118,33.118,0,0,1-6.377,3.839Z" transform="translate(12.971 2.103)" fill="#2e2e2e"/>
        <path id="パス_1015" data-name="パス 1015" d="M56.169,1.224a3.618,3.618,0,0,1,2.025.786,1.176,1.176,0,0,1,.544,1,2.5,2.5,0,0,1-.212.969,28.33,28.33,0,0,0-.453,5.561c4.567.846,7.376,2.691,7.376,4.837,0,.816-.453,1.421-1.088,1.421-.453,0-.726-.242-1.238-1.058a11.7,11.7,0,0,0-5.05-4.593c0,4.987.06,9.612.181,11.849.06,1.09.06,1.27.06,1.753a2.113,2.113,0,0,1-.242,1.3.829.829,0,0,1-.665.361c-.423,0-.846-.393-1.179-1.088a4.613,4.613,0,0,1-.544-1.9,4.469,4.469,0,0,1,.181-1.209,18.33,18.33,0,0,0,.242-2.509c.121-3.839.181-7.224.181-12.637a9.176,9.176,0,0,0-.242-3.174,2.036,2.036,0,0,0-1.36-.967,1.9,1.9,0,0,1,1.481-.7" transform="translate(25.214 0.832)" fill="#2e2e2e"/>
        <path id="パス_1016" data-name="パス 1016" d="M63.833,24.644a27.318,27.318,0,0,0,6.288-6.5,34.746,34.746,0,0,0,4.232-8.223c-.544.121-.544.121-1.693.393-.453.089-1.119.242-2,.423a5.926,5.926,0,0,1-1.753.3,2.223,2.223,0,0,1-1.391-.482A2.86,2.86,0,0,1,66.282,8.59a1.721,1.721,0,0,1,.03-.361,5.528,5.528,0,0,0,3.114.816,50.284,50.284,0,0,0,5.381-.484,18.993,18.993,0,0,0,.967-4.293A1.891,1.891,0,0,0,75.351,3a2.671,2.671,0,0,0-1.179-.665,2.112,2.112,0,0,1,1.6-.7c1.179,0,2.63,1.088,2.63,1.965a2.961,2.961,0,0,1-.3,1,8.843,8.843,0,0,0-.453,1.271c-.574,1.873-.574,1.873-.756,2.419,1.663-.181,3.779-.484,4.414-.635a1.612,1.612,0,0,0,.967-.453.864.864,0,0,1,.6-.212c.514,0,1.179.484,1.9,1.389a1.482,1.482,0,0,1,.393,1.03c0,.3-.091.453-.544.846-.121.121-.121.121-1.239,4.232-1.36,4.988-3.658,9.1-5.079,9.1a1.015,1.015,0,0,1-.7-.333,2.343,2.343,0,0,1-.333-.907c-.242-1-.574-1.481-2.086-3.055l.181-.24a3.676,3.676,0,0,1,.514.333,6.093,6.093,0,0,0,2.6,1.149c.242,0,.453-.242.756-.818a37.4,37.4,0,0,0,2.963-8.584,10.158,10.158,0,0,0,.333-1.846c0-.3-.121-.422-.484-.422a52.375,52.375,0,0,0-5.532.726,31.64,31.64,0,0,1-5.2,9.462,23.737,23.737,0,0,1-7.286,5.9Z" transform="translate(31.428 1.113)" fill="#2e2e2e"/>
        <path id="パス_1017" data-name="パス 1017" d="M78.809,19.95a26.02,26.02,0,0,0,6.863-6.439c1.058-1.481,1.51-2.388,1.51-3.053a1.834,1.834,0,0,0-.846-1.481,1.446,1.446,0,0,1,.818-.272,3.026,3.026,0,0,1,2.689,2.449c0,.514-.212.907-.967,1.874a17.135,17.135,0,0,1-3.658,3.6,25.924,25.924,0,0,1-6.2,3.66Zm15.568-11.4c4.536,1.6,9.039,5.744,9.039,8.344a1.411,1.411,0,0,1-1.33,1.572c-.484,0-.786-.272-1.119-1.028a17.716,17.716,0,0,0-6.8-8.555Zm3.629-4.174c3.112.667,4.9,1.846,4.9,3.236a.908.908,0,0,1-.846.937c-.395,0-.667-.212-1.209-1.058a8.592,8.592,0,0,0-2.964-2.842Zm2.419-2.417c3.142.3,5.168,1.391,5.168,2.751a.832.832,0,0,1-.786.907c-.3,0-.452-.123-1.087-.877a9.742,9.742,0,0,0-3.388-2.509Z" transform="translate(41.604 1.333)" fill="#2e2e2e"/>
        <path id="パス_1018" data-name="パス 1018" d="M101.109,8.583c.484,0,1.209-.032,2.086-.06,2.358-.121,2.358-.121,9.553-.395a24.892,24.892,0,0,0,4.474-.391,2.317,2.317,0,0,1,.453-.06,4.071,4.071,0,0,1,1.873.574,1.263,1.263,0,0,1,.667,1.058c0,.6-.455.935-1.239.935a5.016,5.016,0,0,1-.606-.029,35.632,35.632,0,0,0-3.779-.151c-2.78,0-9.007.24-11.94.484a9.732,9.732,0,0,0-2.269.3,3.41,3.41,0,0,1-.875.181c-.878,0-2-1.391-2-2.541A1.766,1.766,0,0,1,97.9,7.433c.786.939,1.33,1.15,3.2,1.15" transform="translate(54.312 5.051)" fill="#2e2e2e"/>
        <path id="パス_1019" data-name="パス 1019" d="M115.872,4.806c1.088,1.391,2.177,2.026,4.474,2.568a28.969,28.969,0,0,0,.514-4.231,2.1,2.1,0,0,0-1.391-2.086A.855.855,0,0,1,120.1.846c1.572,0,3.356,1.209,3.356,2.3,0,.333-.03.423-.514,1.239A15.387,15.387,0,0,0,121.8,7.618c.937.212,1.512.726,1.512,1.33a.82.82,0,0,1-.423.786c-.242.151-.242.151-1,.3a2.839,2.839,0,0,0-.726.212c-.907,3.932-.907,3.932-1.3,5.988.544.091.665.121,1.6.212,1.209.121,1.663.423,1.663,1.088,0,.6-.726,1.028-1.844,1.028a5.228,5.228,0,0,1-1.723-.272,14.421,14.421,0,0,0-.151,2.116c0,2.751,1.3,4.172,3.839,4.172,2.721,0,4.535-1.9,4.535-4.777a8.242,8.242,0,0,0-2.056-5.321,8.877,8.877,0,0,0-2.479-2.146L123.46,12a12.019,12.019,0,0,1,4.142,2.812,7.6,7.6,0,0,1,2.418,5.29c0,3.356-2.751,5.9-6.409,5.9a5.029,5.029,0,0,1-4.746-2.63,7.616,7.616,0,0,1-.544-3.023,16.367,16.367,0,0,1,.181-2.388c-1.874-.846-2.781-1.965-2.781-3.446,0-1.723,1.3-3.357,4.2-5.29A7.367,7.367,0,0,1,115.6,4.988Zm.6,9.251c0,.937.665,1.512,2.267,1.965.181-1.028.484-2.812.967-5.381-2.177,1.119-3.235,2.207-3.235,3.416" transform="translate(66.606 0.575)" fill="#2e2e2e"/>
        <path id="パス_1020" data-name="パス 1020" d="M128.742,8.029a3.58,3.58,0,0,0,2.842,1.3,12.294,12.294,0,0,0,3.3-.635,31.335,31.335,0,0,0-.3-3.173c-.153-.7-.212-.727-1.03-1.179-.573-.3-.756-.485-.756-.786,0-.576,1.09-1.179,2.086-1.179a1.159,1.159,0,0,1,1.209.756,3.8,3.8,0,0,1,.121,1.27,6.378,6.378,0,0,0,.03.846,14.589,14.589,0,0,0,2.481.724c.936.212,1.33.544,1.33,1.09,0,.935-1.27,1.965-3.779,3.052v5.442c4.775-2.326,6.679-2.993,8.433-2.993,2.6,0,4.323,1.512,4.323,3.811a6.049,6.049,0,0,1-2.237,4.352,6.12,6.12,0,0,1-3.779,1.392,2.657,2.657,0,0,1-2.932-2.872,8.183,8.183,0,0,1,1.09-3.539l.333.121a7.993,7.993,0,0,0-.484,2.632c0,1.3.574,1.994,1.631,1.994,2.056,0,4.565-2.57,4.565-4.654a2.4,2.4,0,0,0-2.689-2.481c-1.119,0-2.025.3-4.234,1.423-1.481.754-2.963,1.57-4.051,2.205,0,.363,0,.363-.03,1.453a12.758,12.758,0,0,1-.393,3.656c-.3.846-.726,1.27-1.33,1.27-.391,0-.574-.18-.786-.846a3.067,3.067,0,0,0-1.028-1.51,10.613,10.613,0,0,0-1.36-1.15,3.713,3.713,0,0,1-1.663.606,1.972,1.972,0,0,1-1.753-1.814c0-.667.272-1.15.7-1.15.151,0,.244.032.967.333a1.211,1.211,0,0,0,.635.151,15.91,15.91,0,0,0,4.777-1.782c.061-1.33.061-1.936.061-3.267,0-1.058,0-1.51-.029-2.326a9.652,9.652,0,0,1-2.995.544,3.785,3.785,0,0,1-3.445-2.932Zm3.053,11.516a8.262,8.262,0,0,0,2.449,1c.363,0,.546-.694.665-2.84-1.3.816-1.784,1.087-3.114,1.842m4.414-13.453c0,.123,0,.423.03.909V8.3c1.239-.516,1.814-.878,1.814-1.211,0-.363-.6-.786-1.844-1.33Zm7.376,4.232c1.6-2.116,3.176-3.084,4.958-3.084,1.542,0,2.993,1.179,2.993,2.39a1.075,1.075,0,0,1-1,1.177,1.222,1.222,0,0,1-.907-.484,3.158,3.158,0,0,0-2.66-1.3,4.892,4.892,0,0,0-3.115,1.57Z" transform="translate(74.96 1.615)" fill="#2e2e2e"/>
        <path id="パス_1021" data-name="パス 1021" d="M155.888,5.931a.612.612,0,0,1,.393.544c0,.272-.333.453-1.27.635-.393.484-1.238,1.481-2.539,3.084-1.147,1.391-2.146,2.509-2.963,3.356.151,0,2.691-.121,4.293-.333a8.434,8.434,0,0,0-1.24-1.723l.151-.181c2.358.907,4.172,2.267,4.172,3.658a1.146,1.146,0,0,1-1.149,1.239c-.726,0-1.028-.363-1.3-1.391-.03-.091-.151-.514-.333-.967l-2.751.6c0,1.3.091,7.5.091,8.072.03.6.121,3.325.121,3.87a1.365,1.365,0,0,1-1.451,1.3c-.635,0-.816-.393-.816-.907,0-.484.121-2.479.121-2.9.03-.967.06-3.93.091-9.039-1.9.423-3.416.756-3.809.845-.181.3-.484.878-.756.878-.3,0-.484-.363-.544-.544l-.665-2.571a10.589,10.589,0,0,0,2.146.213c.937,0,2.328-.03,2.812-.06a38.661,38.661,0,0,0,4.323-7.83,3.908,3.908,0,0,0,.181-1.211ZM143.947,25.823A24.541,24.541,0,0,0,146.063,17l2.479.907c.212.091.423.272.423.423,0,.212-.181.363-.967.665a18.631,18.631,0,0,1-3.9,6.921ZM145.1,5.961a14.694,14.694,0,0,1,2.6.845c.846-1.691,2.177-4.987,2-6.77l2.872,1.421a.568.568,0,0,1,.363.452c0,.455-.453.546-1.149.667-1.421,1.814-1.632,2.086-3.688,4.442a3.174,3.174,0,0,1,1.784,2.39,1.354,1.354,0,0,1-1.239,1.451c-.7,0-.877-.363-1.542-1.844a8.242,8.242,0,0,0-2.026-2.872Zm7.135,11.518c1.238.544,4.261,1.9,4.261,3.96a1.381,1.381,0,0,1-1.33,1.481c-.816,0-.967-.6-1.36-2a8.746,8.746,0,0,0-1.663-3.325Zm14.449-9.765.907-.846c.151-.151.331-.333.423-.333.119,0,.333.181.423.27l1.451,1.241a.66.66,0,0,1,.27.453c0,.212-.573.635-1.119,1.028-.18,8.374-.24,12.123-1.842,15.206a5.282,5.282,0,0,1-4.686,2.963c-.242-1.421-1.179-2.358-2.751-3.416l.03-.181a30.614,30.614,0,0,0,4.021.6c3.052,0,3.2-9.976,3.2-13.09,0-.514-.03-2.66-.03-3.174h-8.164a17.135,17.135,0,0,1-2.961,4.323l-.181-.121a32.2,32.2,0,0,0,3.265-11.125A7.014,7.014,0,0,0,158.79.369l3.265,1.391a.493.493,0,0,1,.331.423c0,.3-.452.514-1.177.845a34.692,34.692,0,0,1-2,4.688Zm-8.253,5.774c2.872,1.179,4.293,2.146,4.293,3.779,0,.726-.363,1.421-1.209,1.421-.786,0-1.028-.334-1.693-2.419a7.723,7.723,0,0,0-1.512-2.6Z" transform="translate(85.723 0.024)" fill="#2e2e2e"/>
        <path id="パス_1022" data-name="パス 1022" d="M187.135,26.392a20.7,20.7,0,0,1-10.581-10.067c.212,6.772.272,8.616.272,10.039,0,1.3-1.512,1.389-1.631,1.389-.727,0-.846-.6-.846-.966,0-.274.089-1.453.089-1.695.03-1.088.06-3.174.06-7.528a25.527,25.527,0,0,1-12.816,8.918v-.212c3.928-1.965,9.158-7.042,11.607-10.49h-4.5a10.57,10.57,0,0,1-.091,1.33,1.415,1.415,0,0,1-1.36.756.771.771,0,0,1-.816-.846c0-.151.03-.333.03-.423.091-1.27.121-2.66.121-3.658a26.78,26.78,0,0,0-.361-5.653L169,8.465h5.532c0-1.753-.03-2.539-.06-3.3h-8.042a21.391,21.391,0,0,0-3.567.274l-.574-1.181c2.057.151,4.2.181,4.625.181h7.558A29.413,29.413,0,0,0,173.926,0l3.112.877c.212.06.514.181.514.514,0,.363-.665.665-1,.816V4.444h7.59l1.147-1.632c.151-.212.3-.393.484-.393a1.132,1.132,0,0,1,.546.3l1.994,1.663c.151.153.3.272.3.484,0,.3-.27.3-.816.3H176.524v3.3h5.563l.574-.635c.181-.181.333-.361.514-.361a.937.937,0,0,1,.546.27l1.33,1.028c.089.091.27.212.27.423,0,.3-.091.363-.966,1.088,0,.907.18,4.928.18,5.714,0,1.058-1.149,1.27-1.481,1.27-.816,0-.786-.574-.786-1.481H176.8c2.749,4.6,7.707,6.8,12.968,7.89v.151a5.848,5.848,0,0,0-2.63,2.57m-18.35-17.2v5.865H174.5c0-.816.03-4.926.03-5.865Zm13.513,0h-5.8c0,.846.03,4.867.06,5.865H182.3Z" transform="translate(97.919)" fill="#2e2e2e"/>
        <path id="パス_1023" data-name="パス 1023" d="M192.861,7.72V7.146a37.039,37.039,0,0,0-6.288,1.664c-2.63.907-2.995,1-3.718,1a3.257,3.257,0,0,1-2.328-1.27,2.23,2.23,0,0,1-.756-1.36,5.123,5.123,0,0,0,2.388.484c1.179,0,1.753-.091,6.832-1.058,1-.212,1.814-.333,3.839-.635a15.19,15.19,0,0,0-.121-2.721c-.121-.544-.212-.663-.937-1.087-.393-.212-.574-.395-.574-.576,0-.363.635-.665,1.481-.665,1.33,0,2.328.546,2.328,1.3,0,.242,0,.242-.212.877a12.034,12.034,0,0,0-.363,2.691c1.389-.151,1.633-.151,3.325-.212-.877-.665-.877-.665-1.27-1l.121-.242a9.163,9.163,0,0,0,3.96,1.058c2.419.181,3.084.484,3.084,1.391a.936.936,0,0,1-1,1A7.278,7.278,0,0,1,200.57,7.3a9.814,9.814,0,0,0-3.265-.574,28.1,28.1,0,0,0-2.963.181c-.151,1.451-.242,3.416-.272,5.17a10.33,10.33,0,0,1,1.3,5.291,8.175,8.175,0,0,1-3.327,6.983,11,11,0,0,1-5.168,1.874l-.091-.363a8.464,8.464,0,0,0,4.444-2.356,7.72,7.72,0,0,0,2.207-5.02,2.247,2.247,0,0,1-1.9,1.03,1.721,1.721,0,0,1-1.663-1,23.432,23.432,0,0,1-.907-2.267,6.355,6.355,0,0,1-.333-1.965,3.091,3.091,0,0,1,3.084-3.144,3.185,3.185,0,0,1,1.119.181v-.423l.03-1.753Zm-1.693,4.625a1.744,1.744,0,0,0-1.814,1.723,5.454,5.454,0,0,0,.967,2.539,2.338,2.338,0,0,0,1.632,1.119c.7,0,.877-.7.877-3.265,0-.484-.03-1.209-.03-1.239a1.815,1.815,0,0,0-1.632-.877" transform="translate(110.21 0.624)" fill="#2e2e2e"/>
        <path id="パス_1024" data-name="パス 1024" d="M202.953,10.083c3.658-4.686,4.5-5.865,4.565-6.47,0-.181-.18-.3-.452-.3a7.929,7.929,0,0,0-3.841,2.027c-.816.665-1.208.877-1.631.877a3.114,3.114,0,0,1-1.906-1.088,2.549,2.549,0,0,1-.542-1.421,1.189,1.189,0,0,1,.089-.423,1.643,1.643,0,0,0,1.453.786c.663,0,1.238-.18,3.507-1.119,1.933-.786,2.509-.969,3.2-.969a3.162,3.162,0,0,1,2.39,1.3,1.632,1.632,0,0,1,.484,1.056c0,.395-.183.576-1.06,1.15a12.668,12.668,0,0,0-2.63,2.449,52.7,52.7,0,0,0-5.17,6.2,9.224,9.224,0,0,1,5.744-2.145c3.75,0,6.411,2.419,6.411,5.8,0,3.871-3.3,6.683-7.8,6.683-2.57,0-4.263-1.092-4.263-2.753,0-1.389,1.179-2.356,2.842-2.356a4.045,4.045,0,0,1,3.991,3.021,4.494,4.494,0,0,0,1.9-1.451,5.8,5.8,0,0,0,1.119-3.446,4.316,4.316,0,0,0-4.535-4.6,7.609,7.609,0,0,0-5.17,2.177,7.154,7.154,0,0,0-2.177,3.2c-.453,1.241-.786,1.574-1.449,1.574-.606,0-1.03-.544-1.03-1.36a3.82,3.82,0,0,1,1.119-2.3ZM206.611,22.9c0-.119,0-.119-.272-.848a2.451,2.451,0,0,0-1.177-1.389,2.661,2.661,0,0,0-1.271-.331c-.937,0-1.542.512-1.542,1.238,0,.937,1.149,1.574,2.842,1.574a5.758,5.758,0,0,0,1.391-.183.091.091,0,0,0,.03-.06" transform="translate(121.916 1.345)" fill="#2e2e2e"/>
      </g>
    </g>
    <g id="グループ_278" data-name="グループ 278" transform="translate(12.166 50.094)">
      <path id="パス_1025" data-name="パス 1025" d="M8.665,58.354A50.867,50.867,0,0,0,21.782,43.685c1.811-3.03,3.732-7.057,3.732-7.833,0-.259-.185-.406-.48-.406a26.723,26.723,0,0,0-3.917.7c-3.584.776-3.806.85-8.129,2.069a6.082,6.082,0,0,1-1.847.333,3.792,3.792,0,0,1-3.51-3.362v-.3a9.389,9.389,0,0,0,4.249.813,70.352,70.352,0,0,0,10.309-1.367,6.855,6.855,0,0,0,2.513-.813,1.306,1.306,0,0,1,.7-.222c1.4,0,3.843,2.217,3.843,3.473,0,.48-.074.591-.924,1.33a6.985,6.985,0,0,0-1.035,1.552,60.568,60.568,0,0,1-9.311,12.415A34.2,34.2,0,0,1,8.96,58.723Z" transform="translate(-7.63 -27.464)" fill="#2e2e2e"/>
      <path id="パス_1026" data-name="パス 1026" d="M50.4,38.083a40.043,40.043,0,0,1-8.646,8.424,56.339,56.339,0,0,1-10.494,6.281,5.914,5.914,0,0,0-1.035.628,1.181,1.181,0,0,1-.7.259c-.48,0-.887-.3-1.478-1.035a3.689,3.689,0,0,1-.813-1.811,1.359,1.359,0,0,1,.185-.7,4.788,4.788,0,0,0,.222-1.478c.037-.961.111-6.208.111-7.722,0-3.769-.185-4.212-2.032-4.8a2.164,2.164,0,0,1,1.884-.887c1.589,0,3.362,1.293,3.362,2.476a1.891,1.891,0,0,1-.222.813,7.7,7.7,0,0,0-.443,2.55c-.222,2.476-.369,6.244-.369,8.166,0,.111,0,.443.037.924A48.552,48.552,0,0,0,40.42,45.14a54.561,54.561,0,0,0,9.607-7.353Z" transform="translate(4.659 -26.148)" fill="#2e2e2e"/>
      <path id="パス_1027" data-name="パス 1027" d="M45.958,59.595a37.495,37.495,0,0,0,6.5-9.274c1.626-3.325,2.993-7.353,2.993-8.979,0-.739-.333-1.182-1.33-1.737a2.313,2.313,0,0,1,1.478-.554,4.3,4.3,0,0,1,2.845,1.293,34.788,34.788,0,0,0,5.173-4.175,1.834,1.834,0,0,0,.739-1.256c0-.3-.333-.517-.813-.517A115.057,115.057,0,0,0,50.5,36.8a11.646,11.646,0,0,1-3.03.591,3.513,3.513,0,0,1-2.4-1,4.512,4.512,0,0,1-1.515-2.328,17.388,17.388,0,0,0,4.693.554,77.936,77.936,0,0,0,11.27-1.145c2.771-.443,2.956-.48,3.658-.776a2.123,2.123,0,0,1,1.072-.3,4.667,4.667,0,0,1,2.513,1.33c1.072.887,1.626,1.626,1.626,2.18a1.1,1.1,0,0,1-.369.776,3.541,3.541,0,0,1-1.293.517,10.9,10.9,0,0,0-2.069.887,60.991,60.991,0,0,1-5.986,3.1A39.024,39.024,0,0,1,54.2,51.466a28.468,28.468,0,0,1-7.907,8.461Z" transform="translate(16.783 -28.077)" fill="#2e2e2e"/>
      <path id="パス_1028" data-name="パス 1028" d="M65.487,40.4c.593,0,1.48-.037,2.551-.074,2.88-.148,2.88-.148,11.674-.48a30.584,30.584,0,0,0,5.47-.48,2.853,2.853,0,0,1,.553-.074,5,5,0,0,1,2.293.7,1.547,1.547,0,0,1,.813,1.293c0,.739-.554,1.145-1.515,1.145a5.747,5.747,0,0,1-.739-.037,44.171,44.171,0,0,0-4.619-.185c-3.4,0-11.011.3-14.6.591a11.851,11.851,0,0,0-2.77.369,4.188,4.188,0,0,1-1.073.222c-1.072,0-2.439-1.7-2.439-3.1A2.145,2.145,0,0,1,61.57,39c.962,1.145,1.627,1.4,3.917,1.4" transform="translate(28.697 -23.592)" fill="#2e2e2e"/>
      <path id="パス_1029" data-name="パス 1029" d="M82.146,40.356c5.1.259,8.018,1.663,8.018,3.954a1.384,1.384,0,0,1-1.293,1.4c-.48,0-.85-.222-1.441-.887a14.2,14.2,0,0,0-5.395-4.1ZM107.678,37.4A50.548,50.548,0,0,1,91.79,54.618c-3.806,2.586-3.806,2.586-4.4,2.586-1.293,0-3.252-2.143-3.252-3.584a1.333,1.333,0,0,1,.333-.961,3.006,3.006,0,0,0,2.254,1.4c1.33,0,5.542-2.55,9.533-5.727a81.814,81.814,0,0,0,7.427-6.91c1.072-1.145,1.663-1.847,3.584-4.286Zm-21.5-3.621c.628-.037.7-.037,1.182-.037a11.764,11.764,0,0,1,5.875,1.367,2.617,2.617,0,0,1,1.182,2.106,1.347,1.347,0,0,1-1.293,1.441c-.443,0-.7-.185-1.552-1.035a12.521,12.521,0,0,0-5.505-3.473Z" transform="translate(42.93 -27.165)" fill="#2e2e2e"/>
      <path id="パス_1030" data-name="パス 1030" d="M97.941,56.391a29.484,29.484,0,0,0,8.424-11.417,15.544,15.544,0,0,0,1.367-4.84c0-.85-.443-1.441-1.589-2.106a1.919,1.919,0,0,1,1.441-.554,3.931,3.931,0,0,1,2.586,1.219,2.244,2.244,0,0,1,.7,1.626,9.209,9.209,0,0,1-1,2.993,28.184,28.184,0,0,1-6.1,9.127,24.783,24.783,0,0,1-5.542,4.323Zm32.22-18.77a38.984,38.984,0,0,1-12.119,13.745,4.641,4.641,0,0,0-.887.813,1.018,1.018,0,0,1-.776.406c-.48,0-1.035-.517-1.589-1.4a2.56,2.56,0,0,1-.517-1.293c0-.111,0-.111.185-.591.148-.406.3-4.84.3-9.09,0-3.436-.185-3.917-1.847-4.619a2.077,2.077,0,0,1,1.774-.813c1.478,0,3.067,1.219,3.067,2.328a1.777,1.777,0,0,1-.222.813,7,7,0,0,0-.48,2.328c-.259,2.845-.406,6.392-.406,8.757a39.116,39.116,0,0,0,13.154-11.676Z" transform="translate(53.738 -26.462)" fill="#2e2e2e"/>
      <path id="パス_1031" data-name="パス 1031" d="M128.237,37.446a52.058,52.058,0,0,0,7.649-.85,9.439,9.439,0,0,0,2.4-.85,2.812,2.812,0,0,1,1.295-.333,6.647,6.647,0,0,1,2.4.517c.63.3.924.628.924,1.108a.943.943,0,0,1-.663.887,7.772,7.772,0,0,1-2.182.259c-1.587.074-3.03.185-5.949.48.852.591,1.256,1.145,1.256,1.7a6.954,6.954,0,0,1-.148,1.145c-.109.591-.479,4.84-.626,7.131a86.425,86.425,0,0,0,9.09-.813,2.5,2.5,0,0,1,.774-.148,7.566,7.566,0,0,1,2.4.591c1.4.591,1.958,1.108,1.958,1.811a1.052,1.052,0,0,1-1.108,1.035,10.77,10.77,0,0,1-2.439-.443,28.914,28.914,0,0,0-6.023-.517,87.475,87.475,0,0,0-10.68.739,45.156,45.156,0,0,0-4.951.924,8.766,8.766,0,0,1-1.735.259,3.159,3.159,0,0,1-2.217-1.035,4.167,4.167,0,0,1-1.332-2.254,11.176,11.176,0,0,0,4.471.776,55.988,55.988,0,0,0,5.655-.406c1.663-.148,2.032-.185,3.73-.3.185-2.956.185-3.547.185-5.838,0-2.808-.074-3.325-.591-4.027a30.778,30.778,0,0,0-3.4.443,5.692,5.692,0,0,1-.7.074,3.754,3.754,0,0,1-1.958-.665,4.7,4.7,0,0,1-1.809-2,14.671,14.671,0,0,0,4.321.591" transform="translate(67.597 -26.029)" fill="#2e2e2e"/>
      <path id="パス_1032" data-name="パス 1032" d="M139.781,38.848c3.178,1.4,4.8,3.067,4.8,4.914a1.342,1.342,0,0,1-1.256,1.441c-.591,0-.887-.333-1.182-1.256a11.714,11.714,0,0,0-2.623-4.8ZM142.7,57.36a39.4,39.4,0,0,0,10.346-11.417c1.848-3.03,3.215-5.949,3.215-6.91,0-.628-.333-.961-1.515-1.515a1.776,1.776,0,0,1,1.219-.369c1.33,0,3.252,1.626,3.252,2.734,0,.333-.037.406-.48,1a13.882,13.882,0,0,0-1.256,2,40.662,40.662,0,0,1-7.538,9.829,28.175,28.175,0,0,1-6.983,4.988Zm2.993-20.692a9.81,9.81,0,0,1,3.917,2.513,3.341,3.341,0,0,1,1,2.217,1.391,1.391,0,0,1-1.256,1.441c-.554,0-.85-.333-1.108-1.145a11.376,11.376,0,0,0-2.808-4.73Z" transform="translate(81.994 -25.177)" fill="#2e2e2e"/>
      <path id="パス_1033" data-name="パス 1033" d="M160.165,31.41a4.422,4.422,0,0,1,2.476.961,1.437,1.437,0,0,1,.665,1.219,3.054,3.054,0,0,1-.259,1.182,34.675,34.675,0,0,0-.554,6.8c5.579,1.035,9.016,3.289,9.016,5.912,0,1-.554,1.737-1.33,1.737-.554,0-.887-.3-1.515-1.293a14.305,14.305,0,0,0-6.171-5.616c0,6.1.074,11.75.222,14.484.074,1.33.074,1.552.074,2.143a2.571,2.571,0,0,1-.3,1.589,1.015,1.015,0,0,1-.813.443c-.517,0-1.035-.48-1.441-1.33a5.638,5.638,0,0,1-.665-2.328,5.461,5.461,0,0,1,.222-1.478,22.728,22.728,0,0,0,.3-3.067c.148-4.693.222-8.831.222-15.445,0-2.623-.074-3.362-.3-3.88a2.483,2.483,0,0,0-1.663-1.182,2.323,2.323,0,0,1,1.811-.85" transform="translate(94.79 -28.75)" fill="#2e2e2e"/>
      <path id="パス_1034" data-name="パス 1034" d="M181.63,57.933c4.36-.517,6.614-1.182,8.831-2.586a12,12,0,0,0,5.616-10.6,10.443,10.443,0,0,0-2.993-7.907,10.563,10.563,0,0,0-7.39-2.771c-.443,0-.887.037-1.663.111a6.115,6.115,0,0,1,1.589,4.656,26.945,26.945,0,0,1-4.1,12.821c-1.663,2.55-3.436,3.88-5.173,3.88-2.993,0-5.21-3.51-5.21-8.2,0-8.092,6.392-14.115,15-14.115,7.427,0,12.821,5.136,12.821,12.23a12.22,12.22,0,0,1-7.722,11.417,23.99,23.99,0,0,1-9.607,1.552ZM177.2,37.241a12.616,12.616,0,0,0-4.027,9.311c0,3.732,1.33,6.318,3.252,6.318,1.256,0,2.66-1.293,4.175-3.954a25.656,25.656,0,0,0,3.658-11.861,5.386,5.386,0,0,0-.259-1.884,3.625,3.625,0,0,0-.591-.924,11.958,11.958,0,0,0-6.208,2.993" transform="translate(103.476 -27.524)" fill="#2e2e2e"/>
      <path id="パス_1035" data-name="パス 1035" d="M192.953,40.134a5.456,5.456,0,0,0,2.845.739c1.367,0,2.513-.3,6.208-1.552-1.811-5.358-2.069-5.727-4.4-5.764a2.21,2.21,0,0,1,.961-1.108,5.236,5.236,0,0,1,2.289-.554c1.517,0,2.256.554,2.256,1.663a3.923,3.923,0,0,1-.037.554v.148a24.917,24.917,0,0,0,.887,4.323,18.909,18.909,0,0,0,3.991-1.921,2.729,2.729,0,0,1,1.663-.48c1.182,0,1.958.48,1.958,1.256,0,.739-.333,1-1.884,1.367-1.184.3-2.845.813-5.284,1.626.85,2.956,1.035,3.621,1.626,5.542,2.365-.776,3.51-1.182,4.8-1.7a6.766,6.766,0,0,0,2.4-1.219,2.225,2.225,0,0,1,1.552-.443c2,0,3.178.517,3.178,1.4a.877.877,0,0,1-.443.85c-.37.222-.517.259-1.958.443a45.022,45.022,0,0,0-9.09,2.18c.443,1.293,2.917,8.831,3.4,10.272a3.052,3.052,0,0,1,.22,1.219,1.514,1.514,0,0,1-1.55,1.552,1.286,1.286,0,0,1-1.072-.628,7.151,7.151,0,0,1-.665-2.328c-.443-2.291-1.552-7.02-2.219-9.422a61.966,61.966,0,0,0-7.795,3.03,5.813,5.813,0,0,1-2.254.628c-1.182,0-2.623-1.145-3.473-2.734a8.764,8.764,0,0,0,1.884.185,19.763,19.763,0,0,0,4.73-.739c1.33-.333,4.95-1.4,6.5-1.958-1.145-4.027-1.293-4.582-1.589-5.505-5.21,1.774-5.21,1.774-5.838,1.774a5.633,5.633,0,0,1-3.954-2.513Z" transform="translate(117.021 -28.421)" fill="#2e2e2e"/>
      <path id="パス_1036" data-name="パス 1036" d="M224.442,46.315c1.884-2.106,3.769-4.73,3.769-5.21a.326.326,0,0,0-.333-.3,45.107,45.107,0,0,0-6.725,2.291c.628,2,1.293,3.991,2.513,7.5.443,1.219.739,2.106.887,2.476.259.887.48,1.441.554,1.663a4.45,4.45,0,0,1,.406,1.663,1.254,1.254,0,0,1-1.367,1.256,1.2,1.2,0,0,1-1.182-.961c-.111-.333-.148-.517-.7-2.919-.813-3.436-1.663-6.614-2.7-10.013-1.884.776-2.143.887-4.4,1.921a3.054,3.054,0,0,1-1.33.406c-1.219,0-2.254-1-2.66-2.55a6.467,6.467,0,0,0,1.774.222,21.681,21.681,0,0,0,6.134-1.441c-1.626-4.619-1.7-4.693-3.584-4.73a2.672,2.672,0,0,1,2.549-1.367c1.256,0,2,.48,2,1.367v.222a3.8,3.8,0,0,0-.037.48,18.568,18.568,0,0,0,.776,3.473c.48-.185,4.1-1.4,5.025-1.737a2.5,2.5,0,0,0,1.4-.813,1.268,1.268,0,0,1,.85-.333,5.859,5.859,0,0,1,2.623,1.293c.628.554.887.961.887,1.4,0,.591-.3.85-1.072.961-.517.111-.554.111-1.293.739-.148.111-.406.3-.739.554-.48.369-1,.776-1.515,1.182-1.108.813-1.478,1.108-2.217,1.589Z" transform="translate(130.685 -25.476)" fill="#2e2e2e"/>
      <path id="パス_1037" data-name="パス 1037" d="M230.1,51.129a29.143,29.143,0,0,1,12.193,2.734c1.921,1.035,2.7,2,2.7,3.289a1.343,1.343,0,0,1-1.33,1.4c-.554,0-.591-.037-2.069-1.293a28.474,28.474,0,0,0-11.6-5.69Zm.37-9.792a9.014,9.014,0,0,1,.961-.037,21.01,21.01,0,0,1,7.907,1.626c1.293.665,1.884,1.441,1.884,2.439a1.2,1.2,0,0,1-1.145,1.33c-.554,0-.554,0-2.365-1.441a23.016,23.016,0,0,0-7.353-3.51Zm1.182-8.277a16.887,16.887,0,0,1,1.81-.111,17.653,17.653,0,0,1,7.427,1.367c1.219.554,1.774,1.256,1.774,2.18,0,.887-.443,1.4-1.182,1.4-.554,0-.776-.111-2.069-1.072a19.625,19.625,0,0,0-7.833-3.362Z" transform="translate(143.467 -27.703)" fill="#2e2e2e"/>
      <path id="パス_1038" data-name="パス 1038" d="M244.286,48.073a44.636,44.636,0,0,0,8.351-9.385c1.737-2.623,2.513-4.175,2.513-5.062,0-.628-.332-1.108-1.182-1.663a2.509,2.509,0,0,1,1.182-.333c1.515,0,3.252,1.182,3.252,2.254a1.3,1.3,0,0,1-.333.813c-.111.148-.222.369-.37.591-.406.665-.48.739-.739,1.145a5.1,5.1,0,0,0,.924.111,34.312,34.312,0,0,0,4.8-.628,4.468,4.468,0,0,0,1.515-.591c.443-.259.517-.3.739-.3a4.282,4.282,0,0,1,2.291,1.478c.554.554.7.887.7,1.256,0,.406-.222.665-.776,1.035-.554.333-.628.443-1.182,1.293-1.515,2.365-2.513,3.769-4.84,6.873,2.069,1.921,2.993,3.325,2.993,4.545a1.377,1.377,0,0,1-1.256,1.478c-.517,0-.887-.333-1.367-1.219a14.983,14.983,0,0,0-1.958-2.993,49.693,49.693,0,0,1-7.353,6.614,47.24,47.24,0,0,1-8.461,4.8l-.259-.406A54.935,54.935,0,0,0,258.1,47.112a17.13,17.13,0,0,0-4.434-3.621l.185-.369a18.627,18.627,0,0,1,5.469,2.476A56.444,56.444,0,0,0,263.5,39.2a5.128,5.128,0,0,0,.7-1.515c0-.185-.148-.3-.406-.3a37.364,37.364,0,0,0-4.84.739,4.742,4.742,0,0,1-.924.148,2.467,2.467,0,0,1-1.737-.924,37,37,0,0,1-11.713,11.122Z" transform="translate(152.631 -28.6)" fill="#2e2e2e"/>
      <path id="パス_1039" data-name="パス 1039" d="M262.107,52.707a58.763,58.763,0,0,0,10.863-11.2c2.808-3.806,4.434-6.762,4.434-8.055,0-.628-.369-1.108-1.219-1.626a1.989,1.989,0,0,1,1.182-.333c1.441,0,3.436,1.589,3.436,2.734,0,.554-.074.739-1.145,2.291a52.13,52.13,0,0,1-4.064,5.358c1.072.517,1.663.961,1.884,1.515.185.37.185.37.185,2.032,0,.48,0,1.515-.037,2.956-.037,1.293-.037,2.143-.037,3.178,0,1.589.074,4.656.185,6.318.037.443.037.85.037,1.145,0,1.108-.443,1.811-1.145,1.811-.591,0-1.035-.406-1.441-1.367a7.471,7.471,0,0,1-.591-2.771,9.9,9.9,0,0,1,.185-1.774,82.66,82.66,0,0,0,.554-8.424c0-2.291-.148-2.882-.887-3.289-.3.3-.517.517-.665.7a46.855,46.855,0,0,1-6.577,6.023,37.753,37.753,0,0,1-4.84,3.141Z" transform="translate(165.293 -28.69)" fill="#2e2e2e"/>
      <path id="パス_1040" data-name="パス 1040" d="M279.994,61.477a50.662,50.662,0,0,0,13.117-14.632c1.811-3.03,3.732-7.057,3.732-7.833,0-.259-.185-.406-.48-.406a20.8,20.8,0,0,0-3.917.739c-4.656,1.035-4.656,1.035-8.129,2.032a7.522,7.522,0,0,1-1.847.333,3.794,3.794,0,0,1-3.51-3.4v-.259a9.811,9.811,0,0,0,4.434.813A70.368,70.368,0,0,0,293.517,37.5a6.855,6.855,0,0,0,2.513-.813,1.306,1.306,0,0,1,.7-.222c1.4,0,3.843,2.217,3.843,3.473,0,.48-.074.591-.924,1.33a6.634,6.634,0,0,0-1.035,1.552A61.253,61.253,0,0,1,289.3,55.232a33.993,33.993,0,0,1-9.016,6.614Zm28.34-27.638a3.991,3.991,0,1,1-3.991-3.991,3.974,3.974,0,0,1,3.991,3.991m-6.836,0a2.87,2.87,0,0,0,2.845,2.845,2.845,2.845,0,1,0-2.845-2.845" transform="translate(176.744 -29.811)" fill="#2e2e2e"/>
      <path id="パス_1041" data-name="パス 1041" d="M311.861,42.735a40.886,40.886,0,0,1-4.619,10.383,23.12,23.12,0,0,1-10.087,8.5l-.111-.222a35.153,35.153,0,0,0,8.868-10.974,36.1,36.1,0,0,0,3.362-9.053h-5.136a26.943,26.943,0,0,0-4.323.369l-.739-1.478c2.439.185,4.988.222,5.653.222h4.508l.961-.887a.759.759,0,0,1,.517-.3.908.908,0,0,1,.554.333l1.552,1.626c.222.222.3.369.3.517,0,.406-.7.739-1.256.961m4.286-10.161c0,2.513-.037,13.524-.037,15.777,0,1.811.111,9.866.111,11.491,0,1.478,0,3.954-4.4,4.508a4.169,4.169,0,0,0-1.367-2.365,8.563,8.563,0,0,0-2.586-1.663v-.185c.3.037,3.732.185,4.249.185,1.4,0,1.552-.406,1.552-1.7,0-.628-.074-3.51-.074-4.064,0-1.145.111-12.9.111-15.334a58.843,58.843,0,0,0-.333-7.353c-.074-.333-.406-1.663-.48-1.958l3.991,1.035c.333.074.517.185.517.48,0,.369-.222.628-1.256,1.145m12.489,27.6c-5.321-2.956-11.75-12.193-11.935-23.611h.406a31.131,31.131,0,0,0,2.106,7.722c2.55-2,5.579-5.025,6.355-7.8l3.325,2.771a.645.645,0,0,1,.3.554c0,.7-.739.628-1.958.554a36.864,36.864,0,0,1-7.722,4.582c4.582,9.866,10.9,11.9,13.523,12.378v.222a6.054,6.054,0,0,0-4.4,2.623" transform="translate(189.034 -29.766)" fill="#2e2e2e"/>
      <path id="パス_1042" data-name="パス 1042" d="M352.1,46.117h-19.14c-.259.593-.516,1.11-1.07,2.146L333.85,49h10.2l1.108-1.073a1.132,1.132,0,0,1,.739-.445c.185,0,.334.074.739.371l1.4,1.11c.3.222.517.44.517.662,0,.331-.517.739-1.441,1.293-.035,4.694-.035,5.212-.035,5.62.072,1.881.22,5.465.22,5.685a1.609,1.609,0,0,1-1.774,1.811c-.961,0-.924-.628-.924-1.847H333.368c.074.7.148,1.958-1.958,1.958-.591,0-.848-.259-.848-.813,0-.222.442-11.3.331-13.45a31.247,31.247,0,0,1-11.2,10.867l-.148-.22a42.768,42.768,0,0,0,10.2-14.415H325.2a26.18,26.18,0,0,0-4.362.334l-.739-1.475c2.551.222,5.212.259,5.692.259h9.531V41.573h-5.69a24.935,24.935,0,0,0-4.358.334l-.7-1.475c2.289.185,4.545.259,5.652.259h5.1V37.176h-8.461a26.066,26.066,0,0,0-4.358.334l-.741-1.475c2.476.222,5.062.259,5.69.259h10.865a12.7,12.7,0,0,0,2.106-6.468l3.325,1.811c.331.185.591.37.591.7s-.371.48-1.293.665c-.591.554-2.477,2.256-3.844,3.29h7.612l1.256-1.589c.186-.26.406-.482.554-.482.185,0,.334.074.7.371l1.958,1.589a1.014,1.014,0,0,1,.371.59c0,.366-.334.4-.556.4H337.876v3.515h5.432l1.293-1.664c.222-.3.371-.482.591-.482a1.445,1.445,0,0,1,.665.369l1.921,1.666c.332.294.369.479.369.59,0,.366-.333.4-.553.4h-9.719v3.663h9.682l1.55-1.74c.222-.22.408-.443.556-.443.22,0,.368.111.7.408l1.958,1.664a.916.916,0,0,1,.368.588c0,.37-.368.4-.591.4m-19.027-10.3c-.962,0-1.182-.48-1.958-2.182a7.177,7.177,0,0,0-2.256-2.993v-.3c2.884.334,5.655,1.886,5.655,3.955a1.386,1.386,0,0,1-1.441,1.517M344.6,49.886H333.368v3H344.6Zm0,3.88H333.368v3.109H344.6Zm0,3.991H333.368v3.552H344.6Z" transform="translate(204.326 -29.826)" fill="#2e2e2e"/>
    </g>
  </g>
</svg>
