<svg xmlns="http://www.w3.org/2000/svg" width="65.233" height="521.864" viewBox="0 0 65.233 521.864">
  <path id="パス_1352" data-name="パス 1352" d="M31.264,1.511A31.287,31.287,0,0,0,0,32.616,31.1,31.1,0,0,0,31.264,63.562,31.1,31.1,0,0,0,62.528,32.616,31.287,31.287,0,0,0,31.264,1.511Zm0,6.205A24.822,24.822,0,1,1,6.682,32.537,24.649,24.649,0,0,1,31.264,7.717ZM87.905,62.528h6.682V16.308l46.777,48.925V2.546h-6.682V49L87.905,0Zm81.859,0h31.1V56.323H176.447V32.776h23.707V26.571H176.447V8.751H200.87V2.546h-31.1ZM275.251,36.276H280.1c5.012,0,10.183-.636,14.24-3.978a16.836,16.836,0,0,0,5.728-12.887A16.524,16.524,0,0,0,293.31,5.728C288.934,2.7,283.6,2.546,278.433,2.546h-9.865V62.528h6.682Zm0-27.525h2.466c7.8,0,15.672.716,15.672,10.5,0,8.592-6.285,10.819-13.683,10.819h-4.455Zm56.084-6.205h-6.682V62.528h6.682Zm28.082,59.983h31.105V56.323H366.1V32.776h23.707V26.571H366.1V8.751h24.423V2.546H359.418ZM463.552,7.4a28.958,28.958,0,0,0-17.9-5.887,31.372,31.372,0,0,0-31.264,31.264c0,17.024,14.319,30.787,31.264,30.787a30.891,30.891,0,0,0,17.9-5.887V49.4a26.26,26.26,0,0,1-18.138,7.955c-13.444,0-24.343-11.615-24.343-24.82s10.819-24.82,24.184-24.82a25.674,25.674,0,0,1,18.3,7.955Zm27.207,55.13h31.1V56.323H497.441V32.776h23.707V26.571H497.441V8.751h24.423V2.546h-31.1Z" transform="translate(65.233) rotate(90)" fill="#c4e2eb"/>
</svg>
