<?xml version="1.0" encoding="UTF-8"?>
<svg id="_レイヤー_1" data-name="レイヤー 1" xmlns="http://www.w3.org/2000/svg" version="1.1" viewBox="0 0 581 96">
  <defs>
    <style>
      .cls-1 {
        fill: none;
      }

      .cls-1, .cls-2, .cls-3 {
        stroke-width: 0px;
      }

      .cls-2 {
        fill: #c4e2eb;
      }

      .cls-3 {
        fill: #2e2e2e;
      }
    </style>
  </defs>
  <g id="_グループ_375" data-name="グループ 375">
    <rect id="_長方形_124" data-name="長方形 124" class="cls-2" y="1" width="322" height="46"/>
    <g id="_グループ_268" data-name="グループ 268">
      <path id="_パス_925" data-name="パス 925" class="cls-3" d="M333.6,16.9c.8.7,1.8,1,2.8.9,1,0,2.1-.2,3.1-.5.2-.7.3-1.4.3-2.1,0-.9-.5-1.7-1.3-2,.3-.2.7-.3,1.1-.2,1.3,0,2.3.6,2.3,1.3-.2.9-.4,1.7-.7,2.5.4-.1.8-.3,1.2-.5.8-.5.9-.5,1.3-.5.5,0,1,.4,1,.9,0,.5-.4.8-1.4,1.3-.9.4-1.9.7-2.9,1-1.3,3.7-2.9,7.3-4.7,10.7-.6,1.1-1.1,1.5-1.7,1.5-.6,0-1-.5-1-1.1,0-.5,0-.7,1.3-2.4,1.9-2.6,3.4-5.5,4.6-8.6-.4,0-.8.1-1.2.1-1.8,0-3.4-.8-4.3-2.4l.3-.2ZM347.4,17.8c1.5,0,3,.3,4.3,1,1.5.8,2.3,1.9,2.3,3.1,0,.5-.3,1-.8,1.1,0,0,0,0-.1,0-.3,0-.6-.2-.8-.4-.7-.6-1.6-.9-2.5-.8-1.7,0-2.4.9-2.4,3.1s.3,4.8.5,6.4c1.5.3,2.9.9,4.1,1.8.7.4,1.2,1.1,1.2,1.9,0,.7-.4,1.1-.9,1.1s-.5,0-1.4-1c-.8-.9-1.9-1.6-3-2.1,0,.3,0,.5,0,.8,0,2.4-1.6,3.7-4.4,3.7s-4.3-1.2-4.3-2.9,2.6-3.6,6-3.6c.2,0,.5,0,.7,0,0-2.2,0-2.5,0-2.9,0-5.2.9-6.7,4.5-7.5.4,0,.5-.1.5-.2-.1-.3-.3-.6-.6-.8-.9-.8-2-1.3-3.1-1.4v-.4ZM344.6,32.3c-2.7,0-4.5.8-4.5,2.1s1,1.6,2.7,1.6,3.3-.9,3.3-3.1v-.5c-.5-.1-1-.2-1.5-.2"/>
      <path id="_パス_926" data-name="パス 926" class="cls-3" d="M364.7,12.9h.3c1.5,0,3,.4,4.4,1.1,1.1.4,1.8,1.4,1.9,2.5,0,.5-.4.9-.9.9,0,0,0,0,0,0-.2,0-.5,0-.7-.1-.3,0-.7-.1-1-.1-1.5,0-3,.4-4.5.9-.6.2-.8.4-.8.8s0,.5.5,1.5c.3.5.5,1,.5,1.5q0,.2-.2.9c-.4,1.6-.6,3.2-.6,4.8,0,1.3.2,1.8.5,1.8s.6-.2,1.5-.9c2.5-1.8,4.1-2.4,5.8-2.4,3.1,0,5.3,2.1,5.3,4.8s-1.6,4.4-4.5,5.6c-2.2.7-4.5,1-6.7,1-.2,0-.6,0-1.2,0v-.4c2.1,0,4.2-.5,6.2-1.4,2.5-1.1,4-3,4-5.1.1-1.8-1.2-3.4-3.1-3.6-.1,0-.2,0-.3,0-1.4,0-2.7.7-3.6,1.7-.8.7-1.4,1.6-1.8,2.5-.2.5-.7.8-1.2.8-.9-.2-1.7-.7-2.2-1.6-.2-.5-.3-1-.2-1.4,0-2.3.3-4.6.6-6.9,0-.3.1-.7.1-1,0-.3,0-.6-.1-.9,0-.2,0-.4,0-.5,0-.6.2-1.1.6-1.5.5-.5.9-.7,3-1.7,1.9-.8,2.2-1.1,2.2-1.3,0-.4-.4-.8-.7-1.1-.8-.6-1.8-.9-2.8-1v-.4Z"/>
    </g>
    <g id="_グループ_267" data-name="グループ 267">
      <path id="_パス_927" data-name="パス 927" class="cls-3" d="M14.3,78c-1.2,0-2.4,0-3.6.3l-.6-1.2c1.9.2,3.9.2,4.9.2l.8-.9c.2-.2.3-.3.5-.3.2,0,.4.1.5.2l1.2,1c.2.1.3.3.3.5,0,.2,0,.3-.9,1,0,1.6,0,6.7.1,7,.6,1.3,1.7,2.2,3,2.5,1.8.4,3.7.6,5.5.6,3.5,0,8.8-.4,11.4-1.3v.2c-1,.7-1.7,1.8-1.8,3.1-.8,0-1,0-1.7,0-10.7,0-14.7-.2-17.1-4.6-.3.3-.5.5-2.1,1.9-.2.2-1.6,1.5-1.9,1.8,0,.6-.1.8-.5.8s-.3-.1-.5-.4l-1.8-2.5c1.8,0,3.7-.5,5.2-1.4,0-2.1,0-6.3,0-8.6h-1ZM13,65.1c2.5,1.1,5.1,2.2,5.1,4.4,0,.7-.5,1.2-1.2,1.3,0,0,0,0,0,0-.8,0-.8-.2-1.8-2.1-.5-1.3-1.3-2.4-2.2-3.4l.2-.2ZM28.2,74.4c1.9,4,5.5,6.8,9.8,7.7v.3c-1.3.2-2.5.9-3.3,2-3-2.2-5.4-5.4-6.6-8.9,0,3.5,0,5.2.1,7.7,0,.4.2,2.3.2,2.7,0,.9-.6,1.6-1.4,1.7,0,0-.1,0-.2,0-.5,0-.9-.2-.9-.8,0-1.4.3-8.1.3-9.6-2,3.1-4.7,5.6-8,7.3l-.2-.2c3-2.8,5.5-6.1,7.4-9.8h-3c-1.2,0-2.4.1-3.6.3l-.6-1.2c1.6.1,3.1.2,4.7.2h3.2v-2.5c0-4.8-.3-5.9-.5-6.9l3.1.8c.3,0,.5.2.5.5s-.3.5-1,.9c-.1,1.8-.2,5.4-.1,7.2h4.7l1.1-1.2c.2-.2.3-.4.5-.4s.3,0,.6.3l1.6,1.2c.2,0,.3.3.3.5,0,.3-.3.3-.5.3h-8.1ZM20.1,66.4c1.6.7,4.3,2,4.3,4.1,0,.7-.4,1.3-1.1,1.4,0,0,0,0,0,0-.9,0-1.1-.6-1.7-2.1-.8-2.3-1.2-2.7-1.6-3.1l.2-.2ZM34.5,67.2c.2.2.5.3.5.6s-.2.5-1.1.6c-1.5,1.6-3,3-4.6,4.4l-.2-.2c.9-1.4,1.6-2.9,2.2-4.4.3-.8.5-1.5.6-2.4l2.6,1.5Z"/>
      <path id="_パス_928" data-name="パス 928" class="cls-3" d="M52.4,89.6c2.4-.5,4.6-1.6,6.4-3.3,1.5-1.6,2.4-3.7,2.4-5.9,0-3.3-1.8-5.3-4.9-5.3-1.9.1-3.6.7-5.1,1.8-1.2.7-2.2,1.6-3.1,2.6,0,2.4.2,4,.5,7.5,0,.3,0,.6,0,1,0,1.5-.5,2.4-1.2,2.4s-.8-.3-.9-1.3c-.3-2-.7-4-1.4-5.9-.2.3-1.1,1.8-1.6,2.7-.4.7-.8,1-1.3,1-.6,0-1-.5-1-1.1,0-.5,0-.5,1.7-2.6.7-.8,1-1.2,1.5-1.9-.1-.4-1.1-3.5-1.4-4.3-.4-.1-.8-.4-1-.8-.2-.3-.3-.6-.3-.9,0-.4.2-.7.4-.7s.2,0,.6.3c.1,0,.3,0,.4,0,.8-.2,1.5-.5,2.2-1,.6-.3,1.2-.5,1.8-.8q0-.5.1-1.4c0-.4,0-1.1.2-2,0-1.1,0-1.5,0-1.9,0-1.1-.5-2.1-1.5-2.5.2,0,.4-.1.6-.1,1.3,0,3.2,1.5,3.2,2.5,0,.4-.2.8-.3,1.2-.4,1.3-.8,2.6-1,4,.8.1,1.3.7,1.4,1.5,0,.5,0,.6-.6,1.4,0,0-.5.7-1.3,2v.2c3.3-2.7,6.1-3.9,8.9-3.9,3.5-.2,6.4,2.4,6.6,5.9,0,.2,0,.4,0,.6,0,3.4-2,6.2-5.6,7.8-1.7.8-3.5,1.2-5.3,1.4v-.4ZM45,76c-1,.8-1.1.9-1.6,1,.8,2.2,1,2.8,1.4,3.8q.2-.4,1-1.4c.4-.5.7-1,1-1.5,0-.8,0-2.4.2-3.2-.7.4-1.4.8-2,1.3M45.5,82.5c.2.6.3.9.7,1.9.3,1,.5,1.3.8,2.2q0-.7,0-2.2c0-.6,0-1.5,0-2.8q0-.5,0-1c-.5.8-1.1,1.6-1.3,1.9"/>
      <path id="_パス_929" data-name="パス 929" class="cls-3" d="M69.2,69.9c.8.7,1.8,1,2.8.9,1,0,2.1-.2,3.1-.5.2-.7.3-1.4.3-2.1,0-.9-.5-1.7-1.3-2,.3-.2.7-.3,1.1-.2,1.3,0,2.3.6,2.3,1.3-.2.9-.4,1.7-.7,2.5.4-.1.8-.3,1.2-.5.8-.5.9-.5,1.3-.5.5,0,1,.4,1,.9,0,.5-.4.8-1.4,1.3-.9.4-1.9.7-2.9,1-1.3,3.7-2.9,7.3-4.7,10.7-.6,1.1-1.1,1.5-1.7,1.5-.6,0-1-.5-1-1.1,0-.5,0-.7,1.3-2.4,1.9-2.6,3.4-5.5,4.6-8.6-.4,0-.8.1-1.2.1-1.8,0-3.4-.8-4.3-2.4l.3-.2ZM83,70.8c1.5,0,3,.3,4.3,1,1.5.8,2.3,1.9,2.3,3.1,0,.5-.3,1-.8,1.1,0,0,0,0-.1,0-.3,0-.6-.1-.8-.4-.7-.6-1.6-.9-2.5-.8-1.7,0-2.4.9-2.4,3.1s.3,4.8.5,6.4c1.5.3,2.9.9,4.1,1.8.7.4,1.2,1.1,1.2,1.9,0,.7-.4,1.1-.9,1.1s-.5,0-1.4-1c-.8-.9-1.9-1.6-3-2.1,0,.3,0,.5,0,.8,0,2.4-1.6,3.7-4.4,3.7s-4.3-1.2-4.3-2.9,2.6-3.6,6-3.6c.2,0,.5,0,.7,0,0-2.2,0-2.5,0-2.9,0-5.2.9-6.7,4.5-7.5.4,0,.5-.1.5-.2-.1-.3-.3-.6-.6-.8-.9-.8-2-1.3-3.2-1.5v-.4ZM80.3,85.4c-2.7,0-4.5.8-4.5,2.1s1,1.6,2.7,1.6,3.3-.9,3.3-3.1v-.5c-.5-.1-1-.2-1.5-.2"/>
      <path id="_パス_930" data-name="パス 930" class="cls-3" d="M103.4,79.7c-.5,1.8-.8,3.6-.9,5.4,0,.6.1,1.1.5,1.6.1.2.2.5.2.8,0,.5-.5.9-1.1.9-1.4,0-3.2-1.3-4.4-3-1.2-2.1-1.8-4.5-1.7-6.9,0-1.6.2-3.2.4-4.7,0-.5,0-1,0-1.5,0-1-.4-1.9-1.1-2.5,0,0,.2,0,.3,0,.7.1,1.3.5,1.7,1.1.5.5.8,1.3.8,2,0,.3,0,.6-.1.9-.3,1.5-.4,3-.4,4.6-.1,1.6.2,3.2.9,4.7.6,1.2,1.5,2.2,2,2.2s.3,0,1.1-2.3c.3-.8,1-2.6,1.4-3.3l.4.2ZM108.4,73.6c.6-.1,1.2-.2,1.8-.2,2.2,0,4.2,1.1,5.5,2.9.6.8.9,1.8.9,2.8,0,.9-.5,1.6-1.4,1.7,0,0,0,0,0,0-.4,0-.7-.2-.9-.6-.1-.4-.2-.8-.3-1.2,0-1.1-.5-2.2-1.2-3.1-1-1.2-2.4-1.9-4-2h-.4v-.4Z"/>
      <path id="_パス_931" data-name="パス 931" class="cls-3" d="M130.3,89c3.6-.4,5.4-1,7.2-2.1,3-1.9,4.7-5.2,4.6-8.7.1-2.4-.8-4.8-2.4-6.5-1.6-1.5-3.8-2.3-6-2.3-.4,0-.7,0-1.4,0,.9,1,1.4,2.4,1.3,3.8-.2,3.7-1.4,7.3-3.4,10.5-1.4,2.1-2.8,3.2-4.2,3.2-2.4,0-4.3-2.9-4.3-6.7,0-6.6,5.2-11.5,12.3-11.5s10.5,4.2,10.5,10c0,4.1-2.5,7.8-6.3,9.3-2.5,1-5.2,1.4-7.9,1.3v-.4ZM126.7,72c-2.1,2-3.3,4.7-3.3,7.6,0,3.1,1.1,5.2,2.7,5.2s2.2-1.1,3.4-3.2c1.8-2.9,2.8-6.3,3-9.7,0-.5,0-1-.2-1.5-.1-.3-.3-.5-.5-.8-1.9.3-3.7,1.2-5.1,2.4"/>
      <path id="_パス_932" data-name="パス 932" class="cls-3" d="M155.1,78.4c-.7,2.4-1.2,4.8-1.5,7.3,0,.6,0,1.1.2,1.7.1.3.2.6.2.9,0,.5-.3.9-.8.9,0,0,0,0,0,0-.5,0-1-.4-1.4-1.1-1-2.1-1.6-4.4-1.5-6.7,0-2.7.5-5.5,1.3-8.1.3-1,.5-2,.5-3,0-.9-.2-1.7-.7-2.5h0c.4,0,1,.5,1.6,1.3.6.8,1,1.7,1.1,2.6,0,.6-.2,1-1,2.8-1,1.9-1.6,4.1-1.7,6.3,0,1.5.4,3.4.7,3.4s.3-.4,1.1-2.6c.4-.9.4-1.1.9-2.4q.2-.6.4-1h.3ZM158.9,83.8c1,1.7,2.2,2.3,4.5,2.3,1.4,0,2.8-.2,4.1-.5.5-.2.9-.2,1.4-.2,1,0,1.8.5,1.8,1.2,0,.6-.4,1-.9,1.1-1.3.3-2.6.5-4,.5-4.1,0-6.1-1.2-7.1-4.3l.3-.2ZM159.3,70.4c.7.4,1.6.6,2.4.5,1.5,0,3-.3,4.5-.8.3-.2.7-.2,1.1-.2,1.1,0,1.8.5,1.8,1.3s-.4.8-1,1c-1.2.3-2.5.5-3.8.5-1.9,0-3.8-.7-5.1-2.1l.2-.2Z"/>
      <path id="_パス_933" data-name="パス 933" class="cls-3" d="M184.8,68.6h-3.4c-.5,2.4-1.2,4.8-2.2,7l.7.4h2.5l.6-.7c.2-.2.3-.3.5-.3.2,0,.4.1.5.3l1,.8c.2.1.3.3.3.5,0,.2-.2.4-.7.8v5.2c0,.2.1,4.3.1,4.4,0,.7-.5,1.4-1.3,1.4,0,0,0,0,0,0-.7,0-.7-.5-.7-.9s0-.8,0-1.2h-2.8c0,.7,0,2.3,0,3.1,0,.5-.1.9-.5,1.2-.3.2-.6.3-.9.3-.8,0-.8-.6-.8-.9,0-.2.2-2.5.2-2.9,0-1.8,0-2.5,0-8.7-1,1.9-2.3,3.6-4,5h-.2c2.7-4.1,4.7-10.4,5.5-14.8-1.3,0-2.6,0-3.9.3l-.6-1.2c1.9.2,3.7.2,4.6.2h2.4l.9-1.3c.2-.2.3-.4.5-.4s.4.2.6.3l1.3,1.2c.2.1.3.3.3.5,0,.2-.2.3-.5.3M182.6,76.8h-2.8v8.8h2.8v-8.8ZM201.5,90h-11.6c0,.3,0,1,0,1.2,0,1.2-1.4,1.2-1.4,1.2-.7,0-.7-.4-.7-1,0-.3,0-1.9,0-2.2,0-2.1,0-3,.2-11.2-.9,1.4-2.1,2.6-3.5,3.5v-.2c2.4-2.9,4.8-8.1,6-11.9h-3.2c0,1.9-.8,3.4-2,3.4-.6,0-1.2-.5-1.2-1.1,0-.5,0-.5,1.1-1.6.9-.8,1.5-1.9,1.6-3h.2c.1.5.2,1.1.2,1.6h3.5c.8-2.8.9-3.4.8-4.6l2.7,1.1c.2,0,.4.3.4.5,0,.3-.3.5-.9.7-.3.8-.5,1.4-.8,2.3h4.7l.7-.8c.2-.2.4-.4.5-.4s.3.2.6.4l1.5,1.5c.1.1.2.3.2.5,0,.3-.2.5-1.9.6-.4.4-.6.5-2.3,1.9h-.2c.3-1,.6-2,.8-2.9h-5.1c-.8,2-1.8,4-2.9,5.9l.2.2h3.2c.4-1.4.6-2.9.6-4.4l2.6,1.3c.2.1.3.2.3.4s-.1.4-1,.5c-.6.7-1.3,1.4-1.9,2.1h3.8l.8-1.1c.2-.3.3-.4.5-.4.2,0,.4.1.5.3l1.3,1.2c.2.1.3.3.3.5,0,.2-.2.3-.5.3h-5.7v3.8h2.2l.8-1.1c.2-.3.3-.4.5-.4.2,0,.4.2.6.3l1.2,1.1c.2.1.3.3.3.5,0,.2-.2.3-.5.3h-5v3.8h2.2l.8-1c.2-.3.3-.4.5-.4.2,0,.4.1.5.3l1.2,1c.2.1.3.3.3.5,0,.2-.2.3-.5.3h-5v3.9h3.2l1-1.2c.2-.2.4-.4.5-.4.2,0,.4.1.6.3l1.4,1.2c.2.2.3.3.3.5s-.2.3-.5.3M193.2,76.2h-3.2v3.8h3.2v-3.8ZM193.2,80.8h-3.2v3.8h3.2v-3.8ZM193.2,85.3h-3.2v3.9h3.2v-3.9Z"/>
      <path id="_パス_934" data-name="パス 934" class="cls-3" d="M231,70.2c-.4,0-.8,0-1.2,0-.7.3-3.6,1.7-4.2,1.9h-.2c.6-.9,1.1-1.8,1.6-2.8h-17.4c0,2.1-.7,5.1-3,5.1-.7,0-1.2-.5-1.2-1.2,0,0,0,0,0,0,0-.7.3-1,1.7-2,1.1-1,1.8-2.4,2-3.9h.3c.1.7.2.9.2,1.3h7.9c0-1.4-.2-2.7-.7-4l3.3.7c.3,0,.6.2.6.5s-.4.6-1.1,1c0,.6,0,1.3,0,1.8h7.4l1.3-1.1c.3-.2.5-.4.7-.4.2,0,.4.1.6.3l1.9,1.8c.2.1.2.3.2.5,0,.3-.3.5-.8.5M230.1,91.7c-2.1-.3-4.1-1.1-5.8-2.3-2.3-1.6-4.1-3.6-5.4-6.1h-.5c-1.5,4.4-6,7.6-12.5,8.5v-.3c5.4-1.7,8.9-4.8,10.3-8.2h-6.7c-1.2,0-2.4,0-3.6.3l-.6-1.2c2.1.2,4.2.2,4.7.2h6.5c.3-1.1.5-2.3.6-3.4h-3.3c-1.2,0-2.4,0-3.6.3l-.6-1.2c1.9.2,3.8.2,4.7.2h2.9c0-1.1.2-2.3.2-3.4h-3.9c-1.2,0-2.4,0-3.6.3l-.6-1.2c2.1.2,4.2.2,4.6.2h3.4c0-3.2-.3-3.8-.5-4.4l3.2.8c.2,0,.5.2.5.5s-.4.5-1,.8c0,.4,0,2,0,2.3h4.4l1-1.2c.2-.3.4-.4.5-.4s.3,0,.5.3l1.4,1.2c.2.1.3.3.3.5,0,.2-.2.3-.5.3h-7.7c0,2.4,0,2.7-.2,3.4h3.9l1-1.2c.2-.2.3-.4.5-.4s.3,0,.5.3l1.3,1.2c.2.2.3.3.3.5s-.2.3-.4.3h-7.2c-.1,1.2-.4,2.3-.6,3.4h8.8l1.2-1.3c.2-.2.4-.4.5-.4.2,0,.4.1.6.3l1.6,1.3c.2.2.3.3.3.5s-.2.3-.5.3h-11.8c4.1,5,9.1,5.5,13.3,5.3v.2c-1.3.4-2.3,1.5-2.6,2.8"/>
      <path id="_パス_935" data-name="パス 935" class="cls-3" d="M241.8,78.4c-.7,2.4-1.2,4.8-1.5,7.3,0,.6,0,1.1.2,1.7.1.3.2.6.2.9,0,.5-.3.9-.8.9,0,0,0,0,0,0-.5,0-1-.4-1.4-1.1-1-2.1-1.6-4.4-1.5-6.7,0-2.7.5-5.5,1.3-8.1.3-1,.5-2,.5-3,0-.9-.2-1.7-.7-2.5h0c.4,0,1,.5,1.6,1.3.6.8,1,1.7,1.1,2.6,0,.6-.2,1-1,2.8-1,1.9-1.6,4.1-1.7,6.3,0,1.5.4,3.4.7,3.4s.3-.4,1.1-2.6c.4-.9.4-1.1.9-2.4q.2-.6.4-1h.3ZM245.6,83.8c1,1.7,2.2,2.3,4.5,2.3,1.4,0,2.8-.2,4.1-.5.5-.2.9-.2,1.4-.2,1,0,1.8.5,1.8,1.2,0,.6-.4,1-.9,1.1-1.3.3-2.6.5-4,.5-4.1,0-6.1-1.2-7.1-4.3l.3-.2ZM246,70.4c.7.4,1.6.6,2.4.5,1.5,0,3-.3,4.5-.8.3-.2.7-.2,1.1-.2,1.1,0,1.8.5,1.8,1.3s-.4.8-1,1c-1.2.3-2.5.5-3.8.5-1.9,0-3.8-.7-5.1-2.1l.2-.2Z"/>
      <path id="_パス_936" data-name="パス 936" class="cls-3" d="M264.8,80.5c0,.5-.1,1-.1,1.5,0,3.1,2.1,4.7,6.4,4.7,1.6,0,3.2-.2,4.8-.7.4-.2.9-.2,1.3-.2,1.3,0,2.1.5,2.1,1.3s-.4,1-1.4,1.2c-1.7.3-3.5.5-5.3.5-3.3,0-5.5-.5-6.9-1.7-1.2-1-1.8-2.4-1.8-3.9,0-.9.2-1.8.6-2.7h.3ZM265.8,68.6c1,.6,2.2.9,3.4.8,1.5,0,3-.2,4.4-.7.4-.1.8-.2,1.2-.2,1.2,0,2,.5,2,1.3,0,.4-.3.8-.7.9-.6.2-1.1.3-1.7.4-1,.2-1.9.6-2.8,1.1-1,.5-1.9,1-2.8,1.6l-.2-.3q1.3-1.1,1.4-1.2t1.6-1.3c-2.8,0-4.5-.6-5.9-2.1l.2-.2Z"/>
      <path id="_パス_937" data-name="パス 937" class="cls-3" d="M286.4,69.9c.8.7,1.8,1,2.8.9,1,0,2.1-.2,3.1-.5.2-.7.3-1.4.3-2.1,0-.9-.5-1.7-1.3-2,.3-.2.7-.3,1.1-.2,1.3,0,2.3.6,2.3,1.3-.2.9-.4,1.7-.7,2.5.4-.1.8-.3,1.2-.5.8-.5.9-.5,1.3-.5.5,0,1,.4,1,.9,0,.5-.4.8-1.4,1.3-.9.4-1.9.7-2.9,1-1.3,3.7-2.9,7.3-4.7,10.7-.6,1.1-1.1,1.5-1.7,1.5-.6,0-1-.5-1-1.1,0-.5,0-.7,1.3-2.4,1.9-2.6,3.4-5.5,4.6-8.6-.4,0-.8.1-1.2.1-1.8,0-3.4-.8-4.3-2.4l.3-.2ZM300.2,70.8c1.5,0,3,.3,4.3,1,1.5.8,2.3,1.9,2.3,3.1,0,.5-.3,1-.8,1.1,0,0,0,0-.1,0-.3,0-.6-.2-.8-.4-.7-.6-1.6-.9-2.5-.8-1.7,0-2.4.9-2.4,3.1s.3,4.8.5,6.4c1.5.3,2.9.9,4.1,1.8.7.4,1.2,1.1,1.2,1.9,0,.7-.4,1.1-.9,1.1s-.5,0-1.4-1c-.8-.9-1.9-1.6-3-2.1,0,.3,0,.5,0,.8,0,2.4-1.6,3.7-4.4,3.7s-4.3-1.2-4.3-2.9,2.6-3.6,6-3.6c.2,0,.5,0,.7,0,0-2.2,0-2.5,0-2.9,0-5.2.9-6.7,4.5-7.5.4,0,.5-.1.5-.2-.1-.3-.3-.6-.6-.8-.9-.8-2-1.3-3.1-1.4v-.4ZM297.4,85.4c-2.7,0-4.5.8-4.5,2.1s1,1.6,2.7,1.6,3.3-.9,3.3-3.1v-.5c-.5-.1-1-.2-1.5-.2"/>
      <path id="_パス_938" data-name="パス 938" class="cls-3" d="M337.2,82.1c-1.5,4-3.6,6-6.2,6s-3.4-1.5-3.4-4c0-1.9.4-3.8.8-5.7.4-1.4.6-2.9.6-4.3,0-1.7-.8-2.7-2.2-2.7s-2.7.8-4.4,2.3c-1.7,1.4-3.1,2.9-4.4,4.7,0,.6,0,.7,0,.9,0,2.1,0,4.2.3,6.3,0,.6,0,1.2,0,1.8,0,2.1-.4,3.2-1.2,3.2-.3,0-.6-.2-.7-.5-.2-.4-.3-.9-.3-1.4q-.2-1.2-1.6-5.1c-.2.3-.8,1.4-1.4,2.3-.3.6-.6.8-1,.8-.6,0-1.1-.5-1.1-1.1,0-.5.2-1,.6-1.3q.5-.6,1.3-1.8t.8-1c-.3-1.3-.7-2.6-1.2-3.8-.2-.3-.3-.6-.3-1,0-1.2,1.9-2.6,4.9-3.5.2-1.2.3-2.4.3-3.6,0-1.7-.6-2.9-1.7-3.4.2,0,.4-.1.5-.1.8.1,1.6.5,2.2,1.1.6.4,1,1.1,1.1,1.9,0,.4,0,.7-.2,1.1-.3,1-.6,2.1-.8,3.2.4.2.7.7.8,1.2,0,.4,0,.5-.8,1.6v.2c3.9-3.8,6.5-5.4,8.9-5.4,2.1,0,3.8,1.7,3.8,3.8,0,0,0,0,0,0,0,1.1,0,1.1-1,4.8-.5,1.5-.8,3.1-.8,4.7,0,1.1.2,1.7.8,2,.4.2.8.4,1.3.4,1.4-.1,2.8-.8,3.6-2,.7-.8,1.3-1.6,1.8-2.6l.3.2ZM317,76.6v-.8c0-.3,0-.5,0-.9-1.1.2-2.1.6-3,1.3-.7.5-.8.7-.8,1.1.2,1.3.6,2.5,1.1,3.7,1.4-2.1,2.1-3.2,2.8-4.3M316.8,81c0-.2,0-.6,0-1.2-.6.9-.7,1.1-.9,1.5-.3.5-.6.9-.9,1.5.5,1.2,1,2.4,1.7,3.5,0,0,0,0,0,0t0,0c0,0,0-.3,0-.7v-4.6Z"/>
      <path id="_パス_939" data-name="パス 939" class="cls-3" d="M347.1,75.6c3.7-4.7,4.5-5.9,4.6-6.5,0-.2-.2-.3-.5-.3-1.4.3-2.8,1-3.8,2-.8.7-1.2.9-1.6.9-.7-.1-1.4-.5-1.9-1.1-.3-.4-.5-.9-.5-1.4,0-.1,0-.3,0-.4.3.5.9.8,1.5.8.7,0,1.2-.2,3.5-1.1,1.9-.8,2.5-1,3.2-1,1,0,1.8.5,2.4,1.3.3.3.5.7.5,1.1,0,.4-.2.6-1.1,1.1-1,.7-1.9,1.5-2.6,2.4-1.9,1.9-3.6,4-5.2,6.2,1.6-1.3,3.6-2.1,5.7-2.1,3.8,0,6.4,2.4,6.4,5.8s-3.3,6.7-7.8,6.7-4.3-1.1-4.3-2.8,1.2-2.4,2.8-2.4c1.9,0,3.5,1.2,4,3,.8-.3,1.4-.8,1.9-1.5.7-1,1.1-2.2,1.1-3.4.2-2.4-1.6-4.4-4-4.6-.2,0-.3,0-.5,0-1.9,0-3.8.8-5.2,2.2-1,.8-1.8,2-2.2,3.2-.5,1.2-.8,1.6-1.4,1.6s-1-.5-1-1.4c0-.9.5-1.7,1.1-2.3l4.8-6.1ZM350.8,88.5q0-.1-.3-.8c-.2-.6-.6-1.1-1.2-1.4-.4-.2-.8-.3-1.3-.3-.9,0-1.5.5-1.5,1.2s1.1,1.6,2.8,1.6c.5,0,.9,0,1.4-.2,0,0,0,0,0,0"/>
      <path id="_パス_940" data-name="パス 940" class="cls-3" d="M366.1,88.6c0,.9-.8,1.6-1.7,1.6-.9,0-1.6-.7-1.6-1.6,0-.9.7-1.6,1.6-1.7.9,0,1.6.7,1.7,1.6,0,0,0,0,0,0M363.9,85.2c0-4.2-.1-8.4-.5-12.6,0-.6-.5-3.8-.5-4,0-.9.6-1.6,1.5-1.6.9,0,1.6.6,1.6,1.5,0,0,0,0,0,.1,0,.5-.5,3.2-.5,3.8-.4,4.2-.6,8.5-.5,12.8h-1.1Z"/>
    </g>
    <g id="_グループ_266" data-name="グループ 266">
      <path id="_パス_941" data-name="パス 941" class="cls-3" d="M21.1,24.1c-1.4.5-4.1,1.6-4.7,1.8-.7.4-1.5.6-2.3.6-.8,0-1.5-.4-2.1-.9-.6-.5-1.1-1.3-1.2-2.1.8.3,1.6.5,2.5.4,2.7-.2,5.3-.8,7.8-1.6,0-.8,0-3.7,0-5.2,0-2.5-.3-3.1-2-3.8.4-.5,1-.8,1.7-.8,1,0,2,.4,2.8,1,.5.3.8.8.8,1.4,0,.4-.1.8-.3,1.1-.3.9-.5,1.8-.8,5.5,3.2-1,5.9-1.9,7.2-2.4.6-.6.7-.7,1.2-.7,1.4,0,3.9,2.2,3.9,3.5,0,.4-.2.7-.6.8-.2.1-.3.1-1,.2-1.1,0-1.2.1-4,2.3-.8.6-1.4,1.1-2.5,1.8l-.3-.3c2.3-2.4,4.1-5,4.1-5.8,0-.2-.1-.4-.3-.4,0,0,0,0,0,0-2.6.7-5.2,1.6-7.8,2.5,0,1.7-.1,3.8-.1,6.1,0,3.9.5,4.6,3.3,4.6,1.5,0,3-.2,4.5-.7.5-.1,1-.2,1.6-.2,1.7,0,2.7.6,2.7,1.6s-.5,1.2-1.6,1.4c-1.6.2-3.2.3-4.8.3-4.1,0-6-.6-6.9-2.2-.7-1.2-.9-3-.9-7.4v-2.6h0Z"/>
      <path id="_パス_942" data-name="パス 942" class="cls-3" d="M45.3,20.9c3.2,1.4,4.8,3.1,4.8,4.9,0,.7-.5,1.4-1.2,1.4,0,0,0,0,0,0-.6,0-.9-.3-1.2-1.3-.5-1.8-1.4-3.4-2.6-4.8l.3-.3ZM48.2,39.4c4.2-3.1,7.7-7,10.3-11.4,1.8-3,3.2-5.9,3.2-6.9s-.3-1-1.5-1.5c.3-.3.8-.4,1.2-.4,1.3,0,3.3,1.6,3.3,2.7s0,.4-.5,1c-.5.6-.9,1.3-1.3,2-2,3.6-4.5,7-7.5,9.8-2.1,2-4.4,3.7-7,5l-.3-.3ZM51.2,18.7c1.5.5,2.8,1.4,3.9,2.5.6.6,1,1.4,1,2.2,0,.7-.5,1.4-1.3,1.4-.6,0-.8-.3-1.1-1.1-.5-1.8-1.5-3.4-2.8-4.7l.3-.3Z"/>
      <path id="_パス_943" data-name="パス 943" class="cls-3" d="M78.5,9.9c.9,0,1.8.4,2.5,1,.4.3.7.7.7,1.2,0,.4,0,.8-.3,1.2-.4,2.2-.6,4.5-.6,6.8,5.6,1,9,3.3,9,5.9s-.6,1.7-1.3,1.7-.9-.3-1.5-1.3c-1.5-2.4-3.6-4.4-6.2-5.6,0,6.1,0,11.8.2,14.5,0,1.3,0,1.6,0,2.1,0,.5,0,1.1-.3,1.6-.2.3-.5.4-.8.4-.5,0-1-.5-1.4-1.3-.4-.7-.6-1.5-.7-2.3,0-.5,0-1,.2-1.5.2-1,.3-2,.3-3.1.1-4.7.2-8.8.2-15.4s0-3.4-.3-3.9c-.4-.6-1-1-1.7-1.2.4-.5,1.1-.9,1.8-.8"/>
      <path id="_パス_944" data-name="パス 944" class="cls-3" d="M98.8,38.7c2.6-2.7,4.8-5.9,6.5-9.3,1.6-3.3,3-7.4,3-9s-.3-1.2-1.3-1.7c.4-.4.9-.5,1.5-.6,1.1,0,2.1.5,2.8,1.3,1.9-1.2,3.6-2.6,5.2-4.2.4-.3.7-.8.7-1.3,0-.3-.3-.5-.8-.5-4.4.5-8.7,1.3-13,2.4-1,.3-2,.5-3,.6-.9,0-1.8-.4-2.4-1-.7-.6-1.3-1.4-1.5-2.3,1.5.4,3.1.6,4.7.6,3.8-.1,7.5-.5,11.3-1.1,2.8-.4,3-.5,3.7-.8.3-.2.7-.3,1.1-.3,1,.2,1.8.6,2.5,1.3,1.1.9,1.6,1.6,1.6,2.2,0,.3-.1.6-.4.8-.4.3-.8.4-1.3.5-.7.2-1.4.5-2.1.9-1.9,1.1-3.9,2.2-6,3.1-1,3.6-2.5,7.1-4.5,10.3-2,3.3-4.7,6.2-7.9,8.5l-.3-.3Z"/>
      <path id="_パス_945" data-name="パス 945" class="cls-3" d="M126.7,20.9c3.2,1.4,4.8,3.1,4.8,4.9,0,.7-.5,1.4-1.2,1.4,0,0,0,0,0,0-.6,0-.9-.3-1.2-1.3-.5-1.8-1.4-3.4-2.6-4.8l.3-.3ZM129.6,39.4c4.2-3.1,7.7-7,10.3-11.4,1.8-3,3.2-5.9,3.2-6.9s-.3-1-1.5-1.5c.3-.3.8-.4,1.2-.4,1.3,0,3.3,1.6,3.3,2.7s0,.4-.5,1c-.5.6-.9,1.3-1.3,2-2,3.6-4.5,7-7.5,9.8-2.1,2-4.4,3.7-7,5l-.3-.3ZM132.6,18.7c1.5.5,2.8,1.4,3.9,2.5.6.6,1,1.4,1,2.2,0,.7-.5,1.4-1.3,1.4-.6,0-.8-.3-1.1-1.1-.5-1.8-1.5-3.4-2.8-4.7l.3-.3Z"/>
      <path id="_パス_946" data-name="パス 946" class="cls-3" d="M155.3,38.9c5.3-4,9.7-8.9,13.1-14.6,1.8-3,3.7-7.1,3.7-7.8s-.2-.4-.5-.4c-1.3.1-2.6.4-3.9.7q-4.7,1-8.1,2c-.6.2-1.2.3-1.8.3-1.8-.1-3.3-1.6-3.5-3.4v-.3c1.4.6,2.9.9,4.4.8,3.4-.2,6.8-.7,10.1-1.4.9-.1,1.7-.4,2.5-.8.2-.1.5-.2.7-.2,1.4,0,3.8,2.2,3.8,3.5s0,.6-.9,1.3c-.4.5-.8,1-1,1.6-2.6,4.5-5.7,8.7-9.3,12.4-2.6,2.7-5.7,4.9-9,6.6l-.3-.4ZM183.6,11.2c0,2.2-1.8,4-4,4s-4-1.8-4-4,1.8-4,4-4h0c2.2,0,4,1.8,4,4,0,0,0,0,0,0M176.8,11.2c0,1.6,1.3,2.8,2.8,2.8,1.6,0,2.8-1.3,2.8-2.8s-1.3-2.8-2.8-2.8-2.8,1.3-2.8,2.8"/>
      <path id="_パス_947" data-name="パス 947" class="cls-3" d="M219.5,34.8c0,.4-.2,1.8-.2,2.7,0,.6.1,1.2.4,1.8,0,.2.1.4.1.6,0,.6-.5,1.1-1,1.1,0,0,0,0-.1,0-1.3,0-3-1.6-3.5-2.4-3.6-5.7-4-13.3-4-21.5s0-4.5.1-6.4h-18.5c0,1.7,0,3,0,5.2,0,9.8,0,18.6-8,25.5l-.2-.2c5.4-7.9,5.6-17.2,5.6-22.4,0-3.6-.2-7.3-.7-10.9l3.9,1.9h17.6l1.2-.8c.2-.2.4-.3.7-.3.2,0,.5.2.6.3l1.6,1.4c.2.1.3.3.3.6,0,.2-.2.4-.3.4-.4.2-.7.4-1.1.6-.1,1.8-.3,4.5-.3,8.3s.2,9.3,2.1,14.1c.4,1,1,1.6,1.3,1.6.6,0,2.4-3.5,2.8-4.3h.2c0,.6-.6,2.8-.6,3.3M209.3,38.1c-.6,0-1.2-.4-1.3-1-.3-1-.7-2-1.2-3-1.7.7-3.4,1.3-5.1,1.8-5,1.5-5.6,1.7-6,1.8-.4.6-.5.8-.9.8s-.4-.3-.6-.6l-1.6-3.3c.7.2,1.4.3,2.1.3,2-.1,4-.3,6-.7v-6.3h-3.3c0,.2,0,1,0,1.2,0,.3,0,.6-.3.9-.4.3-.9.5-1.4.5-.8,0-.8-.4-.8-1s.3-6.9.3-8.2,0-2.6-.2-3.6l2.6,1.6h3v-3.6c-1.9.4-3.8.6-5.8.6-.9,0-1.4,0-1.9,0v-.2c4.9-1.1,10.6-2.8,12.7-4.3l2.4,1.5c.3.2.5.4.5.5,0,.3-.3.4-1.2.5-1.5.3-3,.6-4.5,1v4h3.3l.9-1c.2-.2.3-.3.5-.3.2,0,.5.2.6.3l1.3,1.2c.2.1.3.4.4.6,0,.3-.3.4-1.1,1,0,1.1.2,6.6.2,7.8s-1,1.3-1.7,1.3-.7-.1-.7-.8,0-1.1,0-1.3h-3.5v5.9l3.6-.6c-.7-1.1-1.5-2-2.4-2.9h0c5.6,1.9,6.7,4.4,6.7,5.9,0,.8-.5,1.5-1.3,1.5,0,0,0,0,0,0M200.6,20.4h-3.3v6.9h3.3v-6.9ZM206.3,20.4h-3.5v6.9h3.5v-6.9Z"/>
      <path id="_パス_948" data-name="パス 948" class="cls-3" d="M227.5,38.2c5.8-4,10.2-9.6,12.9-16,.9-2.1,1.6-4.2,2-6.4,0-.3-.1-.4-.4-.4-.1,0-.2,0-.4,0,0,0-.3,0-.7,0-1.9.1-6.4.8-9.2,1.3-.2,0-.5,0-.7,0-.6,0-1.2-.2-1.7-.5.1,1.2.2,1.9.3,3.1q.2,2.1.4,3.7c0,.3,0,.6,0,.9,0,1-.4,1.6-1,1.6s-2-1.8-2-3.1c0-.3,0-.6.1-1,0-.4.1-.9.1-1.3,0-1.4-.2-2.8-.6-4.1-.3-.8-.9-1.4-1.7-1.8.3-.2.6-.3.9-.3,1.1,0,2.2.5,3.1,1.2.3,0,.5,0,.8,0,1.3,0,6.1-.6,10.3-1.2.8,0,1.5-.2,2.1-.7.2-.2.4-.3.6-.3.5,0,1.1.4,2,1.3s1.3,1.4,1.3,1.9c0,.3-.1.5-.4.7-.4.3-.7.7-.8,1.1,0,0-.1.3-.2.5,0,.1-.2.5-.4,1.1-1.8,5-4.7,9.6-8.4,13.4-2.4,2.4-5.2,4.3-8.2,5.8l-.3-.4Z"/>
      <path id="_パス_949" data-name="パス 949" class="cls-3" d="M254.8,15.3c3.1.6,4.7,1.1,6.1,2.2,1.1.7,1.8,1.8,1.9,3.1,0,1-.6,1.8-1.4,1.8s-1-.3-1.6-1.3c-1.1-2.3-2.9-4.2-5.2-5.5v-.3ZM278,16.6c-2.8,5.5-6.7,10.4-11.5,14.3-1.9,1.6-3.9,3.1-6,4.4-.2.2-.5.3-.7.5-.4.4-1,.6-1.5.7-.8,0-1.7-.7-2.4-1.9-.5-.6-.7-1.3-.8-2.1,0-.3,0-.6.2-.9.6.9,1.5,1.4,2.6,1.6,1,0,2.8-.9,5.7-2.8,5.5-3.8,10.3-8.5,14.2-13.9l.4.2Z"/>
      <path id="_パス_950" data-name="パス 950" class="cls-3" d="M297.4,23.8c-2.4,1.4-5,2.5-7.6,3.3q0,1.8,0,2.5c0,1.1,0,2.2.3,3.3.4.8,1.4,1.1,3.8,1.1,2.1,0,4.3-.2,6.3-.9.3-.1.7-.2,1.1-.2.7,0,1.5.2,2.1.6.4.2.7.7.7,1.1,0,.8-.6,1.1-2.7,1.4-1.8.2-3.6.3-5.4.3-3.3,0-5.6-.4-6.7-1.2-1.2-.8-1.6-2.2-1.6-5.6s0-1.7,0-3.5c0-1.5,0-5,0-6.4,0-1,0-1.9-.3-2.8-.2-.7-.8-1.2-1.5-1.4.4-.5,1-.8,1.6-.8.9,0,1.8.4,2.6,1,.6.3.9.9.9,1.5,0,.3,0,.4-.3,1-.4.8-.6,2.6-.8,8.1,3-1.5,5.8-3.5,8.4-5.7.7-.7.9-1.1.9-1.5s-.2-.8-.8-1.3c.2-.1.5-.2.8-.2,1.4,0,3.6,1.7,3.6,2.8,0,.5-.3.9-.7,1,0,0-1.2.6-1.8.9l-2.7,1.4ZM310.3,13.7c0,2.2-1.8,4-4,4,0,0,0,0,0,0-2.2,0-4-1.8-3.9-4.1,0-2.2,1.8-3.9,3.9-3.9,2.2,0,4,1.8,4,4,0,0,0,0,0,0M303.5,13.7c0,1.6,1.3,2.8,2.8,2.8,1.6,0,2.8-1.3,2.8-2.8s-1.3-2.8-2.8-2.8c0,0,0,0,0,0-1.6,0-2.8,1.2-2.8,2.8,0,0,0,0,0,0"/>
    </g>
    <path id="_パス_951" data-name="パス 951" class="cls-1" d="M0,0h384v96H0V0Z"/>
  </g>
</svg>